<?xml version="1.0" standalone="no"?>
<!DOCTYPE svg PUBLIC "-//W3C//DTD SVG 1.1//EN" "http://www.w3.org/Graphics/SVG/1.1/DTD/svg11.dtd" >
<svg xmlns="http://www.w3.org/2000/svg" xmlns:xlink="http://www.w3.org/1999/xlink" version="1.1">
<metadata>
Created by FontForge 20161013 at Mon Sep  9 16:33:03 2013
 By ,,,
Copyright (c) 2013 by Christopher J. Lee. All rights reserved.
</metadata>
<defs>
<font id="CanterOutline" horiz-adv-x="328" >
  <font-face 
    font-family="Canter Outline"
    font-weight="300"
    font-stretch="normal"
    units-per-em="1000"
    panose-1="0 0 0 0 0 0 0 0 0 0"
    ascent="750"
    descent="-250"
    x-height="559"
    cap-height="700"
    bbox="-3 -160 505 812"
    underline-thickness="50"
    underline-position="-200"
    unicode-range="U+0020-20AC"
  />
<missing-glyph horiz-adv-x="31" 
 />
    <glyph glyph-name=".notdef" horiz-adv-x="31" 
 />
    <glyph glyph-name=".null" horiz-adv-x="0" 
 />
    <glyph glyph-name="nonmarkingreturn" horiz-adv-x="333" 
 />
    <glyph glyph-name="space" unicode=" " horiz-adv-x="152" 
 />
    <glyph glyph-name="exclam" unicode="!" horiz-adv-x="119" 
d="M81 686v-547h-25v547h25zM90 130v565h-43v-565h43zM94 700v-575h-52v575h52zM81 83v-69h-25v69h25zM90 5v87h-43v-87h43zM94 97v-97h-52v97h52z" />
    <glyph glyph-name="dollar" unicode="$" horiz-adv-x="256" 
d="M129 588h19v-36q34 -4 53 -32.5t19 -71.5v-66h-25v65q0 71 -47 79v-271q21 -12 32 -19.5t25.5 -20t21 -27t6.5 -32.5v-39q0 -46 -21.5 -76.5t-63.5 -31.5v-46h-19v48q-35 4 -56.5 33t-21.5 74v47h25v-47q0 -32 13.5 -55.5t39.5 -28.5v203q-39 26 -58 48t-20 52v110
q0 45 20 73.5t58 31.5v36zM76 338q1 -23 13.5 -38t39.5 -32v258q-53 -7 -53 -79v-109zM209 153q0 16 -9.5 30.5t-20 22t-31.5 20.5v-193q30 2 45.5 25.5t15.5 58.5v36zM201 153v-36q0 -63 -44 -73v165q15 -10 22.5 -16t14.5 -17t7 -23zM85 338v109q0 48 35 67v-229
q-13 9 -18.5 14t-11 15t-5.5 24zM157 598h-37v-38q-38 -5 -58 -35.5t-20 -77.5v-110q1 -54 78 -106v-183q-36 13 -36 70v57h-42v-57q0 -44 22.5 -75.5t55.5 -40.5v-49h37v47q42 5 63.5 37t21.5 80v39q0 36 -21.5 58.5t-63.5 46.5v252q30 -13 30 -66v-74h42v75q0 94 -72 112
v38zM116 602h45v-38q35 -8 54 -40t19 -76v-80h-52v79q0 44 -21 59v-242q42 -24 63.5 -47.5t21.5 -60.5v-39q0 -47 -21.5 -80.5t-62.5 -41.5v-47h-47v50q-36 8 -56.5 40t-20.5 80v62h51v-63q0 -43 27 -62v174q-39 26 -58 50t-20 58v110q0 102 78 117v38zM90 338q0 -26 26 -44
v212q-26 -15 -26 -59v-109zM196 153q0 23 -35 48v-150q35 14 35 66v36z" />
    <glyph glyph-name="ampersand" unicode="&#x26;" horiz-adv-x="308" 
d="M212 378l-2 23q23 16 56.5 6t45.5 2l2 -23q-14 -13 -40 -7v-251q0 -64 -32 -92.5t-77 -28.5t-74 30.5t-29 89.5v144q0 83 62 119q-71 26 -71 130v40q0 58 28 96t80 38q50 0 76.5 -36.5t26.5 -96.5v-48h-23v48q0 107 -80 107q-40 0 -61.5 -28.5t-21.5 -79.5v-39
q0 -51 21.5 -84t68.5 -33h3v-24h-3q-38 0 -59.5 -32.5t-21.5 -76.5v-143q0 -47 21.5 -71.5t56.5 -24.5q40 0 63 26t23 71v255q-26 5 -39 -6zM201 407l2 -47q22 16 39 15v-246q0 -40 -20.5 -64t-56.5 -24q-30 0 -49.5 22.5t-19.5 64.5v143q0 41 19.5 70t53.5 29h9v44h-10
q-81 0 -81 107v39q0 46 19 72t55 26q71 0 71 -97v-58h42v58q0 65 -29 104t-84 39q-57 0 -87 -41t-30 -103v-40q0 -97 60 -131q-51 -37 -51 -118v-144q0 -64 31.5 -97t80.5 -33q48 0 83.5 30.5t35.5 100.5v240q19 -3 39 13l-2 47q-26 -20 -53 -13q-18 4 -31 4q-20 0 -36 -12z
M200 351l-4 59q23 14 41 14q9 0 32 -5q27 -4 56 19l3 -59q-24 -18 -40 -17v-234q0 -72 -36.5 -104t-86.5 -32q-51 0 -84 34.5t-33 100.5v144q0 78 47 118q-57 34 -57 131v40q0 64 32.5 106t90.5 42q56 0 86.5 -40t30.5 -107v-62h-51v62q0 93 -66 93q-34 0 -51.5 -25
t-17.5 -69v-39q0 -103 76 -103h14v-52h-13q-32 0 -50 -28t-18 -67v-143q0 -40 18 -61t46 -21q34 0 53 22.5t19 60.5v241q-16 0 -37 -19z" />
    <glyph glyph-name="comma" unicode="," horiz-adv-x="72" 
d="M52 -40h-18v109h24v-57zM26 -49h33l7 60v66h-40v-126zM63 -54h-42v135h50v-70z" />
    <glyph glyph-name="hyphen" unicode="-" horiz-adv-x="188" 
d="M48 191v20h121v-20h-121zM40 217v-33h138v33h-138zM37 181v39h144v-39h-144z" />
    <glyph glyph-name="period" unicode="." horiz-adv-x="73" 
d="M56 13h-23v51h23v-51zM25 5h38v67h-38v-67zM67 0h-46v76h46v-76z" />
    <glyph glyph-name="slash" unicode="/" horiz-adv-x="223" 
d="M63 14h-24l147 672h23zM28 5h42l151 690h-42zM73 0h-51l154 700h51z" />
    <glyph glyph-name="zero" unicode="0" horiz-adv-x="329" 
d="M180 695q50 0 81 -38t31 -96v-420q0 -55 -30 -93.5t-82 -40.5q-50 0 -83 39t-33 94v0v0v0v0v0v0v0v0v0v0v0v0v0v0v0v1v0v0v0v0v0v1v0v0v0v1v0v0v1v0v0v1v0v0v1v0v0v1v0v0v1v0v1v0v1v0v1v0v1v0v1v0v1v0v1v0v1v0v1v0v1v0v1v0v1v0v1v0v1v0v1v0v1v1v0v1v0v1v1v0v1v1v0v1v1v0
v1v1v1v0v1v1v1v0v1v1v1v1v1v0v1v1v1v1v1v1v1v1v1v1v1v1v1v1v1v1v1v1v1v1v1v1v1v1v1v1v1v1v1v1v1v1v1v1v1v1v1v1v1v1v1v1v1v1v1v1v1v1v1v1v1v1v1v1v1v1v1v1v1v1v1v1v1v1v1v1v1v1v1v1v1v1v1v1v1v1v1v1v1v1v1v1v1v1v1v1v1v1v1v1v1v1v1v1v1v1v1v1v1v1v1v1v1v1v1v1v1v1v1v1v1v1v1
v1v1v1v1v1v1v1v1v1v1v1v1v1v1v1v1v1v1v1v1v1v1v1v1v1v1v1v1v1v1v1v1v1v1v1v1v1v1v1v1v1v1v1v1v1v1v1v1v1v1v1v1v1v1v1v1v1v1v1v1v1v1v1v1v1v1v1v1v1v1v1v1v1v1v1v1v1v1v1v1v1v1v1v1v1v1v1v1v1v1v1v1v1v1v1v1v1v1v1v1v1v1v1v1v1v1v1v1v1v1v1v1v1v1v1v1v1v1v1v1v1v1v1v1v1v1v1
v1v1v1v1v1v1v1v1v1v1v1v1v1v1v1v1v1v1v1v1v1v1v1v1v1v1v1v1v1v1v1v1v1v1v1v1v1v1v1v1v1v1v1v1v1v1v1v1v1v1v1v1v1v1v1v1v1v1v1v1v1v1v1v1v1v1v1v1v1v1v1v1v1v1v1v1v1v1v1v1v1v1v1v1v1v1v1v1v1v1v1v1v1v1v1v1v1v1v1v1v1v1v1v1v1v1v1v1v1v1v1v1v1v1v1v1v1v1v1v1v1v1v1v1v1v1v1
v1v10q0 59 32.5 96.5t83.5 37.5zM89 140q0 -58 35 -86l90 606q-15 9 -34 9q-41 0 -66 -29.5t-25 -77.5v-422zM268 141v420q0 59 -31 85l-91 -607q24 -6 34 -6q40 0 63 31t25 77zM259 561v-420q-2 -42 -22.5 -70.5t-56.5 -28.5q-11 0 -23 4q80 544 86 580q16 -24 16 -65z
M98 140v422q0 43 22.5 70t59.5 27q13 0 24 -4q-16 -109 -46 -305.5t-42 -275.5q-18 24 -18 66zM180 705q-55 0 -90 -40.5t-35 -103.5v-421q0 -59 36 -101t89 -42q56 2 88.5 43.5t32.5 100.5v420q0 63 -33.5 103.5t-87.5 40.5zM180 709q56 0 91 -41.5t35 -106.5v-420
q0 -62 -33.5 -104.5t-92.5 -44.5q-55 0 -92.5 43.5t-37.5 104.5v421q0 65 36.5 106.5t93.5 41.5zM103 562v-422q0 -37 11 -55q16 108 45.5 301t40.5 266q-9 3 -20 3q-35 0 -56 -25.5t-21 -67.5zM254 141v420q0 29 -9 50l-84 -561q9 -3 19 -3q34 0 53 27t21 67z" />
    <glyph glyph-name="one" unicode="1" horiz-adv-x="146" 
d="M36 686h70v-672h-25v647h-45v25zM115 695h-87v-44h44v-646h43v690zM24 700h96v-700h-53v646h-43v54z" />
    <glyph glyph-name="two" unicode="2" horiz-adv-x="295" 
d="M270 572v-108q0 -21 -16 -45.5t-30.5 -39.5t-46.5 -45t-47.5 -46t-31.5 -41.5t-17 -46.5v-160h189v-26h-214v186q1 27 18.5 55.5t35.5 47.5t50 49q85 77 86 112v107q0 51 -23 73.5t-57 22.5q-39 0 -60.5 -27.5t-21.5 -71.5v-39h-23v41q0 60 31.5 91t73.5 31
q41 0 72.5 -29.5t31.5 -90.5zM278 464v108q0 66 -34 97.5t-78 31.5q-46 0 -80 -33t-34 -98v-51h41v49q0 40 19 64.5t54 24.5q30 0 50.5 -20.5t20.5 -65.5v-107q-1 -31 -82 -104q-105 -94 -108 -160v-195h231v45h-188v150q1 19 16.5 43t30 38.5t45.5 44.5q32 30 48.5 47
t32 42.5t15.5 48.5zM283 572v-108q0 -24 -16 -50.5t-32 -43t-49 -47.5q-89 -81 -91 -124v-144h188v-55h-241v200q1 29 19 60.5t37.5 52t52.5 50.5q79 71 80 101v107q0 43 -18.5 62t-46.5 19q-33 0 -50.5 -23t-17.5 -61v-54h-51v56q0 67 35.5 101.5t83.5 34.5q46 0 81.5 -33
t35.5 -101z" />
    <glyph glyph-name="three" unicode="3" horiz-adv-x="304" 
d="M135 296v26h25q38 1 59.5 32t21.5 75v143q0 47 -21.5 71.5t-55.5 24.5q-40 0 -62.5 -26t-22.5 -71v-40h-23v41q0 64 32 92.5t76 28.5t73 -30.5t29 -89.5v-144q0 -82 -63 -119q71 -27 71 -131v-39q0 -58 -30 -96t-82 -38q-50 0 -82 37t-32 96v48h23v-48q0 -48 24.5 -77
t66.5 -29q41 0 64.5 29.5t23.5 77.5v39q0 51 -21.5 84t-68.5 33h-25zM126 331v-45h34q42 0 61.5 -30t19.5 -77v-39q0 -43 -21.5 -70.5t-57.5 -27.5q-38 0 -60 26.5t-22 70.5v58h-41v-58q0 -63 34.5 -103t88.5 -40q56 0 88.5 41t32.5 103v39q0 98 -60 132q52 39 52 118v144
q0 64 -31.5 97t-79.5 33t-82.5 -30.5t-34.5 -100.5v-51h41v50q0 40 20 63.5t56 23.5q30 0 49 -22t19 -64v-143q0 -40 -19 -68t-54 -30h-33zM121 281v55h38q32 2 50 28.5t18 64.5v143q0 40 -17.5 61t-45.5 21q-34 0 -53 -22.5t-19 -60.5v-55h-50v56q0 72 36 103.5t86 31.5
t83 -34t33 -100v-144q0 -43 -11.5 -69t-37.5 -48q57 -32 57 -133v-39q0 -63 -34 -106t-92 -43q-56 0 -92 41.5t-36 106.5v63h51v-63q0 -42 20.5 -67t56.5 -25q34 0 54 25.5t20 67.5v39q0 102 -76 102h-39z" />
    <glyph glyph-name="four" unicode="4" horiz-adv-x="301" 
d="M284 229v-24h-44v-191h-24v191h-174v24l105 482h26l-106 -482h149v435h24v-435h44zM293 196v42h-44v435h-42v-435h-129l107 482h-45l-107 -490v-34h174v-191h42v191h44zM298 243v-52h-44v-191h-51v191h-176v40l109 494h55l-107 -482h119v435h51v-435h44z" />
    <glyph glyph-name="five" unicode="5" horiz-adv-x="318" 
d="M181 351q51 0 81.5 -35.5t30.5 -98.5v-80q0 -56 -29.5 -93t-82.5 -37q-54 0 -85 37t-31 93v37h25v0v0v0v0v1v0v0v0v-1v0v0v-1v0v-1v0v-1v0v-1v-1v-1v-1v-1v-1v-1v-1v-1v-1v-1v-1v-1v-1v-1v-1v-1v-1v-1v-1v-1v-1v-1v-1v-1v-9q0 -46 24.5 -75t66.5 -29q43 0 65 28.5
t22 75.5v80q0 108 -87 108q-29 0 -56.5 -20.5t-34.5 -51.5h-25v432h212v-23h-187v-363q34 52 91 52zM181 361q-46 0 -82 -36v327h187v43h-229v-451h41q7 30 32 51t51 21q79 0 79 -99v-80q0 -42 -20.5 -68.5t-58.5 -26.5q-39 0 -60.5 26.5t-21.5 68.5v47h-42v-47
q0 -61 32.5 -100.5t91.5 -39.5q57 0 89 39.5t32 100.5v80q0 67 -33 105.5t-88 38.5zM181 366q57 0 91 -40t34 -109v-80q0 -62 -33 -103.5t-92 -41.5q-61 0 -95 41.5t-34 103.5v52h51v-52q0 -39 21 -64.5t57 -25.5q37 0 55.5 25t18.5 65v80q0 94 -74 94q-25 0 -49 -21
t-31 -51h-49v461h239v-52h-188v-314q35 32 78 32z" />
    <glyph glyph-name="six" unicode="6" horiz-adv-x="321" 
d="M180 349q51 0 81 -35t30 -98v-75q-2 -59 -31 -95.5t-82 -36.5t-83.5 37.5t-30.5 94.5v418q0 57 31.5 95t83.5 38t80.5 -36.5t28.5 -97.5v-24h-24v24q0 50 -22 79.5t-63 29.5t-65 -29t-26 -79v-265q15 26 40.5 40.5t51.5 14.5zM267 142v74q0 108 -87 108
q-42 0 -66.5 -30.5t-24.5 -76.5v0v0v-1v0v-1v-1v-1v-1v-1v-1v-1v-1v-1v-1v-1v-1v-1v-1v-1v-1v-1v-1v-1v-1v-1v-1v-1v-1v-1v-2v-1v-1v-1v-1v-1v-1v-1v-1v-1v-2v-1v-1v-1v-1v-1v-2v-1v-1v-1v-1v-2v-1v-1v-1v-1v-2v-1v-1v-1v-1v-1v-2v-1v-1v-9q0 -45 23.5 -75t65.5 -30t65.5 30
t23.5 76zM258 216v-74q0 -42 -21 -69.5t-59 -27.5t-59 27.5t-21 68.5v76q0 42 22 70t60 28q78 0 78 -99zM180 359q-47 0 -83 -39v239q2 46 23.5 72t58.5 26t56.5 -27t19.5 -72v-33h42v33q0 65 -31 104t-87 39t-90 -40t-34 -102v-418q0 -62 32.5 -102t90.5 -40t89 39t33 103
v75q0 68 -32.5 105.5t-87.5 37.5zM180 364q57 0 91 -38.5t34 -109.5v-75q-2 -64 -35 -105.5t-92 -41.5q-60 0 -94 41.5t-34 105.5v418q0 63 35.5 105t93.5 42q59 0 91 -40t32 -108v-38h-51v38q0 43 -18.5 69t-53.5 26t-55 -25t-22 -69v-227q34 32 78 32zM253 142v74
q0 94 -73 94q-36 0 -57 -26.5t-21 -66.5v-76q0 -39 20.5 -65t55.5 -26q36 0 55.5 26t19.5 66z" />
    <glyph glyph-name="seven" unicode="7" horiz-adv-x="270" 
d="M76 208v22h56l95 430h-186v26h210v-26l-95 -430h49v-22h-54l-42 -194h-25l42 194h-50zM67 240v-42h48l-43 -194h44l42 194h57v42h-47l92 418v37h-228v-45h183q-16 -73 -46 -208t-44 -202h-58zM62 194v50h59l89 402h-183v54h238v-43l-92 -413h46v-50h-57l-43 -194h-52
l42 194h-47z" />
    <glyph glyph-name="eight" unicode="8" horiz-adv-x="316" 
d="M284 467q-4 -101 -64 -137q64 -34 64 -119v-74q-2 -57 -31.5 -92.5t-80.5 -35.5t-83 35.5t-32 94.5v72q0 81 67 119q-32 18 -49.5 55.5t-17.5 81.5v75q0 65 29.5 108t84.5 43q54 0 83.5 -41t29.5 -111v-74zM260 211q0 47 -23.5 75t-64.5 30q-40 0 -65 -29t-25 -76v-72
q0 -47 24 -75.5t66 -28.5q41 0 64.5 28t23.5 76v72zM172 343q42 0 65 37.5t23 86.5v74q0 58 -22 92.5t-67 34.5q-42 0 -66.5 -34.5t-24.5 -91.5v-75q0 -47 24.5 -85.5t67.5 -38.5zM251 211v-72q0 -43 -21.5 -69t-57.5 -26q-38 0 -60 26t-22 69v72q0 43 23 69t59 26
q37 -2 58 -27t21 -68zM172 352q-39 0 -61 36t-22 79v75q0 53 22 84.5t60 31.5q40 0 60 -32t20 -85v-74q0 -45 -20.5 -80t-58.5 -35zM293 467v74q0 74 -31.5 117.5t-90.5 43.5t-91 -45.5t-32 -114.5v-75q0 -39 16 -77t43 -60q-59 -41 -59 -119v-72q0 -63 34.5 -101.5
t89.5 -38.5t87 38.5t34 99.5v74q0 76 -56 119q52 42 56 137zM297 466q-4 -91 -53 -136q53 -43 53 -119v-74q-2 -63 -35 -103t-90 -40t-93 40t-36 105v72q0 75 56 119q-26 24 -41 61t-15 76v75q0 71 33 118t95 47q61 0 93.5 -44.5t32.5 -121.5v-75zM172 357q36 0 55 33.5
t19 76.5v74q0 52 -18.5 82.5t-56.5 30.5q-36 0 -57 -31t-21 -81v-75q0 -41 21 -75.5t58 -34.5zM246 211q0 40 -20 64t-55 26q-34 -1 -55 -25.5t-21 -64.5v-72q0 -40 20.5 -65t56.5 -25q34 0 54 24t20 66v72z" />
    <glyph glyph-name="nine" unicode="9" horiz-adv-x="313" 
d="M278 532v-390q0 -58 -31.5 -95.5t-85.5 -37.5q-50 0 -80.5 39t-30.5 95v24h24v-24q0 -47 23 -77t64 -30q45 0 69 30t24 76v203q-10 -32 -34 -53.5t-55 -21.5q-42 0 -69.5 26.5t-37 61t-9.5 77.5v98q0 66 29 113.5t87 47.5q57 0 85 -46.5t28 -115.5zM252 436v96
q0 57 -20 96t-67 39q-46 0 -68.5 -39.5t-22.5 -94.5v-98q0 -33 6 -61t28 -52.5t57 -24.5q42 0 64.5 44t22.5 95zM244 532v-96q0 -47 -20.5 -88.5t-58.5 -41.5q-32 0 -51.5 23t-25 49.5t-5.5 56.5v98q0 50 20.5 87t61.5 37q42 0 60.5 -36.5t18.5 -88.5zM286 142v390
q0 73 -30 122t-91 49q-63 0 -94 -50t-31 -120v-98q0 -72 29.5 -123.5t95.5 -51.5q47 0 80 47v-165q0 -43 -22 -70t-62 -27q-37 0 -57.5 28t-20.5 70v34h-42v-34q0 -60 33 -102t87 -42q58 0 91.5 40t33.5 103zM291 532v-390q0 -65 -35 -106.5t-95 -41.5q-56 0 -90.5 43.5
t-34.5 105.5v38h51v-38q0 -40 20 -66.5t54 -26.5q38 0 59 25.5t21 66.5v152q-35 -39 -76 -39q-47 0 -77.5 28.5t-41 66.5t-10.5 85v98q0 72 32 123.5t97 51.5q64 0 95 -50t31 -126zM239 436v96q0 51 -17 86t-57 35q-39 0 -58 -35.5t-19 -84.5v-98q0 -48 17 -86t60 -38
q36 0 55 40t19 85z" />
    <glyph glyph-name="colon" unicode=":" horiz-adv-x="72" 
d="M56 13h-23v51h23v-51zM25 5h38v67h-38v-67zM67 0h-46v76h46v-76zM56 237h-23v51h23v-51zM25 229h38v67h-38v-67zM67 224h-46v76h46v-76z" />
    <glyph glyph-name="semicolon" unicode=";" horiz-adv-x="78" 
d="M56 237h-23v51h23v-51zM25 229h38v67h-38v-67zM67 224h-46v76h46v-76zM52 -42h-18v111h24v-58zM26 -51h33l7 61v67h-40v-128zM63 -56h-42v137h50v-71z" />
    <glyph glyph-name="question" unicode="?" horiz-adv-x="271" 
d="M149 135h-23v65q0 35 2.5 55.5t14.5 47.5t36 49q19 17 29 40.5t11 35t2 36.5v107q0 96 -73 96q-38 0 -57.5 -27t-19.5 -72v-39h-23v41q0 60 29.5 91t70.5 31q39 0 67.5 -29.5t28.5 -90.5v-108q0 -41 -9.5 -70t-41.5 -60q-10 -9 -17 -18t-11.5 -20.5t-7.5 -18t-4.5 -20
l-2 -18t-0.5 -21v-18.5zM149 14h-22v70h22v-70zM118 5h40v89h-40v-89zM118 126h41v74v14q0 25 1.5 39.5t11 35.5t27.5 37q24 23 36 48t14.5 42.5t3.5 47.5v108q0 66 -31 97.5t-74 31.5q-45 0 -77 -33t-32 -98v-51h41v49q0 41 17 65t51 24q64 0 64 -86v-107q-1 -35 -8 -57.5
t-30 -46.5q-36 -33 -46 -69t-10 -91v-74zM164 121h-51v79q0 55 10.5 92t46.5 71q37 35 37 101v107q0 81 -59 81q-64 0 -64 -84v-54h-49v56q0 68 33 102t80 34q45 0 77.5 -33t32.5 -101v-108q-1 -30 -3.5 -48.5t-15 -44.5t-36.5 -49q-18 -16 -27 -36t-10.5 -34t-1.5 -38v-14
v-79zM163 0h-50v99h50v-99z" />
    <glyph glyph-name="A" unicode="A" horiz-adv-x="299" 
d="M255 14l-27 185h-128l-26 -185h-25l96 672h35l100 -672h-25zM103 225h121l-61 421zM213 235h-100l50 345q9 -63 25 -170t25 -175zM221 190l25 -185h44l-102 690h-51l-99 -690h44l26 185h113zM241 0l-24 185h-105q-2 -13 -12 -82t-14 -103h-54l101 700h59l104 -700h-55z
M118 240h91q-8 59 -22 148t-24 160z" />
    <glyph glyph-name="B" unicode="B" horiz-adv-x="326" 
d="M288 160v-49q0 -48 -24 -72.5t-58 -24.5h-135v672h102q49 0 82.5 -35.5t33.5 -92.5l-1 -198q0 -70 -57 -111q21 -6 33 -20q24 -26 24 -69zM173 660h-77v-405h79q32 0 61 30t29 76v197q0 45 -25 73t-67 29zM265 111v49q0 31 -18 51q-19 19 -54 19h-97v-191h110
q24 0 38.5 14.5t17.5 28.5t3 29zM256 160v-49q0 -62 -50 -62h-102v172h89q31 0 48 -17q15 -15 15 -44zM104 650h69q39 -1 61 -26t22 -66v-197q0 -42 -26 -69t-55 -27h-71v385zM297 111v49q0 48 -26 76q-7 8 -21 16q47 49 47 108l1 198q0 63 -35.5 100t-89.5 37h-111v-690
h144q38 0 64.5 26.5t26.5 79.5zM302 160v-49q0 -55 -28.5 -83t-67.5 -28h-149v700h116q56 0 93 -37t37 -105l-1 -198q0 -60 -45 -107q1 0 17 -14q28 -30 28 -79zM173 645h-64v-376h66q27 0 51.5 26t24.5 66v197q0 39 -21 62.5t-57 24.5zM251 111v49q0 25 -13 40
q-16 16 -45 16h-84v-162h97q45 0 45 57z" />
    <glyph glyph-name="C" unicode="C" horiz-adv-x="326" 
d="M180 8q-53 0 -84.5 38.5t-31.5 96.5v0v0v0v0v0v0v0v0v0v0v0v0v0v0v0v1v0v0v0v0v0v1v0v0v0v1v0v0v0v1v0v0v1v0v0v1v0v1v0v0v1v0v1v0v1v0v1v0v1v0v1v0v1v0v1v0v1v0v1v0v1v0v1v0v1v0v1v0v1v0v1v1v0v1v0v1v1v0v1v1v0v1v1v0v1v1v1v0v1v1v1v0v1v1v1v1v1v1v0v1v1v1v1v1v1v1v1v1
v1v1v1v1v1v1v1v1v1v1v1v1v1v1v1v1v1v1v1v1v1v1v1v1v1v1v1v1v1v1v1v1v1v1v1v1v1v1v1v1v1v1v1v1v1v1v1v1v1v1v1v1v1v1v1v1v1v1v1v1v1v1v1v1v1v1v1v1v1v1v1v1v1v1v1v1v1v1v1v1v1v1v1v1v1v1v1v1v1v1v1v1v1v1v1v1v1v1v1v1v1v1v1v1v1v1v1v1v1v1v1v1v1v1v1v1v1v1v1v1v1v1v1v1v1v1v1
v1v1v1v1v1v1v1v1v1v1v1v1v1v1v1v1v1v1v1v1v1v1v1v1v1v1v1v1v1v1v1v1v1v1v1v1v1v1v1v1v1v1v1v1v1v1v1v1v1v1v1v1v1v1v1v1v1v1v1v1v1v1v1v1v1v1v1v1v1v1v1v1v1v1v1v1v1v1v1v1v1v1v1v1v1v1v1v1v1v1v1v1v1v1v1v1v1v1v1v1v1v1v1v1v1v1v1v1v1v1v1v1v1v1v1v1v1v1v1v1v1v1v1v1v1v1v1
v1v1v1v1v1v1v1v1v1v1v1v1v1v1v1v1v1v1v1v1v1v1v1v1v1v1v1v1v1v1v1v1v1v1v1v1v1v1v1v1v1v1v1v1v1v1v1v1v1v1v1v1v1v1v1v1v1v1v1v1v1v1v1v1v1v1v1v1v1v1v1v1v1v1v1v1v1v1v1v1v1v1v1v1v1v1v1v1v1v1v1v1v1v1v1v10q0 57 31.5 96.5t82.5 39.5t82.5 -39t31.5 -96v-54h-23l-1 53
q0 46 -23 78t-65 32q-41 0 -66 -29.5t-25 -80.5v-411q0 -45 24 -77t67 -32t65.5 31t22.5 77v49h24v-49q0 -54 -29 -94t-83 -40zM180 -2q58 0 89.5 42.5t31.5 101.5v59h-42v-59q0 -43 -20 -71t-59 -28t-60.5 29.5t-21.5 70.5v411q0 46 22.5 73t59.5 27t58 -29t21 -71l1 -63
h41v64q0 61 -34 102.5t-89 41.5t-89 -42t-34 -103v-411q0 -63 33.5 -104t91.5 -41zM180 -7q-59 0 -94.5 43t-35.5 107v411q0 63 35.5 106.5t92.5 43.5t92 -43t35 -106v-69h-50l-1 68q0 40 -19.5 68t-54.5 28t-56.5 -26t-21.5 -70v-411q0 -39 20.5 -67t57.5 -28q36 0 55 27
t19 67v63h52v-63q0 -60 -33 -104.5t-93 -44.5z" />
    <glyph glyph-name="D" unicode="D" horiz-adv-x="336" 
d="M299 557v-417q0 -36 -10.5 -62t-22.5 -38t-32.5 -18.5t-29.5 -7t-24 -0.5h-107v672h107q27 0 44.5 -3.5t36.5 -15.5t28.5 -39.5t9.5 -70.5zM275 140v417q-1 66 -24 85t-71 19h-82v-620h82q20 0 34 3t29.5 12t23.5 30.5t8 53.5zM266 557v-417q0 -29 -7.5 -48t-21.5 -27.5
t-26.5 -11t-30.5 -2.5h-73v600h73q21 0 34 -2.5t26 -11.5t19 -28.5t7 -51.5zM308 140v417q0 46 -10.5 75.5t-31 42t-39 16.5t-47.5 4h-116v-690h116q15 0 25 0.5t32 7.5t35 20t24.5 40.5t11.5 66.5zM313 557v-417q0 -34 -7 -59.5t-21 -40t-26.5 -23.5t-31 -12.5t-26.5 -4
t-21 -0.5h-121v700h121q29 0 49 -4t41 -17t32 -43.5t11 -78.5zM261 140v417q-1 57 -20.5 73t-60.5 16h-69v-590h69q17 0 29 2.5t25 10t20 25.5t7 46z" />
    <glyph glyph-name="E" unicode="E" horiz-adv-x="289" 
d="M269 662h-173v-439h137v-24h-137v-160h173v-25h-198v672h198v-24zM104 652h174v43h-216v-690h216v44h-174v141h138v43h-138v419zM282 647h-173v-409h137v-53h-137v-131h174v-54h-226v700h225v-53z" />
    <glyph glyph-name="F" unicode="F" horiz-adv-x="271" 
d="M257 662h-163v-440h139v-24h-139v-184h-24v672h187v-24zM103 652h163v44h-205v-691h42v183h139v44h-139v420zM270 647h-163v-411h139v-52h-139v-184h-51v700h214v-53z" />
    <glyph glyph-name="G" unicode="G" horiz-adv-x="316" 
d="M172 227h118v-86q0 -53 -30.5 -92.5t-81.5 -39.5q-50 0 -82 38t-32 95v412q0 57 30.5 96t81.5 39q50 0 82.5 -37.5t32.5 -96.5v-54h-23v54q0 47 -24.5 78t-66.5 31q-40 0 -64 -30.5t-24 -79.5v-412q0 -44 24 -75.5t65 -31.5q39 0 63.5 30.5t24.5 75.5v62h-94v24zM299 237
h-136v-43h94v-53q0 -41 -22 -69t-57 -28q-38 0 -59 29t-21 69v412q0 45 21.5 72.5t57.5 27.5q38 0 60 -28.5t22 -70.5v-64h41v64q0 63 -35 103t-89 40q-55 0 -88 -41t-33 -103v-412q0 -61 34.5 -102t88.5 -41t87.5 42.5t33.5 99.5v96zM158 242h146v-101q0 -59 -34.5 -103
t-91.5 -44q-56 0 -92 42.5t-36 105.5v412q0 63 34.5 106t91.5 43q56 0 92.5 -41.5t36.5 -106.5v-69h-51v69q0 41 -20.5 68t-56.5 27q-33 0 -53.5 -27t-20.5 -69v-412q0 -38 20 -65.5t55 -27.5q34 0 54 26.5t20 65.5v48h-94v53z" />
    <glyph glyph-name="H" unicode="H" horiz-adv-x="344" 
d="M276 686h24v-672h-24v178h-178v-178h-25v672h25v-469h178v469zM309 695h-42v-469h-160v469h-43v-690h43v177h160v-177h42v690zM262 700h52v-700h-52v177h-150v-177h-53v700h53v-469h150v469z" />
    <glyph glyph-name="I" unicode="I" horiz-adv-x="142" 
d="M98 686v-672h-25v672h25zM107 5v690h-43v-690h43zM112 700v-700h-53v700h53z" />
    <glyph glyph-name="J" unicode="J" horiz-adv-x="313" 
d="M164 8q-52 0 -84 38.5t-32 95.5v45h25v-45q0 -44 24 -76.5t67 -32.5q40 0 64 32t24 77l-1 544h25v-544q0 -55 -29.5 -94.5t-82.5 -39.5zM164 -2q57 0 89 42.5t32 101.5v553h-43v-553q0 -41 -21 -70.5t-57 -29.5q-39 0 -60.5 30t-21.5 70v55h-43v-55q0 -61 34.5 -102.5
t90.5 -41.5zM164 -7q-58 0 -94 43t-36 106v59h53v-59q0 -38 20 -66.5t57 -28.5q34 0 53.5 28t19.5 67v558h52v-558q0 -62 -32.5 -105.5t-92.5 -43.5z" />
    <glyph glyph-name="K" unicode="K" horiz-adv-x="322" 
d="M315 686l-176 -430l177 -242h-31l-159 216l-30 -62v-154h-25v672h25v-466l193 466h26zM149 258l180 437h-45q-33 -80 -95.5 -229t-83.5 -200v429h-43v-690h43v160q8 15 23 47l152 -207h54q-19 26 -57.5 78t-70.5 96t-57 79zM336 700l-182 -442q32 -44 99 -134.5
t91 -123.5h-66l-149 203l-19 -38v-165h-53v700h53v-411l170 411h56z" />
    <glyph glyph-name="L" unicode="L" horiz-adv-x="249" 
d="M93 39h137v-25h-161v672h24v-647zM238 49h-137v646h-41v-690h178v44zM106 54h137v-54h-188v700h51v-646z" />
    <glyph glyph-name="M" unicode="M" horiz-adv-x="411" 
d="M375 14h-26l-23 604l-89 -604h-39l-86 604l-22 -604h-26l26 673h36l92 -630l93 630h39zM340 5h44l-25 691h-56l-85 -575l-84 575h-53l-26 -691h44l18 509l73 -509h55l75 510zM389 0h-53l-18 464q-7 -48 -31.5 -210.5t-37.5 -253.5h-63l-66 459l-16 -459h-55l28 701h61
l80 -548l81 548h64z" />
    <glyph glyph-name="N" unicode="N" horiz-adv-x="356" 
d="M288 686h24v-672h-24l-190 590v-590h-25v672h25l190 -597v597zM321 695h-42v-548l-175 548h-40v-690h43v543l174 -543h40v690zM274 700h52v-700h-48l-166 517v-517h-53v700h49l166 -523v523z" />
    <glyph glyph-name="O" unicode="O" 
d="M179 8q-53 0 -84 37.5t-31 94.5v419q0 56 30.5 94.5t84.5 38.5q51 0 81.5 -38.5t30.5 -94.5v-418q0 -55 -29.5 -94t-82.5 -39zM179 667q-44 0 -67 -30t-23 -78v-419q0 -46 23 -76t67 -30q42 0 65 30.5t23 76.5v418q0 44 -22.5 76t-65.5 32zM179 658q38 0 58.5 -29.5
t20.5 -69.5v-418q0 -43 -20.5 -70.5t-58.5 -27.5q-39 0 -60 27.5t-21 69.5v419q0 43 21 71t60 28zM179 -2q58 0 89.5 42t31.5 101v418q0 59 -33 100.5t-88 41.5q-59 0 -91.5 -41.5t-32.5 -100.5v-419q0 -61 33.5 -101.5t90.5 -40.5zM179 -7q-58 0 -93.5 42t-35.5 105v419
q0 61 34 104t95 43q57 0 91.5 -42.5t34.5 -104.5v-418q0 -61 -33 -104.5t-93 -43.5zM179 653q-38 0 -57 -26t-19 -68v-419q0 -40 19 -66.5t57 -26.5q36 0 55 26.5t19 67.5v418q0 39 -18.5 66.5t-55.5 27.5z" />
    <glyph glyph-name="P" unicode="P" horiz-adv-x="329" 
d="M298 558v-226q0 -52 -30.5 -91.5t-83.5 -39.5h-88v-187h-25v672h113q46 0 80 -31.5t34 -96.5zM274 332v226q0 48 -23.5 75.5t-66.5 27.5h-88v-435h88q36 0 63 29t27 77zM265 558v-226q0 -44 -24 -70t-57 -26h-79v415h79q38 0 59.5 -24.5t21.5 -68.5zM307 332v226
q0 70 -36.5 103.5t-86.5 33.5h-122v-690h43v187h79q56 0 89.5 42t33.5 98zM313 558v-226q0 -58 -35 -101.5t-94 -43.5h-74v-187h-53v700h127q51 0 90 -35t39 -107zM260 332v226q0 42 -19.5 65t-56.5 23h-74v-405h74q31 0 53.5 24.5t22.5 66.5z" />
    <glyph glyph-name="Q" unicode="Q" 
d="M167 -54v63q-48 4 -75.5 41t-27.5 91v420q0 56 30.5 94.5t84.5 38.5q52 0 82 -38.5t30 -95.5v-418q0 -52 -26 -90.5t-73 -42.5v-63h-25zM179 669q-44 0 -67 -30t-23 -78v-420q0 -46 23 -76.5t67 -30.5q42 0 65 30.5t23 77.5v418q0 45 -22.5 77t-65.5 32zM179 660
q39 0 59 -29.5t20 -70.5v-418q0 -43 -20.5 -71t-58.5 -28q-39 0 -60 28t-21 70v420q0 43 21 71t60 28zM158 0v-64h42v64q49 7 74.5 47t25.5 95v418q0 60 -33 102t-88 42q-58 0 -91 -42t-33 -101v-420q0 -57 27 -95.5t76 -45.5zM153 -68v63q-48 10 -75.5 50t-27.5 96v420
q0 62 34 105t95 43q57 0 91 -43t34 -106v-418q0 -54 -26 -95.5t-73 -50.5v-64h-52zM179 655q-38 0 -57.5 -26.5t-19.5 -67.5v-420q0 -40 19.5 -66.5t57.5 -26.5q36 0 55 26.5t19 67.5v418q0 40 -18.5 67.5t-55.5 27.5z" />
    <glyph glyph-name="R" unicode="R" horiz-adv-x="325" 
d="M292 126v-112h-25v112q0 32 -18.5 51t-50.5 19h-102v-182h-25v672h104q46 0 79.5 -32t33.5 -98v-231q0 -71 -59 -110q29 -8 46 -32.5t17 -56.5zM96 661v-440h79q32 0 60.5 28.5t28.5 75.5v231q0 48 -24 76.5t-65 28.5h-79zM105 230v421h70q36 0 58 -25.5t22 -69.5v-231
q0 -43 -25.5 -69t-54.5 -26h-70zM301 5v121q0 67 -52 92q48 40 48 107v231q0 70 -36.5 104.5t-85.5 34.5h-113v-690h43v181h93q28 0 44 -16.5t16 -43.5v-121h43zM306 126v-126h-53v126q0 25 -14.5 40t-40.5 15h-88v-181h-53v700h118q51 0 89 -35.5t38 -108.5v-231
q0 -67 -45 -106q49 -28 49 -93zM109 646v-411h66q28 0 52 25t24 65v231q0 42 -20.5 66t-55.5 24h-66z" />
    <glyph glyph-name="S" unicode="S" horiz-adv-x="321" 
d="M177 7q-52 0 -84 37t-31 98v58h24v-58q-2 -46 22.5 -78t68.5 -32q43 0 66 30t23 78v47q0 14 -4.5 26t-9.5 19.5t-18.5 18t-19 14.5t-25 15.5t-24.5 14.5q-48 28 -75 56.5t-28 68.5v139q0 58 27.5 95t79.5 37q49 0 76.5 -36.5t27.5 -93.5v-79h-24v78q0 47 -19.5 76
t-60.5 29q-37 0 -59.5 -27t-22.5 -79v-137q1 -25 15 -45.5t28 -30.5t43 -27q4 -2 20.5 -12.5t21.5 -13.5t19 -12.5t19 -15t14 -15t12.5 -18t7 -19t3.5 -22.5v-51q0 -58 -29 -95.5t-84 -37.5zM177 -3q60 0 91 40.5t31 102.5v51q0 22 -8 41t-27 35.5t-32 25.5t-40 26l-15 8
q-37 22 -58 43.5t-23 52.5v136q0 47 20 71.5t53 24.5q36 0 53.5 -26.5t17.5 -68.5v-88h42v89q0 62 -30 101t-83 39q-56 0 -86 -39.5t-30 -102.5v-139q1 -44 29 -74t78 -60l19 -12q20 -11 30 -17.5t23.5 -18t19 -24t5.5 -27.5v-47q0 -44 -21 -71.5t-59 -27.5q-40 0 -62 29.5
t-20 71.5v67h-42v-67q-1 -65 34 -105t90 -40zM177 -8q-57 0 -93 41.5t-36 108.5v72h52v-72q-2 -40 19 -68t58 -28t56 26t19 68v47q0 27 -18.5 45t-56.5 39l-18 11q-50 30 -80 62t-31 76v139q0 65 31.5 106t89.5 41q56 0 87 -40.5t31 -104.5v-94h-52v93q0 91 -66 91
q-31 0 -50 -23.5t-19 -68.5v-136q1 -22 14.5 -40t25 -26.5t39.5 -25.5l15 -9h-1q27 -16 41.5 -25.5t33.5 -26.5t27.5 -36t8.5 -43v-51q0 -64 -32.5 -106t-94.5 -42z" />
    <glyph glyph-name="T" unicode="T" horiz-adv-x="251" 
d="M238 686v-24h-88v-648h-24v648h-89v24h201zM247 652v43h-218v-43h88v-647h41v647h89zM251 700v-53h-88v-647h-51v647h-88v53h227z" />
    <glyph glyph-name="U" unicode="U" horiz-adv-x="339" 
d="M296 686v-545q0 -55 -29.5 -94.5t-83.5 -39.5q-52 0 -83 38.5t-31 96.5v544h25v-544q0 -45 22.5 -77.5t66.5 -32.5q46 0 67.5 30.5t21.5 78.5v545h24zM306 141v555h-43v-555q0 -100 -80 -100q-40 0 -60 30t-20 71v554h-43v-554q0 -62 33.5 -103.5t89.5 -41.5
q59 0 91 42.5t32 101.5zM310 700v-559q0 -61 -33.5 -105t-93.5 -44q-58 0 -92.5 43t-34.5 107v558h51v-558q0 -39 19.5 -67.5t56.5 -28.5q39 0 57.5 26.5t18.5 68.5v559h51z" />
    <glyph glyph-name="V" unicode="V" horiz-adv-x="305" 
d="M165 58l91 629h25l-98 -673h-37l-96 673h25zM248 696l-83 -574l-82 574h-43l98 -691h53l101 691h-44zM165 153l79 548h54l-103 -701h-61l-100 701h53z" />
    <glyph glyph-name="W" unicode="W" horiz-adv-x="512" 
d="M464 687h25l-91 -673h-39l-89 609l-90 -609h-38l-91 673h27l83 -629l96 629h25l96 -629zM500 696h-45q-9 -71 -78 -572l-86 572h-42q-16 -103 -45.5 -296t-41.5 -274l-76 570h-46l93 -691h57l80 553l80 -553h56zM451 701h54l-95 -701h-64l-76 526l-76 -526h-65l-94 701
h55l72 -542l83 542h50l82 -544q13 94 74 544z" />
    <glyph glyph-name="X" unicode="X" horiz-adv-x="296" 
d="M285 687l-114 -424l76 -249h-25l-65 217l-69 -217h-26l82 249l-110 424h26l97 -387l103 387h25zM181 263l117 433h-45l-96 -359l-90 359h-45q16 -64 55 -211.5t58 -222.5l-84 -257h43q29 92 63 195l58 -195h45zM304 701l-118 -438l80 -263h-54l-55 187l-59 -187h-55
l87 262l-114 439h55l86 -349l93 349h54z" />
    <glyph glyph-name="Y" unicode="Y" horiz-adv-x="321" 
d="M283 687h27l-123 -508v-165h-25v165l-121 508h25l108 -452zM321 696h-45l-102 -422l-100 422h-45q12 -52 124 -519v-172h43v172zM272 701h55l-126 -526v-175h-53v175q-86 361 -125 526h55l96 -406z" />
    <glyph glyph-name="Z" unicode="Z" horiz-adv-x="270" 
d="M256 686v-26l-194 -619h191v-27h-216v28l195 619h-175v25h199zM265 660v35h-217v-44h172l-192 -609v-37h234v46h-189zM269 700v-42l-189 -602h187v-56h-244v44l190 602h-169v54h225z" />
    <glyph glyph-name="backslash" unicode="\" horiz-adv-x="223" 
d="M177 0l-153 700h52l152 -700h-51zM30 695l151 -690h41l-150 690h-42zM188 14l-147 672h24l146 -672h-23z" />
    <glyph glyph-name="grave" unicode="`" horiz-adv-x="94" 
d="M59 648l-25 42h20l21 -42h-16zM21 697l33 -56h32l-27 56h-38zM52 638l-37 62h46l30 -62h-39z" />
    <glyph glyph-name="a" unicode="a" horiz-adv-x="247" 
d="M204 14l-20 144h-94l-21 -144h-24l75 531h32l77 -531h-25zM91 180h90l-45 319zM170 190h-68l34 246zM176 149l20 -144h43l-79 550h-48l-78 -550h42q4 24 11 74t10 70h79zM192 0l-19 145h-72l-21 -145h-51l80 559h54l81 -559h-52zM107 194h58q-17 119 -29 209z" />
    <glyph glyph-name="b" unicode="b" horiz-adv-x="267" 
d="M234 132v-39q0 -39 -19.5 -59t-45.5 -20h-107v531h81q41 0 66.5 -26t25.5 -76l-1 -155q0 -26 -13 -51t-37 -36q23 -2 36.5 -22t13.5 -47zM143 519h-57v-310h59q24 0 45.5 22.5t21.5 57.5v154q0 76 -69 76zM212 93v39q0 24 -15.5 37.5t-37.5 13.5h-73v-143h83
q24 0 33.5 17.5t9.5 35.5zM203 132v-39q0 -44 -34 -44h-74v125h64q19 0 31.5 -11t12.5 -31zM95 510h48q60 0 60 -67v-154q0 -31 -18.5 -51t-39.5 -20h-50v292zM243 93v39q0 23 -10 43t-27 29q37 34 37 84l1 155q0 55 -28 83t-73 28h-90v-549h116q30 0 52 22t22 66zM247 132
v-39q0 -46 -23.5 -69.5t-54.5 -23.5h-120v559h94q47 0 76 -29.5t29 -86.5l-1 -155q0 -50 -34 -83q34 -23 34 -73zM143 505h-43v-282h45q19 0 36.5 18.5t17.5 47.5v154q0 62 -56 62zM199 93v39q0 17 -11.5 27t-28.5 10h-59v-115h69q30 0 30 39z" />
    <glyph glyph-name="c" unicode="c" horiz-adv-x="267" 
d="M149 9q-43 0 -68 31t-25 78v322q0 46 25.5 77t65.5 31q41 0 65.5 -30.5t24.5 -77.5v-45h-22v45q0 35 -17.5 59t-48.5 24q-30 0 -49 -22.5t-19 -60.5v-322q0 -34 18 -58.5t50 -24.5t48.5 23.5t16.5 58.5v41h24v-41q0 -44 -23 -76t-66 -32zM149 -1q47 0 72.5 35t25.5 83v50
h-42v-50q0 -31 -14.5 -51.5t-41.5 -20.5q-28 0 -43.5 21.5t-15.5 51.5v322q0 33 16.5 53.5t42.5 20.5q27 0 42 -21.5t15 -52.5v-54h40v54q0 51 -27 84.5t-72 33.5q-44 0 -71.5 -34t-27.5 -84v-322q0 -52 27 -85.5t74 -33.5zM149 -5q-48 0 -77 35t-29 88v322q0 51 29 86.5
t75 35.5q47 0 75 -34t28 -88v-58h-48v58q0 28 -14 49t-39 21q-24 0 -39.5 -19t-15.5 -51v-322q0 -28 14.5 -48.5t40.5 -20.5t39 19.5t13 48.5v54h50v-54q0 -50 -26.5 -86t-75.5 -36z" />
    <glyph glyph-name="d" unicode="d" horiz-adv-x="275" 
d="M243 442v-326q0 -36 -10.5 -59t-29.5 -31t-29 -10t-25 -2h-86v531h86q21 0 35 -3t29 -12.5t22.5 -31.5t7.5 -56zM219 116v326q-1 50 -17.5 64t-52.5 14h-61v-479h61q15 0 25.5 2t21.5 9t17 23t6 41zM211 442v-326q0 -40 -17 -53t-45 -13h-53v461h53q16 0 25 -2t18 -8
t13.5 -20.5t5.5 -38.5zM252 116v326q0 38 -8 61.5t-25 34t-32 13.5t-38 3h-94v-549h94q13 0 20.5 0.5t25.5 6t28.5 16t19.5 33.5t9 55zM257 442v-326q0 -33 -9.5 -57t-20.5 -35t-29.5 -17t-27 -6.5t-21.5 -0.5h-99v559h99q24 0 40 -3.5t33.5 -14t26 -35.5t8.5 -64zM206 116
v326q-1 41 -14.5 52.5t-42.5 11.5h-48v-451h48q26 0 41.5 12t15.5 49z" />
    <glyph glyph-name="e" unicode="e" horiz-adv-x="238" 
d="M220 521h-134v-338h106v-25h-106v-118h134v-26h-158v531h158v-24zM94 512h134v42h-175v-549h175v44h-134v100h107v44h-107v319zM233 507h-134v-310h106v-53h-106v-90h134v-54h-185v559h185v-52z" />
    <glyph glyph-name="f" unicode="f" horiz-adv-x="223" 
d="M210 521h-125v-338h106v-25h-106v-144h-25v531h150v-24zM94 512h124v42h-166v-549h42v143h106v45h-106v319zM223 507h-125v-310h106v-53h-106v-144h-50v559h175v-52z" />
    <glyph glyph-name="g" unicode="g" horiz-adv-x="259" 
d="M140 187h96v-70q0 -44 -24.5 -76t-64.5 -32t-65.5 31t-25.5 77v326q0 46 24 76.5t66 30.5q40 0 65.5 -30t25.5 -77v-45h-23v45q0 35 -18 59t-50 24q-29 0 -47 -23.5t-18 -59.5v-326q0 -33 17.5 -57t48.5 -24q29 0 47.5 23.5t18.5 57.5v45h-73v25zM245 197h-114v-44h73
v-36q0 -30 -15.5 -50.5t-41.5 -20.5t-42 21t-16 50v326q0 32 16 53t41 21q28 0 43.5 -21t15.5 -53v-54h41v54q0 52 -28 84.5t-72 32.5q-45 0 -71.5 -33.5t-26.5 -83.5v-326q0 -51 27.5 -84t71.5 -33t71 35t27 82v80zM127 201h122v-84q0 -50 -28 -86t-74 -36t-75 35t-29 87
v326q0 52 28 86.5t75 34.5q46 0 75 -33.5t29 -87.5v-59h-50v59q0 30 -14.5 49.5t-39.5 19.5q-23 0 -37.5 -19.5t-14.5 -49.5v-326q0 -27 14.5 -47t38.5 -20q23 0 38 19.5t15 47.5v31h-73v53z" />
    <glyph glyph-name="h" unicode="h" horiz-adv-x="281" 
d="M220 545h24v-531h-24v139h-132v-139h-25v531h25v-367h132v367zM253 554h-42v-366h-115v366h-41v-549h41v138h115v-138h42v549zM207 559h50v-559h-50v139h-106v-139h-51v559h51v-366h106v366z" />
    <glyph glyph-name="i" unicode="i" horiz-adv-x="125" 
d="M88 545v-531h-25v531h25zM96 5v549h-41v-549h41zM101 559v-559h-51v559h51z" />
    <glyph glyph-name="j" unicode="j" horiz-adv-x="257" 
d="M136 9q-41 0 -66.5 31t-25.5 77v38h25v-38q0 -34 17.5 -58.5t49.5 -24.5q31 0 48 24.5t17 58.5v428h24v-428q0 -45 -23 -76.5t-66 -31.5zM136 -1q47 0 72.5 34.5t25.5 83.5v438h-41v-438q0 -30 -15.5 -51.5t-41.5 -21.5q-28 0 -43.5 22t-15.5 51v47h-42v-47q0 -50 28 -84
t73 -34zM136 -6q-47 0 -76 35.5t-29 87.5v52h51v-52q0 -28 14.5 -48.5t39.5 -20.5q24 0 38 20.5t14 48.5v442h50v-442q0 -51 -26.5 -87t-75.5 -36z" />
    <glyph glyph-name="k" unicode="k" horiz-adv-x="265" 
d="M259 545l-139 -338l139 -193h-30l-120 167l-21 -45v-122h-25v531h25v-354l145 354h26zM130 208l142 346h-44l-132 -320v320h-42v-549h42v129l14 29l115 -158h52zM279 559l-144 -350q131 -180 152 -209h-64l-112 155l-10 -22v-133h-51v559h51v-302l123 302h55z" />
    <glyph glyph-name="l" unicode="l" horiz-adv-x="206" 
d="M84 39h104v-25h-128v531h24v-506zM196 48h-104v506h-40v-549h144v43zM96 53h105v-53h-153v559h48v-506z" />
    <glyph glyph-name="m" unicode="m" horiz-adv-x="335" 
d="M179 47h1q0 4 4.5 44t7.5 62l57 393h35l19 -532h-24l-13 319l-1 164h-2l-20 -166l-48 -312h-31l-48 312l-20 166h-2l-1 -164l-13 -319h-24l19 532h35l57 -393q4 -36 12 -106zM179 127l-3 27l-58 401h-52l-19 -550h42l13 328v39l5 -43l49 -320h47l49 320l4 39l1 -35
l13 -328h42l-19 550h-52l-58 -400q-4 -20 -4 -28zM62 560h60l57 -400l58 400h60l20 -560h-52l-11 310l-47 -305h-55l-46 306l-13 -311h-51z" />
    <glyph glyph-name="n" unicode="n" horiz-adv-x="291" 
d="M235 62h1q-5 38 -6 76v407h24v-531h-23l-131 410q-6 17 -17 68h-1q4 -29 6 -69v-409h-24v531h23l129 -407zM93 554h-38v-549h42v397l127 -397h39v549h-42v-406zM50 559h47l119 -382v382h51v-559h-46l-120 375v-375h-51v559z" />
    <glyph glyph-name="o" unicode="o" horiz-adv-x="269" 
d="M148 9q-42 0 -67 30.5t-25 76.5v328q0 44 24.5 75t67.5 31q41 0 65 -30.5t24 -75.5v-327q0 -45 -23.5 -76.5t-65.5 -31.5zM148 525q-32 0 -49.5 -23t-17.5 -58v-328q0 -34 17.5 -57.5t49.5 -23.5t48.5 23t16.5 59v327q0 33 -16.5 57t-48.5 24zM148 516q27 0 41.5 -21.5
t14.5 -50.5v-327q0 -32 -14.5 -52t-41.5 -20q-28 0 -43.5 20.5t-15.5 50.5v328q0 31 15.5 51.5t43.5 20.5zM148 -1q47 0 72.5 34.5t25.5 83.5v327q0 48 -27 82t-71 34q-47 0 -73.5 -34t-26.5 -82v-328q0 -51 27 -84t73 -33zM148 -6q-48 0 -76.5 34.5t-28.5 87.5v328
q0 50 28 85t77 35q46 0 74 -34.5t28 -85.5v-327q0 -51 -27 -87t-75 -36zM148 511q-27 0 -40.5 -19t-13.5 -48v-328q0 -28 14 -47.5t40 -19.5t39 19t13 49v327q0 27 -13.5 47t-38.5 20z" />
    <glyph glyph-name="p" unicode="p" horiz-adv-x="270" 
d="M242 443v-177q0 -43 -24.5 -74.5t-65.5 -31.5h-65v-146h-25v531h90q36 0 63 -25t27 -77zM219 266v177q0 36 -18 56.5t-49 20.5h-65v-334h65q27 0 47 21.5t20 58.5zM210 443v-177q0 -32 -17 -51t-41 -19h-56v315h56q28 0 43 -18t15 -50zM251 266v177q0 57 -29.5 84
t-69.5 27h-99v-549h43v146h56q45 0 72 34t27 81zM256 443v-177q0 -49 -28 -84.5t-76 -35.5h-51v-146h-53v559h104q42 0 73 -28.5t31 -87.5zM206 266v177q0 29 -14.5 46t-39.5 17h-51v-306h51q22 0 38 18t16 48z" />
    <glyph glyph-name="q" unicode="q" horiz-adv-x="269" 
d="M137 -52v62q-37 4 -59 33.5t-22 72.5v330q0 45 24.5 76t67.5 31q41 0 65 -31t24 -76v-329q0 -41 -20 -72t-57 -35v-62h-23zM148 528q-32 0 -49.5 -23t-17.5 -59v-330q0 -34 17.5 -57.5t49.5 -23.5t48.5 23.5t16.5 58.5v329q0 33 -16.5 57.5t-48.5 24.5zM148 518
q27 0 41.5 -21.5t14.5 -50.5v-329q0 -32 -14.5 -52t-41.5 -20q-28 0 -43.5 20.5t-15.5 50.5v330q0 31 15.5 51.5t43.5 20.5zM128 1v-62h41v63q37 7 57 39.5t20 75.5v329q0 49 -27 82.5t-71 33.5q-47 0 -73.5 -33.5t-26.5 -82.5v-330q0 -44 21.5 -76t58.5 -39zM124 -66v63
q-38 9 -59.5 41t-21.5 78v330q0 51 28 86t77 35q47 0 74.5 -35t27.5 -86v-329q0 -44 -20 -77t-57 -42v-64h-49zM148 514q-26 0 -40 -19t-14 -49v-330q0 -28 14 -47t40 -19t39 18.5t13 48.5v329q0 27 -13.5 47.5t-38.5 20.5z" />
    <glyph glyph-name="r" unicode="r" horiz-adv-x="267" 
d="M238 104v-90h-25v90q0 24 -13 38t-37 14h-76v-142h-26v531h84q36 0 63 -25.5t27 -78.5v-181q0 -26 -12 -51t-36 -35q51 -13 51 -70zM87 520v-340h58q24 0 45 22.5t21 57.5v181q0 37 -18 58t-48 21h-58zM95 190v321h50q26 0 42 -19t16 -51v-181q0 -31 -18.5 -50.5
t-39.5 -19.5h-50zM247 5v99q0 50 -39 73q35 28 35 83v181q0 57 -29 85t-69 28h-92v-549h42v141h68q19 0 30 -11.5t11 -30.5v-99h43zM251 104v-104h-51v104q0 37 -37 37h-63v-141h-52v559h97q42 0 72.5 -29t30.5 -89v-181q0 -51 -32 -83q35 -26 35 -73zM100 506v-311h45
q19 0 36 18t17 47v181q0 30 -14.5 47.5t-38.5 17.5h-45z" />
    <glyph glyph-name="s" unicode="s" horiz-adv-x="263" 
d="M146 9q-40 0 -66 29.5t-25 78.5v47h24v-47q-2 -35 16 -59.5t51 -24.5t50 23t17 60v36q0 17 -10.5 31.5t-20 21t-32.5 20.5q-48 30 -71.5 53.5t-23.5 55.5v110q0 46 22 75.5t63 29.5q39 0 61 -28.5t22 -74.5v-66h-24v65q0 78 -59 78q-27 0 -43.5 -20t-16.5 -59v-108
q1 -14 5.5 -25t17.5 -22.5t21 -16.5t30 -19q28 -17 41.5 -27t27 -29.5t13.5 -41.5v-39q0 -47 -23 -77t-67 -30zM146 -1q49 0 74 33t25 84v39q0 25 -14.5 46t-28.5 31.5t-44 28.5q-28 19 -38 26.5t-20.5 20.5t-10.5 28v108q0 34 14 52t37 18q50 0 50 -69v-75h42v76
q0 50 -24.5 81.5t-67.5 31.5q-46 0 -70 -32t-24 -83v-110q1 -36 25 -60.5t75 -56.5q17 -11 22.5 -14.5t16.5 -13t15 -18t4 -19.5v-36q0 -32 -15 -52.5t-43 -20.5q-29 0 -44.5 21.5t-13.5 52.5v57h-42v-57q-1 -53 27.5 -85.5t72.5 -32.5zM146 -6q-46 0 -75.5 34t-29.5 89v62
h51v-63q-2 -28 12.5 -48.5t41.5 -20.5q26 0 40 19t14 50v36q0 29 -56 61q-52 31 -77 57t-26 64v110q0 53 25.5 86t73.5 33q45 0 70.5 -32.5t25.5 -84.5v-80h-50v79q0 64 -46 64t-46 -65v-108q1 -14 10.5 -26.5t19 -19.5t36.5 -25q31 -19 45.5 -29.5t29.5 -32.5t15 -48v-39
q0 -53 -27 -87.5t-77 -34.5z" />
    <glyph glyph-name="t" unicode="t" horiz-adv-x="208" 
d="M195 545v-24h-68v-507h-22v507h-68v24h158zM203 512v42h-175v-42h68v-507h40v507h67zM208 559v-52h-68v-507h-48v507h-68v52h184z" />
    <glyph glyph-name="u" unicode="u" horiz-adv-x="278" 
d="M241 545v-428q0 -45 -23.5 -76.5t-66.5 -31.5q-41 0 -65.5 30.5t-24.5 77.5v428h24v-428q0 -34 16.5 -59t49.5 -25q66 0 66 84v428h24zM250 117v438h-42v-438q0 -74 -57 -74q-29 0 -43 22t-14 52v438h-42v-438q0 -52 27 -85t72 -33q48 0 73.5 34.5t25.5 83.5zM255 559
v-442q0 -51 -27.5 -87t-76.5 -36q-47 0 -75 35t-28 88v442h50v-442q0 -28 13.5 -49t39.5 -21q53 0 53 70v442h51z" />
    <glyph glyph-name="v" unicode="v" horiz-adv-x="251" 
d="M136 47h2l21 173l46 326h24l-76 -532h-33l-73 532h23l46 -326zM125 221l-47 334h-42l76 -550h49l79 550h-43l-47 -334l-13 -107zM82 560l47 -338l8 -70l9 70l48 338h51l-80 -560h-56l-78 560h51z" />
    <glyph glyph-name="w" unicode="w" horiz-adv-x="417" 
d="M136 52h2l9 84l60 405h28l60 -404l9 -86h2l9 87l54 408h26l-72 -532h-35l-67 460l-67 -460h-36l-70 532h26l54 -410zM137 137l-55 418h-44l72 -550h53l58 406l58 -406h52l75 550h-45l-56 -416q0 -1 -1 -2v-1v2l-61 413h-44l-61 -414l-1 -5v5zM32 560h54l52 -393l57 388
h52l57 -387l53 392h54l-76 -560h-59l-55 379l-55 -379h-60z" />
    <glyph glyph-name="x" unicode="x" horiz-adv-x="244" 
d="M234 546l-90 -334q48 -154 60 -198h-23l-27 86l-23 84q-20 -72 -24 -84q-6 -17 -15 -46t-12 -40h-26l65 198l-86 334h25l48 -195l25 -110q5 17 14 56t13 55q8 33 25 97t26 97h25zM153 210l94 345h-45q-45 -169 -53 -200l-17 -74l-17 72l-50 202h-44q14 -56 44.5 -172
t44.5 -172l-68 -206h45l44 143l43 -143h43zM252 560l-94 -350l66 -210h-53l-40 134q-1 -2 -4.5 -15t-12.5 -42.5t-24 -76.5h-54l69 212q-43 169 -89 348h52l52 -206l11 -53l13 55q23 84 55 204h53z" />
    <glyph glyph-name="y" unicode="y" horiz-adv-x="264" 
d="M228 546h26l-96 -401v-131h-26v131q-13 58 -29 126t-35.5 150.5t-29.5 124.5h24l83 -359zM265 555h-44l-76 -324l-75 324h-44l97 -412v-138h44v138zM217 560h55l-100 -419v-141h-54v141q-7 31 -16.5 72t-33.5 141t-49 206h55l71 -306z" />
    <glyph glyph-name="z" unicode="z" horiz-adv-x="223" 
d="M210 545v-24l-150 -480h147v-27h-171v26l151 480h-136v25h159zM219 521v33h-177v-43h133l-148 -471v-35h189v45h-145zM223 559v-40l-146 -464h144v-55h-199v42l147 464h-132v53h186z" />
    <glyph glyph-name="exclamdown" unicode="&#xa1;" horiz-adv-x="119" 
d="M55 -127v547h25v-547h-25zM46 429v-565h43v565h-43zM42 -141v575h52v-575h-52zM55 476v69h25v-69h-25zM46 554v-87h43v87h-43zM42 462v97h52v-97h-52z" />
    <glyph glyph-name="yen" unicode="&#xa5;" horiz-adv-x="257" 
d="M76 156v20h45q-15 65 -44.5 191t-41.5 179h24l55 -230l28 -130l26 128l56 232h26l-89 -370h43v-20h-47l-3 -11v-29h50v-20h-50v-82h-26v82h-52v20h52v29l-2 11h-50zM67 185v-39h52v-21h-52v-39h52v-81h44v81h50v39h-50v19l1 2h49v39h-40l89 370h-45l-58 -239l-17 -86
l-19 88l-57 237h-43l87 -370h-43zM62 141v49h42q-3 14 -13 55t-28.5 120t-44.5 195h52l57 -241l15 -66l13 64l59 243h54l-90 -370h39v-49h-50v-11h50v-48h-50v-82h-52v82h-53v48h53v11h-53z" />
    <glyph glyph-name="dieresis" unicode="&#xa8;" horiz-adv-x="138" 
d="M65 654h-17v37h17v-37zM124 654h-17v37h17v-37zM99 648h33v50h-33v-50zM40 648h33v50h-33v-50zM76 645h-39v56h39v-56zM135 645h-39v56h39v-56z" />
    <glyph glyph-name="macron" unicode="&#xaf;" horiz-adv-x="145" 
d="M39 681v11h86v-11h-86zM30 697v-21h103v21h-103zM27 673v27h109v-27h-109z" />
    <glyph glyph-name="acute" unicode="&#xb4;" horiz-adv-x="88" 
d="M96 700l-37 -62h-41l31 62h47zM57 641l33 56h-39l-28 -56h34zM78 690l-25 -42h-19l21 42h23z" />
    <glyph glyph-name="cedilla" unicode="&#xb8;" horiz-adv-x="171" 
d="M52 -65h18q0 -21 21 -21h17q23 0 23 21q0 22 -23 22h-27l15 59h17l-11 -43h7q17 0 28.5 -10.5t11.5 -27.5q0 -18 -11.5 -28.5t-28.5 -10.5h-18q-17 0 -28 10t-11 29zM78 -57h-34q0 -27 13.5 -41.5t33.5 -14.5h18q20 0 34 13.5t14 34.5q0 20 -12.5 32.5t-31.5 14.5l11 42
h-35l-19 -76h38q15 0 15 -13t-15 -13h-17q-13 0 -13 21zM40 -53h25l21 81h43l-11 -43q43 -7 43 -50q0 -23 -15 -37.5t-37 -14.5h-18q-22 0 -36.5 16t-14.5 48zM108 -56h-26q0 -18 9 -18h17q11 0 11 9t-11 9z" />
    <glyph glyph-name="questiondown" unicode="&#xbf;" horiz-adv-x="271" 
d="M144 435h23v-69q0 -35 -2.5 -55.5t-14.5 -47.5t-36 -49q-41 -38 -41 -112v-107q0 -96 72 -96q39 0 58 27t19 72v39h23v-41q0 -60 -29.5 -91t-70.5 -31q-39 0 -67.5 29.5t-28.5 90.5v108q1 28 3.5 45t14 40.5t33.5 44.5q12 11 20 23t12.5 20t7 24.5t3 20.5t0.5 24.5v21.5z
M144 552h22v-70h-22v70zM175 561h-40v-89h40v89zM176 444h-41l-1 -78v-14q0 -25 -1.5 -39.5t-11 -35.5t-27.5 -38q-24 -22 -36 -47t-14.5 -42.5t-3.5 -47.5v-108q0 -66 31 -97.5t74 -31.5q46 0 77.5 33t31.5 98v51h-40v-49q0 -41 -17.5 -65t-51.5 -24q-64 0 -64 86v107
q2 67 38 104q36 33 46.5 69.5t10.5 90.5v78zM131 449h49v-83q0 -56 -10 -92.5t-47 -70.5q-34 -32 -37 -101v-107q0 -81 59 -81q64 0 64 84v54h50v-56q0 -68 -33.5 -102t-80.5 -34q-44 0 -76.5 32.5t-32.5 101.5v108q0 44 10 76t45 65q25 23 32 48t7 61v14zM131 566h48v-99
h-48v99z" />
    <glyph glyph-name="Agrave" unicode="&#xc0;" horiz-adv-x="299" 
d="M255 14l-27 185h-128l-26 -185h-25l96 672h35l100 -672h-25zM103 225h121l-61 421zM213 235h-100l50 345q9 -63 25 -170t25 -175zM221 190l25 -185h44l-102 690h-51l-99 -690h44l26 185h113zM241 0l-24 185h-105q-2 -13 -12 -82t-14 -103h-54l101 700h59l104 -700h-55z
M118 240h91q-8 59 -22 148t-24 160zM149 747l-25 42h20l21 -42h-16zM111 796l33 -56h32l-27 56h-38zM142 737l-37 62h46l30 -62h-39z" />
    <glyph glyph-name="Aacute" unicode="&#xc1;" horiz-adv-x="299" 
d="M255 14l-27 185h-128l-26 -185h-25l96 672h35l100 -672h-25zM103 225h121l-61 421zM213 235h-100l50 345q9 -63 25 -170t25 -175zM221 190l25 -185h44l-102 690h-51l-99 -690h44l26 185h113zM241 0l-24 185h-105q-2 -13 -12 -82t-14 -103h-54l101 700h59l104 -700h-55z
M118 240h91q-8 59 -22 148t-24 160zM215 801l-37 -62h-41l31 62h47zM176 742l33 56h-39l-28 -56h34zM197 791l-25 -42h-19l21 42h23z" />
    <glyph glyph-name="Acircumflex" unicode="&#xc2;" horiz-adv-x="299" 
d="M255 14l-27 185h-128l-26 -185h-25l96 672h35l100 -672h-25zM103 225h121l-61 421zM213 235h-100l50 345q9 -63 25 -170t25 -175zM221 190l25 -185h44l-102 690h-51l-99 -690h44l26 185h113zM241 0l-24 185h-105q-2 -13 -12 -82t-14 -103h-54l101 700h59l104 -700h-55z
M118 240h91q-8 59 -22 148t-24 160zM75 741l69 55h37l69 -55h-60l-28 21l-29 -21h-58zM146 793l-62 -49h48q4 2 14 10.5t16 11.5l30 -22h49l-62 49h-33zM106 750l43 36h27l43 -36h-24l-33 24l-33 -24h-23z" />
    <glyph glyph-name="Atilde" unicode="&#xc3;" horiz-adv-x="299" 
d="M255 14l-27 185h-128l-26 -185h-25l96 672h35l100 -672h-25zM103 225h121l-61 421zM213 235h-100l50 345q9 -63 25 -170t25 -175zM221 190l25 -185h44l-102 690h-51l-99 -690h44l26 185h113zM241 0l-24 185h-105q-2 -13 -12 -82t-14 -103h-54l101 700h59l104 -700h-55z
M118 240h91q-8 59 -22 148t-24 160zM165 755q-27 14 -49 1v14q22 13 50 1q26 -15 49 -2v-15q-26 -12 -50 1zM161 749q32 -13 62 2v30q-20 -10 -27 -11t-27 6q-32 17 -60 -3v-29q27 17 52 5zM159 746q-24 10 -54 -9v39q30 20 66 4q18 -7 26 -6t30 12v-39q-36 -18 -68 -1z" />
    <glyph glyph-name="Adieresis" unicode="&#xc4;" horiz-adv-x="299" 
d="M255 14l-27 185h-128l-26 -185h-25l96 672h35l100 -672h-25zM103 225h121l-61 421zM213 235h-100l50 345q9 -63 25 -170t25 -175zM221 190l25 -185h44l-102 690h-51l-99 -690h44l26 185h113zM241 0l-24 185h-105q-2 -13 -12 -82t-14 -103h-54l101 700h59l104 -700h-55z
M118 240h91q-8 59 -22 148t-24 160zM143 749h-17v37h17v-37zM202 749h-17v37h17v-37zM177 743h33v50h-33v-50zM118 743h33v50h-33v-50zM154 740h-39v56h39v-56zM213 740h-39v56h39v-56z" />
    <glyph glyph-name="Aring" unicode="&#xc5;" horiz-adv-x="299" 
d="M204 712q0 -27 -22 -35l98 -663h-25l-27 186h-128l-26 -186h-25l94 662q-21 9 -21 36q0 24 20.5 34t41 0.5t20.5 -34.5zM103 226h121l-61 423zM187 711q0 15 -12 20.5t-24 -0.5t-12 -20q0 -15 12 -20.5t24 0.5t12 20zM178 711q0 -13 -15 -13t-15 13q0 14 15 14t15 -14z
M213 236h-100l50 346q8 -60 24 -168t26 -178zM213 712q0 23 -14.5 35.5t-35.5 12.5t-35.5 -12.5t-14.5 -35.5q0 -31 21 -41l-96 -666h44l26 186h113l25 -186h44l-98 667q21 13 21 40zM218 712q0 -29 -21 -43q16 -108 49.5 -334t49.5 -335h-53l-27 186h-104q-3 -23 -13 -88.5
t-14 -97.5h-53l96 668q-20 14 -20 44q0 24 16.5 38.5t38.5 14.5t38.5 -14t16.5 -39zM118 241h91q-9 63 -22.5 151.5t-23.5 156.5zM174 711q0 9 -11 9t-11 -9t11 -9t11 9z" />
    <glyph glyph-name="AE" unicode="&#xc6;" horiz-adv-x="378" 
d="M358 663h-120v-440h103v-24h-103v-160h120v-25h-146v185h-93l-44 -185h-26l157 672h152v-23zM188 503l-64 -280h88v281l4 133zM135 233l68 294v-294h-68zM247 653h120v42h-169l-160 -690h45l44 185h76v-185h164v44h-120v141h104v43h-104v420zM372 648h-121v-410h104v-53
h-104v-131h121v-54h-174v185h-67l-45 -185h-55l164 700h177v-52zM141 238h57v246z" />
    <glyph glyph-name="Ccedilla" unicode="&#xc7;" horiz-adv-x="326" 
d="M130 -80h20q0 -24 23 -24h19q26 0 26 24q0 12 -7.5 19t-18.5 7h-31l15 62q-52 1 -82 40t-30 96v413q0 58 31.5 97.5t82.5 39.5t82.5 -39t31.5 -97v-54h-23l-1 53q0 47 -23 79t-65 32q-41 0 -66 -29.5t-25 -81.5v-413q0 -45 24 -77.5t67 -32.5t65.5 31t22.5 78v49h24v-49
q0 -50 -25 -89t-71 -45l-11 -44h8q19 0 32 -12t13 -33t-13 -33.5t-32 -12.5h-20q-18 0 -30.5 12t-12.5 34zM157 -69h-36q0 -32 15 -49t37 -17h20q23 0 38.5 15t15.5 40q0 24 -14 38.5t-36 16.5q2 9 6 25q47 10 72.5 51t25.5 92v59h-42v-59q0 -43 -20.5 -71.5t-58.5 -28.5
q-39 0 -60.5 30t-21.5 71v413q0 47 22.5 74.5t59.5 27.5t58 -29.5t21 -72.5l1 -62h41v63q0 62 -34 104t-89 42t-89 -42.5t-34 -104.5v-413q0 -59 29.5 -99t80.5 -46l-15 -63h42q17 0 17 -16q0 -15 -17 -15h-19q-16 0 -16 26zM116 -66h28l15 61q-53 7 -81 47.5t-28 101.5v413
q0 64 35.5 108t92.5 44t92 -43.5t35 -107.5v-68h-50l-1 67q0 41 -19.5 69t-54.5 28t-56 -26t-21 -71v-413q0 -39 20 -67.5t57 -28.5q36 0 55 27.5t19 67.5v64h52v-64q0 -52 -26 -94t-73 -53l-4 -17q22 -3 35.5 -18.5t13.5 -40.5q0 -27 -17 -43.5t-42 -16.5h-20q-25 0 -41 19
t-16 55zM192 -68h-30q0 -22 11 -22h19q12 0 12 10q0 12 -12 12z" />
    <glyph glyph-name="Egrave" unicode="&#xc8;" horiz-adv-x="289" 
d="M269 662h-173v-439h137v-24h-137v-160h173v-25h-198v672h198v-24zM104 652h174v43h-216v-690h216v44h-174v141h138v43h-138v419zM282 647h-173v-409h137v-53h-137v-131h174v-54h-226v700h225v-53zM166 753l-25 42h20l21 -42h-16zM128 802l33 -56h32l-27 56h-38zM159 743
l-37 62h46l30 -62h-39z" />
    <glyph glyph-name="Eacute" unicode="&#xc9;" horiz-adv-x="289" 
d="M269 662h-173v-439h137v-24h-137v-160h173v-25h-198v672h198v-24zM104 652h174v43h-216v-690h216v44h-174v141h138v43h-138v419zM282 647h-173v-409h137v-53h-137v-131h174v-54h-226v700h225v-53zM225 802l-37 -62h-41l31 62h47zM186 743l33 56h-39l-28 -56h34zM207 792
l-25 -42h-19l21 42h23z" />
    <glyph glyph-name="Ecircumflex" unicode="&#xca;" horiz-adv-x="289" 
d="M269 662h-173v-439h137v-24h-137v-160h173v-25h-198v672h198v-24zM104 652h174v43h-216v-690h216v44h-174v141h138v43h-138v419zM282 647h-173v-409h137v-53h-137v-131h174v-54h-226v700h225v-53zM86 744l69 55h37l69 -55h-60l-28 21l-29 -21h-58zM157 796l-62 -49h48
q4 2 14 10.5t16 11.5l30 -22h49l-62 49h-33zM117 753l43 36h27l43 -36h-24l-33 24l-33 -24h-23z" />
    <glyph glyph-name="Edieresis" unicode="&#xcb;" horiz-adv-x="289" 
d="M269 662h-173v-439h137v-24h-137v-160h173v-25h-198v672h198v-24zM104 652h174v43h-216v-690h216v44h-174v141h138v43h-138v419zM282 647h-173v-409h137v-53h-137v-131h174v-54h-226v700h225v-53zM154 749h-17v37h17v-37zM213 749h-17v37h17v-37zM188 743h33v50h-33v-50z
M129 743h33v50h-33v-50zM165 740h-39v56h39v-56zM224 740h-39v56h39v-56z" />
    <glyph glyph-name="Igrave" unicode="&#xcc;" horiz-adv-x="142" 
d="M98 686v-672h-25v672h25zM107 5v690h-43v-690h43zM112 700v-700h-53v700h53zM80 752l-25 42h20l21 -42h-16zM42 801l33 -56h32l-27 56h-38zM73 742l-37 62h46l30 -62h-39z" />
    <glyph glyph-name="Iacute" unicode="&#xcd;" horiz-adv-x="142" 
d="M98 686v-672h-25v672h25zM107 5v690h-43v-690h43zM112 700v-700h-53v700h53zM135 802l-37 -62h-41l31 62h47zM96 743l33 56h-39l-28 -56h34zM117 792l-25 -42h-19l21 42h23z" />
    <glyph glyph-name="Icircumflex" unicode="&#xce;" horiz-adv-x="142" 
d="M98 686v-672h-25v672h25zM107 5v690h-43v-690h43zM112 700v-700h-53v700h53zM3 740l66 58h35l66 -58h-57l-27 22l-28 -22h-55zM71 795l-60 -52h46q3 3 13 11.5t16 12.5l29 -24h46l-59 52h-31zM32 750l41 38h26l41 -38h-23l-31 25l-32 -25h-22z" />
    <glyph glyph-name="Idieresis" unicode="&#xcf;" horiz-adv-x="142" 
d="M98 686v-672h-25v672h25zM107 5v690h-43v-690h43zM112 700v-700h-53v700h53zM64 750h-17v37h17v-37zM123 750h-17v37h17v-37zM98 744h33v50h-33v-50zM39 744h33v50h-33v-50zM75 741h-39v56h39v-56zM134 741h-39v56h39v-56z" />
    <glyph glyph-name="Eth" unicode="&#xd0;" horiz-adv-x="341" 
d="M33 195v23h41v468h109q27 0 45 -3.5t37 -15.5t28.5 -39.5t9.5 -70.5v-417q0 -36 -10.5 -62t-23 -38t-33 -18.5t-29.5 -7t-24 -0.5h-109v181h-41zM279 140v417q-1 66 -24.5 85t-71.5 19h-84v-443h66v-23h-66v-154h84q20 0 34 3t30 12t24 30.5t8 53.5zM270 557v-417
q0 -29 -7.5 -48t-21.5 -27.5t-27 -11t-31 -2.5h-75v134h66v42h-66v424h75q22 0 34.5 -2.5t26 -11.5t19.5 -28.5t7 -51.5zM24 227v-42h41v-180h118q16 0 26 0.5t32 7.5t35.5 20t25 40.5t11.5 66.5v417q0 46 -10.5 75.5t-31.5 42t-40 16.5t-48 4h-118v-468h-41zM19 180v52h41
v468h123q30 0 49.5 -4t41 -17t32.5 -43.5t11 -78.5v-417q0 -40 -11.5 -69t-26 -42t-37 -20.5t-33 -8t-26.5 -0.5h-123v180h-41zM265 140v417q-1 57 -21 73t-61 16h-70v-414h66v-52h-66v-124h70q17 0 29 2.5t25.5 10t20.5 25.5t7 46z" />
    <glyph glyph-name="Ntilde" unicode="&#xd1;" horiz-adv-x="356" 
d="M288 686h24v-672h-24l-190 590v-590h-25v672h25l190 -597v597zM321 695h-42v-548l-175 548h-40v-690h43v543l174 -543h40v690zM274 700h52v-700h-48l-166 517v-517h-53v700h49l166 -523v523zM199 755q-26 13 -50 1v13q23 12 51 1q28 -13 51 -2v-14q-26 -10 -52 1z
M195 750q33 -13 64 1v28q-21 -9 -28 -10t-28 6q-33 16 -61 -3v-27q28 16 53 5zM193 747q-25 10 -55 -9v37q31 18 68 3q18 -6 25.5 -5t31.5 11v-36q-37 -16 -70 -1z" />
    <glyph glyph-name="Ograve" unicode="&#xd2;" 
d="M179 8q-53 0 -84 37.5t-31 94.5v419q0 56 30.5 94.5t84.5 38.5q51 0 81.5 -38.5t30.5 -94.5v-418q0 -55 -29.5 -94t-82.5 -39zM179 667q-44 0 -67 -30t-23 -78v-419q0 -46 23 -76t67 -30q42 0 65 30.5t23 76.5v418q0 44 -22.5 76t-65.5 32zM179 658q38 0 58.5 -29.5
t20.5 -69.5v-418q0 -43 -20.5 -70.5t-58.5 -27.5q-39 0 -60 27.5t-21 69.5v419q0 43 21 71t60 28zM179 -2q58 0 89.5 42t31.5 101v418q0 59 -33 100.5t-88 41.5q-59 0 -91.5 -41.5t-32.5 -100.5v-419q0 -61 33.5 -101.5t90.5 -40.5zM179 -7q-58 0 -93.5 42t-35.5 105v419
q0 61 34 104t95 43q57 0 91.5 -42.5t34.5 -104.5v-418q0 -61 -33 -104.5t-93 -43.5zM179 653q-38 0 -57 -26t-19 -68v-419q0 -40 19 -66.5t57 -26.5q36 0 55 26.5t19 67.5v418q0 39 -18.5 66.5t-55.5 27.5zM170 753l-25 42h20l21 -42h-16zM132 802l33 -56h32l-27 56h-38z
M163 743l-37 62h46l30 -62h-39z" />
    <glyph glyph-name="Oacute" unicode="&#xd3;" 
d="M179 8q-53 0 -84 37.5t-31 94.5v419q0 56 30.5 94.5t84.5 38.5q51 0 81.5 -38.5t30.5 -94.5v-418q0 -55 -29.5 -94t-82.5 -39zM179 667q-44 0 -67 -30t-23 -78v-419q0 -46 23 -76t67 -30q42 0 65 30.5t23 76.5v418q0 44 -22.5 76t-65.5 32zM179 658q38 0 58.5 -29.5
t20.5 -69.5v-418q0 -43 -20.5 -70.5t-58.5 -27.5q-39 0 -60 27.5t-21 69.5v419q0 43 21 71t60 28zM179 -2q58 0 89.5 42t31.5 101v418q0 59 -33 100.5t-88 41.5q-59 0 -91.5 -41.5t-32.5 -100.5v-419q0 -61 33.5 -101.5t90.5 -40.5zM179 -7q-58 0 -93.5 42t-35.5 105v419
q0 61 34 104t95 43q57 0 91.5 -42.5t34.5 -104.5v-418q0 -61 -33 -104.5t-93 -43.5zM179 653q-38 0 -57 -26t-19 -68v-419q0 -40 19 -66.5t57 -26.5q36 0 55 26.5t19 67.5v418q0 39 -18.5 66.5t-55.5 27.5zM226 803l-37 -62h-41l31 62h47zM187 744l33 56h-39l-28 -56h34z
M208 793l-25 -42h-19l21 42h23z" />
    <glyph glyph-name="Ocircumflex" unicode="&#xd4;" 
d="M179 8q-53 0 -84 37.5t-31 94.5v419q0 56 30.5 94.5t84.5 38.5q51 0 81.5 -38.5t30.5 -94.5v-418q0 -55 -29.5 -94t-82.5 -39zM179 667q-44 0 -67 -30t-23 -78v-419q0 -46 23 -76t67 -30q42 0 65 30.5t23 76.5v418q0 44 -22.5 76t-65.5 32zM179 658q38 0 58.5 -29.5
t20.5 -69.5v-418q0 -43 -20.5 -70.5t-58.5 -27.5q-39 0 -60 27.5t-21 69.5v419q0 43 21 71t60 28zM179 -2q58 0 89.5 42t31.5 101v418q0 59 -33 100.5t-88 41.5q-59 0 -91.5 -41.5t-32.5 -100.5v-419q0 -61 33.5 -101.5t90.5 -40.5zM179 -7q-58 0 -93.5 42t-35.5 105v419
q0 61 34 104t95 43q57 0 91.5 -42.5t34.5 -104.5v-418q0 -61 -33 -104.5t-93 -43.5zM179 653q-38 0 -57 -26t-19 -68v-419q0 -40 19 -66.5t57 -26.5q36 0 55 26.5t19 67.5v418q0 39 -18.5 66.5t-55.5 27.5zM92 744l69 55h37l69 -55h-60l-28 21l-29 -21h-58zM163 796l-62 -49
h48q4 2 14 10.5t16 11.5l30 -22h49l-62 49h-33zM123 753l43 36h27l43 -36h-24l-33 24l-33 -24h-23z" />
    <glyph glyph-name="Otilde" unicode="&#xd5;" 
d="M179 8q-53 0 -84 37.5t-31 94.5v419q0 56 30.5 94.5t84.5 38.5q51 0 81.5 -38.5t30.5 -94.5v-418q0 -55 -29.5 -94t-82.5 -39zM179 667q-44 0 -67 -30t-23 -78v-419q0 -46 23 -76t67 -30q42 0 65 30.5t23 76.5v418q0 44 -22.5 76t-65.5 32zM179 658q38 0 58.5 -29.5
t20.5 -69.5v-418q0 -43 -20.5 -70.5t-58.5 -27.5q-39 0 -60 27.5t-21 69.5v419q0 43 21 71t60 28zM179 -2q58 0 89.5 42t31.5 101v418q0 59 -33 100.5t-88 41.5q-59 0 -91.5 -41.5t-32.5 -100.5v-419q0 -61 33.5 -101.5t90.5 -40.5zM179 -7q-58 0 -93.5 42t-35.5 105v419
q0 61 34 104t95 43q57 0 91.5 -42.5t34.5 -104.5v-418q0 -61 -33 -104.5t-93 -43.5zM179 653q-38 0 -57 -26t-19 -68v-419q0 -40 19 -66.5t57 -26.5q36 0 55 26.5t19 67.5v418q0 39 -18.5 66.5t-55.5 27.5zM179 757q-24 13 -46 1v13q22 10 47 0q26 -11 47 -1v-14
q-24 -10 -48 1zM175 752q31 -13 59 1v27q-20 -9 -25.5 -9.5t-25.5 5.5q-31 16 -56 -3v-26q25 16 48 5zM174 749q-24 10 -51 -9v36q28 18 63 3q16 -6 23.5 -5t28.5 11v-35q-34 -16 -64 -1z" />
    <glyph glyph-name="Odieresis" unicode="&#xd6;" 
d="M179 8q-53 0 -84 37.5t-31 94.5v419q0 56 30.5 94.5t84.5 38.5q51 0 81.5 -38.5t30.5 -94.5v-418q0 -55 -29.5 -94t-82.5 -39zM179 667q-44 0 -67 -30t-23 -78v-419q0 -46 23 -76t67 -30q42 0 65 30.5t23 76.5v418q0 44 -22.5 76t-65.5 32zM179 658q38 0 58.5 -29.5
t20.5 -69.5v-418q0 -43 -20.5 -70.5t-58.5 -27.5q-39 0 -60 27.5t-21 69.5v419q0 43 21 71t60 28zM179 -2q58 0 89.5 42t31.5 101v418q0 59 -33 100.5t-88 41.5q-59 0 -91.5 -41.5t-32.5 -100.5v-419q0 -61 33.5 -101.5t90.5 -40.5zM179 -7q-58 0 -93.5 42t-35.5 105v419
q0 61 34 104t95 43q57 0 91.5 -42.5t34.5 -104.5v-418q0 -61 -33 -104.5t-93 -43.5zM179 653q-38 0 -57 -26t-19 -68v-419q0 -40 19 -66.5t57 -26.5q36 0 55 26.5t19 67.5v418q0 39 -18.5 66.5t-55.5 27.5zM158 750h-17v37h17v-37zM217 750h-17v37h17v-37zM192 744h33v50
h-33v-50zM133 744h33v50h-33v-50zM169 741h-39v56h39v-56zM228 741h-39v56h39v-56z" />
    <glyph glyph-name="Oslash" unicode="&#xd8;" 
d="M105 -33h-21l16 73q-36 38 -36 101v421q0 55 30.5 94t84.5 39q32 0 60 -19l13 59h22l-17 -75q34 -39 34 -99v-419q0 -56 -29.5 -95t-82.5 -39q-36 0 -62 17zM179 670q-44 0 -67 -30t-23 -78v-421q0 -43 18 -71l127 580q-23 20 -55 20zM267 561q0 38 -17 67l-126 -576
q19 -18 55 -18q42 0 65 30.5t23 77.5v419zM258 561v-419q0 -43 -20.5 -71t-58.5 -28q-30 0 -46 12q23 105 64.5 294.5t54.5 250.5q6 -18 6 -39zM179 660q21 0 45 -14l-121 -548q-5 18 -5 43v421q0 43 21 70.5t60 27.5zM73 -42h39q2 8 6 26.5t6 25.5q24 -12 55 -12
q58 0 89.5 42t31.5 102v419q0 60 -33 102l18 82h-40l-11 -55q-25 14 -55 14q-59 0 -91.5 -41.5t-32.5 -100.5v-421q0 -63 35 -104zM116 -47h-49l18 83q-35 41 -35 105v421q0 61 34 104t95 43q27 0 51 -11q1 4 5.5 23.5t6.5 28.5h49l-19 -86q32 -41 32 -103v-419
q0 -62 -32.5 -105.5t-92.5 -43.5q-31 0 -52 10zM179 655q-38 0 -57.5 -26t-19.5 -67v-421q0 -14 1 -21q17 79 56 253.5t59 270.5q-20 11 -39 11zM253 561q0 12 -1 17l-113 -520q20 -10 40 -10q36 0 55 26.5t19 67.5v419z" />
    <glyph glyph-name="Ugrave" unicode="&#xd9;" horiz-adv-x="339" 
d="M296 686v-545q0 -55 -29.5 -94.5t-83.5 -39.5q-52 0 -83 38.5t-31 96.5v544h25v-544q0 -45 22.5 -77.5t66.5 -32.5q46 0 67.5 30.5t21.5 78.5v545h24zM306 141v555h-43v-555q0 -100 -80 -100q-40 0 -60 30t-20 71v554h-43v-554q0 -62 33.5 -103.5t89.5 -41.5
q59 0 91 42.5t32 101.5zM310 700v-559q0 -61 -33.5 -105t-93.5 -44q-58 0 -92.5 43t-34.5 107v558h51v-558q0 -39 19.5 -67.5t56.5 -28.5q39 0 57.5 26.5t18.5 68.5v559h51zM181 750l-25 42h20l21 -42h-16zM143 799l33 -56h32l-27 56h-38zM174 740l-37 62h46l30 -62h-39z
" />
    <glyph glyph-name="Uacute" unicode="&#xda;" horiz-adv-x="339" 
d="M296 686v-545q0 -55 -29.5 -94.5t-83.5 -39.5q-52 0 -83 38.5t-31 96.5v544h25v-544q0 -45 22.5 -77.5t66.5 -32.5q46 0 67.5 30.5t21.5 78.5v545h24zM306 141v555h-43v-555q0 -100 -80 -100q-40 0 -60 30t-20 71v554h-43v-554q0 -62 33.5 -103.5t89.5 -41.5
q59 0 91 42.5t32 101.5zM310 700v-559q0 -61 -33.5 -105t-93.5 -44q-58 0 -92.5 43t-34.5 107v558h51v-558q0 -39 19.5 -67.5t56.5 -28.5q39 0 57.5 26.5t18.5 68.5v559h51zM234 800l-37 -62h-41l31 62h47zM195 741l33 56h-39l-28 -56h34zM216 790l-25 -42h-19l21 42h23z
" />
    <glyph glyph-name="Ucircumflex" unicode="&#xdb;" horiz-adv-x="339" 
d="M296 686v-545q0 -55 -29.5 -94.5t-83.5 -39.5q-52 0 -83 38.5t-31 96.5v544h25v-544q0 -45 22.5 -77.5t66.5 -32.5q46 0 67.5 30.5t21.5 78.5v545h24zM306 141v555h-43v-555q0 -100 -80 -100q-40 0 -60 30t-20 71v554h-43v-554q0 -62 33.5 -103.5t89.5 -41.5
q59 0 91 42.5t32 101.5zM310 700v-559q0 -61 -33.5 -105t-93.5 -44q-58 0 -92.5 43t-34.5 107v558h51v-558q0 -39 19.5 -67.5t56.5 -28.5q39 0 57.5 26.5t18.5 68.5v559h51zM99 741l69 55h37l69 -55h-60l-28 21l-29 -21h-58zM170 793l-62 -49h48q4 2 14 10.5t16 11.5l30 -22
h49l-62 49h-33zM130 750l43 36h27l43 -36h-24l-33 24l-33 -24h-23z" />
    <glyph glyph-name="Udieresis" unicode="&#xdc;" horiz-adv-x="339" 
d="M296 686v-545q0 -55 -29.5 -94.5t-83.5 -39.5q-52 0 -83 38.5t-31 96.5v544h25v-544q0 -45 22.5 -77.5t66.5 -32.5q46 0 67.5 30.5t21.5 78.5v545h24zM306 141v555h-43v-555q0 -100 -80 -100q-40 0 -60 30t-20 71v554h-43v-554q0 -62 33.5 -103.5t89.5 -41.5
q59 0 91 42.5t32 101.5zM310 700v-559q0 -61 -33.5 -105t-93.5 -44q-58 0 -92.5 43t-34.5 107v558h51v-558q0 -39 19.5 -67.5t56.5 -28.5q39 0 57.5 26.5t18.5 68.5v559h51zM165 751h-17v37h17v-37zM224 751h-17v37h17v-37zM199 745h33v50h-33v-50zM140 745h33v50h-33v-50z
M176 742h-39v56h39v-56zM235 742h-39v56h39v-56z" />
    <glyph glyph-name="Yacute" unicode="&#xdd;" horiz-adv-x="321" 
d="M283 687h27l-123 -508v-165h-25v165l-121 508h25l108 -452zM321 696h-45l-102 -422l-100 422h-45q12 -52 124 -519v-172h43v172zM272 701h55l-126 -526v-175h-53v175q-86 361 -125 526h55l96 -406zM231 803l-37 -62h-41l31 62h47zM192 744l33 56h-39l-28 -56h34zM213 793
l-25 -42h-19l21 42h23z" />
    <glyph glyph-name="Thorn" unicode="&#xde;" horiz-adv-x="329" 
d="M298 463v-222q0 -53 -30.5 -92t-83.5 -39h-88v-96h-25v673h25v-96h88q46 0 80 -31.5t34 -96.5zM274 241v222q0 48 -23.5 75.5t-66.5 27.5h-88v-431h88q36 0 63 29t27 77zM265 463v-222q0 -44 -24 -70t-57 -26h-79v411h79q38 0 59.5 -24.5t21.5 -68.5zM307 241v222
q0 70 -36.5 103.5t-86.5 33.5h-79v96h-43v-691h43v96h79q56 0 89.5 42t33.5 98zM311 463v-222q0 -59 -34 -102t-93 -43h-75v-96h-52v701h52v-96h75q51 0 89 -35t38 -107zM260 241v222q0 42 -19.5 65t-56.5 23h-75v-401h75q31 0 53.5 24.5t22.5 66.5z" />
    <glyph glyph-name="agrave" unicode="&#xe0;" horiz-adv-x="247" 
d="M204 14l-20 144h-94l-21 -144h-24l75 531h32l77 -531h-25zM91 180h90l-45 319zM170 190h-68l34 246zM176 149l20 -144h43l-79 550h-48l-78 -550h42q4 24 11 74t10 70h79zM192 0l-19 145h-72l-21 -145h-51l80 559h54l81 -559h-52zM107 194h58q-17 119 -29 209zM128 636
l-25 42h20l21 -42h-16zM90 685l33 -56h32l-27 56h-38zM121 626l-37 62h46l30 -62h-39z" />
    <glyph glyph-name="aacute" unicode="&#xe1;" horiz-adv-x="247" 
d="M204 14l-20 144h-94l-21 -144h-24l75 531h32l77 -531h-25zM91 180h90l-45 319zM170 190h-68l34 246zM176 149l20 -144h43l-79 550h-48l-78 -550h42q4 24 11 74t10 70h79zM192 0l-19 145h-72l-21 -145h-51l80 559h54l81 -559h-52zM107 194h58q-17 119 -29 209zM187 684
l-37 -62h-41l31 62h47zM148 625l33 56h-39l-28 -56h34zM169 674l-25 -42h-19l21 42h23z" />
    <glyph glyph-name="acircumflex" unicode="&#xe2;" horiz-adv-x="247" 
d="M204 14l-20 144h-94l-21 -144h-24l75 531h32l77 -531h-25zM91 180h90l-45 319zM170 190h-68l34 246zM176 149l20 -144h43l-79 550h-48l-78 -550h42q4 24 11 74t10 70h79zM192 0l-19 145h-72l-21 -145h-51l80 559h54l81 -559h-52zM107 194h58q-17 119 -29 209zM56 625
l63 56h34l63 -56h-55l-26 21l-26 -21h-53zM121 678l-57 -50h44q3 2 12.5 10.5t14.5 11.5l28 -22h45l-57 50h-30zM84 634l39 37h25l39 -37h-22l-30 24l-30 -24h-21z" />
    <glyph glyph-name="atilde" unicode="&#xe3;" horiz-adv-x="247" 
d="M204 14l-20 144h-94l-21 -144h-24l75 531h32l77 -531h-25zM91 180h90l-45 319zM170 190h-68l34 246zM176 149l20 -144h43l-79 550h-48l-78 -550h42q4 24 11 74t10 70h79zM192 0l-19 145h-72l-21 -145h-51l80 559h54l81 -559h-52zM107 194h58q-17 119 -29 209zM136 654
q-24 13 -47 1v13q22 13 48 2q25 -14 47 -3v-14q-24 -10 -48 1zM132 649q30 -12 60 1v29q-20 -10 -26 -11t-26 7q-31 15 -57 -3v-28q27 16 49 5zM130 646q-23 10 -51 -9v38q29 18 63 3q18 -7 24 -6t29 12v-37q-34 -16 -65 -1z" />
    <glyph glyph-name="adieresis" unicode="&#xe4;" horiz-adv-x="247" 
d="M204 14l-20 144h-94l-21 -144h-24l75 531h32l77 -531h-25zM91 180h90l-45 319zM170 190h-68l34 246zM176 149l20 -144h43l-79 550h-48l-78 -550h42q4 24 11 74t10 70h79zM192 0l-19 145h-72l-21 -145h-51l80 559h54l81 -559h-52zM107 194h58q-17 119 -29 209zM115 645
h-17v37h17v-37zM174 645h-17v37h17v-37zM149 639h33v50h-33v-50zM90 639h33v50h-33v-50zM126 636h-39v56h39v-56zM185 636h-39v56h39v-56z" />
    <glyph glyph-name="aring" unicode="&#xe5;" horiz-adv-x="247" 
d="M204 14l-20 144h-94l-21 -144h-24l75 531h32l77 -531h-25zM91 180h90l-45 319zM170 190h-68l34 246zM176 149l20 -144h43l-79 550h-48l-78 -550h42q4 24 11 74t10 70h79zM192 0l-19 145h-72l-21 -145h-51l80 559h54l81 -559h-52zM107 194h58q-17 119 -29 209zM157 647
q0 17 -20.5 17t-20.5 -17q0 -18 20.5 -17.5t20.5 17.5zM172 647q0 -18 -17.5 -26.5t-35 -1t-17.5 27.5q0 18 17.5 26t35 0.5t17.5 -26.5zM179 647q0 18 -12.5 27.5t-29.5 9.5t-29.5 -9.5t-12.5 -27.5t12 -28t29 -10t30 10.5t13 27.5zM183 647q0 -19 -14 -30.5t-33 -11.5
t-32 11t-13 31q0 19 13.5 30t32.5 11q18 0 32 -11t14 -30z" />
    <glyph glyph-name="ae" unicode="&#xe6;" horiz-adv-x="303" 
d="M288 521h-94v-338h81v-25h-81v-118h94v-26h-119v144h-68l-33 -144h-26l121 531h125v-24zM173 494h-2l-17 -95l-48 -216h63v218zM160 193h-43l43 191v-191zM203 512h94v42h-141l-126 -549h45l33 144h52v-144h137v44h-94v100h81v44h-81v319zM301 507h-94v-310h81v-53h-81
v-90h94v-54h-145v144h-44l-34 -144h-54l128 559h149v-52zM124 197h32v146z" />
    <glyph glyph-name="ccedilla" unicode="&#xe7;" horiz-adv-x="260" 
d="M93 -80h19q0 -24 23 -24h18q11 0 18.5 6.5t7.5 17.5q0 12 -7.5 19t-18.5 7h-29l14 64q-39 1 -62 32t-23 77v325q0 47 25.5 78.5t65.5 31.5q41 0 65.5 -31.5t24.5 -78.5v-45h-23v45q0 35 -17.5 60t-48.5 25q-30 0 -49 -23.5t-19 -61.5v-325q0 -34 18 -59t50 -25t48.5 23.5
t16.5 59.5v41h25v-41q0 -41 -20 -72.5t-57 -35.5l-11 -45h7q19 0 32 -12t13 -33q0 -20 -13 -32.5t-32 -12.5h-19q-18 0 -30 11.5t-12 33.5zM121 -70h-37q0 -31 14.5 -47.5t36.5 -16.5h19q22 0 38 15t16 39t-14 38.5t-35 16.5l6 26q38 8 58 41t20 76v51h-42v-51
q0 -32 -14 -52.5t-42 -20.5t-43.5 22t-15.5 52v325q0 34 16.5 54.5t42.5 20.5q27 0 42 -22t15 -53v-55h40v55q0 51 -27 85t-71 34q-45 0 -72.5 -34t-27.5 -85v-325q0 -45 22.5 -78t60.5 -40l-15 -64h41q17 0 17 -17q0 -14 -17 -14h-18q-14 0 -14 24zM80 -65h27l15 62
q-39 8 -60.5 41t-21.5 81v325q0 52 29 88t75 36t74.5 -35.5t28.5 -88.5v-59h-49v59q0 29 -14 49.5t-39 20.5q-24 0 -39.5 -19t-15.5 -51v-325q0 -28 14.5 -48.5t40.5 -20.5t39 19.5t13 48.5v56h51v-56q0 -46 -20.5 -80t-60.5 -41l-4 -17q21 -3 35 -19t14 -41
q0 -26 -16.5 -42.5t-41.5 -16.5h-19q-24 0 -39.5 19t-15.5 55zM153 -68h-28q0 -21 10 -21h18q13 0 13 9q0 12 -13 12z" />
    <glyph glyph-name="egrave" unicode="&#xe8;" horiz-adv-x="238" 
d="M220 521h-134v-338h106v-25h-106v-118h134v-26h-158v531h158v-24zM94 512h134v42h-175v-549h175v44h-134v100h107v44h-107v319zM233 507h-134v-310h106v-53h-106v-90h134v-54h-185v559h185v-52zM140 637l-25 42h20l21 -42h-16zM102 686l33 -56h32l-27 56h-38zM133 627
l-37 62h46l30 -62h-39z" />
    <glyph glyph-name="eacute" unicode="&#xe9;" horiz-adv-x="238" 
d="M220 521h-134v-338h106v-25h-106v-118h134v-26h-158v531h158v-24zM94 512h134v42h-175v-549h175v44h-134v100h107v44h-107v319zM233 507h-134v-310h106v-53h-106v-90h134v-54h-185v559h185v-52zM192 691l-37 -62h-41l31 62h47zM153 632l33 56h-39l-28 -56h34zM174 681
l-25 -42h-19l21 42h23z" />
    <glyph glyph-name="ecircumflex" unicode="&#xea;" horiz-adv-x="238" 
d="M220 521h-134v-338h106v-25h-106v-118h134v-26h-158v531h158v-24zM94 512h134v42h-175v-549h175v44h-134v100h107v44h-107v319zM233 507h-134v-310h106v-53h-106v-90h134v-54h-185v559h185v-52zM64 631l62 55h34l63 -55h-55l-25 21l-27 -21h-52zM128 683l-56 -49h44
q3 2 12.5 10.5t14.5 11.5l27 -22h45l-57 49h-30zM92 640l39 36h24l40 -36h-22l-30 24l-30 -24h-21z" />
    <glyph glyph-name="edieresis" unicode="&#xeb;" horiz-adv-x="238" 
d="M220 521h-134v-338h106v-25h-106v-118h134v-26h-158v531h158v-24zM94 512h134v42h-175v-549h175v44h-134v100h107v44h-107v319zM233 507h-134v-310h106v-53h-106v-90h134v-54h-185v559h185v-52zM120 638h-17v37h17v-37zM179 638h-17v37h17v-37zM154 632h33v50h-33v-50z
M95 632h33v50h-33v-50zM131 629h-39v56h39v-56zM190 629h-39v56h39v-56z" />
    <glyph glyph-name="igrave" unicode="&#xec;" horiz-adv-x="128" 
d="M88 545v-531h-25v531h25zM96 5v549h-41v-549h41zM101 559v-559h-51v559h51zM70 633l-25 42h20l21 -42h-16zM32 682l33 -56h32l-27 56h-38zM63 623l-37 62h46l30 -62h-39z" />
    <glyph glyph-name="iacute" unicode="&#xed;" horiz-adv-x="128" 
d="M88 545v-531h-25v531h25zM96 5v549h-41v-549h41zM101 559v-559h-51v559h51zM124 686l-37 -62h-41l31 62h47zM85 627l33 56h-39l-28 -56h34zM106 676l-25 -42h-19l21 42h23z" />
    <glyph glyph-name="icircumflex" unicode="&#xee;" horiz-adv-x="128" 
d="M88 545v-531h-25v531h25zM96 5v549h-41v-549h41zM101 559v-559h-51v559h51zM10 632l53 58h28l53 -58h-46l-21 22l-22 -22h-45zM65 687l-48 -52h37q2 2 10 11t13 13l23 -24h37l-47 52h-25zM34 642l33 38h21l33 -38h-19l-25 25l-25 -25h-18z" />
    <glyph glyph-name="idieresis" unicode="&#xef;" horiz-adv-x="128" 
d="M88 545v-531h-25v531h25zM96 5v549h-41v-549h41zM101 559v-559h-51v559h51zM54 643h-17v37h17v-37zM113 643h-17v37h17v-37zM88 637h33v50h-33v-50zM29 637h33v50h-33v-50zM65 634h-39v56h39v-56zM124 634h-39v56h39v-56z" />
    <glyph glyph-name="eth" unicode="&#xf0;" horiz-adv-x="267" 
d="M109 578l-6 10l36 23l-36 77h25l30 -64l39 24l6 -11l-39 -25l52 -109q18 -34 18 -71v-314q0 -46 -23 -77.5t-66 -31.5q-42 0 -66.5 31t-24.5 77v315q0 47 22.5 76.5t56.5 29.5q30 0 47 -12l-35 75zM145 514q-67 0 -67 -82v-315q0 -35 17.5 -58.5t49.5 -23.5t48.5 23.5
t16.5 59.5v314q0 33 -16.5 57.5t-48.5 24.5zM145 505q28 0 42 -21.5t14 -51.5v-314q0 -32 -14 -52.5t-42 -20.5t-43 21t-15 51v315q0 73 58 73zM90 592l16 -28l35 22q5 -12 21 -41q-10 3 -29 3q-37 0 -62.5 -32.5t-25.5 -83.5v-315q0 -51 27 -84.5t73 -33.5q47 0 72.5 35
t25.5 84v314q0 35 -19 75l-48 101l40 25l-16 28l-38 -24l-29 60h-44l39 -82zM104 557l-20 36l39 24l-41 85h54l28 -58l36 22l21 -35l-40 -25l46 -97q21 -47 21 -77v-314q0 -52 -27 -88t-76 -36q-47 0 -75.5 35t-28.5 88v315q0 53 26.5 87t65.5 34q6 0 20 -2q-2 4 -6.5 13.5
t-7.5 15.5zM145 500q-54 0 -54 -68v-315q0 -28 14 -47.5t40 -19.5t39 19t13 49v314q0 27 -13.5 47.5t-38.5 20.5z" />
    <glyph glyph-name="ntilde" unicode="&#xf1;" horiz-adv-x="291" 
d="M235 62h1q-5 38 -6 76v407h24v-531h-23l-131 410q-6 17 -17 68h-1q4 -29 6 -69v-409h-24v531h23l129 -407zM93 554h-38v-549h42v397l127 -397h39v549h-42v-406zM50 559h47l119 -382v382h51v-559h-46l-120 375v-375h-51v559zM161 652q-26 13 -50 1v13q23 12 51 1
q28 -13 51 -2v-14q-26 -10 -52 1zM157 647q33 -13 64 1v28q-21 -9 -28 -10t-28 6q-33 16 -61 -3v-27q28 16 53 5zM155 644q-25 10 -55 -9v37q31 18 68 3q18 -6 25.5 -5t31.5 11v-36q-37 -16 -70 -1z" />
    <glyph glyph-name="ograve" unicode="&#xf2;" horiz-adv-x="269" 
d="M148 9q-42 0 -67 30.5t-25 76.5v328q0 44 24.5 75t67.5 31q41 0 65 -30.5t24 -75.5v-327q0 -45 -23.5 -76.5t-65.5 -31.5zM148 525q-32 0 -49.5 -23t-17.5 -58v-328q0 -34 17.5 -57.5t49.5 -23.5t48.5 23t16.5 59v327q0 33 -16.5 57t-48.5 24zM148 516q27 0 41.5 -21.5
t14.5 -50.5v-327q0 -32 -14.5 -52t-41.5 -20q-28 0 -43.5 20.5t-15.5 50.5v328q0 31 15.5 51.5t43.5 20.5zM148 -1q47 0 72.5 34.5t25.5 83.5v327q0 48 -27 82t-71 34q-47 0 -73.5 -34t-26.5 -82v-328q0 -51 27 -84t73 -33zM148 -6q-48 0 -76.5 34.5t-28.5 87.5v328
q0 50 28 85t77 35q46 0 74 -34.5t28 -85.5v-327q0 -51 -27 -87t-75 -36zM148 511q-27 0 -40.5 -19t-13.5 -48v-328q0 -28 14 -47.5t40 -19.5t39 19t13 49v327q0 27 -13.5 47t-38.5 20zM140 635l-25 42h20l21 -42h-16zM102 684l33 -56h32l-27 56h-38zM133 625l-37 62h46
l30 -62h-39z" />
    <glyph glyph-name="oacute" unicode="&#xf3;" horiz-adv-x="269" 
d="M148 9q-42 0 -67 30.5t-25 76.5v328q0 44 24.5 75t67.5 31q41 0 65 -30.5t24 -75.5v-327q0 -45 -23.5 -76.5t-65.5 -31.5zM148 525q-32 0 -49.5 -23t-17.5 -58v-328q0 -34 17.5 -57.5t49.5 -23.5t48.5 23t16.5 59v327q0 33 -16.5 57t-48.5 24zM148 516q27 0 41.5 -21.5
t14.5 -50.5v-327q0 -32 -14.5 -52t-41.5 -20q-28 0 -43.5 20.5t-15.5 50.5v328q0 31 15.5 51.5t43.5 20.5zM148 -1q47 0 72.5 34.5t25.5 83.5v327q0 48 -27 82t-71 34q-47 0 -73.5 -34t-26.5 -82v-328q0 -51 27 -84t73 -33zM148 -6q-48 0 -76.5 34.5t-28.5 87.5v328
q0 50 28 85t77 35q46 0 74 -34.5t28 -85.5v-327q0 -51 -27 -87t-75 -36zM148 511q-27 0 -40.5 -19t-13.5 -48v-328q0 -28 14 -47.5t40 -19.5t39 19t13 49v327q0 27 -13.5 47t-38.5 20zM193 687l-37 -62h-41l31 62h47zM154 628l33 56h-39l-28 -56h34zM175 677l-25 -42h-19
l21 42h23z" />
    <glyph glyph-name="ocircumflex" unicode="&#xf4;" horiz-adv-x="269" 
d="M148 9q-42 0 -67 30.5t-25 76.5v328q0 44 24.5 75t67.5 31q41 0 65 -30.5t24 -75.5v-327q0 -45 -23.5 -76.5t-65.5 -31.5zM148 525q-32 0 -49.5 -23t-17.5 -58v-328q0 -34 17.5 -57.5t49.5 -23.5t48.5 23t16.5 59v327q0 33 -16.5 57t-48.5 24zM148 516q27 0 41.5 -21.5
t14.5 -50.5v-327q0 -32 -14.5 -52t-41.5 -20q-28 0 -43.5 20.5t-15.5 50.5v328q0 31 15.5 51.5t43.5 20.5zM148 -1q47 0 72.5 34.5t25.5 83.5v327q0 48 -27 82t-71 34q-47 0 -73.5 -34t-26.5 -82v-328q0 -51 27 -84t73 -33zM148 -6q-48 0 -76.5 34.5t-28.5 87.5v328
q0 50 28 85t77 35q46 0 74 -34.5t28 -85.5v-327q0 -51 -27 -87t-75 -36zM148 511q-27 0 -40.5 -19t-13.5 -48v-328q0 -28 14 -47.5t40 -19.5t39 19t13 49v327q0 27 -13.5 47t-38.5 20zM62 630l69 55h37l69 -55h-60l-28 21l-29 -21h-58zM133 682l-62 -49h48q4 2 14 10.5
t16 11.5l30 -22h49l-62 49h-33zM93 639l43 36h27l43 -36h-24l-33 24l-33 -24h-23z" />
    <glyph glyph-name="otilde" unicode="&#xf5;" horiz-adv-x="269" 
d="M148 9q-42 0 -67 30.5t-25 76.5v328q0 44 24.5 75t67.5 31q41 0 65 -30.5t24 -75.5v-327q0 -45 -23.5 -76.5t-65.5 -31.5zM148 525q-32 0 -49.5 -23t-17.5 -58v-328q0 -34 17.5 -57.5t49.5 -23.5t48.5 23t16.5 59v327q0 33 -16.5 57t-48.5 24zM148 516q27 0 41.5 -21.5
t14.5 -50.5v-327q0 -32 -14.5 -52t-41.5 -20q-28 0 -43.5 20.5t-15.5 50.5v328q0 31 15.5 51.5t43.5 20.5zM148 -1q47 0 72.5 34.5t25.5 83.5v327q0 48 -27 82t-71 34q-47 0 -73.5 -34t-26.5 -82v-328q0 -51 27 -84t73 -33zM148 -6q-48 0 -76.5 34.5t-28.5 87.5v328
q0 50 28 85t77 35q46 0 74 -34.5t28 -85.5v-327q0 -51 -27 -87t-75 -36zM148 511q-27 0 -40.5 -19t-13.5 -48v-328q0 -28 14 -47.5t40 -19.5t39 19t13 49v327q0 27 -13.5 47t-38.5 20zM149 651q-26 13 -50 1v13q23 12 51 1q28 -13 51 -2v-14q-26 -10 -52 1zM145 646
q33 -13 64 1v28q-21 -9 -28 -10t-28 6q-33 16 -61 -3v-27q28 16 53 5zM143 643q-25 10 -55 -9v37q31 18 68 3q18 -6 25.5 -5t31.5 11v-36q-37 -16 -70 -1z" />
    <glyph glyph-name="odieresis" unicode="&#xf6;" horiz-adv-x="269" 
d="M148 9q-42 0 -67 30.5t-25 76.5v328q0 44 24.5 75t67.5 31q41 0 65 -30.5t24 -75.5v-327q0 -45 -23.5 -76.5t-65.5 -31.5zM148 525q-32 0 -49.5 -23t-17.5 -58v-328q0 -34 17.5 -57.5t49.5 -23.5t48.5 23t16.5 59v327q0 33 -16.5 57t-48.5 24zM148 516q27 0 41.5 -21.5
t14.5 -50.5v-327q0 -32 -14.5 -52t-41.5 -20q-28 0 -43.5 20.5t-15.5 50.5v328q0 31 15.5 51.5t43.5 20.5zM148 -1q47 0 72.5 34.5t25.5 83.5v327q0 48 -27 82t-71 34q-47 0 -73.5 -34t-26.5 -82v-328q0 -51 27 -84t73 -33zM148 -6q-48 0 -76.5 34.5t-28.5 87.5v328
q0 50 28 85t77 35q46 0 74 -34.5t28 -85.5v-327q0 -51 -27 -87t-75 -36zM148 511q-27 0 -40.5 -19t-13.5 -48v-328q0 -28 14 -47.5t40 -19.5t39 19t13 49v327q0 27 -13.5 47t-38.5 20zM127 637h-17v37h17v-37zM186 637h-17v37h17v-37zM161 631h33v50h-33v-50zM102 631h33v50
h-33v-50zM138 628h-39v56h39v-56zM197 628h-39v56h39v-56z" />
    <glyph glyph-name="oslash" unicode="&#xf8;" horiz-adv-x="262" 
d="M96 -29h-20l11 59q-34 29 -34 87v329q0 45 24 76t68 31q24 0 41 -10l10 50h20l-12 -64q30 -32 30 -83v-328q0 -46 -23.5 -77.5t-65.5 -31.5q-20 0 -41 8zM145 529q-33 0 -50.5 -23.5t-17.5 -59.5v-329q0 -34 16 -56l88 455q-15 13 -36 13zM209 446q0 29 -12 50l-87 -451
q15 -10 35 -10q31 0 47.5 23.5t16.5 59.5v328zM200 446v-328q0 -33 -14 -53t-41 -20q-14 0 -26 6l81 410v-15zM145 519q16 0 27 -8q-14 -71 -83 -421q-3 12 -3 27v329q0 32 15 52.5t44 20.5zM64 -38h39q1 6 4 21.5t4 21.5q18 -6 34 -6q46 0 71.5 34.5t25.5 84.5v328
q0 57 -28 86l13 70h-39q-1 -6 -9 -46q-15 7 -34 7q-48 0 -74.5 -34t-26.5 -83v-329q0 -56 33 -91zM107 -43h-47l13 67q-33 38 -33 93v329q0 51 28 86.5t77 35.5q17 0 31 -5q1 5 4.5 21.5t4.5 22.5h47l-14 -74q29 -35 29 -87v-328q0 -52 -27 -88t-75 -36q-18 0 -30 4z
M145 514q-27 0 -41 -19t-14 -49v-328q47 238 76 391q-9 5 -21 5zM145 50q25 0 38 19t13 49v303l-72 -368q10 -3 21 -3z" />
    <glyph glyph-name="ugrave" unicode="&#xf9;" horiz-adv-x="278" 
d="M241 545v-428q0 -45 -23.5 -76.5t-66.5 -31.5q-41 0 -65.5 30.5t-24.5 77.5v428h24v-428q0 -34 16.5 -59t49.5 -25q66 0 66 84v428h24zM250 117v438h-42v-438q0 -74 -57 -74q-29 0 -43 22t-14 52v438h-42v-438q0 -52 27 -85t72 -33q48 0 73.5 34.5t25.5 83.5zM255 559
v-442q0 -51 -27.5 -87t-76.5 -36q-47 0 -75 35t-28 88v442h50v-442q0 -28 13.5 -49t39.5 -21q53 0 53 70v442h51zM150 637l-25 42h20l21 -42h-16zM112 686l33 -56h32l-27 56h-38zM143 627l-37 62h46l30 -62h-39z" />
    <glyph glyph-name="uacute" unicode="&#xfa;" horiz-adv-x="278" 
d="M241 545v-428q0 -45 -23.5 -76.5t-66.5 -31.5q-41 0 -65.5 30.5t-24.5 77.5v428h24v-428q0 -34 16.5 -59t49.5 -25q66 0 66 84v428h24zM250 117v438h-42v-438q0 -74 -57 -74q-29 0 -43 22t-14 52v438h-42v-438q0 -52 27 -85t72 -33q48 0 73.5 34.5t25.5 83.5zM255 559
v-442q0 -51 -27.5 -87t-76.5 -36q-47 0 -75 35t-28 88v442h50v-442q0 -28 13.5 -49t39.5 -21q53 0 53 70v442h51zM209 687l-37 -62h-41l31 62h47zM170 628l33 56h-39l-28 -56h34zM191 677l-25 -42h-19l21 42h23z" />
    <glyph glyph-name="ucircumflex" unicode="&#xfb;" horiz-adv-x="278" 
d="M241 545v-428q0 -45 -23.5 -76.5t-66.5 -31.5q-41 0 -65.5 30.5t-24.5 77.5v428h24v-428q0 -34 16.5 -59t49.5 -25q66 0 66 84v428h24zM250 117v438h-42v-438q0 -74 -57 -74q-29 0 -43 22t-14 52v438h-42v-438q0 -52 27 -85t72 -33q48 0 73.5 34.5t25.5 83.5zM255 559
v-442q0 -51 -27.5 -87t-76.5 -36q-47 0 -75 35t-28 88v442h50v-442q0 -28 13.5 -49t39.5 -21q53 0 53 70v442h51zM66 630l69 55h37l69 -55h-60l-28 21l-29 -21h-58zM137 682l-62 -49h48q4 2 14 10.5t16 11.5l30 -22h49l-62 49h-33zM97 639l43 36h27l43 -36h-24l-33 24
l-33 -24h-23z" />
    <glyph glyph-name="udieresis" unicode="&#xfc;" horiz-adv-x="278" 
d="M241 545v-428q0 -45 -23.5 -76.5t-66.5 -31.5q-41 0 -65.5 30.5t-24.5 77.5v428h24v-428q0 -34 16.5 -59t49.5 -25q66 0 66 84v428h24zM250 117v438h-42v-438q0 -74 -57 -74q-29 0 -43 22t-14 52v438h-42v-438q0 -52 27 -85t72 -33q48 0 73.5 34.5t25.5 83.5zM255 559
v-442q0 -51 -27.5 -87t-76.5 -36q-47 0 -75 35t-28 88v442h50v-442q0 -28 13.5 -49t39.5 -21q53 0 53 70v442h51zM133 636h-17v37h17v-37zM192 636h-17v37h17v-37zM167 630h33v50h-33v-50zM108 630h33v50h-33v-50zM144 627h-39v56h39v-56zM203 627h-39v56h39v-56z" />
    <glyph glyph-name="yacute" unicode="&#xfd;" horiz-adv-x="264" 
d="M228 546h26l-96 -401v-131h-26v131q-13 58 -29 126t-35.5 150.5t-29.5 124.5h24l83 -359zM265 555h-44l-76 -324l-75 324h-44l97 -412v-138h44v138zM217 560h55l-100 -419v-141h-54v141q-7 31 -16.5 72t-33.5 141t-49 206h55l71 -306zM192 689l-37 -62h-41l31 62h47z
M153 630l33 56h-39l-28 -56h34zM174 679l-25 -42h-19l21 42h23z" />
    <glyph glyph-name="thorn" unicode="&#xfe;" horiz-adv-x="263" 
d="M239 368v-177q0 -43 -24.5 -74.5t-65.5 -31.5h-66v-71h-25v531h25v-75h66q36 0 63 -25t27 -77zM215 191v177q0 36 -17.5 56.5t-48.5 20.5h-66v-334h66q27 0 46.5 21.5t19.5 58.5zM207 368v-177q0 -32 -17 -51t-41 -19h-57v315h57q28 0 43 -18t15 -50zM248 191v177
q0 57 -29.5 84t-69.5 27h-57v75h-43v-549h43v71h57q45 0 72 34t27 81zM252 368v-177q0 -49 -28 -84.5t-75 -35.5h-53v-71h-51v559h51v-75h53q42 0 72.5 -28.5t30.5 -87.5zM202 191v177q0 30 -14 46.5t-39 16.5h-53v-306h53q21 0 37 18t16 48z" />
    <glyph glyph-name="ydieresis" unicode="&#xff;" horiz-adv-x="264" 
d="M228 546h26l-96 -401v-131h-26v131q-13 58 -29 126t-35.5 150.5t-29.5 124.5h24l83 -359zM265 555h-44l-76 -324l-75 324h-44l97 -412v-138h44v138zM217 560h55l-100 -419v-141h-54v141q-7 31 -16.5 72t-33.5 141t-49 206h55l71 -306zM124 643h-17v37h17v-37zM183 643
h-17v37h17v-37zM158 637h33v50h-33v-50zM99 637h33v50h-33v-50zM135 634h-39v56h39v-56zM194 634h-39v56h39v-56z" />
    <glyph glyph-name="Amacron" unicode="&#x100;" horiz-adv-x="299" 
d="M255 14l-27 185h-128l-26 -185h-25l96 672h35l100 -672h-25zM103 225h121l-61 421zM213 235h-100l50 345q9 -63 25 -170t25 -175zM221 190l25 -185h44l-102 690h-51l-99 -690h44l26 185h113zM241 0l-24 185h-105q-2 -13 -12 -82t-14 -103h-54l101 700h59l104 -700h-55z
M118 240h91q-8 59 -22 148t-24 160zM120 751v12h85v-12h-85zM111 769v-23h102v23h-102zM109 743v29h107v-29h-107z" />
    <glyph glyph-name="amacron" unicode="&#x101;" horiz-adv-x="247" 
d="M204 14l-20 144h-94l-21 -144h-24l75 531h32l77 -531h-25zM91 180h90l-45 319zM170 190h-68l34 246zM176 149l20 -144h43l-79 550h-48l-78 -550h42q4 24 11 74t10 70h79zM192 0l-19 145h-72l-21 -145h-51l80 559h54l81 -559h-52zM107 194h58q-17 119 -29 209zM94 661v12
h86v-12h-86zM85 678v-23h103v23h-103zM82 652v30h109v-30h-109z" />
    <glyph glyph-name="Abreve" unicode="&#x102;" horiz-adv-x="299" 
d="M255 14l-27 185h-128l-26 -185h-25l96 672h35l100 -672h-25zM103 225h121l-61 421zM213 235h-100l50 345q9 -63 25 -170t25 -175zM221 190l25 -185h44l-102 690h-51l-99 -690h44l26 185h113zM241 0l-24 185h-105q-2 -13 -12 -82t-14 -103h-54l101 700h59l104 -700h-55z
M118 240h91q-8 59 -22 148t-24 160zM115 783h18q0 -16 21 -16h17q23 0 23 16h18q0 -13 -11.5 -22.5t-28.5 -9.5h-18q-16 0 -27.5 9t-11.5 23zM141 789h-34q0 -20 13.5 -32t33.5 -12h18q20 0 34 12.5t14 31.5h-34q0 -7 -4.5 -11.5t-10.5 -4.5h-17q-13 0 -13 16zM103 792h42
q0 -16 9 -16h17q11 0 11 16h42q0 -21 -15.5 -35.5t-36.5 -14.5h-18q-21 0 -36 13.5t-15 36.5z" />
    <glyph glyph-name="abreve" unicode="&#x103;" horiz-adv-x="247" 
d="M204 14l-20 144h-94l-21 -144h-24l75 531h32l77 -531h-25zM91 180h90l-45 319zM170 190h-68l34 246zM176 149l20 -144h43l-79 550h-48l-78 -550h42q4 24 11 74t10 70h79zM192 0l-19 145h-72l-21 -145h-51l80 559h54l81 -559h-52zM107 194h58q-17 119 -29 209zM89 676h18
q0 -16 21 -16h17q23 0 23 16h18q0 -13 -11.5 -22.5t-28.5 -9.5h-18q-16 0 -27.5 9t-11.5 23zM115 682h-34q0 -20 13.5 -32t33.5 -12h18q20 0 34 12.5t14 31.5h-34q0 -7 -4.5 -11.5t-10.5 -4.5h-17q-13 0 -13 16zM77 685h42q0 -16 9 -16h17q11 0 11 16h42q0 -21 -15.5 -35.5
t-36.5 -14.5h-18q-21 0 -36 13.5t-15 36.5z" />
    <glyph glyph-name="Aogonek" unicode="&#x104;" horiz-adv-x="302" 
d="M296 -61l12 -14q-10 -14 -26 -14h-12q-24 0 -34 18.5t2 44.5l19 41l-27 186h-129l-27 -187h-25l98 675h35l100 -675h-5l-21 -46q-7 -10 -4 -22.5t19 -12.5h10q9 0 15 6zM104 227h122l-61 423zM215 236h-101l51 347q9 -62 50 -347zM320 -75l-23 29q-9 -12 -16 -12h-10
q-17 0 -7 21l18 42h11l-103 694h-51l-101 -694h44l27 186h114q5 -31 12.5 -88t11.5 -87l-17 -37q-14 -31 -2 -54t42 -23h12q20 0 38 23zM297 -40l28 -35q-19 -28 -43 -28h-12q-33 0 -46.5 24.5t2.5 59.5l17 36l-25 169h-105q-3 -23 -13 -88.5t-14 -97.5h-53l102 704h59
l104 -704h-13l-17 -39q-6 -14 3 -14h10q6 0 16 13zM120 241h89q-6 39 -19.5 135.5t-24.5 174.5z" />
    <glyph glyph-name="aogonek" unicode="&#x105;" horiz-adv-x="243" 
d="M204 14l-21 146h-96l-21 -146h-24l76 535h32l79 -535h-5l-20 -46q-15 -35 14 -35h10q8 0 15 7l11 -15q-9 -13 -25 -13h-12q-23 0 -32.5 18.5t1.5 43.5zM89 182h91l-46 321zM169 191h-69l34 248zM175 150l20 -134q-16 -35 -17 -37q-14 -31 -2 -54t41 -23h12q20 0 37 23
l-22 29q-9 -11 -16 -11h-10q-15 0 -7 21l18 41h10l-81 554h-48l-79 -554h43q15 110 20 145h81zM190 17l-18 128h-73l-21 -145h-52l81 564h55l83 -564h-12q-13 -26 -18 -38q-5 -15 3 -15h10q4 0 9 5t7 9l27 -36q-18 -27 -42 -27h-12q-32 0 -45.5 24.5t1.5 57.5zM105 196h60
q-5 36 -15 101t-16 110z" />
    <glyph glyph-name="Cacute" unicode="&#x106;" horiz-adv-x="326" 
d="M180 8q-53 0 -84.5 38.5t-31.5 96.5v0v0v0v0v0v0v0v0v0v0v0v0v0v0v0v1v0v0v0v0v0v1v0v0v0v1v0v0v0v1v0v0v1v0v0v1v0v1v0v0v1v0v1v0v1v0v1v0v1v0v1v0v1v0v1v0v1v0v1v0v1v0v1v0v1v0v1v0v1v0v1v1v0v1v0v1v1v0v1v1v0v1v1v0v1v1v1v0v1v1v1v0v1v1v1v1v1v1v0v1v1v1v1v1v1v1v1v1
v1v1v1v1v1v1v1v1v1v1v1v1v1v1v1v1v1v1v1v1v1v1v1v1v1v1v1v1v1v1v1v1v1v1v1v1v1v1v1v1v1v1v1v1v1v1v1v1v1v1v1v1v1v1v1v1v1v1v1v1v1v1v1v1v1v1v1v1v1v1v1v1v1v1v1v1v1v1v1v1v1v1v1v1v1v1v1v1v1v1v1v1v1v1v1v1v1v1v1v1v1v1v1v1v1v1v1v1v1v1v1v1v1v1v1v1v1v1v1v1v1v1v1v1v1v1v1
v1v1v1v1v1v1v1v1v1v1v1v1v1v1v1v1v1v1v1v1v1v1v1v1v1v1v1v1v1v1v1v1v1v1v1v1v1v1v1v1v1v1v1v1v1v1v1v1v1v1v1v1v1v1v1v1v1v1v1v1v1v1v1v1v1v1v1v1v1v1v1v1v1v1v1v1v1v1v1v1v1v1v1v1v1v1v1v1v1v1v1v1v1v1v1v1v1v1v1v1v1v1v1v1v1v1v1v1v1v1v1v1v1v1v1v1v1v1v1v1v1v1v1v1v1v1v1
v1v1v1v1v1v1v1v1v1v1v1v1v1v1v1v1v1v1v1v1v1v1v1v1v1v1v1v1v1v1v1v1v1v1v1v1v1v1v1v1v1v1v1v1v1v1v1v1v1v1v1v1v1v1v1v1v1v1v1v1v1v1v1v1v1v1v1v1v1v1v1v1v1v1v1v1v1v1v1v1v1v1v1v1v1v1v1v1v1v1v1v1v1v1v1v10q0 57 31.5 96.5t82.5 39.5t82.5 -39t31.5 -96v-54h-23l-1 53
q0 46 -23 78t-65 32q-41 0 -66 -29.5t-25 -80.5v-411q0 -45 24 -77t67 -32t65.5 31t22.5 77v49h24v-49q0 -54 -29 -94t-83 -40zM180 -2q58 0 89.5 42.5t31.5 101.5v59h-42v-59q0 -43 -20 -71t-59 -28t-60.5 29.5t-21.5 70.5v411q0 46 22.5 73t59.5 27t58 -29t21 -71l1 -63
h41v64q0 61 -34 102.5t-89 41.5t-89 -42t-34 -103v-411q0 -63 33.5 -104t91.5 -41zM180 -7q-59 0 -94.5 43t-35.5 107v411q0 63 35.5 106.5t92.5 43.5t92 -43t35 -106v-69h-50l-1 68q0 40 -19.5 68t-54.5 28t-56.5 -26t-21.5 -70v-411q0 -39 20.5 -67t57.5 -28q36 0 55 27
t19 67v63h52v-63q0 -60 -33 -104.5t-93 -44.5zM230 804l-37 -62h-41l31 62h47zM191 745l33 56h-39l-28 -56h34zM212 794l-25 -42h-19l21 42h23z" />
    <glyph glyph-name="cacute" unicode="&#x107;" horiz-adv-x="267" 
d="M149 9q-43 0 -68 31t-25 78v322q0 46 25.5 77t65.5 31q41 0 65.5 -30.5t24.5 -77.5v-45h-22v45q0 35 -17.5 59t-48.5 24q-30 0 -49 -22.5t-19 -60.5v-322q0 -34 18 -58.5t50 -24.5t48.5 23.5t16.5 58.5v41h24v-41q0 -44 -23 -76t-66 -32zM149 -1q47 0 72.5 35t25.5 83v50
h-42v-50q0 -31 -14.5 -51.5t-41.5 -20.5q-28 0 -43.5 21.5t-15.5 51.5v322q0 33 16.5 53.5t42.5 20.5q27 0 42 -21.5t15 -52.5v-54h40v54q0 51 -27 84.5t-72 33.5q-44 0 -71.5 -34t-27.5 -84v-322q0 -52 27 -85.5t74 -33.5zM149 -5q-48 0 -77 35t-29 88v322q0 51 29 86.5
t75 35.5q47 0 75 -34t28 -88v-58h-48v58q0 28 -14 49t-39 21q-24 0 -39.5 -19t-15.5 -51v-322q0 -28 14.5 -48.5t40.5 -20.5t39 19.5t13 48.5v54h50v-54q0 -50 -26.5 -86t-75.5 -36zM199 687l-37 -62h-41l31 62h47zM160 628l33 56h-39l-28 -56h34zM181 677l-25 -42h-19
l21 42h23z" />
    <glyph glyph-name="Ccircumflex" unicode="&#x108;" horiz-adv-x="326" 
d="M180 8q-53 0 -84.5 38.5t-31.5 96.5v0v0v0v0v0v0v0v0v0v0v0v0v0v0v0v1v0v0v0v0v0v1v0v0v0v1v0v0v0v1v0v0v1v0v0v1v0v1v0v0v1v0v1v0v1v0v1v0v1v0v1v0v1v0v1v0v1v0v1v0v1v0v1v0v1v0v1v0v1v0v1v1v0v1v0v1v1v0v1v1v0v1v1v0v1v1v1v0v1v1v1v0v1v1v1v1v1v1v0v1v1v1v1v1v1v1v1v1
v1v1v1v1v1v1v1v1v1v1v1v1v1v1v1v1v1v1v1v1v1v1v1v1v1v1v1v1v1v1v1v1v1v1v1v1v1v1v1v1v1v1v1v1v1v1v1v1v1v1v1v1v1v1v1v1v1v1v1v1v1v1v1v1v1v1v1v1v1v1v1v1v1v1v1v1v1v1v1v1v1v1v1v1v1v1v1v1v1v1v1v1v1v1v1v1v1v1v1v1v1v1v1v1v1v1v1v1v1v1v1v1v1v1v1v1v1v1v1v1v1v1v1v1v1v1v1
v1v1v1v1v1v1v1v1v1v1v1v1v1v1v1v1v1v1v1v1v1v1v1v1v1v1v1v1v1v1v1v1v1v1v1v1v1v1v1v1v1v1v1v1v1v1v1v1v1v1v1v1v1v1v1v1v1v1v1v1v1v1v1v1v1v1v1v1v1v1v1v1v1v1v1v1v1v1v1v1v1v1v1v1v1v1v1v1v1v1v1v1v1v1v1v1v1v1v1v1v1v1v1v1v1v1v1v1v1v1v1v1v1v1v1v1v1v1v1v1v1v1v1v1v1v1v1
v1v1v1v1v1v1v1v1v1v1v1v1v1v1v1v1v1v1v1v1v1v1v1v1v1v1v1v1v1v1v1v1v1v1v1v1v1v1v1v1v1v1v1v1v1v1v1v1v1v1v1v1v1v1v1v1v1v1v1v1v1v1v1v1v1v1v1v1v1v1v1v1v1v1v1v1v1v1v1v1v1v1v1v1v1v1v1v1v1v1v1v1v1v1v1v10q0 57 31.5 96.5t82.5 39.5t82.5 -39t31.5 -96v-54h-23l-1 53
q0 46 -23 78t-65 32q-41 0 -66 -29.5t-25 -80.5v-411q0 -45 24 -77t67 -32t65.5 31t22.5 77v49h24v-49q0 -54 -29 -94t-83 -40zM180 -2q58 0 89.5 42.5t31.5 101.5v59h-42v-59q0 -43 -20 -71t-59 -28t-60.5 29.5t-21.5 70.5v411q0 46 22.5 73t59.5 27t58 -29t21 -71l1 -63
h41v64q0 61 -34 102.5t-89 41.5t-89 -42t-34 -103v-411q0 -63 33.5 -104t91.5 -41zM180 -7q-59 0 -94.5 43t-35.5 107v411q0 63 35.5 106.5t92.5 43.5t92 -43t35 -106v-69h-50l-1 68q0 40 -19.5 68t-54.5 28t-56.5 -26t-21.5 -70v-411q0 -39 20.5 -67t57.5 -28q36 0 55 27
t19 67v63h52v-63q0 -60 -33 -104.5t-93 -44.5zM94 742l69 55h37l69 -55h-60l-28 21l-29 -21h-58zM165 794l-62 -49h48q4 2 14 10.5t16 11.5l30 -22h49l-62 49h-33zM125 751l43 36h27l43 -36h-24l-33 24l-33 -24h-23z" />
    <glyph glyph-name="ccircumflex" unicode="&#x109;" horiz-adv-x="267" 
d="M149 9q-43 0 -68 31t-25 78v322q0 46 25.5 77t65.5 31q41 0 65.5 -30.5t24.5 -77.5v-45h-22v45q0 35 -17.5 59t-48.5 24q-30 0 -49 -22.5t-19 -60.5v-322q0 -34 18 -58.5t50 -24.5t48.5 23.5t16.5 58.5v41h24v-41q0 -44 -23 -76t-66 -32zM149 -1q47 0 72.5 35t25.5 83v50
h-42v-50q0 -31 -14.5 -51.5t-41.5 -20.5q-28 0 -43.5 21.5t-15.5 51.5v322q0 33 16.5 53.5t42.5 20.5q27 0 42 -21.5t15 -52.5v-54h40v54q0 51 -27 84.5t-72 33.5q-44 0 -71.5 -34t-27.5 -84v-322q0 -52 27 -85.5t74 -33.5zM149 -5q-48 0 -77 35t-29 88v322q0 51 29 86.5
t75 35.5q47 0 75 -34t28 -88v-58h-48v58q0 28 -14 49t-39 21q-24 0 -39.5 -19t-15.5 -51v-322q0 -28 14.5 -48.5t40.5 -20.5t39 19.5t13 48.5v54h50v-54q0 -50 -26.5 -86t-75.5 -36zM72 628l62 56h33l62 -56h-54l-25 21l-26 -21h-52zM135 681l-55 -50h43q3 2 12.5 10.5
t14.5 11.5l27 -22h44l-56 50h-30zM100 637l38 37h24l39 -37h-22l-29 24l-30 -24h-20z" />
    <glyph glyph-name="Cdotaccent" unicode="&#x10a;" horiz-adv-x="326" 
d="M180 8q-53 0 -84.5 38.5t-31.5 96.5v0v0v0v0v0v0v0v0v0v0v0v0v0v0v0v1v0v0v0v0v0v1v0v0v0v1v0v0v0v1v0v0v1v0v0v1v0v1v0v0v1v0v1v0v1v0v1v0v1v0v1v0v1v0v1v0v1v0v1v0v1v0v1v0v1v0v1v0v1v0v1v1v0v1v0v1v1v0v1v1v0v1v1v0v1v1v1v0v1v1v1v0v1v1v1v1v1v1v0v1v1v1v1v1v1v1v1v1
v1v1v1v1v1v1v1v1v1v1v1v1v1v1v1v1v1v1v1v1v1v1v1v1v1v1v1v1v1v1v1v1v1v1v1v1v1v1v1v1v1v1v1v1v1v1v1v1v1v1v1v1v1v1v1v1v1v1v1v1v1v1v1v1v1v1v1v1v1v1v1v1v1v1v1v1v1v1v1v1v1v1v1v1v1v1v1v1v1v1v1v1v1v1v1v1v1v1v1v1v1v1v1v1v1v1v1v1v1v1v1v1v1v1v1v1v1v1v1v1v1v1v1v1v1v1v1
v1v1v1v1v1v1v1v1v1v1v1v1v1v1v1v1v1v1v1v1v1v1v1v1v1v1v1v1v1v1v1v1v1v1v1v1v1v1v1v1v1v1v1v1v1v1v1v1v1v1v1v1v1v1v1v1v1v1v1v1v1v1v1v1v1v1v1v1v1v1v1v1v1v1v1v1v1v1v1v1v1v1v1v1v1v1v1v1v1v1v1v1v1v1v1v1v1v1v1v1v1v1v1v1v1v1v1v1v1v1v1v1v1v1v1v1v1v1v1v1v1v1v1v1v1v1v1
v1v1v1v1v1v1v1v1v1v1v1v1v1v1v1v1v1v1v1v1v1v1v1v1v1v1v1v1v1v1v1v1v1v1v1v1v1v1v1v1v1v1v1v1v1v1v1v1v1v1v1v1v1v1v1v1v1v1v1v1v1v1v1v1v1v1v1v1v1v1v1v1v1v1v1v1v1v1v1v1v1v1v1v1v1v1v1v1v1v1v1v1v1v1v1v10q0 57 31.5 96.5t82.5 39.5t82.5 -39t31.5 -96v-54h-23l-1 53
q0 46 -23 78t-65 32q-41 0 -66 -29.5t-25 -80.5v-411q0 -45 24 -77t67 -32t65.5 31t22.5 77v49h24v-49q0 -54 -29 -94t-83 -40zM180 -2q58 0 89.5 42.5t31.5 101.5v59h-42v-59q0 -43 -20 -71t-59 -28t-60.5 29.5t-21.5 70.5v411q0 46 22.5 73t59.5 27t58 -29t21 -71l1 -63
h41v64q0 61 -34 102.5t-89 41.5t-89 -42t-34 -103v-411q0 -63 33.5 -104t91.5 -41zM180 -7q-59 0 -94.5 43t-35.5 107v411q0 63 35.5 106.5t92.5 43.5t92 -43t35 -106v-69h-50l-1 68q0 40 -19.5 68t-54.5 28t-56.5 -26t-21.5 -70v-411q0 -39 20.5 -67t57.5 -28q36 0 55 27
t19 67v63h52v-63q0 -60 -33 -104.5t-93 -44.5zM191 750h-22v37h22v-37zM164 745h31v49h-31v-49zM199 741h-39v57h39v-57z" />
    <glyph glyph-name="cdotaccent" unicode="&#x10b;" horiz-adv-x="267" 
d="M149 9q-43 0 -68 31t-25 78v322q0 46 25.5 77t65.5 31q41 0 65.5 -30.5t24.5 -77.5v-45h-22v45q0 35 -17.5 59t-48.5 24q-30 0 -49 -22.5t-19 -60.5v-322q0 -34 18 -58.5t50 -24.5t48.5 23.5t16.5 58.5v41h24v-41q0 -44 -23 -76t-66 -32zM149 -1q47 0 72.5 35t25.5 83v50
h-42v-50q0 -31 -14.5 -51.5t-41.5 -20.5q-28 0 -43.5 21.5t-15.5 51.5v322q0 33 16.5 53.5t42.5 20.5q27 0 42 -21.5t15 -52.5v-54h40v54q0 51 -27 84.5t-72 33.5q-44 0 -71.5 -34t-27.5 -84v-322q0 -52 27 -85.5t74 -33.5zM149 -5q-48 0 -77 35t-29 88v322q0 51 29 86.5
t75 35.5q47 0 75 -34t28 -88v-58h-48v58q0 28 -14 49t-39 21q-24 0 -39.5 -19t-15.5 -51v-322q0 -28 14.5 -48.5t40.5 -20.5t39 19.5t13 48.5v54h50v-54q0 -50 -26.5 -86t-75.5 -36zM160 637h-22v37h22v-37zM133 632h31v49h-31v-49zM168 628h-39v57h39v-57z" />
    <glyph glyph-name="Ccaron" unicode="&#x10c;" horiz-adv-x="326" 
d="M180 8q-53 0 -84.5 38.5t-31.5 96.5v0v0v0v0v0v0v0v0v0v0v0v0v0v0v0v1v0v0v0v0v0v1v0v0v0v1v0v0v0v1v0v0v1v0v0v1v0v1v0v0v1v0v1v0v1v0v1v0v1v0v1v0v1v0v1v0v1v0v1v0v1v0v1v0v1v0v1v0v1v0v1v1v0v1v0v1v1v0v1v1v0v1v1v0v1v1v1v0v1v1v1v0v1v1v1v1v1v1v0v1v1v1v1v1v1v1v1v1
v1v1v1v1v1v1v1v1v1v1v1v1v1v1v1v1v1v1v1v1v1v1v1v1v1v1v1v1v1v1v1v1v1v1v1v1v1v1v1v1v1v1v1v1v1v1v1v1v1v1v1v1v1v1v1v1v1v1v1v1v1v1v1v1v1v1v1v1v1v1v1v1v1v1v1v1v1v1v1v1v1v1v1v1v1v1v1v1v1v1v1v1v1v1v1v1v1v1v1v1v1v1v1v1v1v1v1v1v1v1v1v1v1v1v1v1v1v1v1v1v1v1v1v1v1v1v1
v1v1v1v1v1v1v1v1v1v1v1v1v1v1v1v1v1v1v1v1v1v1v1v1v1v1v1v1v1v1v1v1v1v1v1v1v1v1v1v1v1v1v1v1v1v1v1v1v1v1v1v1v1v1v1v1v1v1v1v1v1v1v1v1v1v1v1v1v1v1v1v1v1v1v1v1v1v1v1v1v1v1v1v1v1v1v1v1v1v1v1v1v1v1v1v1v1v1v1v1v1v1v1v1v1v1v1v1v1v1v1v1v1v1v1v1v1v1v1v1v1v1v1v1v1v1v1
v1v1v1v1v1v1v1v1v1v1v1v1v1v1v1v1v1v1v1v1v1v1v1v1v1v1v1v1v1v1v1v1v1v1v1v1v1v1v1v1v1v1v1v1v1v1v1v1v1v1v1v1v1v1v1v1v1v1v1v1v1v1v1v1v1v1v1v1v1v1v1v1v1v1v1v1v1v1v1v1v1v1v1v1v1v1v1v1v1v1v1v1v1v1v1v10q0 57 31.5 96.5t82.5 39.5t82.5 -39t31.5 -96v-54h-23l-1 53
q0 46 -23 78t-65 32q-41 0 -66 -29.5t-25 -80.5v-411q0 -45 24 -77t67 -32t65.5 31t22.5 77v49h24v-49q0 -54 -29 -94t-83 -40zM180 -2q58 0 89.5 42.5t31.5 101.5v59h-42v-59q0 -43 -20 -71t-59 -28t-60.5 29.5t-21.5 70.5v411q0 46 22.5 73t59.5 27t58 -29t21 -71l1 -63
h41v64q0 61 -34 102.5t-89 41.5t-89 -42t-34 -103v-411q0 -63 33.5 -104t91.5 -41zM180 -7q-59 0 -94.5 43t-35.5 107v411q0 63 35.5 106.5t92.5 43.5t92 -43t35 -106v-69h-50l-1 68q0 40 -19.5 68t-54.5 28t-56.5 -26t-21.5 -70v-411q0 -39 20.5 -67t57.5 -28q36 0 55 27
t19 67v63h52v-63q0 -60 -33 -104.5t-93 -44.5zM263 795l-68 -52h-38l-68 52h59l29 -18l29 18h57zM193 746l60 46h-46q-10 -7 -30 -19l-30 19h-47l60 -46h33zM233 785l-44 -33h-26l-44 33h24l34 -21l33 21h23z" />
    <glyph glyph-name="ccaron" unicode="&#x10d;" horiz-adv-x="267" 
d="M149 9q-43 0 -68 31t-25 78v322q0 46 25.5 77t65.5 31q41 0 65.5 -30.5t24.5 -77.5v-45h-22v45q0 35 -17.5 59t-48.5 24q-30 0 -49 -22.5t-19 -60.5v-322q0 -34 18 -58.5t50 -24.5t48.5 23.5t16.5 58.5v41h24v-41q0 -44 -23 -76t-66 -32zM149 -1q47 0 72.5 35t25.5 83v50
h-42v-50q0 -31 -14.5 -51.5t-41.5 -20.5q-28 0 -43.5 21.5t-15.5 51.5v322q0 33 16.5 53.5t42.5 20.5q27 0 42 -21.5t15 -52.5v-54h40v54q0 51 -27 84.5t-72 33.5q-44 0 -71.5 -34t-27.5 -84v-322q0 -52 27 -85.5t74 -33.5zM149 -5q-48 0 -77 35t-29 88v322q0 51 29 86.5
t75 35.5q47 0 75 -34t28 -88v-58h-48v58q0 28 -14 49t-39 21q-24 0 -39.5 -19t-15.5 -51v-322q0 -28 14.5 -48.5t40.5 -20.5t39 19.5t13 48.5v54h50v-54q0 -50 -26.5 -86t-75.5 -36zM236 680l-68 -52h-38l-68 52h59l29 -18l29 18h57zM166 631l60 46h-46q-10 -7 -30 -19
l-30 19h-47l60 -46h33zM206 670l-44 -33h-26l-44 33h24l34 -21l33 21h23z" />
    <glyph glyph-name="Dcaron" unicode="&#x10e;" horiz-adv-x="336" 
d="M299 557v-417q0 -36 -10.5 -62t-22.5 -38t-32.5 -18.5t-29.5 -7t-24 -0.5h-107v672h107q27 0 44.5 -3.5t36.5 -15.5t28.5 -39.5t9.5 -70.5zM275 140v417q-1 66 -24 85t-71 19h-82v-620h82q20 0 34 3t29.5 12t23.5 30.5t8 53.5zM266 557v-417q0 -29 -7.5 -48t-21.5 -27.5
t-26.5 -11t-30.5 -2.5h-73v600h73q21 0 34 -2.5t26 -11.5t19 -28.5t7 -51.5zM308 140v417q0 46 -10.5 75.5t-31 42t-39 16.5t-47.5 4h-116v-690h116q15 0 25 0.5t32 7.5t35 20t24.5 40.5t11.5 66.5zM313 557v-417q0 -34 -7 -59.5t-21 -40t-26.5 -23.5t-31 -12.5t-26.5 -4
t-21 -0.5h-121v700h121q29 0 49 -4t41 -17t32 -43.5t11 -78.5zM261 140v417q-1 57 -20.5 73t-60.5 16h-69v-590h69q17 0 29 2.5t25 10t20 25.5t7 46zM264 794l-68 -52h-38l-68 52h59l29 -18l29 18h57zM194 745l60 46h-46q-10 -7 -30 -19l-30 19h-47l60 -46h33zM234 784
l-44 -33h-26l-44 33h24l34 -21l33 21h23z" />
    <glyph glyph-name="dcaron" unicode="&#x10f;" horiz-adv-x="275" 
d="M243 442v-326q0 -36 -10.5 -59t-29.5 -31t-29 -10t-25 -2h-86v531h86q21 0 35 -3t29 -12.5t22.5 -31.5t7.5 -56zM219 116v326q-1 50 -17.5 64t-52.5 14h-61v-479h61q15 0 25.5 2t21.5 9t17 23t6 41zM211 442v-326q0 -40 -17 -53t-45 -13h-53v461h53q16 0 25 -2t18 -8
t13.5 -20.5t5.5 -38.5zM252 116v326q0 38 -8 61.5t-25 34t-32 13.5t-38 3h-94v-549h94q13 0 20.5 0.5t25.5 6t28.5 16t19.5 33.5t9 55zM257 442v-326q0 -33 -9.5 -57t-20.5 -35t-29.5 -17t-27 -6.5t-21.5 -0.5h-99v559h99q24 0 40 -3.5t33.5 -14t26 -35.5t8.5 -64zM206 116
v326q-1 41 -14.5 52.5t-42.5 11.5h-48v-451h48q26 0 41.5 12t15.5 49zM237 678l-68 -52h-38l-68 52h59l29 -18l29 18h57zM167 629l60 46h-46q-10 -7 -30 -19l-30 19h-47l60 -46h33zM207 668l-44 -33h-26l-44 33h24l34 -21l33 21h23z" />
    <glyph glyph-name="Dcroat" unicode="&#x110;" horiz-adv-x="341" 
d="M33 195v23h41v468h109q27 0 45 -3.5t37 -15.5t28.5 -39.5t9.5 -70.5v-417q0 -36 -10.5 -62t-23 -38t-33 -18.5t-29.5 -7t-24 -0.5h-109v181h-41zM279 140v417q-1 66 -24.5 85t-71.5 19h-84v-443h66v-23h-66v-154h84q20 0 34 3t30 12t24 30.5t8 53.5zM270 557v-417
q0 -29 -7.5 -48t-21.5 -27.5t-27 -11t-31 -2.5h-75v134h66v42h-66v424h75q22 0 34.5 -2.5t26 -11.5t19.5 -28.5t7 -51.5zM24 227v-42h41v-180h118q16 0 26 0.5t32 7.5t35.5 20t25 40.5t11.5 66.5v417q0 46 -10.5 75.5t-31.5 42t-40 16.5t-48 4h-118v-468h-41zM19 180v52h41
v468h123q30 0 50 -4t41.5 -17t32.5 -43.5t11 -78.5v-417q0 -40 -12 -69t-26 -42t-37 -20.5t-33.5 -8t-26.5 -0.5h-123v180h-41zM265 140v417q-1 57 -21 73t-61 16h-70v-414h66v-52h-66v-124h70q17 0 29 2.5t25.5 10t20.5 25.5t7 46z" />
    <glyph glyph-name="dcroat" unicode="&#x111;" horiz-adv-x="273" 
d="M27 190v22h34v333h87q22 0 36 -3t29.5 -12.5t23 -31.5t7.5 -56v-326q0 -36 -10.5 -59t-30 -31t-29.5 -10t-26 -2h-87v176h-34zM220 116v326q-1 50 -18.5 64t-53.5 14h-62v-308h62v-22h-62v-149h62q15 0 26 2t22.5 9t17.5 23t6 41zM211 442v-326q0 -40 -17.5 -53
t-45.5 -13h-53v130h62v41h-62v290h53q16 0 25 -2t18.5 -8t14 -20.5t5.5 -38.5zM18 221v-41h34v-175h96q13 0 21 0.5t26 6t29 16t20 33.5t9 55v326q0 38 -8.5 61.5t-25 34t-32 13.5t-39.5 3h-96v-333h-34zM14 176v50h33v333h101q25 0 41 -3.5t33.5 -14t26.5 -35.5t9 -64v-326
q0 -33 -9.5 -57t-21 -35t-30 -17t-27 -6.5t-22.5 -0.5h-101v176h-33zM207 116v326q-1 41 -15 52.5t-44 11.5h-49v-280h62v-50h-62v-121h49q27 0 43 12t16 49z" />
    <glyph glyph-name="Emacron" unicode="&#x112;" horiz-adv-x="289" 
d="M269 662h-173v-439h137v-24h-137v-160h173v-25h-198v672h198v-24zM104 652h174v43h-216v-690h216v44h-174v141h138v43h-138v419zM282 647h-173v-409h137v-53h-137v-131h174v-54h-226v700h225v-53zM132 754v13h87v-13h-87zM123 772v-24h104v24h-104zM120 745v31h110v-31
h-110z" />
    <glyph glyph-name="emacron" unicode="&#x113;" horiz-adv-x="238" 
d="M220 521h-134v-338h106v-25h-106v-118h134v-26h-158v531h158v-24zM94 512h134v42h-175v-549h175v44h-134v100h107v44h-107v319zM233 507h-134v-310h106v-53h-106v-90h134v-54h-185v559h185v-52zM102 656v13h85v-13h-85zM93 675v-25h102v25h-102zM90 647v32h108v-32h-108z
" />
    <glyph glyph-name="Ebreve" unicode="&#x114;" horiz-adv-x="289" 
d="M269 662h-173v-439h137v-24h-137v-160h173v-25h-198v672h198v-24zM104 652h174v43h-216v-690h216v44h-174v141h138v43h-138v419zM282 647h-173v-409h137v-53h-137v-131h174v-54h-226v700h225v-53zM124 783h18q0 -16 21 -16h17q23 0 23 16h18q0 -13 -11.5 -22.5
t-28.5 -9.5h-18q-16 0 -27.5 9t-11.5 23zM150 789h-34q0 -20 13.5 -32t33.5 -12h18q20 0 34 12.5t14 31.5h-34q0 -7 -4.5 -11.5t-10.5 -4.5h-17q-13 0 -13 16zM112 792h42q0 -16 9 -16h17q11 0 11 16h42q0 -21 -15.5 -35.5t-36.5 -14.5h-18q-21 0 -36 13.5t-15 36.5z" />
    <glyph glyph-name="ebreve" unicode="&#x115;" horiz-adv-x="238" 
d="M220 521h-134v-338h106v-25h-106v-118h134v-26h-158v531h158v-24zM94 512h134v42h-175v-549h175v44h-134v100h107v44h-107v319zM233 507h-134v-310h106v-53h-106v-90h134v-54h-185v559h185v-52zM95 676h18q0 -16 21 -16h17q23 0 23 16h18q0 -13 -11.5 -22.5t-28.5 -9.5
h-18q-16 0 -27.5 9t-11.5 23zM121 682h-34q0 -20 13.5 -32t33.5 -12h18q20 0 34 12.5t14 31.5h-34q0 -7 -4.5 -11.5t-10.5 -4.5h-17q-13 0 -13 16zM83 685h42q0 -16 9 -16h17q11 0 11 16h42q0 -21 -15.5 -35.5t-36.5 -14.5h-18q-21 0 -36 13.5t-15 36.5z" />
    <glyph glyph-name="Edotaccent" unicode="&#x116;" horiz-adv-x="289" 
d="M269 662h-173v-439h137v-24h-137v-160h173v-25h-198v672h198v-24zM104 652h174v43h-216v-690h216v44h-174v141h138v43h-138v419zM282 647h-173v-409h137v-53h-137v-131h174v-54h-226v700h225v-53zM193 749h-22v37h22v-37zM166 744h31v49h-31v-49zM201 740h-39v57h39v-57z
" />
    <glyph glyph-name="edotaccent" unicode="&#x117;" horiz-adv-x="238" 
d="M220 521h-134v-338h106v-25h-106v-118h134v-26h-158v531h158v-24zM94 512h134v42h-175v-549h175v44h-134v100h107v44h-107v319zM233 507h-134v-310h106v-53h-106v-90h134v-54h-185v559h185v-52zM160 631h-22v37h22v-37zM133 626h31v49h-31v-49zM168 622h-39v57h39v-57z
" />
    <glyph glyph-name="Eogonek" unicode="&#x118;" horiz-adv-x="292" 
d="M272 665h-175v-440h139v-24h-139v-161h175v-26l-25 -42q-3 -5 -5 -11.5t-2.5 -13t4 -10.5t14.5 -4h10q10 0 15 6l12 -14q-11 -14 -26 -14h-12q-24 0 -33.5 22t5.5 45l23 36h-180v675h200v-24zM106 656h175v43h-218v-694h172l-13 -21q-11 -16 -11 -34q0 -20 13 -34t33 -14
h12q21 0 37 23l-22 29q-10 -12 -16 -12h-10q-10 2 -10 9.5t6 15.5l27 46v36h-175v142h139v43h-139v422zM286 651h-176v-412h139v-53h-139v-132h176v-44l-28 -46q-10 -17 0 -17h10q2 0 16 14l28 -36q-19 -28 -43 -28h-12q-22 0 -36.5 15.5t-14.5 37.5q0 19 12 37l9 13h-169
v704h228v-53z" />
    <glyph glyph-name="eogonek" unicode="&#x119;" horiz-adv-x="235" 
d="M219 525h-136v-340h108v-25h-108v-120h136v-26h-1l-27 -42q-5 -7 -7 -16t2 -16t16 -7h10q9 0 14 7l12 -15q-11 -13 -26 -13h-11q-25 0 -34 22t6 44l25 36h-139v535h160v-24zM92 516h136v43h-178v-554h130l-14 -21q-10 -15 -10 -35t12.5 -33.5t32.5 -13.5h11q20 0 37 23
l-22 29q-7 -11 -15 -11h-10q-7 0 -8.5 4t0 9.5t4.5 10.5l28 44l2 39h-136v100h108v44h-108v322zM232 511h-136v-312h109v-54h-109v-90h136l-1 -45l-30 -46q-9 -17 1 -17h10q7 0 15 13l27 -35q-18 -27 -42 -27h-11q-22 0 -36 15t-14 36q0 19 12 38l9 13h-126v564h186v-53z
" />
    <glyph glyph-name="Ecaron" unicode="&#x11a;" horiz-adv-x="289" 
d="M269 662h-173v-439h137v-24h-137v-160h173v-25h-198v672h198v-24zM104 652h174v43h-216v-690h216v44h-174v141h138v43h-138v419zM282 647h-173v-409h137v-53h-137v-131h174v-54h-226v700h225v-53zM260 792l-68 -52h-38l-68 52h59l29 -18l29 18h57zM190 743l60 46h-46
q-10 -7 -30 -19l-30 19h-47l60 -46h33zM230 782l-44 -33h-26l-44 33h24l34 -21l33 21h23z" />
    <glyph glyph-name="ecaron" unicode="&#x11b;" horiz-adv-x="238" 
d="M220 521h-134v-338h106v-25h-106v-118h134v-26h-158v531h158v-24zM94 512h134v42h-175v-549h175v44h-134v100h107v44h-107v319zM233 507h-134v-310h106v-53h-106v-90h134v-54h-185v559h185v-52zM233 681l-68 -52h-38l-68 52h59l29 -18l29 18h57zM163 632l60 46h-46
q-10 -7 -30 -19l-30 19h-47l60 -46h33zM203 671l-44 -33h-26l-44 33h24l34 -21l33 21h23z" />
    <glyph glyph-name="Gcircumflex" unicode="&#x11c;" horiz-adv-x="316" 
d="M172 227h118v-86q0 -53 -30.5 -92.5t-81.5 -39.5q-50 0 -82 38t-32 95v412q0 57 30.5 96t81.5 39q50 0 82.5 -37.5t32.5 -96.5v-54h-23v54q0 47 -24.5 78t-66.5 31q-40 0 -64 -30.5t-24 -79.5v-412q0 -44 24 -75.5t65 -31.5q39 0 63.5 30.5t24.5 75.5v62h-94v24zM299 237
h-136v-43h94v-53q0 -41 -22 -69t-57 -28q-38 0 -59 29t-21 69v412q0 45 21.5 72.5t57.5 27.5q38 0 60 -28.5t22 -70.5v-64h41v64q0 63 -35 103t-89 40q-55 0 -88 -41t-33 -103v-412q0 -61 34.5 -102t88.5 -41t87.5 42.5t33.5 99.5v96zM158 242h146v-101q0 -59 -34.5 -103
t-91.5 -44q-56 0 -92 42.5t-36 105.5v412q0 63 34.5 106t91.5 43q56 0 92.5 -41.5t36.5 -106.5v-69h-51v69q0 41 -20.5 68t-56.5 27q-33 0 -53.5 -27t-20.5 -69v-412q0 -38 20 -65.5t55 -27.5q34 0 54 26.5t20 65.5v48h-94v53zM90 744l69 55h37l69 -55h-60l-28 21l-29 -21
h-58zM161 796l-62 -49h48q4 2 14 10.5t16 11.5l30 -22h49l-62 49h-33zM121 753l43 36h27l43 -36h-24l-33 24l-33 -24h-23z" />
    <glyph glyph-name="gcircumflex" unicode="&#x11d;" horiz-adv-x="259" 
d="M140 187h96v-70q0 -44 -24.5 -76t-64.5 -32t-65.5 31t-25.5 77v326q0 46 24 76.5t66 30.5q40 0 65.5 -30t25.5 -77v-45h-23v45q0 35 -18 59t-50 24q-29 0 -47 -23.5t-18 -59.5v-326q0 -33 17.5 -57t48.5 -24q29 0 47.5 23.5t18.5 57.5v45h-73v25zM245 197h-114v-44h73
v-36q0 -30 -15.5 -50.5t-41.5 -20.5t-42 21t-16 50v326q0 32 16 53t41 21q28 0 43.5 -21t15.5 -53v-54h41v54q0 52 -28 84.5t-72 32.5q-45 0 -71.5 -33.5t-26.5 -83.5v-326q0 -51 27.5 -84t71.5 -33t71 35t27 82v80zM127 201h122v-84q0 -50 -28 -86t-74 -36t-75 35t-29 87
v326q0 52 28 86.5t75 34.5q46 0 75 -33.5t29 -87.5v-59h-50v59q0 30 -14.5 49.5t-39.5 19.5q-23 0 -37.5 -19.5t-14.5 -49.5v-326q0 -27 14.5 -47t38.5 -20q23 0 38 19.5t15 47.5v31h-73v53zM61 629l67 55h37l67 -55h-59l-27 21l-28 -21h-57zM130 681l-60 -49h47l11 9
q12 9 18 13l29 -22h48l-60 49h-33zM91 638l42 36h27l42 -36h-24l-32 24l-32 -24h-23z" />
    <glyph glyph-name="Gbreve" unicode="&#x11e;" horiz-adv-x="316" 
d="M172 227h118v-86q0 -53 -30.5 -92.5t-81.5 -39.5q-50 0 -82 38t-32 95v412q0 57 30.5 96t81.5 39q50 0 82.5 -37.5t32.5 -96.5v-54h-23v54q0 47 -24.5 78t-66.5 31q-40 0 -64 -30.5t-24 -79.5v-412q0 -44 24 -75.5t65 -31.5q39 0 63.5 30.5t24.5 75.5v62h-94v24zM299 237
h-136v-43h94v-53q0 -41 -22 -69t-57 -28q-38 0 -59 29t-21 69v412q0 45 21.5 72.5t57.5 27.5q38 0 60 -28.5t22 -70.5v-64h41v64q0 63 -35 103t-89 40q-55 0 -88 -41t-33 -103v-412q0 -61 34.5 -102t88.5 -41t87.5 42.5t33.5 99.5v96zM158 242h146v-101q0 -59 -34.5 -103
t-91.5 -44q-56 0 -92 42.5t-36 105.5v412q0 63 34.5 106t91.5 43q56 0 92.5 -41.5t36.5 -106.5v-69h-51v69q0 41 -20.5 68t-56.5 27q-33 0 -53.5 -27t-20.5 -69v-412q0 -38 20 -65.5t55 -27.5q34 0 54 26.5t20 65.5v48h-94v53zM131 782h18q0 -16 21 -16h17q23 0 23 16h18
q0 -13 -11.5 -22.5t-28.5 -9.5h-18q-16 0 -27.5 9t-11.5 23zM157 788h-34q0 -20 13.5 -32t33.5 -12h18q20 0 34 12.5t14 31.5h-34q0 -7 -4.5 -11.5t-10.5 -4.5h-17q-13 0 -13 16zM119 791h42q0 -16 9 -16h17q11 0 11 16h42q0 -21 -15.5 -35.5t-36.5 -14.5h-18
q-21 0 -36 13.5t-15 36.5z" />
    <glyph glyph-name="gbreve" unicode="&#x11f;" horiz-adv-x="259" 
d="M140 187h96v-70q0 -44 -24.5 -76t-64.5 -32t-65.5 31t-25.5 77v326q0 46 24 76.5t66 30.5q40 0 65.5 -30t25.5 -77v-45h-23v45q0 35 -18 59t-50 24q-29 0 -47 -23.5t-18 -59.5v-326q0 -33 17.5 -57t48.5 -24q29 0 47.5 23.5t18.5 57.5v45h-73v25zM245 197h-114v-44h73
v-36q0 -30 -15.5 -50.5t-41.5 -20.5t-42 21t-16 50v326q0 32 16 53t41 21q28 0 43.5 -21t15.5 -53v-54h41v54q0 52 -28 84.5t-72 32.5q-45 0 -71.5 -33.5t-26.5 -83.5v-326q0 -51 27.5 -84t71.5 -33t71 35t27 82v80zM127 201h122v-84q0 -50 -28 -86t-74 -36t-75 35t-29 87
v326q0 52 28 86.5t75 34.5q46 0 75 -33.5t29 -87.5v-59h-50v59q0 30 -14.5 49.5t-39.5 19.5q-23 0 -37.5 -19.5t-14.5 -49.5v-326q0 -27 14.5 -47t38.5 -20q23 0 38 19.5t15 47.5v31h-73v53zM98 668h18q0 -16 21 -16h17q23 0 23 16h18q0 -13 -11.5 -22.5t-28.5 -9.5h-18
q-16 0 -27.5 9t-11.5 23zM124 674h-34q0 -20 13.5 -32t33.5 -12h18q20 0 34 12.5t14 31.5h-34q0 -7 -4.5 -11.5t-10.5 -4.5h-17q-13 0 -13 16zM86 677h42q0 -16 9 -16h17q11 0 11 16h42q0 -21 -15.5 -35.5t-36.5 -14.5h-18q-21 0 -36 13.5t-15 36.5z" />
    <glyph glyph-name="Gdotaccent" unicode="&#x120;" horiz-adv-x="316" 
d="M172 227h118v-86q0 -53 -30.5 -92.5t-81.5 -39.5q-50 0 -82 38t-32 95v412q0 57 30.5 96t81.5 39q50 0 82.5 -37.5t32.5 -96.5v-54h-23v54q0 47 -24.5 78t-66.5 31q-40 0 -64 -30.5t-24 -79.5v-412q0 -44 24 -75.5t65 -31.5q39 0 63.5 30.5t24.5 75.5v62h-94v24zM299 237
h-136v-43h94v-53q0 -41 -22 -69t-57 -28q-38 0 -59 29t-21 69v412q0 45 21.5 72.5t57.5 27.5q38 0 60 -28.5t22 -70.5v-64h41v64q0 63 -35 103t-89 40q-55 0 -88 -41t-33 -103v-412q0 -61 34.5 -102t88.5 -41t87.5 42.5t33.5 99.5v96zM158 242h146v-101q0 -59 -34.5 -103
t-91.5 -44q-56 0 -92 42.5t-36 105.5v412q0 63 34.5 106t91.5 43q56 0 92.5 -41.5t36.5 -106.5v-69h-51v69q0 41 -20.5 68t-56.5 27q-33 0 -53.5 -27t-20.5 -69v-412q0 -38 20 -65.5t55 -27.5q34 0 54 26.5t20 65.5v48h-94v53zM190 751h-22v37h22v-37zM163 746h31v49h-31
v-49zM198 742h-39v57h39v-57z" />
    <glyph glyph-name="gdotaccent" unicode="&#x121;" horiz-adv-x="259" 
d="M140 187h96v-70q0 -44 -24.5 -76t-64.5 -32t-65.5 31t-25.5 77v326q0 46 24 76.5t66 30.5q40 0 65.5 -30t25.5 -77v-45h-23v45q0 35 -18 59t-50 24q-29 0 -47 -23.5t-18 -59.5v-326q0 -33 17.5 -57t48.5 -24q29 0 47.5 23.5t18.5 57.5v45h-73v25zM245 197h-114v-44h73
v-36q0 -30 -15.5 -50.5t-41.5 -20.5t-42 21t-16 50v326q0 32 16 53t41 21q28 0 43.5 -21t15.5 -53v-54h41v54q0 52 -28 84.5t-72 32.5q-45 0 -71.5 -33.5t-26.5 -83.5v-326q0 -51 27.5 -84t71.5 -33t71 35t27 82v80zM127 201h122v-84q0 -50 -28 -86t-74 -36t-75 35t-29 87
v326q0 52 28 86.5t75 34.5q46 0 75 -33.5t29 -87.5v-59h-50v59q0 30 -14.5 49.5t-39.5 19.5q-23 0 -37.5 -19.5t-14.5 -49.5v-326q0 -27 14.5 -47t38.5 -20q23 0 38 19.5t15 47.5v31h-73v53zM157 637h-22v37h22v-37zM130 632h31v49h-31v-49zM165 628h-39v57h39v-57z" />
    <glyph glyph-name="uni0122" unicode="&#x122;" horiz-adv-x="316" 
d="M172 227h118v-86q0 -53 -30.5 -92.5t-81.5 -39.5q-50 0 -82 38t-32 95v412q0 57 30.5 96t81.5 39q50 0 82.5 -37.5t32.5 -96.5v-54h-23v54q0 47 -24.5 78t-66.5 31q-40 0 -64 -30.5t-24 -79.5v-412q0 -44 24 -75.5t65 -31.5q39 0 63.5 30.5t24.5 75.5v62h-94v24zM299 237
h-136v-43h94v-53q0 -41 -22 -69t-57 -28q-38 0 -59 29t-21 69v412q0 45 21.5 72.5t57.5 27.5q38 0 60 -28.5t22 -70.5v-64h41v64q0 63 -35 103t-89 40q-55 0 -88 -41t-33 -103v-412q0 -61 34.5 -102t88.5 -41t87.5 42.5t33.5 99.5v96zM158 242h146v-101q0 -59 -34.5 -103
t-91.5 -44q-56 0 -92 42.5t-36 105.5v412q0 63 34.5 106t91.5 43q56 0 92.5 -41.5t36.5 -106.5v-69h-51v69q0 41 -20.5 68t-56.5 27q-33 0 -53.5 -27t-20.5 -69v-412q0 -38 20 -65.5t55 -27.5q34 0 54 26.5t20 65.5v48h-94v53zM186 -148h-19v93h25v-49zM159 -156h34l8 51v57
h-42v-108zM198 -160h-44v115h52v-60z" />
    <glyph glyph-name="uni0123" unicode="&#x123;" horiz-adv-x="259" 
d="M140 187h96v-70q0 -44 -24.5 -76t-64.5 -32t-65.5 31t-25.5 77v326q0 46 24 76.5t66 30.5q40 0 65.5 -30t25.5 -77v-45h-23v45q0 35 -18 59t-50 24q-29 0 -47 -23.5t-18 -59.5v-326q0 -33 17.5 -57t48.5 -24q29 0 47.5 23.5t18.5 57.5v45h-73v25zM245 197h-114v-44h73
v-36q0 -30 -15.5 -50.5t-41.5 -20.5t-42 21t-16 50v326q0 32 16 53t41 21q28 0 43.5 -21t15.5 -53v-54h41v54q0 52 -28 84.5t-72 32.5q-45 0 -71.5 -33.5t-26.5 -83.5v-326q0 -51 27.5 -84t71.5 -33t71 35t27 82v80zM127 201h122v-84q0 -50 -28 -86t-74 -36t-75 35t-29 87
v326q0 52 28 86.5t75 34.5q46 0 75 -33.5t29 -87.5v-59h-50v59q0 30 -14.5 49.5t-39.5 19.5q-23 0 -37.5 -19.5t-14.5 -49.5v-326q0 -27 14.5 -47t38.5 -20q23 0 38 19.5t15 47.5v31h-73v53zM159 -148h-19v93h25v-49zM132 -156h34l8 51v57h-42v-108zM171 -160h-44v115h52
v-60z" />
    <glyph glyph-name="Hcircumflex" unicode="&#x124;" horiz-adv-x="344" 
d="M276 686h24v-672h-24v178h-178v-178h-25v672h25v-469h178v469zM309 695h-42v-469h-160v469h-43v-690h43v177h160v-177h42v690zM262 700h52v-700h-52v177h-150v-177h-53v700h53v-469h150v469zM101 743l69 55h37l69 -55h-60l-28 21l-29 -21h-58zM172 795l-62 -49h48
q4 2 14 10.5t16 11.5l30 -22h49l-62 49h-33zM132 752l43 36h27l43 -36h-24l-33 24l-33 -24h-23z" />
    <glyph glyph-name="hcircumflex" unicode="&#x125;" horiz-adv-x="281" 
d="M220 545h24v-531h-24v139h-132v-139h-25v531h25v-367h132v367zM253 554h-42v-366h-115v366h-41v-549h41v138h115v-138h42v549zM207 559h50v-559h-50v139h-106v-139h-51v559h51v-366h106v366zM69 632l69 55h37l69 -55h-60l-28 21l-29 -21h-58zM140 684l-62 -49h48
q4 2 14 10.5t16 11.5l30 -22h49l-62 49h-33zM100 641l43 36h27l43 -36h-24l-33 24l-33 -24h-23z" />
    <glyph glyph-name="Hbar" unicode="&#x126;" horiz-adv-x="353" 
d="M283 686h25v-131h41v-21h-41v-520h-25v178h-183v-178h-26v520h-40v21h40v131h26v-131h183v131zM100 217h183v317h-183v-317zM274 226h-165v299h165v-299zM317 695h-43v-130h-165v130h-44v-130h-40v-40h40v-520h44v177h165v-177h43v520h42v40h-42v130zM269 700h53v-130h41
v-50h-41v-520h-53v177h-155v-177h-53v520h-41v50h41v130h53v-130h155v130zM114 231h155v289h-155v-289z" />
    <glyph glyph-name="hbar" unicode="&#x127;" horiz-adv-x="283" 
d="M223 545h25v-89h33v-19h-33v-423h-25v139h-136v-139h-26v423h-32v19h32v89h26v-89h136v89zM87 178h136v259h-136v-259zM214 188h-118v239h118v-239zM257 554h-43v-89h-118v89h-44v-89h-32v-38h32v-422h44v138h118v-138h43v422h33v38h-33v89zM210 559h52v-89h32v-48h-32
v-422h-52v139h-110v-139h-52v422h-33v48h33v89h52v-89h110v89zM100 193h110v229h-110v-229z" />
    <glyph glyph-name="Itilde" unicode="&#x128;" horiz-adv-x="142" 
d="M98 686v-672h-25v672h25zM107 5v690h-43v-690h43zM112 700v-700h-53v700h53zM83 767q-26 13 -50 1v13q23 12 51 1q28 -13 51 -2v-14q-26 -10 -52 1zM79 762q33 -13 64 1v28q-21 -9 -28 -10t-28 6q-33 16 -61 -3v-27q28 16 53 5zM77 759q-25 10 -55 -9v37q31 18 68 3
q18 -6 25.5 -5t31.5 11v-36q-37 -16 -70 -1z" />
    <glyph glyph-name="itilde" unicode="&#x129;" horiz-adv-x="128" 
d="M88 545v-531h-25v531h25zM96 5v549h-41v-549h41zM101 559v-559h-51v559h51zM75 654q-23 13 -45 1v13q22 13 46 2q25 -14 47 -3v-14q-24 -10 -48 1zM72 649q29 -13 58 1v29q-19 -10 -25.5 -11t-25.5 7q-30 16 -55 -3v-28q25 16 48 5zM70 646q-22 9 -50 -9v38q28 19 62 3
q17 -7 23 -6t28 12v-37q-33 -16 -63 -1z" />
    <glyph glyph-name="Imacron" unicode="&#x12a;" horiz-adv-x="142" 
d="M98 686v-672h-25v672h25zM107 5v690h-43v-690h43zM112 700v-700h-53v700h53zM42 751v14h86v-14h-86zM33 772v-28h103v28h-103zM30 740v35h109v-35h-109z" />
    <glyph glyph-name="imacron" unicode="&#x12b;" horiz-adv-x="128" 
d="M88 545v-531h-25v531h25zM96 5v549h-41v-549h41zM101 559v-559h-51v559h51zM37 656v13h76v-13h-76zM29 676v-27h91v27h-91zM27 645v34h96v-34h-96z" />
    <glyph glyph-name="Ibreve" unicode="&#x12c;" horiz-adv-x="142" 
d="M98 686v-672h-25v672h25zM107 5v690h-43v-690h43zM112 700v-700h-53v700h53zM37 782h18q0 -16 21 -16h17q23 0 23 16h18q0 -13 -11.5 -22.5t-28.5 -9.5h-18q-16 0 -27.5 9t-11.5 23zM63 788h-34q0 -20 13.5 -32t33.5 -12h18q20 0 34 12.5t14 31.5h-34q0 -7 -4.5 -11.5
t-10.5 -4.5h-17q-13 0 -13 16zM25 791h42q0 -16 9 -16h17q11 0 11 16h42q0 -21 -15.5 -35.5t-36.5 -14.5h-18q-21 0 -36 13.5t-15 36.5z" />
    <glyph glyph-name="ibreve" unicode="&#x12d;" horiz-adv-x="128" 
d="M88 545v-531h-25v531h25zM96 5v549h-41v-549h41zM101 559v-559h-51v559h51zM28 674h18q0 -16 21 -16h17q23 0 23 16h18q0 -13 -11.5 -22.5t-28.5 -9.5h-18q-16 0 -27.5 9t-11.5 23zM54 680h-34q0 -20 13.5 -32t33.5 -12h18q20 0 34 12.5t14 31.5h-34q0 -7 -4.5 -11.5
t-10.5 -4.5h-17q-13 0 -13 16zM16 683h42q0 -16 9 -16h17q11 0 11 16h42q0 -21 -15.5 -35.5t-36.5 -14.5h-18q-21 0 -36 13.5t-15 36.5z" />
    <glyph glyph-name="Iogonek" unicode="&#x12e;" horiz-adv-x="142" 
d="M86 -94q-29 0 -39 22t3 48l12 24h-3v700h53v-700h-9l-17 -36q-7 -17 0 -17h9q6 0 13 11l23 -29q-16 -23 -36 -23h-9zM69 6l-16 -33q-12 -25 -2 -44t35 -19h9q18 0 31 19l-18 23q-7 -9 -13 -9h-9q-12 0 -3 22l18 40h6v690h-43v-689h5zM98 686v-672h-2l-20 -46
q-14 -33 10 -33h9q6 0 12 6l10 -12q-9 -11 -22 -11h-9q-20 0 -27.5 15t1.5 36l19 45h-6v672h25z" />
    <glyph glyph-name="iogonek" unicode="&#x12f;" horiz-adv-x="146" 
d="M86 -94q-29 0 -39 22t3 48l12 24h-3v559h51v-559h-9l-15 -36q-7 -17 0 -17h9q6 0 13 11l23 -29q-16 -23 -36 -23h-9zM69 6l-16 -33q-12 -25 -2 -44t35 -19h9q18 0 31 19l-18 23q-7 -9 -13 -9h-9q-12 0 -3 22l16 40h6v549h-41v-548h5zM96 545v-531h-2l-18 -46
q-14 -33 10 -33h9q6 0 12 6l10 -12q-9 -11 -22 -11h-9q-20 0 -27.5 15t1.5 36l19 45h-6v531h23z" />
    <glyph glyph-name="Idotaccent" unicode="&#x130;" horiz-adv-x="142" 
d="M98 686v-672h-25v672h25zM107 5v690h-43v-690h43zM112 700v-700h-53v700h53zM99 749h-26v38h26v-38zM67 744h37v50h-37v-50zM108 740h-46v58h46v-58z" />
    <glyph glyph-name="dotlessi" unicode="&#x131;" horiz-adv-x="125" 
d="M88 545v-531h-25v531h25zM96 5v549h-41v-549h41zM101 559v-559h-51v559h51z" />
    <glyph glyph-name="IJ" unicode="&#x132;" horiz-adv-x="455" 
d="M98 686v-672h-25v672h25zM107 5v690h-43v-690h43zM112 700v-700h-53v700h53zM306 8q-52 0 -84 38.5t-32 95.5v45h25v-45q0 -44 24 -76.5t67 -32.5q40 0 64 32t24 77l-1 544h25v-544q0 -55 -29.5 -94.5t-82.5 -39.5zM306 -2q57 0 89 42.5t32 101.5v553h-43v-553
q0 -41 -21 -70.5t-57 -29.5q-39 0 -60.5 30t-21.5 70v55h-43v-55q0 -61 34.5 -102.5t90.5 -41.5zM306 -7q-58 0 -94 43t-36 106v59h53v-59q0 -38 20 -66.5t57 -28.5q34 0 53.5 28t19.5 67v558h52v-558q0 -62 -32.5 -105.5t-92.5 -43.5z" />
    <glyph glyph-name="ij" unicode="&#x133;" horiz-adv-x="382" 
d="M88 545v-531h-25v531h25zM96 5v549h-41v-549h41zM101 559v-559h-51v559h51zM261 9q-41 0 -66.5 31t-25.5 77v38h25v-38q0 -34 17.5 -58.5t49.5 -24.5q31 0 48 24.5t17 58.5v428h24v-428q0 -45 -23 -76.5t-66 -31.5zM261 -1q47 0 72.5 34.5t25.5 83.5v438h-41v-438
q0 -30 -15.5 -51.5t-41.5 -21.5q-28 0 -43.5 22t-15.5 51v47h-42v-47q0 -50 28 -84t73 -34zM261 -6q-47 0 -76 35.5t-29 87.5v52h51v-52q0 -28 14.5 -48.5t39.5 -20.5q24 0 38 20.5t14 48.5v442h50v-442q0 -51 -26.5 -87t-75.5 -36z" />
    <glyph glyph-name="Jcircumflex" unicode="&#x134;" horiz-adv-x="313" 
d="M164 8q-52 0 -84 38.5t-32 95.5v45h25v-45q0 -44 24 -76.5t67 -32.5q40 0 64 32t24 77l-1 544h25v-544q0 -55 -29.5 -94.5t-82.5 -39.5zM164 -2q57 0 89 42.5t32 101.5v553h-43v-553q0 -41 -21 -70.5t-57 -29.5q-39 0 -60.5 30t-21.5 70v55h-43v-55q0 -61 34.5 -102.5
t90.5 -41.5zM164 -7q-58 0 -94 43t-36 106v59h53v-59q0 -38 20 -66.5t57 -28.5q34 0 53.5 28t19.5 67v558h52v-558q0 -62 -32.5 -105.5t-92.5 -43.5zM177 744l64 55h35l65 -55h-56l-27 21l-27 -21h-54zM243 796l-58 -49h45q5 3 14 11t14 11l28 -22h46l-58 49h-31zM206 753
l40 36h25l41 -36h-23l-31 24l-31 -24h-21z" />
    <glyph glyph-name="jcircumflex" unicode="&#x135;" horiz-adv-x="257" 
d="M136 9q-41 0 -66.5 31t-25.5 77v38h25v-38q0 -34 17.5 -58.5t49.5 -24.5q31 0 48 24.5t17 58.5v428h24v-428q0 -45 -23 -76.5t-66 -31.5zM136 -1q47 0 72.5 34.5t25.5 83.5v438h-41v-438q0 -30 -15.5 -51.5t-41.5 -21.5q-28 0 -43.5 22t-15.5 51v47h-42v-47q0 -50 28 -84
t73 -34zM136 -6q-47 0 -76 35.5t-29 87.5v52h51v-52q0 -28 14.5 -48.5t39.5 -20.5q24 0 38 20.5t14 48.5v442h50v-442q0 -51 -26.5 -87t-75.5 -36zM128 622l63 61h34l63 -61h-55l-26 24l-26 -24h-53zM193 680l-57 -54h44q4 3 13.5 12t13.5 12l28 -24h45l-57 54h-30zM156 632
l39 40h25l39 -40h-22l-30 27l-30 -27h-21z" />
    <glyph glyph-name="uni0136" unicode="&#x136;" horiz-adv-x="322" 
d="M315 686l-176 -430l177 -242h-31l-159 216l-30 -62v-154h-25v672h25v-466l193 466h26zM149 258l180 437h-45q-33 -80 -95.5 -229t-83.5 -200v429h-43v-690h43v160q8 15 23 47l152 -207h54q-19 26 -57.5 78t-70.5 96t-57 79zM336 700l-182 -442q32 -44 99 -134.5
t91 -123.5h-66l-149 203l-19 -38v-165h-53v700h53v-411l170 411h56zM198 -148h-19v93h25v-49zM171 -156h34l8 51v57h-42v-108zM210 -160h-44v115h52v-60z" />
    <glyph glyph-name="uni0137" unicode="&#x137;" horiz-adv-x="265" 
d="M259 545l-139 -338l139 -193h-30l-120 167l-21 -45v-122h-25v531h25v-354l145 354h26zM130 208l142 346h-44l-132 -320v320h-42v-549h42v129l14 29l115 -158h52zM279 559l-144 -350q131 -180 152 -209h-64l-112 155l-10 -22v-133h-51v559h51v-302l123 302h55zM171 -147
h-19v93h25v-49zM144 -155h34l8 51v57h-42v-108zM183 -159h-44v115h52v-60z" />
    <glyph glyph-name="kgreenlandic" unicode="&#x138;" horiz-adv-x="265" 
d="M259 545l-139 -338l139 -193h-30l-120 167l-21 -45v-122h-25v531h25v-354l145 354h26zM130 208l142 346h-44l-132 -320v320h-42v-549h42v129l14 29l115 -158h52zM279 559l-144 -350q131 -180 152 -209h-64l-112 155l-10 -22v-133h-51v559h51v-302l123 302h55z" />
    <glyph glyph-name="Lacute" unicode="&#x139;" horiz-adv-x="249" 
d="M93 39h137v-25h-161v672h24v-647zM238 49h-137v646h-41v-690h178v44zM106 54h137v-54h-188v700h51v-646zM139 809l-39 -70h-45l34 70h50zM97 743l36 63h-42l-30 -63h36zM120 798l-27 -47h-20l22 47h25z" />
    <glyph glyph-name="lacute" unicode="&#x13a;" horiz-adv-x="206" 
d="M84 39h104v-25h-128v531h24v-506zM196 48h-104v506h-40v-549h144v43zM96 53h105v-53h-153v559h48v-506zM125 691l-37 -62h-41l31 62h47zM86 632l33 56h-39l-28 -56h34zM107 681l-25 -42h-19l21 42h23z" />
    <glyph glyph-name="uni013B" unicode="&#x13b;" horiz-adv-x="249" 
d="M93 39h137v-25h-161v672h24v-647zM238 49h-137v646h-41v-690h178v44zM106 54h137v-54h-188v700h51v-646zM156 -145h-17v85h23v-45zM131 -152h31l7 47v51h-38v-98zM166 -156h-39v105h47v-54z" />
    <glyph glyph-name="uni013C" unicode="&#x13c;" horiz-adv-x="206" 
d="M84 39h104v-25h-128v531h24v-506zM196 48h-104v506h-40v-549h144v43zM96 53h105v-53h-153v559h48v-506zM129 -137h-17v85h23v-45zM104 -144h31l7 47v51h-38v-98zM139 -148h-39v105h47v-54z" />
    <glyph glyph-name="Lcaron" unicode="&#x13d;" horiz-adv-x="249" 
d="M93 39h137v-25h-161v672h24v-647zM238 49h-137v646h-41v-690h178v44zM106 54h137v-54h-188v700h51v-646zM162 797l-60 -57h-34l-61 57h53l26 -19l26 19h50zM100 744l54 50h-41q-4 -4 -8.5 -7.5t-10 -7.5t-8.5 -6l-27 21h-42l54 -50h29zM136 786l-39 -36h-24l-39 36h22
l30 -23l29 23h21z" />
    <glyph glyph-name="lcaron" unicode="&#x13e;" horiz-adv-x="206" 
d="M84 39h104v-25h-128v531h24v-506zM196 48h-104v506h-40v-549h144v43zM96 53h105v-53h-153v559h48v-506zM152 690l-60 -57h-34l-61 57h53l26 -19l26 19h50zM90 637l54 50h-41q-4 -4 -8.5 -7.5t-10 -7.5t-8.5 -6l-27 21h-42l54 -50h29zM126 679l-39 -36h-24l-39 36h22
l30 -23l29 23h21z" />
    <glyph glyph-name="Ldot" unicode="&#x13f;" horiz-adv-x="249" 
d="M93 39h137v-25h-161v672h24v-647zM238 49h-137v646h-41v-690h178v44zM106 54h137v-54h-188v700h51v-646zM192 240h-22v37h22v-37zM165 235h31v49h-31v-49zM200 231h-39v57h39v-57z" />
    <glyph glyph-name="ldot" unicode="&#x140;" horiz-adv-x="206" 
d="M84 39h104v-25h-128v531h24v-506zM196 48h-104v506h-40v-549h144v43zM96 53h105v-53h-153v559h48v-506zM169 227h-22v37h22v-37zM142 222h31v49h-31v-49zM177 218h-39v57h39v-57z" />
    <glyph glyph-name="Lslash" unicode="&#x141;" horiz-adv-x="255" 
d="M31 192v22l39 20v452h25v-440l65 34v-22l-65 -34v-185h141v-25h-166v198zM22 220v-44q4 3 10.5 6.5t15.5 8l13 6.5v-192h184v44h-141v170l65 33v42l-65 -33v434h-43v-455zM18 169v53l39 21v457h51v-431l66 34v-55l-66 -33v-161h141v-54h-192v189z" />
    <glyph glyph-name="lslash" unicode="&#x142;" horiz-adv-x="205" 
d="M28 190v21l30 15v319h24v-307l55 29v-21l-55 -29v-178h108v-25h-132v191zM19 216v-41l31 15v-185h149v43h-108v164l54 28v42l-54 -30v302h-41v-322zM15 168v52l30 15v324h50v-300l55 30v-53l-55 -28v-155h108v-53h-158v183z" />
    <glyph glyph-name="Nacute" unicode="&#x143;" horiz-adv-x="356" 
d="M288 686h24v-672h-24l-190 590v-590h-25v672h25l190 -597v597zM321 695h-42v-548l-175 548h-40v-690h43v543l174 -543h40v690zM274 700h52v-700h-48l-166 517v-517h-53v700h49l166 -523v523zM254 807l-43 -68h-48l36 68h55zM208 742l39 61h-45l-33 -61h39zM233 796
l-29 -46h-22l24 46h27z" />
    <glyph glyph-name="nacute" unicode="&#x144;" horiz-adv-x="291" 
d="M235 62h1q-5 38 -6 76v407h24v-531h-23l-131 410q-6 17 -17 68h-1q4 -29 6 -69v-409h-24v531h23l129 -407zM93 554h-38v-549h42v397l127 -397h39v549h-42v-406zM50 559h47l119 -382v382h51v-559h-46l-120 375v-375h-51v559zM204 685l-37 -62h-41l31 62h47zM165 626l33 56
h-39l-28 -56h34zM186 675l-25 -42h-19l21 42h23z" />
    <glyph glyph-name="uni0145" unicode="&#x145;" horiz-adv-x="356" 
d="M288 686h24v-672h-24l-190 590v-590h-25v672h25l190 -597v597zM321 695h-42v-548l-175 548h-40v-690h43v543l174 -543h40v690zM274 700h52v-700h-48l-166 517v-517h-53v700h49l166 -523v523zM201 -135h-17v85h23v-45zM176 -142h31l7 47v51h-38v-98zM211 -146h-39v105h47
v-54z" />
    <glyph glyph-name="uni0146" unicode="&#x146;" horiz-adv-x="291" 
d="M235 62h1q-5 38 -6 76v407h24v-531h-23l-131 410q-6 17 -17 68h-1q4 -29 6 -69v-409h-24v531h23l129 -407zM93 554h-38v-549h42v397l127 -397h39v549h-42v-406zM50 559h47l119 -382v382h51v-559h-46l-120 375v-375h-51v559zM168 -136h-17v85h23v-45zM143 -143h31l7 47v51
h-38v-98zM178 -147h-39v105h47v-54z" />
    <glyph glyph-name="Ncaron" unicode="&#x147;" horiz-adv-x="356" 
d="M288 686h24v-672h-24l-190 590v-590h-25v672h25l190 -597v597zM321 695h-42v-548l-175 548h-40v-690h43v543l174 -543h40v690zM274 700h52v-700h-48l-166 517v-517h-53v700h49l166 -523v523zM286 794l-68 -52h-38l-68 52h59l29 -18l29 18h57zM216 745l60 46h-46
q-10 -7 -30 -19l-30 19h-47l60 -46h33zM256 784l-44 -33h-26l-44 33h24l34 -21l33 21h23z" />
    <glyph glyph-name="ncaron" unicode="&#x148;" horiz-adv-x="291" 
d="M235 62h1q-5 38 -6 76v407h24v-531h-23l-131 410q-6 17 -17 68h-1q4 -29 6 -69v-409h-24v531h23l129 -407zM93 554h-38v-549h42v397l127 -397h39v549h-42v-406zM50 559h47l119 -382v382h51v-559h-46l-120 375v-375h-51v559zM242 681l-63 -52h-34l-62 52h53l27 -18l26 18
h53zM178 632l54 46h-42q-9 -7 -27 -19l-27 19h-43l54 -46h31zM214 671l-40 -33h-24l-40 33h22l31 -21l30 21h21z" />
    <glyph glyph-name="napostrophe" unicode="&#x149;" horiz-adv-x="291" 
d="M235 62h1q-5 38 -6 76v407h24v-531h-23l-131 410q-6 17 -17 68h-1q4 -29 6 -69v-409h-24v531h23l129 -407zM93 554h-38v-549h42v397l127 -397h39v549h-42v-406zM50 559h47l119 -382v382h51v-559h-46l-120 375v-375h-51v559z" />
    <glyph glyph-name="Eng" unicode="&#x14a;" horiz-adv-x="356" 
d="M288 691h24v-727q0 -53 -19 -78.5t-63 -18.5v22q32 -3 45 13.5t13 61.5v50l-190 595v-595h-25v677h25l190 -601v601zM321 700h-42v-552l-175 552h-40v-695h43v547l172 -538v-50q0 -39 -13 -53t-45 -11v-42q54 -9 77 19.5t23 86.5v736zM274 705h51v-741q0 -61 -25 -90
t-83 -20v50q32 -3 44.5 9.5t12.5 50.5v49q-141 439 -162 508v-521h-53v705h49l166 -526v526z" />
    <glyph glyph-name="eng" unicode="&#x14b;" horiz-adv-x="284" 
d="M171 -132v22q31 -3 43.5 13.5t12.5 60.5v50l-131 415l-8 32l-9 36q1 -7 3 -33t3 -36v-414h-25v537h24l128 -412l19 -77h1q-1 9 -2.5 24t-2.5 28t-1 25v412h25v-587q0 -53 -18.5 -78t-61.5 -18zM162 -100v-41q52 -9 75 19t23 86v596h-43v-409l-127 409h-39v-555h42v401
q21 -65 63 -195.5t62 -196.5v-50q0 -38 -12.5 -52.5t-43.5 -11.5zM158 -145v50q31 -3 43.5 10.5t12.5 48.5v48l-116 367v-379h-51v565h46l120 -386v386h51v-601q0 -60 -24.5 -89t-81.5 -20z" />
    <glyph glyph-name="Omacron" unicode="&#x14c;" 
d="M179 8q-53 0 -84 37.5t-31 94.5v419q0 56 30.5 94.5t84.5 38.5q51 0 81.5 -38.5t30.5 -94.5v-418q0 -55 -29.5 -94t-82.5 -39zM179 667q-44 0 -67 -30t-23 -78v-419q0 -46 23 -76t67 -30q42 0 65 30.5t23 76.5v418q0 44 -22.5 76t-65.5 32zM179 658q38 0 58.5 -29.5
t20.5 -69.5v-418q0 -43 -20.5 -70.5t-58.5 -27.5q-39 0 -60 27.5t-21 69.5v419q0 43 21 71t60 28zM179 -2q58 0 89.5 42t31.5 101v418q0 59 -33 100.5t-88 41.5q-59 0 -91.5 -41.5t-32.5 -100.5v-419q0 -61 33.5 -101.5t90.5 -40.5zM179 -7q-58 0 -93.5 42t-35.5 105v419
q0 61 34 104t95 43q57 0 91.5 -42.5t34.5 -104.5v-418q0 -61 -33 -104.5t-93 -43.5zM179 653q-38 0 -57 -26t-19 -68v-419q0 -40 19 -66.5t57 -26.5q36 0 55 26.5t19 67.5v418q0 39 -18.5 66.5t-55.5 27.5zM134 759v14h91v-14h-91zM125 779v-26h108v26h-108zM121 750v33h115
v-33h-115z" />
    <glyph glyph-name="omacron" unicode="&#x14d;" horiz-adv-x="269" 
d="M148 9q-42 0 -67 30.5t-25 76.5v328q0 44 24.5 75t67.5 31q41 0 65 -30.5t24 -75.5v-327q0 -45 -23.5 -76.5t-65.5 -31.5zM148 525q-32 0 -49.5 -23t-17.5 -58v-328q0 -34 17.5 -57.5t49.5 -23.5t48.5 23t16.5 59v327q0 33 -16.5 57t-48.5 24zM148 516q27 0 41.5 -21.5
t14.5 -50.5v-327q0 -32 -14.5 -52t-41.5 -20q-28 0 -43.5 20.5t-15.5 50.5v328q0 31 15.5 51.5t43.5 20.5zM148 -1q47 0 72.5 34.5t25.5 83.5v327q0 48 -27 82t-71 34q-47 0 -73.5 -34t-26.5 -82v-328q0 -51 27 -84t73 -33zM148 -6q-48 0 -76.5 34.5t-28.5 87.5v328
q0 50 28 85t77 35q46 0 74 -34.5t28 -85.5v-327q0 -51 -27 -87t-75 -36zM148 511q-27 0 -40.5 -19t-13.5 -48v-328q0 -28 14 -47.5t40 -19.5t39 19t13 49v327q0 27 -13.5 47t-38.5 20zM105 649v16h91v-16h-91zM95 672v-30h110v30h-110zM92 638v38h116v-38h-116z" />
    <glyph glyph-name="Obreve" unicode="&#x14e;" 
d="M179 8q-53 0 -84 37.5t-31 94.5v419q0 56 30.5 94.5t84.5 38.5q51 0 81.5 -38.5t30.5 -94.5v-418q0 -55 -29.5 -94t-82.5 -39zM179 667q-44 0 -67 -30t-23 -78v-419q0 -46 23 -76t67 -30q42 0 65 30.5t23 76.5v418q0 44 -22.5 76t-65.5 32zM179 658q38 0 58.5 -29.5
t20.5 -69.5v-418q0 -43 -20.5 -70.5t-58.5 -27.5q-39 0 -60 27.5t-21 69.5v419q0 43 21 71t60 28zM179 -2q58 0 89.5 42t31.5 101v418q0 59 -33 100.5t-88 41.5q-59 0 -91.5 -41.5t-32.5 -100.5v-419q0 -61 33.5 -101.5t90.5 -40.5zM179 -7q-58 0 -93.5 42t-35.5 105v419
q0 61 34 104t95 43q57 0 91.5 -42.5t34.5 -104.5v-418q0 -61 -33 -104.5t-93 -43.5zM179 653q-38 0 -57 -26t-19 -68v-419q0 -40 19 -66.5t57 -26.5q36 0 55 26.5t19 67.5v418q0 39 -18.5 66.5t-55.5 27.5zM128 788h18q0 -16 21 -16h17q23 0 23 16h18q0 -13 -11.5 -22.5
t-28.5 -9.5h-18q-16 0 -27.5 9t-11.5 23zM154 794h-34q0 -20 13.5 -32t33.5 -12h18q20 0 34 12.5t14 31.5h-34q0 -7 -4.5 -11.5t-10.5 -4.5h-17q-13 0 -13 16zM116 797h42q0 -16 9 -16h17q11 0 11 16h42q0 -21 -15.5 -35.5t-36.5 -14.5h-18q-21 0 -36 13.5t-15 36.5z" />
    <glyph glyph-name="obreve" unicode="&#x14f;" horiz-adv-x="269" 
d="M148 9q-42 0 -67 30.5t-25 76.5v328q0 44 24.5 75t67.5 31q41 0 65 -30.5t24 -75.5v-327q0 -45 -23.5 -76.5t-65.5 -31.5zM148 525q-32 0 -49.5 -23t-17.5 -58v-328q0 -34 17.5 -57.5t49.5 -23.5t48.5 23t16.5 59v327q0 33 -16.5 57t-48.5 24zM148 516q27 0 41.5 -21.5
t14.5 -50.5v-327q0 -32 -14.5 -52t-41.5 -20q-28 0 -43.5 20.5t-15.5 50.5v328q0 31 15.5 51.5t43.5 20.5zM148 -1q47 0 72.5 34.5t25.5 83.5v327q0 48 -27 82t-71 34q-47 0 -73.5 -34t-26.5 -82v-328q0 -51 27 -84t73 -33zM148 -6q-48 0 -76.5 34.5t-28.5 87.5v328
q0 50 28 85t77 35q46 0 74 -34.5t28 -85.5v-327q0 -51 -27 -87t-75 -36zM148 511q-27 0 -40.5 -19t-13.5 -48v-328q0 -28 14 -47.5t40 -19.5t39 19t13 49v327q0 27 -13.5 47t-38.5 20zM99 670h18q0 -16 21 -16h17q23 0 23 16h18q0 -13 -11.5 -22.5t-28.5 -9.5h-18
q-16 0 -27.5 9t-11.5 23zM125 676h-34q0 -20 13.5 -32t33.5 -12h18q20 0 34 12.5t14 31.5h-34q0 -7 -4.5 -11.5t-10.5 -4.5h-17q-13 0 -13 16zM87 679h42q0 -16 9 -16h17q11 0 11 16h42q0 -21 -15.5 -35.5t-36.5 -14.5h-18q-21 0 -36 13.5t-15 36.5z" />
    <glyph glyph-name="Ohungarumlaut" unicode="&#x150;" 
d="M179 8q-53 0 -84 37.5t-31 94.5v419q0 56 30.5 94.5t84.5 38.5q51 0 81.5 -38.5t30.5 -94.5v-418q0 -55 -29.5 -94t-82.5 -39zM179 667q-44 0 -67 -30t-23 -78v-419q0 -46 23 -76t67 -30q42 0 65 30.5t23 76.5v418q0 44 -22.5 76t-65.5 32zM179 658q38 0 58.5 -29.5
t20.5 -69.5v-418q0 -43 -20.5 -70.5t-58.5 -27.5q-39 0 -60 27.5t-21 69.5v419q0 43 21 71t60 28zM179 -2q58 0 89.5 42t31.5 101v418q0 59 -33 100.5t-88 41.5q-59 0 -91.5 -41.5t-32.5 -100.5v-419q0 -61 33.5 -101.5t90.5 -40.5zM179 -7q-58 0 -93.5 42t-35.5 105v419
q0 61 34 104t95 43q57 0 91.5 -42.5t34.5 -104.5v-418q0 -61 -33 -104.5t-93 -43.5zM179 653q-38 0 -57 -26t-19 -68v-419q0 -40 19 -66.5t57 -26.5q36 0 55 26.5t19 67.5v418q0 39 -18.5 66.5t-55.5 27.5zM211 812l-44 -62h-46l37 62h53zM180 750l38 62h54l-45 -62h-47z
M225 753l39 56h-44l-34 -56h39zM165 753l40 56h-45l-33 -56h38zM190 802l-30 -42h-20l25 42h25zM250 802l-30 -42h-20l25 42h25z" />
    <glyph glyph-name="ohungarumlaut" unicode="&#x151;" horiz-adv-x="269" 
d="M148 9q-42 0 -67 30.5t-25 76.5v328q0 44 24.5 75t67.5 31q41 0 65 -30.5t24 -75.5v-327q0 -45 -23.5 -76.5t-65.5 -31.5zM148 525q-32 0 -49.5 -23t-17.5 -58v-328q0 -34 17.5 -57.5t49.5 -23.5t48.5 23t16.5 59v327q0 33 -16.5 57t-48.5 24zM148 516q27 0 41.5 -21.5
t14.5 -50.5v-327q0 -32 -14.5 -52t-41.5 -20q-28 0 -43.5 20.5t-15.5 50.5v328q0 31 15.5 51.5t43.5 20.5zM148 -1q47 0 72.5 34.5t25.5 83.5v327q0 48 -27 82t-71 34q-47 0 -73.5 -34t-26.5 -82v-328q0 -51 27 -84t73 -33zM148 -6q-48 0 -76.5 34.5t-28.5 87.5v328
q0 50 28 85t77 35q46 0 74 -34.5t28 -85.5v-327q0 -51 -27 -87t-75 -36zM148 511q-27 0 -40.5 -19t-13.5 -48v-328q0 -28 14 -47.5t40 -19.5t39 19t13 49v327q0 27 -13.5 47t-38.5 20zM175 675l-44 -62h-46l37 62h53zM144 613l38 62h54l-45 -62h-47zM189 616l39 56h-44
l-34 -56h39zM129 616l40 56h-45l-33 -56h38zM154 665l-30 -42h-20l25 42h25zM214 665l-30 -42h-20l25 42h25z" />
    <glyph glyph-name="OE" unicode="&#x152;" horiz-adv-x="402" 
d="M385 662h-139v-438h110v-24h-110v-161h139v-25h-164q-18 -5 -37 -5q-55 0 -87 37.5t-32 93.5v419q0 56 31.5 94.5t87.5 38.5q20 0 37 -6h164v-24zM184 34q22 0 37 5v622q-15 7 -37 7q-46 0 -69.5 -30.5t-23.5 -78.5v-419q0 -46 23.5 -76t69.5 -30zM184 43
q-41 0 -62.5 27.5t-21.5 69.5v419q0 44 21.5 71.5t62.5 27.5q16 0 28 -4v-608q-9 -3 -28 -3zM255 653h139v43h-172q-16 5 -38 5q-61 0 -94.5 -41.5t-33.5 -100.5v-419q0 -61 34.5 -101t93.5 -40q22 0 38 6h172v44h-139v141h110v43h-110v420zM398 648h-139v-410h111v-53h-111
v-131h139v-54h-174q-18 -6 -40 -6q-61 0 -97 41.5t-36 104.5v419q0 61 35.5 104t97.5 43q24 0 40 -6h174v-52zM184 48q16 0 23 2v601q-6 2 -23 2q-39 0 -59 -26.5t-20 -67.5v-419q0 -39 20.5 -65.5t58.5 -26.5z" />
    <glyph glyph-name="oe" unicode="&#x153;" horiz-adv-x="322" 
d="M307 522h-106v-339h85v-23h-85v-120h106v-26h-128q-15 -5 -30 -5q-44 0 -69 30t-25 77v328q0 45 25 75.5t69 30.5q15 0 30 -5h128v-23zM149 35q17 0 26 4v483q-12 4 -26 4q-34 0 -51.5 -23.5t-17.5 -58.5v-328q0 -35 18 -58t51 -23zM149 45q-29 0 -44.5 20.5t-15.5 50.5
v328q0 32 15.5 52.5t44.5 20.5q9 0 17 -2v-469q-4 -1 -17 -1zM210 512h106v43h-134q-15 5 -33 5q-49 0 -76 -34t-27 -82v-328q0 -51 27.5 -83.5t75.5 -32.5q18 0 33 5h134v44h-106v101h85v43h-85v319zM321 507h-107v-309h86v-53h-86v-91h107v-54h-140q-15 -5 -32 -5
q-50 0 -78.5 34t-28.5 87v328q0 50 28 85t79 35q17 0 32 -4h140v-53zM149 49h13v462q-1 0 -6 0.5t-7 0.5q-27 0 -41 -19t-14 -49v-328q0 -28 14 -47.5t41 -19.5z" />
    <glyph glyph-name="Racute" unicode="&#x154;" horiz-adv-x="325" 
d="M292 126v-112h-25v112q0 32 -18.5 51t-50.5 19h-102v-182h-25v672h104q46 0 79.5 -32t33.5 -98v-231q0 -71 -59 -110q29 -8 46 -32.5t17 -56.5zM96 661v-440h79q32 0 60.5 28.5t28.5 75.5v231q0 48 -24 76.5t-65 28.5h-79zM105 230v421h70q36 0 58 -25.5t22 -69.5v-231
q0 -43 -25.5 -69t-54.5 -26h-70zM301 5v121q0 67 -52 92q48 40 48 107v231q0 70 -36.5 104.5t-85.5 34.5h-113v-690h43v181h93q28 0 44 -16.5t16 -43.5v-121h43zM306 126v-126h-53v126q0 25 -14.5 40t-40.5 15h-88v-181h-53v700h118q51 0 89 -35.5t38 -108.5v-231
q0 -67 -45 -106q49 -28 49 -93zM109 646v-411h66q28 0 52 25t24 65v231q0 42 -20.5 66t-55.5 24h-66zM222 801l-39 -60h-42l32 60h49zM181 744l34 55h-40l-29 -55h35zM203 792l-26 -41h-20l22 41h24z" />
    <glyph glyph-name="racute" unicode="&#x155;" horiz-adv-x="267" 
d="M238 104v-90h-25v90q0 24 -13 38t-37 14h-76v-142h-26v531h84q36 0 63 -25.5t27 -78.5v-181q0 -26 -12 -51t-36 -35q51 -13 51 -70zM87 520v-340h58q24 0 45 22.5t21 57.5v181q0 37 -18 58t-48 21h-58zM95 190v321h50q26 0 42 -19t16 -51v-181q0 -31 -18.5 -50.5
t-39.5 -19.5h-50zM247 5v99q0 50 -39 73q35 28 35 83v181q0 57 -29 85t-69 28h-92v-549h42v141h68q19 0 30 -11.5t11 -30.5v-99h43zM251 104v-104h-51v104q0 37 -37 37h-63v-141h-52v559h97q42 0 72.5 -29t30.5 -89v-181q0 -51 -32 -83q35 -26 35 -73zM100 506v-311h45
q19 0 36 18t17 47v181q0 30 -14.5 47.5t-38.5 17.5h-45zM196 683l-37 -62h-41l31 62h47zM157 624l33 56h-39l-28 -56h34zM178 673l-25 -42h-19l21 42h23z" />
    <glyph glyph-name="uni0156" unicode="&#x156;" horiz-adv-x="325" 
d="M292 126v-112h-25v112q0 32 -18.5 51t-50.5 19h-102v-182h-25v672h104q46 0 79.5 -32t33.5 -98v-231q0 -71 -59 -110q29 -8 46 -32.5t17 -56.5zM96 661v-440h79q32 0 60.5 28.5t28.5 75.5v231q0 48 -24 76.5t-65 28.5h-79zM105 230v421h70q36 0 58 -25.5t22 -69.5v-231
q0 -43 -25.5 -69t-54.5 -26h-70zM301 5v121q0 67 -52 92q48 40 48 107v231q0 70 -36.5 104.5t-85.5 34.5h-113v-690h43v181h93q28 0 44 -16.5t16 -43.5v-121h43zM306 126v-126h-53v126q0 25 -14.5 40t-40.5 15h-88v-181h-53v700h118q51 0 89 -35.5t38 -108.5v-231
q0 -67 -45 -106q49 -28 49 -93zM109 646v-411h66q28 0 52 25t24 65v231q0 42 -20.5 66t-55.5 24h-66zM193 -130h-17v85h23v-45zM168 -137h31l7 47v51h-38v-98zM203 -141h-39v105h47v-54z" />
    <glyph glyph-name="uni0157" unicode="&#x157;" horiz-adv-x="267" 
d="M238 104v-90h-25v90q0 24 -13 38t-37 14h-76v-142h-26v531h84q36 0 63 -25.5t27 -78.5v-181q0 -26 -12 -51t-36 -35q51 -13 51 -70zM87 520v-340h58q24 0 45 22.5t21 57.5v181q0 37 -18 58t-48 21h-58zM95 190v321h50q26 0 42 -19t16 -51v-181q0 -31 -18.5 -50.5
t-39.5 -19.5h-50zM247 5v99q0 50 -39 73q35 28 35 83v181q0 57 -29 85t-69 28h-92v-549h42v141h68q19 0 30 -11.5t11 -30.5v-99h43zM251 104v-104h-51v104q0 37 -37 37h-63v-141h-52v559h97q42 0 72.5 -29t30.5 -89v-181q0 -51 -32 -83q35 -26 35 -73zM100 506v-311h45
q19 0 36 18t17 47v181q0 30 -14.5 47.5t-38.5 17.5h-45zM159 -119h-17v85h23v-45zM134 -126h31l7 47v51h-38v-98zM169 -130h-39v105h47v-54z" />
    <glyph glyph-name="Rcaron" unicode="&#x158;" horiz-adv-x="325" 
d="M292 126v-112h-25v112q0 32 -18.5 51t-50.5 19h-102v-182h-25v672h104q46 0 79.5 -32t33.5 -98v-231q0 -71 -59 -110q29 -8 46 -32.5t17 -56.5zM96 661v-440h79q32 0 60.5 28.5t28.5 75.5v231q0 48 -24 76.5t-65 28.5h-79zM105 230v421h70q36 0 58 -25.5t22 -69.5v-231
q0 -43 -25.5 -69t-54.5 -26h-70zM301 5v121q0 67 -52 92q48 40 48 107v231q0 70 -36.5 104.5t-85.5 34.5h-113v-690h43v181h93q28 0 44 -16.5t16 -43.5v-121h43zM306 126v-126h-53v126q0 25 -14.5 40t-40.5 15h-88v-181h-53v700h118q51 0 89 -35.5t38 -108.5v-231
q0 -67 -45 -106q49 -28 49 -93zM109 646v-411h66q28 0 52 25t24 65v231q0 42 -20.5 66t-55.5 24h-66zM255 792l-68 -52h-38l-68 52h59l29 -18l29 18h57zM185 743l60 46h-46q-10 -7 -30 -19l-30 19h-47l60 -46h33zM225 782l-44 -33h-26l-44 33h24l34 -21l33 21h23z" />
    <glyph glyph-name="rcaron" unicode="&#x159;" horiz-adv-x="267" 
d="M238 104v-90h-25v90q0 24 -13 38t-37 14h-76v-142h-26v531h84q36 0 63 -25.5t27 -78.5v-181q0 -26 -12 -51t-36 -35q51 -13 51 -70zM87 520v-340h58q24 0 45 22.5t21 57.5v181q0 37 -18 58t-48 21h-58zM95 190v321h50q26 0 42 -19t16 -51v-181q0 -31 -18.5 -50.5
t-39.5 -19.5h-50zM247 5v99q0 50 -39 73q35 28 35 83v181q0 57 -29 85t-69 28h-92v-549h42v141h68q19 0 30 -11.5t11 -30.5v-99h43zM251 104v-104h-51v104q0 37 -37 37h-63v-141h-52v559h97q42 0 72.5 -29t30.5 -89v-181q0 -51 -32 -83q35 -26 35 -73zM100 506v-311h45
q19 0 36 18t17 47v181q0 30 -14.5 47.5t-38.5 17.5h-45zM222 678l-65 -55h-36l-64 55h56l27 -19l28 19h54zM155 627l57 48h-43q-26 -18 -29 -20l-28 20h-45l57 -48h31zM193 668l-41 -35h-25l-42 35h23l32 -22l31 22h22z" />
    <glyph glyph-name="Sacute" unicode="&#x15a;" horiz-adv-x="321" 
d="M177 7q-52 0 -84 37t-31 98v58h24v-58q-2 -46 22.5 -78t68.5 -32q43 0 66 30t23 78v47q0 14 -4.5 26t-9.5 19.5t-18.5 18t-19 14.5t-25 15.5t-24.5 14.5q-48 28 -75 56.5t-28 68.5v139q0 58 27.5 95t79.5 37q49 0 76.5 -36.5t27.5 -93.5v-79h-24v78q0 47 -19.5 76
t-60.5 29q-37 0 -59.5 -27t-22.5 -79v-137q1 -25 15 -45.5t28 -30.5t43 -27q4 -2 20.5 -12.5t21.5 -13.5t19 -12.5t19 -15t14 -15t12.5 -18t7 -19t3.5 -22.5v-51q0 -58 -29 -95.5t-84 -37.5zM177 -3q60 0 91 40.5t31 102.5v51q0 22 -8 41t-27 35.5t-32 25.5t-40 26l-15 8
q-37 22 -58 43.5t-23 52.5v136q0 47 20 71.5t53 24.5q36 0 53.5 -26.5t17.5 -68.5v-88h42v89q0 62 -30 101t-83 39q-56 0 -86 -39.5t-30 -102.5v-139q1 -44 29 -74t78 -60l19 -12q20 -11 30 -17.5t23.5 -18t19 -24t5.5 -27.5v-47q0 -44 -21 -71.5t-59 -27.5q-40 0 -62 29.5
t-20 71.5v67h-42v-67q-1 -65 34 -105t90 -40zM177 -8q-57 0 -93 41.5t-36 108.5v72h52v-72q-2 -40 19 -68t58 -28t56 26t19 68v47q0 27 -18.5 45t-56.5 39l-18 11q-50 30 -80 62t-31 76v139q0 65 31.5 106t89.5 41q56 0 87 -40.5t31 -104.5v-94h-52v93q0 91 -66 91
q-31 0 -50 -23.5t-19 -68.5v-136q1 -22 14.5 -40t25 -26.5t39.5 -25.5l15 -9h-1q27 -16 41.5 -25.5t33.5 -26.5t27.5 -36t8.5 -43v-51q0 -64 -32.5 -106t-94.5 -42zM229 804l-43 -64h-46l35 64h54zM184 743l38 57h-45l-32 -57h39zM208 793l-29 -43h-21l24 43h26z" />
    <glyph glyph-name="sacute" unicode="&#x15b;" horiz-adv-x="263" 
d="M146 9q-40 0 -66 29.5t-25 78.5v47h24v-47q-2 -35 16 -59.5t51 -24.5t50 23t17 60v36q0 17 -10.5 31.5t-20 21t-32.5 20.5q-48 30 -71.5 53.5t-23.5 55.5v110q0 46 22 75.5t63 29.5q39 0 61 -28.5t22 -74.5v-66h-24v65q0 78 -59 78q-27 0 -43.5 -20t-16.5 -59v-108
q1 -14 5.5 -25t17.5 -22.5t21 -16.5t30 -19q28 -17 41.5 -27t27 -29.5t13.5 -41.5v-39q0 -47 -23 -77t-67 -30zM146 -1q49 0 74 33t25 84v39q0 25 -14.5 46t-28.5 31.5t-44 28.5q-28 19 -38 26.5t-20.5 20.5t-10.5 28v108q0 34 14 52t37 18q50 0 50 -69v-75h42v76
q0 50 -24.5 81.5t-67.5 31.5q-46 0 -70 -32t-24 -83v-110q1 -36 25 -60.5t75 -56.5q17 -11 22.5 -14.5t16.5 -13t15 -18t4 -19.5v-36q0 -32 -15 -52.5t-43 -20.5q-29 0 -44.5 21.5t-13.5 52.5v57h-42v-57q-1 -53 27.5 -85.5t72.5 -32.5zM146 -6q-46 0 -75.5 34t-29.5 89v62
h51v-63q-2 -28 12.5 -48.5t41.5 -20.5q26 0 40 19t14 50v36q0 29 -56 61q-52 31 -77 57t-26 64v110q0 53 25.5 86t73.5 33q45 0 70.5 -32.5t25.5 -84.5v-80h-50v79q0 64 -46 64t-46 -65v-108q1 -14 10.5 -26.5t19 -19.5t36.5 -25q31 -19 45.5 -29.5t29.5 -32.5t15 -48v-39
q0 -53 -27 -87.5t-77 -34.5zM192 678l-37 -62h-41l31 62h47zM153 619l33 56h-39l-28 -56h34zM174 668l-25 -42h-19l21 42h23z" />
    <glyph glyph-name="Scircumflex" unicode="&#x15c;" horiz-adv-x="321" 
d="M177 7q-52 0 -84 37t-31 98v58h24v-58q-2 -46 22.5 -78t68.5 -32q43 0 66 30t23 78v47q0 14 -4.5 26t-9.5 19.5t-18.5 18t-19 14.5t-25 15.5t-24.5 14.5q-48 28 -75 56.5t-28 68.5v139q0 58 27.5 95t79.5 37q49 0 76.5 -36.5t27.5 -93.5v-79h-24v78q0 47 -19.5 76
t-60.5 29q-37 0 -59.5 -27t-22.5 -79v-137q1 -25 15 -45.5t28 -30.5t43 -27q4 -2 20.5 -12.5t21.5 -13.5t19 -12.5t19 -15t14 -15t12.5 -18t7 -19t3.5 -22.5v-51q0 -58 -29 -95.5t-84 -37.5zM177 -3q60 0 91 40.5t31 102.5v51q0 22 -8 41t-27 35.5t-32 25.5t-40 26l-15 8
q-37 22 -58 43.5t-23 52.5v136q0 47 20 71.5t53 24.5q36 0 53.5 -26.5t17.5 -68.5v-88h42v89q0 62 -30 101t-83 39q-56 0 -86 -39.5t-30 -102.5v-139q1 -44 29 -74t78 -60l19 -12q20 -11 30 -17.5t23.5 -18t19 -24t5.5 -27.5v-47q0 -44 -21 -71.5t-59 -27.5q-40 0 -62 29.5
t-20 71.5v67h-42v-67q-1 -65 34 -105t90 -40zM177 -8q-57 0 -93 41.5t-36 108.5v72h52v-72q-2 -40 19 -68t58 -28t56 26t19 68v47q0 27 -18.5 45t-56.5 39l-18 11q-50 30 -80 62t-31 76v139q0 65 31.5 106t89.5 41q56 0 87 -40.5t31 -104.5v-94h-52v93q0 91 -66 91
q-31 0 -50 -23.5t-19 -68.5v-136q1 -22 14.5 -40t25 -26.5t39.5 -25.5l15 -9h-1q27 -16 41.5 -25.5t33.5 -26.5t27.5 -36t8.5 -43v-51q0 -64 -32.5 -106t-94.5 -42zM85 742l69 55h37l69 -55h-60l-28 21l-29 -21h-58zM156 794l-62 -49h48q4 2 14 10.5t16 11.5l30 -22h49
l-62 49h-33zM116 751l43 36h27l43 -36h-24l-33 24l-33 -24h-23z" />
    <glyph glyph-name="scircumflex" unicode="&#x15d;" horiz-adv-x="263" 
d="M146 9q-40 0 -66 29.5t-25 78.5v47h24v-47q-2 -35 16 -59.5t51 -24.5t50 23t17 60v36q0 17 -10.5 31.5t-20 21t-32.5 20.5q-48 30 -71.5 53.5t-23.5 55.5v110q0 46 22 75.5t63 29.5q39 0 61 -28.5t22 -74.5v-66h-24v65q0 78 -59 78q-27 0 -43.5 -20t-16.5 -59v-108
q1 -14 5.5 -25t17.5 -22.5t21 -16.5t30 -19q28 -17 41.5 -27t27 -29.5t13.5 -41.5v-39q0 -47 -23 -77t-67 -30zM146 -1q49 0 74 33t25 84v39q0 25 -14.5 46t-28.5 31.5t-44 28.5q-28 19 -38 26.5t-20.5 20.5t-10.5 28v108q0 34 14 52t37 18q50 0 50 -69v-75h42v76
q0 50 -24.5 81.5t-67.5 31.5q-46 0 -70 -32t-24 -83v-110q1 -36 25 -60.5t75 -56.5q17 -11 22.5 -14.5t16.5 -13t15 -18t4 -19.5v-36q0 -32 -15 -52.5t-43 -20.5q-29 0 -44.5 21.5t-13.5 52.5v57h-42v-57q-1 -53 27.5 -85.5t72.5 -32.5zM146 -6q-46 0 -75.5 34t-29.5 89v62
h51v-63q-2 -28 12.5 -48.5t41.5 -20.5q26 0 40 19t14 50v36q0 29 -56 61q-52 31 -77 57t-26 64v110q0 53 25.5 86t73.5 33q45 0 70.5 -32.5t25.5 -84.5v-80h-50v79q0 64 -46 64t-46 -65v-108q1 -14 10.5 -26.5t19 -19.5t36.5 -25q31 -19 45.5 -29.5t29.5 -32.5t15 -48v-39
q0 -53 -27 -87.5t-77 -34.5zM62 628l64 56h35l64 -56h-56l-26 21l-27 -21h-54zM128 681l-58 -50h45q3 2 13 10.5t15 11.5l28 -22h45l-57 50h-31zM91 637l40 37h25l40 -37h-22l-31 24l-31 -24h-21z" />
    <glyph glyph-name="Scedilla" unicode="&#x15e;" horiz-adv-x="321" 
d="M123 -81h19q0 -24 24 -24h19q10 0 18.5 6t8.5 18t-8 19t-19 7h-31l15 63q-48 3 -78 40t-29 95v58h24v-58q-2 -46 22.5 -78.5t68.5 -32.5q43 0 66 30.5t23 78.5v47q0 12 -2.5 22t-9 19t-11.5 15t-17.5 15t-18 12.5t-21.5 13t-21 12.5q-48 28 -75 56.5t-28 69.5v140
q0 59 27.5 95.5t79.5 36.5q49 0 76.5 -36.5t27.5 -93.5v-80h-24v79q0 47 -19.5 76t-60.5 29q-37 0 -59.5 -27t-22.5 -79v-138q1 -19 7.5 -34.5t21 -28.5t25 -20t32.5 -21q3 -2 20 -12.5t22 -13.5t19 -12.5t19 -15t14 -15.5t12.5 -18t7 -19t3.5 -23v-51q0 -55 -25.5 -92
t-75.5 -41l-11 -44h7q20 0 33.5 -12t13.5 -33t-13.5 -33.5t-33.5 -12.5h-19q-19 0 -31 12t-12 34zM151 -70h-37q0 -32 15 -49t37 -17h19q23 0 39.5 15t16.5 40q0 24 -14.5 38.5t-36.5 16.5q5 22 6 25q50 8 76.5 47.5t26.5 94.5v51q0 23 -8 42t-27 35.5t-32 25.5t-40 26
l-15 8q-24 15 -38 26t-28 30.5t-15 40.5v137q0 47 20 72t53 25q36 0 53.5 -27t17.5 -69v-89h42v90q0 62 -30 101t-83 39q-56 0 -86 -39.5t-30 -102.5v-140q1 -44 29 -74.5t78 -60.5l19 -12q27 -15 40 -24t25.5 -26t12.5 -38v-47q0 -44 -21 -71.5t-59 -27.5q-40 0 -62 29.5
t-20 71.5v68h-42v-68q-1 -59 28.5 -97.5t76.5 -46.5l-16 -64h43q6 0 11.5 -4.5t5.5 -11.5q0 -15 -17 -15h-19q-15 0 -15 26zM109 -65h28l15 60q-47 10 -75.5 49.5t-28.5 98.5v72h52v-72q-2 -40 19 -68.5t58 -28.5t56.5 26.5t19.5 68.5v47q0 28 -18.5 45t-57.5 39l-18 12
q-50 30 -80 62.5t-31 76.5v140q0 65 31.5 106t89.5 41q56 0 87 -40.5t31 -104.5v-95h-51v94q0 40 -16.5 65.5t-50.5 25.5q-31 0 -50 -23.5t-19 -68.5v-137q1 -22 14 -40t25.5 -27t39.5 -26l15 -8h-1q37 -22 55.5 -35t37 -40t18.5 -58v-51q0 -57 -27 -97.5t-78 -49.5l-5 -15
q22 -3 37 -19t15 -41q0 -27 -17.5 -43.5t-43.5 -16.5h-19q-26 0 -42 20t-15 56zM185 -70h-29q0 -21 10 -21h19q12 0 12 10q0 11 -12 11z" />
    <glyph glyph-name="scedilla" unicode="&#x15f;" horiz-adv-x="256" 
d="M90 -80h20q0 -24 22 -24h19q10 0 17.5 7t7.5 18q0 25 -25 25h-30l15 64q-38 2 -62 31.5t-23 76.5v48h25v-48q-2 -35 16 -59.5t51 -24.5q32 0 49 23t17 60v36q0 17 -10 31.5t-20.5 22t-32.5 20.5q-48 31 -71 54.5t-24 56.5v110q0 47 22 77t64 30q39 0 61 -29.5t22 -75.5
v-66h-25v65q0 80 -58 80q-27 0 -44 -20.5t-17 -60.5v-108q1 -15 5.5 -26t19 -23t20 -16t30.5 -20q21 -13 31.5 -20.5t24.5 -20t20 -27t6 -31.5v-39q0 -44 -20 -73.5t-58 -33.5l-10 -45h7q19 0 31.5 -11.5t12.5 -32.5q0 -20 -13 -33t-31 -13h-20q-18 0 -30 12t-12 33z
M118 -69h-36q0 -31 14 -48t36 -17h20q22 0 37.5 15.5t15.5 39.5t-14 38t-35 16l6 26q39 6 59.5 38t20.5 78v39q0 25 -14.5 46.5t-29 32t-44.5 29.5l-7 4h1q-23 16 -33 23t-19.5 20.5t-10.5 28.5v108q0 35 14.5 53t37.5 18q50 0 50 -70v-75h42v76q0 51 -24.5 82.5t-67.5 31.5
q-46 0 -70.5 -32t-24.5 -84v-110q1 -37 25 -62t75 -57q17 -10 23.5 -14.5t17 -13.5t14.5 -18t4 -20v-36q0 -32 -15.5 -53t-42.5 -21q-29 0 -44.5 22t-14.5 53v58h-42v-58q-1 -47 22.5 -78.5t60.5 -38.5l-15 -64h41q17 0 17 -16q0 -6 -5.5 -10.5t-11.5 -4.5h-19q-14 0 -14 25
zM77 -64h27l15 61q-37 8 -59.5 40.5t-21.5 80.5v62h51v-63q-2 -29 12.5 -49t41.5 -20q26 0 39.5 19t13.5 50v36q0 20 -14 33t-42 29q-51 31 -76 58t-26 65v110q0 54 25.5 87.5t73.5 33.5q45 0 70.5 -33t25.5 -86v-81h-51v80q0 65 -45 65q-21 0 -34 -16.5t-13 -49.5v-108
q0 -5 1 -9.5t3.5 -9t4 -7.5t6 -7.5t6.5 -7t9 -7t9 -6.5t10.5 -7.5t11.5 -7.5h-1l7 -3q23 -14 34 -22t26.5 -22.5t22 -31t6.5 -36.5v-39q0 -44 -21.5 -77.5t-59.5 -43.5l-5 -16q22 -3 35.5 -18.5t13.5 -40.5q0 -26 -16.5 -43t-40.5 -17h-20q-23 0 -39 19.5t-16 55.5zM151 -68
h-28q0 -21 9 -21h19q12 0 12 10q0 11 -12 11z" />
    <glyph glyph-name="Scaron" unicode="&#x160;" horiz-adv-x="321" 
d="M177 7q-52 0 -84 37t-31 98v58h24v-58q-2 -46 22.5 -78t68.5 -32q43 0 66 30t23 78v47q0 14 -4.5 26t-9.5 19.5t-18.5 18t-19 14.5t-25 15.5t-24.5 14.5q-48 28 -75 56.5t-28 68.5v139q0 58 27.5 95t79.5 37q49 0 76.5 -36.5t27.5 -93.5v-79h-24v78q0 47 -19.5 76
t-60.5 29q-37 0 -59.5 -27t-22.5 -79v-137q1 -25 15 -45.5t28 -30.5t43 -27q4 -2 20.5 -12.5t21.5 -13.5t19 -12.5t19 -15t14 -15t12.5 -18t7 -19t3.5 -22.5v-51q0 -58 -29 -95.5t-84 -37.5zM177 -3q60 0 91 40.5t31 102.5v51q0 22 -8 41t-27 35.5t-32 25.5t-40 26l-15 8
q-37 22 -58 43.5t-23 52.5v136q0 47 20 71.5t53 24.5q36 0 53.5 -26.5t17.5 -68.5v-88h42v89q0 62 -30 101t-83 39q-56 0 -86 -39.5t-30 -102.5v-139q1 -44 29 -74t78 -60l19 -12q20 -11 30 -17.5t23.5 -18t19 -24t5.5 -27.5v-47q0 -44 -21 -71.5t-59 -27.5q-40 0 -62 29.5
t-20 71.5v67h-42v-67q-1 -65 34 -105t90 -40zM177 -8q-57 0 -93 41.5t-36 108.5v72h52v-72q-2 -40 19 -68t58 -28t56 26t19 68v47q0 27 -18.5 45t-56.5 39l-18 11q-50 30 -80 62t-31 76v139q0 65 31.5 106t89.5 41q56 0 87 -40.5t31 -104.5v-94h-52v93q0 91 -66 91
q-31 0 -50 -23.5t-19 -68.5v-136q1 -22 14.5 -40t25 -26.5t39.5 -25.5l15 -9h-1q27 -16 41.5 -25.5t33.5 -26.5t27.5 -36t8.5 -43v-51q0 -64 -32.5 -106t-94.5 -42zM258 793l-68 -52h-38l-68 52h59l29 -18l29 18h57zM188 744l60 46h-46q-10 -7 -30 -19l-30 19h-47l60 -46h33
zM228 783l-44 -33h-26l-44 33h24l34 -21l33 21h23z" />
    <glyph glyph-name="scaron" unicode="&#x161;" horiz-adv-x="263" 
d="M146 9q-40 0 -66 29.5t-25 78.5v47h24v-47q-2 -35 16 -59.5t51 -24.5t50 23t17 60v36q0 17 -10.5 31.5t-20 21t-32.5 20.5q-48 30 -71.5 53.5t-23.5 55.5v110q0 46 22 75.5t63 29.5q39 0 61 -28.5t22 -74.5v-66h-24v65q0 78 -59 78q-27 0 -43.5 -20t-16.5 -59v-108
q1 -14 5.5 -25t17.5 -22.5t21 -16.5t30 -19q28 -17 41.5 -27t27 -29.5t13.5 -41.5v-39q0 -47 -23 -77t-67 -30zM146 -1q49 0 74 33t25 84v39q0 25 -14.5 46t-28.5 31.5t-44 28.5q-28 19 -38 26.5t-20.5 20.5t-10.5 28v108q0 34 14 52t37 18q50 0 50 -69v-75h42v76
q0 50 -24.5 81.5t-67.5 31.5q-46 0 -70 -32t-24 -83v-110q1 -36 25 -60.5t75 -56.5q17 -11 22.5 -14.5t16.5 -13t15 -18t4 -19.5v-36q0 -32 -15 -52.5t-43 -20.5q-29 0 -44.5 21.5t-13.5 52.5v57h-42v-57q-1 -53 27.5 -85.5t72.5 -32.5zM146 -6q-46 0 -75.5 34t-29.5 89v62
h51v-63q-2 -28 12.5 -48.5t41.5 -20.5q26 0 40 19t14 50v36q0 29 -56 61q-52 31 -77 57t-26 64v110q0 53 25.5 86t73.5 33q45 0 70.5 -32.5t25.5 -84.5v-80h-50v79q0 64 -46 64t-46 -65v-108q1 -14 10.5 -26.5t19 -19.5t36.5 -25q31 -19 45.5 -29.5t29.5 -32.5t15 -48v-39
q0 -53 -27 -87.5t-77 -34.5zM215 682l-57 -52h-32l-57 52h50l24 -18l24 18h48zM156 633l51 46h-39q-2 -2 -25 -19l-25 19h-40l51 -46h27zM190 672l-37 -33h-22l-37 33h21l28 -21l28 21h19z" />
    <glyph glyph-name="uni0162" unicode="&#x162;" horiz-adv-x="251" 
d="M82 -76h19q0 -22 23 -22h18q26 0 26 22q0 12 -7.5 19t-18.5 7h-30l14 64v652h-89v24h201v-24h-88v-652h-6l-9 -45h8q19 0 32 -12t13 -33q0 -20 -13 -32t-32 -12h-19q-42 0 -42 44zM110 -66h-37q0 -31 14.5 -47t36.5 -16h19q23 0 38.5 14t15.5 39t-14.5 39.5t-36.5 15.5
l5 26h7v652h89v43h-218v-43h88v-641l-16 -76h41q17 0 17 -16q0 -13 -17 -13h-18q-14 0 -14 23zM68 -61h28l16 78v635h-88v53h227v-53h-88v-652h-8l-4 -16q23 -3 37 -19t14 -41q0 -27 -17 -42.5t-42 -15.5h-19q-56 0 -56 73zM142 -65h-28q0 -19 10 -19h18q13 0 13 8
q0 11 -13 11z" />
    <glyph glyph-name="uni0163" unicode="&#x163;" horiz-adv-x="201" 
d="M57 -76h19q0 -23 23 -23h18q10 0 17.5 6.5t7.5 17.5q0 25 -25 25h-30l14 64v512h-68v24h158v-24h-68v-512h-3l-9 -45h6q19 0 31.5 -11.5t12.5 -32.5t-12.5 -33t-31.5 -12h-18q-18 0 -30 11.5t-12 32.5zM85 -66h-36q0 -31 14 -47t36 -16h18q22 0 37.5 15t15.5 39t-13.5 38
t-34.5 16l5 26h5v512h68v43h-175v-43h68v-501l-17 -75h41q16 0 16 -16q0 -14 -16 -14h-18q-14 0 -14 23zM44 -61h27l17 78v495h-68v53h184v-53h-68v-512h-6l-3 -16q47 -7 47 -59q0 -26 -16.5 -42.5t-40.5 -16.5h-18q-55 0 -55 73zM117 -64h-28q0 -20 10 -20h18q12 0 12 9
q0 11 -12 11z" />
    <glyph glyph-name="Tcaron" unicode="&#x164;" horiz-adv-x="251" 
d="M238 686v-24h-88v-648h-24v648h-89v24h201zM247 652v43h-218v-43h88v-647h41v647h89zM251 700v-53h-88v-647h-51v647h-88v53h227zM225 792l-68 -52h-38l-68 52h59l29 -18l29 18h57zM155 743l60 46h-46q-10 -7 -30 -19l-30 19h-47l60 -46h33zM195 782l-44 -33h-26l-44 33
h24l34 -21l33 21h23z" />
    <glyph glyph-name="tcaron" unicode="&#x165;" horiz-adv-x="208" 
d="M195 545v-24h-68v-507h-22v507h-68v24h158zM203 512v42h-175v-42h68v-507h40v507h67zM208 559v-52h-68v-507h-48v507h-68v52h184zM194 683l-60 -53h-34l-61 53h53l26 -18l26 18h50zM132 634l54 46h-41q-9 -7 -27 -19l-27 19h-42l54 -46h29zM168 673l-39 -33h-24l-39 33
h22l30 -21l29 21h21z" />
    <glyph glyph-name="Tbar" unicode="&#x166;" horiz-adv-x="251" 
d="M238 686v-24h-88v-443h48v-21h-48v-184h-24v184h-47v21h47v443h-89v24h201zM247 652v43h-218v-43h88v-424h-47v-40h47v-183h41v183h49v40h-49v424h89zM251 700v-53h-88v-414h48v-50h-48v-183h-51v183h-46v50h46v414h-88v53h227z" />
    <glyph glyph-name="tbar" unicode="&#x167;" horiz-adv-x="201" 
d="M191 545v-24h-68v-305h48v-20h-48v-182h-22v182h-45v20h45v305h-68v24h158zM200 512v42h-175v-42h68v-286h-45v-40h45v-181h39v181h47v40h-47v286h68zM204 559v-52h-68v-276h48v-50h-48v-181h-48v181h-44v50h44v276h-68v52h184z" />
    <glyph glyph-name="Utilde" unicode="&#x168;" horiz-adv-x="339" 
d="M296 686v-545q0 -55 -29.5 -94.5t-83.5 -39.5q-52 0 -83 38.5t-31 96.5v544h25v-544q0 -45 22.5 -77.5t66.5 -32.5q46 0 67.5 30.5t21.5 78.5v545h24zM306 141v555h-43v-555q0 -100 -80 -100q-40 0 -60 30t-20 71v554h-43v-554q0 -62 33.5 -103.5t89.5 -41.5
q59 0 91 42.5t32 101.5zM310 700v-559q0 -61 -33.5 -105t-93.5 -44q-58 0 -92.5 43t-34.5 107v558h51v-558q0 -39 19.5 -67.5t56.5 -28.5q39 0 57.5 26.5t18.5 68.5v559h51zM187 759q-26 13 -50 1v13q23 12 51 1q28 -13 51 -2v-14q-26 -10 -52 1zM183 754q33 -13 64 1v28
q-21 -9 -28 -10t-28 6q-33 16 -61 -3v-27q28 16 53 5zM181 751q-25 10 -55 -9v37q31 18 68 3q18 -6 25.5 -5t31.5 11v-36q-37 -16 -70 -1z" />
    <glyph glyph-name="utilde" unicode="&#x169;" horiz-adv-x="278" 
d="M241 545v-428q0 -45 -23.5 -76.5t-66.5 -31.5q-41 0 -65.5 30.5t-24.5 77.5v428h24v-428q0 -34 16.5 -59t49.5 -25q66 0 66 84v428h24zM250 117v438h-42v-438q0 -74 -57 -74q-29 0 -43 22t-14 52v438h-42v-438q0 -52 27 -85t72 -33q48 0 73.5 34.5t25.5 83.5zM255 559
v-442q0 -51 -27.5 -87t-76.5 -36q-47 0 -75 35t-28 88v442h50v-442q0 -28 13.5 -49t39.5 -21q53 0 53 70v442h51zM153 650q-26 13 -50 1v13q23 12 51 1q28 -13 51 -2v-14q-26 -10 -52 1zM149 645q33 -13 64 1v28q-21 -9 -28 -10t-28 6q-33 16 -61 -3v-27q28 16 53 5z
M147 642q-25 10 -55 -9v37q31 18 68 3q18 -6 25.5 -5t31.5 11v-36q-37 -16 -70 -1z" />
    <glyph glyph-name="Umacron" unicode="&#x16a;" horiz-adv-x="339" 
d="M296 686v-545q0 -55 -29.5 -94.5t-83.5 -39.5q-52 0 -83 38.5t-31 96.5v544h25v-544q0 -45 22.5 -77.5t66.5 -32.5q46 0 67.5 30.5t21.5 78.5v545h24zM306 141v555h-43v-555q0 -100 -80 -100q-40 0 -60 30t-20 71v554h-43v-554q0 -62 33.5 -103.5t89.5 -41.5
q59 0 91 42.5t32 101.5zM310 700v-559q0 -61 -33.5 -105t-93.5 -44q-58 0 -92.5 43t-34.5 107v558h51v-558q0 -39 19.5 -67.5t56.5 -28.5q39 0 57.5 26.5t18.5 68.5v559h51zM140 759v14h91v-14h-91zM131 780v-28h108v28h-108zM127 748v35h115v-35h-115z" />
    <glyph glyph-name="umacron" unicode="&#x16b;" horiz-adv-x="278" 
d="M241 545v-428q0 -45 -23.5 -76.5t-66.5 -31.5q-41 0 -65.5 30.5t-24.5 77.5v428h24v-428q0 -34 16.5 -59t49.5 -25q66 0 66 84v428h24zM250 117v438h-42v-438q0 -74 -57 -74q-29 0 -43 22t-14 52v438h-42v-438q0 -52 27 -85t72 -33q48 0 73.5 34.5t25.5 83.5zM255 559
v-442q0 -51 -27.5 -87t-76.5 -36q-47 0 -75 35t-28 88v442h50v-442q0 -28 13.5 -49t39.5 -21q53 0 53 70v442h51zM111 647v13h86v-13h-86zM102 667v-27h103v27h-103zM99 636v34h109v-34h-109z" />
    <glyph glyph-name="Ubreve" unicode="&#x16c;" horiz-adv-x="339" 
d="M296 686v-545q0 -55 -29.5 -94.5t-83.5 -39.5q-52 0 -83 38.5t-31 96.5v544h25v-544q0 -45 22.5 -77.5t66.5 -32.5q46 0 67.5 30.5t21.5 78.5v545h24zM306 141v555h-43v-555q0 -100 -80 -100q-40 0 -60 30t-20 71v554h-43v-554q0 -62 33.5 -103.5t89.5 -41.5
q59 0 91 42.5t32 101.5zM310 700v-559q0 -61 -33.5 -105t-93.5 -44q-58 0 -92.5 43t-34.5 107v558h51v-558q0 -39 19.5 -67.5t56.5 -28.5q39 0 57.5 26.5t18.5 68.5v559h51zM133 782h18q0 -16 21 -16h17q23 0 23 16h18q0 -13 -11.5 -22.5t-28.5 -9.5h-18q-16 0 -27.5 9
t-11.5 23zM159 788h-34q0 -20 13.5 -32t33.5 -12h18q20 0 34 12.5t14 31.5h-34q0 -7 -4.5 -11.5t-10.5 -4.5h-17q-13 0 -13 16zM121 791h42q0 -16 9 -16h17q11 0 11 16h42q0 -21 -15.5 -35.5t-36.5 -14.5h-18q-21 0 -36 13.5t-15 36.5z" />
    <glyph glyph-name="ubreve" unicode="&#x16d;" horiz-adv-x="278" 
d="M241 545v-428q0 -45 -23.5 -76.5t-66.5 -31.5q-41 0 -65.5 30.5t-24.5 77.5v428h24v-428q0 -34 16.5 -59t49.5 -25q66 0 66 84v428h24zM250 117v438h-42v-438q0 -74 -57 -74q-29 0 -43 22t-14 52v438h-42v-438q0 -52 27 -85t72 -33q48 0 73.5 34.5t25.5 83.5zM255 559
v-442q0 -51 -27.5 -87t-76.5 -36q-47 0 -75 35t-28 88v442h50v-442q0 -28 13.5 -49t39.5 -21q53 0 53 70v442h51zM104 668h18q0 -16 21 -16h17q23 0 23 16h18q0 -13 -11.5 -22.5t-28.5 -9.5h-18q-16 0 -27.5 9t-11.5 23zM130 674h-34q0 -20 13.5 -32t33.5 -12h18
q20 0 34 12.5t14 31.5h-34q0 -7 -4.5 -11.5t-10.5 -4.5h-17q-13 0 -13 16zM92 677h42q0 -16 9 -16h17q11 0 11 16h42q0 -21 -15.5 -35.5t-36.5 -14.5h-18q-21 0 -36 13.5t-15 36.5z" />
    <glyph glyph-name="Uring" unicode="&#x16e;" horiz-adv-x="339" 
d="M296 686v-545q0 -55 -29.5 -94.5t-83.5 -39.5q-52 0 -83 38.5t-31 96.5v544h25v-544q0 -45 22.5 -77.5t66.5 -32.5q46 0 67.5 30.5t21.5 78.5v545h24zM306 141v555h-43v-555q0 -100 -80 -100q-40 0 -60 30t-20 71v554h-43v-554q0 -62 33.5 -103.5t89.5 -41.5
q59 0 91 42.5t32 101.5zM310 700v-559q0 -61 -33.5 -105t-93.5 -44q-58 0 -92.5 43t-34.5 107v558h51v-558q0 -39 19.5 -67.5t56.5 -28.5q39 0 57.5 26.5t18.5 68.5v559h51zM206 768q0 17 -20.5 17t-20.5 -17q0 -18 20.5 -17.5t20.5 17.5zM221 768q0 -18 -17.5 -26.5t-35 -1
t-17.5 27.5q0 18 17.5 26t35 0.5t17.5 -26.5zM228 768q0 18 -12.5 27.5t-29.5 9.5t-29.5 -9.5t-12.5 -27.5t12 -28t29 -10t30 10.5t13 27.5zM232 768q0 -19 -14 -30.5t-33 -11.5t-32 11t-13 31q0 19 13.5 30t32.5 11q18 0 32 -11t14 -30z" />
    <glyph glyph-name="uring" unicode="&#x16f;" horiz-adv-x="278" 
d="M241 545v-428q0 -45 -23.5 -76.5t-66.5 -31.5q-41 0 -65.5 30.5t-24.5 77.5v428h24v-428q0 -34 16.5 -59t49.5 -25q66 0 66 84v428h24zM250 117v438h-42v-438q0 -74 -57 -74q-29 0 -43 22t-14 52v438h-42v-438q0 -52 27 -85t72 -33q48 0 73.5 34.5t25.5 83.5zM255 559
v-442q0 -51 -27.5 -87t-76.5 -36q-47 0 -75 35t-28 88v442h50v-442q0 -28 13.5 -49t39.5 -21q53 0 53 70v442h51zM175 654q0 16 -21 16t-21 -16t21 -16t21 16zM190 654q0 -17 -18 -24.5t-35.5 -0.5t-17.5 25t17.5 25t35.5 0t18 -25zM197 654q0 17 -12.5 26t-30.5 9
q-17 0 -29.5 -9t-12.5 -26q0 -16 12 -26t29 -10t30.5 10t13.5 26zM202 654q0 -18 -15 -28.5t-34 -10.5t-32 10.5t-13 28.5q0 19 13.5 29t32.5 10t33.5 -10.5t14.5 -28.5z" />
    <glyph glyph-name="Uhungarumlaut" unicode="&#x170;" horiz-adv-x="339" 
d="M296 686v-545q0 -55 -29.5 -94.5t-83.5 -39.5q-52 0 -83 38.5t-31 96.5v544h25v-544q0 -45 22.5 -77.5t66.5 -32.5q46 0 67.5 30.5t21.5 78.5v545h24zM306 141v555h-43v-555q0 -100 -80 -100q-40 0 -60 30t-20 71v554h-43v-554q0 -62 33.5 -103.5t89.5 -41.5
q59 0 91 42.5t32 101.5zM310 700v-559q0 -61 -33.5 -105t-93.5 -44q-58 0 -92.5 43t-34.5 107v558h51v-558q0 -39 19.5 -67.5t56.5 -28.5q39 0 57.5 26.5t18.5 68.5v559h51zM216 803l-44 -62h-46l37 62h53zM185 741l38 62h54l-45 -62h-47zM230 744l39 56h-44l-34 -56h39z
M170 744l40 56h-45l-33 -56h38zM195 793l-30 -42h-20l25 42h25zM255 793l-30 -42h-20l25 42h25z" />
    <glyph glyph-name="uhungarumlaut" unicode="&#x171;" horiz-adv-x="278" 
d="M241 545v-428q0 -45 -23.5 -76.5t-66.5 -31.5q-41 0 -65.5 30.5t-24.5 77.5v428h24v-428q0 -34 16.5 -59t49.5 -25q66 0 66 84v428h24zM250 117v438h-42v-438q0 -74 -57 -74q-29 0 -43 22t-14 52v438h-42v-438q0 -52 27 -85t72 -33q48 0 73.5 34.5t25.5 83.5zM255 559
v-442q0 -51 -27.5 -87t-76.5 -36q-47 0 -75 35t-28 88v442h50v-442q0 -28 13.5 -49t39.5 -21q53 0 53 70v442h51zM182 681l-44 -62h-46l37 62h53zM151 619l38 62h54l-45 -62h-47zM196 622l39 56h-44l-34 -56h39zM136 622l40 56h-45l-33 -56h38zM161 671l-30 -42h-20l25 42
h25zM221 671l-30 -42h-20l25 42h25z" />
    <glyph glyph-name="Uogonek" unicode="&#x172;" horiz-adv-x="339" 
d="M243 -61l12 -14q-9 -14 -26 -14h-12q-23 0 -32.5 18.5t1.5 44.5l15 35q-12 -2 -18 -2q-52 0 -83 38.5t-31 97.5v546h25v-546q0 -45 22.5 -78t66.5 -33q46 0 67.5 30.5t21.5 79.5v547h24v-547q0 -43 -18 -78.5t-53 -49.5l-21 -46q-7 -10 -4.5 -22.5t18.5 -12.5h10
q10 0 15 6zM267 -75l-23 29q-9 -12 -16 -12h-10q-14 0 -6 20q3 7 10 23t10 23q73 34 73 134v557h-42v-557q0 -101 -80 -101q-40 0 -60 30.5t-20 71.5v556h-43v-556q0 -62 33.5 -104t89.5 -42h3l-8 -18q-14 -32 -2.5 -54.5t41.5 -22.5h12q22 0 38 23zM244 -40l28 -35
q-19 -27 -43 -27h-12q-32 0 -45 23.5t2 58.5l6 13q-58 2 -91 44.5t-33 105.5v561h51v-561q0 -40 19.5 -68.5t56.5 -28.5q39 0 57.5 27t18.5 69v562h51v-562q0 -99 -76 -138l-18 -43q-6 -15 2 -15h10q7 0 16 14z" />
    <glyph glyph-name="uogonek" unicode="&#x173;" horiz-adv-x="271" 
d="M201 -59l12 -15q-11 -13 -26 -13h-11q-23 0 -32.5 18.5t1.5 43.5l15 35q-2 0 -6.5 -0.5t-6.5 -0.5q-41 0 -65.5 30.5t-24.5 78.5v431h25v-431q0 -34 16.5 -59.5t48.5 -25.5q67 0 67 85v431h24v-431q0 -34 -14 -62t-40 -40l-21 -47q-15 -35 14 -35h9q10 0 15 7zM224 -74
l-22 29q-7 -11 -16 -11h-9q-16 0 -6 23l19 42q27 12 42 42t15 67v441h-42v-441q0 -75 -58 -75q-28 0 -42.5 22t-14.5 53v441h-42v-441q0 -51 26.5 -84.5t71.5 -34.5q-8 -17 -8 -19q-13 -32 -1.5 -54.5t39.5 -22.5h11q20 0 37 23zM202 -39l27 -35q-18 -27 -42 -27h-11
q-32 0 -44.5 24.5t2.5 58.5l6 13q-43 3 -69.5 37t-26.5 86v446h51v-446q0 -29 13 -49.5t39 -20.5q53 0 53 70v446h51v-446q0 -37 -15 -68t-43 -45q-17 -37 -19 -42q-5 -15 3 -15h9q8 0 16 13z" />
    <glyph glyph-name="Wcircumflex" unicode="&#x174;" horiz-adv-x="512" 
d="M464 687h25l-91 -673h-39l-89 609l-90 -609h-38l-91 673h27l83 -629l96 629h25l96 -629zM500 696h-45q-9 -71 -78 -572l-86 572h-42q-16 -103 -45.5 -296t-41.5 -274l-76 570h-46l93 -691h57l80 553l80 -553h56zM451 701h54l-95 -701h-64l-76 526l-76 -526h-65l-94 701
h55l72 -542l83 542h50l82 -544q13 94 74 544zM180 741l71 57h39l71 -57h-62l-29 22l-30 -22h-60zM254 795l-65 -50h50q3 2 14 10.5t17 11.5l31 -22h51l-64 50h-34zM212 751l45 37h28l44 -37h-25l-34 25l-34 -25h-24z" />
    <glyph glyph-name="wcircumflex" unicode="&#x175;" horiz-adv-x="417" 
d="M136 52h2l9 84l60 405h28l60 -404l9 -86h2l9 87l54 408h26l-72 -532h-35l-67 460l-67 -460h-36l-70 532h26l54 -410zM137 137l-55 418h-44l72 -550h53l58 406l58 -406h52l75 550h-45l-56 -416q0 -1 -1 -2v-1v2l-61 413h-44l-61 -414l-1 -5v5zM32 560h54l52 -393l57 388
h52l57 -387l53 392h54l-76 -560h-59l-55 379l-55 -379h-60zM134 629l69 55h37l69 -55h-60l-28 21l-29 -21h-58zM205 681l-62 -49h48q4 2 14 10.5t16 11.5l30 -22h49l-62 49h-33zM165 638l43 36h27l43 -36h-24l-33 24l-33 -24h-23z" />
    <glyph glyph-name="Ycircumflex" unicode="&#x176;" horiz-adv-x="321" 
d="M283 687h27l-123 -508v-165h-25v165l-121 508h25l108 -452zM321 696h-45l-102 -422l-100 422h-45q12 -52 124 -519v-172h43v172zM272 701h55l-126 -526v-175h-53v175q-86 361 -125 526h55l96 -406zM87 742l69 55h37l69 -55h-60l-28 21l-29 -21h-58zM158 794l-62 -49h48
q4 2 14 10.5t16 11.5l30 -22h49l-62 49h-33zM118 751l43 36h27l43 -36h-24l-33 24l-33 -24h-23z" />
    <glyph glyph-name="ycircumflex" unicode="&#x177;" horiz-adv-x="264" 
d="M228 546h26l-96 -401v-131h-26v131q-13 58 -29 126t-35.5 150.5t-29.5 124.5h24l83 -359zM265 555h-44l-76 -324l-75 324h-44l97 -412v-138h44v138zM217 560h55l-100 -419v-141h-54v141q-7 31 -16.5 72t-33.5 141t-49 206h55l71 -306zM58 636l69 55h37l69 -55h-60l-28 21
l-29 -21h-58zM129 688l-62 -49h48q4 2 14 10.5t16 11.5l30 -22h49l-62 49h-33zM89 645l43 36h27l43 -36h-24l-33 24l-33 -24h-23z" />
    <glyph glyph-name="Ydieresis" unicode="&#x178;" horiz-adv-x="321" 
d="M283 687h27l-123 -508v-165h-25v165l-121 508h25l108 -452zM321 696h-45l-102 -422l-100 422h-45q12 -52 124 -519v-172h43v172zM272 701h55l-126 -526v-175h-53v175q-86 361 -125 526h55l96 -406zM153 750h-18v37h18v-37zM214 750h-18v37h18v-37zM188 744h34v50h-34v-50
zM127 744h34v50h-34v-50zM164 741h-40v56h40v-56zM226 741h-41v56h41v-56z" />
    <glyph glyph-name="Zacute" unicode="&#x179;" horiz-adv-x="270" 
d="M256 686v-26l-194 -619h191v-27h-216v28l195 619h-175v25h199zM265 660v35h-217v-44h172l-192 -609v-37h234v46h-189zM269 700v-42l-189 -602h187v-56h-244v44l190 602h-169v54h225zM217 803l-41 -61h-45l34 61h52zM174 745l36 55h-43l-31 -55h38zM197 793l-28 -41h-21
l24 41h25z" />
    <glyph glyph-name="zacute" unicode="&#x17a;" horiz-adv-x="223" 
d="M210 545v-24l-150 -480h147v-27h-171v26l151 480h-136v25h159zM219 521v33h-177v-43h133l-148 -471v-35h189v45h-145zM223 559v-40l-146 -464h144v-55h-199v42l147 464h-132v53h186zM183 683l-37 -62h-41l31 62h47zM144 624l33 56h-39l-28 -56h34zM165 673l-25 -42h-19
l21 42h23z" />
    <glyph glyph-name="Zdotaccent" unicode="&#x17b;" horiz-adv-x="270" 
d="M256 686v-26l-194 -619h191v-27h-216v28l195 619h-175v25h199zM265 660v35h-217v-44h172l-192 -609v-37h234v46h-189zM269 700v-42l-189 -602h187v-56h-244v44l190 602h-169v54h225zM175 750h-25v36h25v-36zM145 745h34v48h-34v-48zM183 741h-43v56h43v-56z" />
    <glyph glyph-name="zdotaccent" unicode="&#x17c;" horiz-adv-x="223" 
d="M210 545v-24l-150 -480h147v-27h-171v26l151 480h-136v25h159zM219 521v33h-177v-43h133l-148 -471v-35h189v45h-145zM223 559v-40l-146 -464h144v-55h-199v42l147 464h-132v53h186zM143 629h-22v37h22v-37zM116 624h31v49h-31v-49zM151 620h-39v57h39v-57z" />
    <glyph glyph-name="Zcaron" unicode="&#x17d;" horiz-adv-x="270" 
d="M256 686v-26l-194 -619h191v-27h-216v28l195 619h-175v25h199zM265 660v35h-217v-44h172l-192 -609v-37h234v46h-189zM269 700v-42l-189 -602h187v-56h-244v44l190 602h-169v54h225zM248 796l-68 -52h-38l-68 52h59l29 -18l29 18h57zM178 747l60 46h-46q-10 -7 -30 -19
l-30 19h-47l60 -46h33zM218 786l-44 -33h-26l-44 33h24l34 -21l33 21h23z" />
    <glyph glyph-name="zcaron" unicode="&#x17e;" horiz-adv-x="223" 
d="M210 545v-24l-150 -480h147v-27h-171v26l151 480h-136v25h159zM219 521v33h-177v-43h133l-148 -471v-35h189v45h-145zM223 559v-40l-146 -464h144v-55h-199v42l147 464h-132v53h186zM220 676l-68 -52h-38l-68 52h59l29 -18l29 18h57zM150 627l60 46h-46q-10 -7 -30 -19
l-30 19h-47l60 -46h33zM190 666l-44 -33h-26l-44 33h24l34 -21l33 21h23z" />
    <glyph glyph-name="longs" unicode="&#x17f;" horiz-adv-x="216" 
d="M206 521h-124v-507h-25v531h149v-24zM90 512h125v42h-167v-549h42v507zM219 507h-124v-507h-51v559h175v-52z" />
    <glyph glyph-name="circumflex" unicode="&#x2c6;" horiz-adv-x="154" 
d="M3 645l69 55h37l69 -55h-60l-28 21l-29 -21h-58zM74 697l-62 -49h48q4 2 14 10.5t16 11.5l30 -22h49l-62 49h-33zM34 654l43 36h27l43 -36h-24l-33 24l-33 -24h-23z" />
    <glyph glyph-name="caron" unicode="&#x2c7;" horiz-adv-x="157" 
d="M179 700l-68 -52h-38l-68 52h59l29 -18l29 18h57zM109 651l60 46h-46q-10 -7 -30 -19l-30 19h-47l60 -46h33zM149 690l-44 -33h-26l-44 33h24l34 -21l33 21h23z" />
    <glyph glyph-name="breve" unicode="&#x2d8;" horiz-adv-x="144" 
d="M36 691h18q0 -16 21 -16h17q23 0 23 16h18q0 -13 -11.5 -22.5t-28.5 -9.5h-18q-16 0 -27.5 9t-11.5 23zM62 697h-34q0 -20 13.5 -32t33.5 -12h18q20 0 34 12.5t14 31.5h-34q0 -7 -4.5 -11.5t-10.5 -4.5h-17q-13 0 -13 16zM24 700h42q0 -16 9 -16h17q11 0 11 16h42
q0 -21 -15.5 -35.5t-36.5 -14.5h-18q-21 0 -36 13.5t-15 36.5z" />
    <glyph glyph-name="dotaccent" unicode="&#x2d9;" horiz-adv-x="62" 
d="M55 652h-22v37h22v-37zM28 647h31v49h-31v-49zM63 643h-39v57h39v-57z" />
    <glyph glyph-name="ring" unicode="&#x2da;" horiz-adv-x="119" 
d="M89 661q0 17 -20.5 17t-20.5 -17q0 -18 20.5 -17.5t20.5 17.5zM104 661q0 -19 -17.5 -27t-35 -0.5t-17.5 27.5q0 18 17.5 26t35 0.5t17.5 -26.5zM111 661q0 18 -12.5 27.5t-29.5 9.5t-29.5 -9.5t-12.5 -27.5t12 -28t29 -10t30 10.5t13 27.5zM115 661q0 -19 -14 -30.5
t-33 -11.5t-32 11t-13 31q0 19 13.5 30t32.5 11q18 0 32 -11t14 -30z" />
    <glyph glyph-name="ogonek" unicode="&#x2db;" horiz-adv-x="106" 
d="M86 -49l10 -12q-9 -11 -22 -11h-9q-20 0 -27.5 15t1.5 36l15 34h17l-16 -35q-14 -33 10 -33h9q6 0 12 6zM105 -61l-18 23q-7 -9 -13 -9h-9q-12 0 -3 22l21 45h-33l-18 -37q-12 -25 -2 -44t35 -19h9q18 0 31 19zM87 -32l23 -29q-16 -23 -36 -23h-9q-29 0 -39 22t3 48
l19 38h41l-24 -50q-7 -17 0 -17h9q6 0 13 11z" />
    <glyph glyph-name="tilde" unicode="&#x2dc;" horiz-adv-x="166" 
d="M99 674q-26 13 -50 1v13q23 12 51 1q28 -13 51 -2v-14q-26 -10 -52 1zM95 669q33 -13 64 1v28q-21 -9 -28 -10t-28 6q-33 16 -61 -3v-27q28 16 53 5zM93 666q-25 10 -55 -9v37q31 18 68 3q18 -6 25.5 -5t31.5 11v-36q-37 -16 -70 -1z" />
    <glyph glyph-name="hungarumlaut" unicode="&#x2dd;" horiz-adv-x="159" 
d="M110 700l-44 -62h-46l37 62h53zM79 638l38 62h54l-45 -62h-47zM124 641l39 56h-44l-34 -56h39zM64 641l40 56h-45l-33 -56h38zM89 690l-30 -42h-20l25 42h25zM149 690l-30 -42h-20l25 42h25z" />
    <glyph glyph-name="Euro" unicode="&#x20ac;" horiz-adv-x="264" 
d="M25 262v21h29v157q0 46 25.5 77t66.5 31t66.5 -30.5t25.5 -77.5h-24q0 35 -17.5 59t-48.5 24t-50.5 -22.5t-19.5 -60.5v-157h84v-21h-84v-42h84v-21h-84v-81q0 -34 18.5 -58.5t51.5 -24.5q32 0 49 23.5t17 58.5h24q0 -44 -23 -76t-67 -32t-69 31t-25 78v81h-29v21h29v42
h-29zM16 293v-40h29v-23h-29v-40h29v-72q0 -52 27.5 -85.5t75.5 -33.5t73.5 38t25.5 89h-42q0 -35 -14.5 -58t-42.5 -23t-44.5 21.5t-16.5 51.5v72h84v40h-84v23h84v40h-84v147q0 33 17 53.5t44 20.5t42.5 -24t15.5 -60h40q0 55 -27.5 91.5t-72.5 36.5t-73 -34t-28 -84v-147
h-29zM11 248v49h29v143q0 51 29.5 86.5t76.5 35.5t76 -39t29 -97h-50q0 37 -14 60t-39 23t-40.5 -18.5t-15.5 -50.5v-143h83v-49h-83v-13h83v-50h-83v-67q0 -28 14.5 -48.5t41.5 -20.5q26 0 39.5 23.5t13.5 58.5h51q0 -57 -25.5 -97t-78.5 -40q-50 0 -79 35.5t-29 88.5v67
h-29v50h29v13h-29z" />
    <glyph glyph-name="CR" horiz-adv-x="31" 
 />
  </font>
</defs>
</svg>
