<?xml version="1.0" standalone="no"?>
<!DOCTYPE svg PUBLIC "-//W3C//DTD SVG 1.1//EN" "http://www.w3.org/Graphics/SVG/1.1/DTD/svg11.dtd" >
<svg xmlns="http://www.w3.org/2000/svg" xmlns:xlink="http://www.w3.org/1999/xlink" version="1.1">
<metadata>
Created by FontForge 20161013 at Mon Sep  9 16:33:02 2013
 By ,,,
Copyright (c) 2013 by Christopher J. Lee. All rights reserved.
</metadata>
<defs>
<font id="CanterBoldStrips" horiz-adv-x="288" >
  <font-face 
    font-family="Canter Bold Strips"
    font-weight="700"
    font-stretch="normal"
    units-per-em="1000"
    panose-1="0 0 0 0 0 0 0 0 0 0"
    ascent="750"
    descent="-250"
    x-height="517"
    cap-height="660"
    bbox="32 -306 611 894"
    underline-thickness="50"
    underline-position="-200"
    unicode-range="U+0020-20AC"
  />
<missing-glyph horiz-adv-x="500" 
 />
    <glyph glyph-name=".notdef" horiz-adv-x="500" 
 />
    <glyph glyph-name=".null" horiz-adv-x="0" 
 />
    <glyph glyph-name="nonmarkingreturn" horiz-adv-x="333" 
 />
    <glyph glyph-name="space" unicode=" " horiz-adv-x="159" 
 />
    <glyph glyph-name="exclam" unicode="!" horiz-adv-x="158" 
d="M144 96h-16l-34 18v19l50 -26v-11zM104 603v19l40 -22v-19zM104 223v19l40 -22v-19zM104 185v19l40 -22v-19zM104 147v19l40 -22v-19zM104 451v19l40 -22v-19zM104 527v19l40 -22v-19zM104 565v19l40 -22v-19zM104 261v19l40 -22v-19zM104 337v19l40 -22v-19zM104 375v19
l40 -22v-19zM104 413v19l40 -22v-19zM104 489v19l40 -22v-19zM104 299v19l40 -22v-19zM104 641l1 18l39 -21v-19zM145 661v-4l-7 4h7zM95 0h8v14l40 -21v-18zM103 33v14h10l30 -16v-19zM94 -18l40 -22h-36l-4 3v19z" />
    <glyph glyph-name="dollar" unicode="$" horiz-adv-x="300" 
d="M286 330h-27l-23 12v19l50 -26v-5zM246 375v19l40 -22v-19zM286 407v-16l-40 22v19l40 -22v-3zM278 452q1 -3 2 -6.5t2 -8t2 -6.5l-38 20q0 6 -2 20zM232 509q20 -12 33 -30l-26 14zM170 340v19l31 -17v-19zM170 302v19l31 -17v-19zM170 264v19l31 -17v-19zM201 370v-9
l-31 17v19l26 -14v-13h5zM196 446v-6l-26 14v19l25 -14q1 -4 1 -13zM170 416v19l26 -14v-19zM161 512q20 -7 30 -32l-30 16v16zM170 473l-9 -3v8zM89 383v19l41 -22v-19zM89 421v19l41 -22v-19zM89 345v19l41 -22v-19zM92 475v1l38 -20v-19l-41 22zM103 489q6 7 13 13l14 -8
v-19zM130 288q-26 19 -36 35l36 -19v-16zM170 568v6h24l7 -4v-19zM130 216q-22 14 -35 30l35 -18v-12zM201 172v-1l-31 17v2l-9 5v16l7 -4q33 -22 39 -39l-3 2zM170 150v19l31 -17v-19zM170 112v19l31 -17v-19zM201 72l-6 -11l-25 13v19l31 -17v-4zM181 49q-5 -4 -11 -5v11z
M252 -27q-5 -4 -17 -10l-62 34q13 2 23 6zM278 -3l-12 -13l-46 25q7 4 13 12zM293 27l-6 -16l-45 24l5 15v1zM300 61q0 -6 -2 -18l-44 24q2 5 4 17zM201 -45v-12l-40 22v19l51 -27zM301 119v-2l-40 22v19l37 -20q3 -9 3 -19zM260 101q1 4 1 13v6l40 -22v-18zM170 -78v19
l31 -16v-19zM252 196q24 -20 33 -32l-26 14q-4 12 -7 18zM130 -4v-15l-33 18l-6 9q13 -8 39 -12zM88 117v16h7l33 -18v-19zM128 75q-2 -9 0 -17l-34 18q-5 11 -6 22l40 -21v-2z" />
    <glyph glyph-name="ampersand" unicode="&#x26;" horiz-adv-x="340" 
d="M323 459h-21l-29 16v19l50 -27v-8zM283 507v19l40 -21v-19zM283 558v6l38 -20q2 -14 2 -20l-40 21v13zM311 587q3 -7 7 -23l-37 20l-1 8q-1 9 -2 13zM262 646q21 -12 35 -32l-26 14zM117 634l15 11h1l57 -31q-13 -1 -23 -7zM95 608l10 13l46 -24q-4 -4 -10 -14zM85 575
l3 17l45 -24l-5 -16zM161 655q45 0 61 -40l-71 39q2 0 3 1h7zM85 499v19l40 -21v-19zM125 517v-1l-40 21v19l40 -22v-17zM96 455q-5 13 -8 23l37 -20q2 -14 4 -20zM138 357q11 5 21 8l55 -30v-9h-5q-3 0 -11 -2zM118 329q6 7 13 13l46 -25q-5 -3 -15 -11zM98 302l10 14
l44 -24q-5 -7 -8 -14zM94 267q0 12 1 18l43 -24q-3 -15 -3 -17l-41 22v1zM94 152v19l40 -21v-19zM94 114v10v9l40 -21v-19zM94 228v19l40 -21v-19zM94 190v19l40 -21v-19zM107 69q-5 9 -10 25l37 -20q0 -7 2 -21zM214 365v-11l-40 21v3q12 -6 30 -6l1 -12zM99 8
q17 -11 44 -14l76 -41q-5 -1 -14 -1t-23 2l-72 38q-8 10 -11 16zM180 -7q11 1 26 5l61 -33q-14 -6 -21 -8zM293 364h8l62 -33q-12 -4 -23 -6l-47 25v14zM232 3q10 3 18 9l48 -25q-2 -2 -14 -12zM263 24q6 6 9 14l46 -25q-1 -2 -9 -13zM279 56q3 7 5 13l45 -24l-4 -16l-47 25
q1 1 1 2zM289 86l3 17l41 -22q0 -3 -0.5 -9t-0.5 -9zM293 198v19l40 -22v-19zM293 312v19l40 -22v-19zM293 274v19l40 -22v-19zM293 122v2v17l40 -22v-19zM293 160v19l40 -22v-19zM293 236v19l40 -22v-19zM330 375q12 0 18 2l26 -13l1 -20l-51 27q4 2 6 4zM367 386q4 2 6 4
v-7z" />
    <glyph glyph-name="comma" unicode="," horiz-adv-x="108" 
d="M73 -35l3 17l43 -23l-3 -17zM70 -57v4l43 -23l-3 -17l-40 22v14zM79 0l1 4v14l40 -21v-19zM80 37v9h18l22 -12v-19zM70 -90l34 -19h-34v19z" />
    <glyph glyph-name="hyphen" unicode="-" horiz-adv-x="225" 
d="M117 178h36l75 -40h-36zM70 178h12l75 -40h-36l-51 27v13zM196 178v3h22l18 -10v-19l-48 26h8zM70 146l15 -8h-15v8z" />
    <glyph glyph-name="period" unicode="." horiz-adv-x="112" 
d="M120 -40h-21l-29 16v19l50 -27v-8zM80 8v19l40 -22v-18zM80 46v6h24l16 -9v-19z" />
    <glyph glyph-name="slash" unicode="/" horiz-adv-x="256" 
d="M188 520l4 17l40 -22l-4 -17zM180 486l4 17l40 -21l-4 -17zM204 587l4 17l40 -21l-4 -17zM68 14l4 17l40 -21l-4 -17zM132 284l4 17l40 -22l-4 -17zM140 318l4 17l40 -22l-4 -17zM76 48l4 17l40 -22l-4 -17zM148 351l4 17l40 -21l-4 -17zM164 419l4 17l40 -22l-4 -17z
M92 115l4 17l40 -21l-4 -17zM108 183l4 17l40 -22l-4 -17zM196 554l4 17l40 -22l-4 -17zM124 250l4 17l40 -21l-4 -17zM101 -40h-3l-38 21l4 17l40 -22zM172 453l4 16l40 -21l-4 -17zM156 385l4 17l40 -22l-4 -16zM100 149l4 17l40 -22l-4 -16zM116 217l4 16l40 -21l-4 -17z
M84 82l4 16l40 -21l-4 -17zM212 621l4 17l40 -22l-4 -16zM220 655l3 10h14l27 -15l-4 -16z" />
    <glyph glyph-name="zero" unicode="0" horiz-adv-x="367" 
d="M218 -47q-72 3 -109 58zM273 -38q-8 -3 -24 -7l-70 38h4q15 0 27 3zM307 -18l-16 -11l-57 30q13 1 23 7zM329 7q-9 -12 -10 -13l-46 24q4 4 12 13zM354 70q-2 -13 -4 -17l-45 24l5 17zM345 37q-4 -10 -7 -15l-45 24q5 8 6 15zM356 99v-11l-42 23l2 18l40 -22v-8zM316 376
v19l40 -22v-19zM316 452v19l40 -22v-19zM316 338v19l40 -22v-19zM316 300v19l40 -22v-19zM316 490v19l40 -22v-19zM356 520v-14l-40 22v19l40 -22v-5zM316 186v19l40 -22v-19zM316 148v19l40 -22v-19zM316 224v19l40 -22v-19zM316 262v19l40 -22v-19zM316 414v19l40 -22v-19
zM350 566q2 -7 4 -21l-38 21q0 7 -2 19zM324 619q9 -12 17 -29l-31 17l-9 24zM171 149l3 17l36 -19l-4 -17zM165 114l3 18l35 -19l-3 -18zM261 424l-4 -17l-35 18l4 18zM197 78l-3 -18l-35 19l3 18zM248 355l-4 -17l-35 18l4 18zM254 390l-3 -18l-35 19l3 17zM241 321
l-3 -18l-35 19l3 17zM216 182l-3 -17l-36 19l3 17zM222 216l-3 -17l-35 19l3 17zM265 447q-1 -2 -1 -6l-35 19l3 17l33 -17v-13zM190 253l3 17l35 -19l-3 -17zM197 287l3 17l35 -18l-3 -17zM235 495l3 17l27 -14v-19zM183 41q-18 0 -30 4l3 17l35 -19v-2h-8zM242 529l3 17
l20 -10v-19zM265 560v-5l-17 9l3 17l13 -7q0 -3 0.5 -7.5t0.5 -6.5zM256 606l4 -11l-6 3zM191 613q-9 -3 -18 -9l-47 25l14 12zM174 658h4l37 -20l-3 -17l-55 30zM160 592q-7 -7 -10 -14l-45 24l9 14zM143 563q-2 -7 -4 -17l-42 23q0 6 2 18zM97 455v19l40 -22v-19zM97 341
v19l40 -22v-19zM97 493v19l40 -22v-19zM97 379v19l40 -22v-19zM97 417v19l40 -22v-19zM97 303v19l40 -22v-19zM137 521v-12l-40 22v19l40 -22v-7zM97 265v19l40 -22v-19zM137 213l-2 -7l-38 21v19l40 -22v-11zM97 189v19l35 -19l-3 -18zM97 151v19l29 -16l-4 -17zM99 111
q-2 14 -2 21l22 -12l-3 -18zM112 78l-6 11l7 -4z" />
    <glyph glyph-name="one" unicode="1" horiz-adv-x="179" 
d="M114 0h11v3l40 -21v-19l-51 27v10zM125 402v19l40 -22v-19zM125 364v19l40 -22v-19zM125 440v19l40 -22v-19zM125 630v19l40 -22v-19zM125 250v19l40 -22v-19zM125 212v19l40 -22v-19zM125 174v19l40 -22v-19zM125 136v19l40 -22v-19zM125 554v19l40 -22v-19zM125 60v19
l40 -22v-19zM125 22v19l40 -22v-19zM125 288v19l40 -22v-19zM125 326v19l40 -22v-19zM125 516v19l40 -22v-19zM125 98v19l40 -22v-19zM125 592v19l40 -22v-19zM125 478v19l40 -22v-19zM165 660v-14l-25 14h25zM114 -29l20 -11h-20v11zM55 629v19l19 -10v-19z" />
    <glyph glyph-name="two" unicode="2" horiz-adv-x="331" 
d="M166 654q18 0 32 -7l11 -5q17 -11 26 -33l-79 42l9 3h1zM122 631q10 8 15 11l54 -29q-14 -3 -21 -7zM81 515h9l40 -21v-19l-49 26v14zM91 587q0 1 1 3l45 -23q-4 -13 -5 -17l-42 22q0 10 1 15zM100 605q6 10 10 14l45 -24q-7 -7 -11 -14zM130 526v-13l-40 21v19l40 -21
v-6zM81 475v7l14 -7h-14zM209 330q2 1 6 5l45 -24l-13 -11l-1 -1l-45 24zM89 202l4 8l45 -24l-7 -16l-42 23v9zM148 275l12 13l46 -25l-13 -12zM174 300l13 11l46 -24l-5 -4l-9 -8zM275 397q4 7 6 16l46 -24q-2 -5 -8 -15zM229 346l13 12l44 -24l-13 -12zM124 250l12 13
l44 -24l-12 -12zM102 224l11 13l44 -23l-10 -14zM287 429q4 9 5 17l41 -22v-2q0 -5 -2 -17zM255 370l11 13l44 -23l-11 -13zM89 79v19l40 -22v-19zM293 464v19l40 -22v-19zM333 530v-12l-40 22v19l40 -22v-7zM293 502v19l40 -22v-19zM89 155v19l40 -22v-19zM89 117v19
l40 -22v-19zM325 580q4 -13 5 -22l-37 20l-3 20zM276 639q20 -13 35 -33l-27 14q-2 7 -8 19zM89 60l23 -12h-23v12zM166 0h35l75 -40h-35zM95 0h35l75 -40h-35zM333 -40h-21l-75 40h35l61 -32v-8zM98 -40l-22 12v19l58 -31h-36zM293 8h35l5 -3v-18z" />
    <glyph glyph-name="three" unicode="3" horiz-adv-x="340" 
d="M273 360q4 7 6 16l44 -23q-1 -4 -5 -17zM238 303q7 4 13 12l43 -23l-12 -13zM261 329q3 5 7 15l44 -23l-8 -15zM284 393q2 10 2 17l41 -21v-3q0 -2 -0.5 -8t-0.5 -8zM287 467v19l40 -21v-19zM327 531v-9l-40 21v19l40 -21v-10zM287 505v19l40 -21v-19zM287 429v19l40 -21
v-19zM319 583q4 -14 5 -22l-37 20l-2 20zM270 645q24 -14 38 -37l-29 15zM117 634q7 5 16 10l57 -30q-14 -3 -23 -7zM75 517h11v1l40 -22v-19l-51 27v13zM94 608l10 14l47 -26q-8 -8 -11 -13zM165 655q43 0 61 -41l-74 39l6 2h7zM86 575q0 7 2 17l45 -24q-4 -10 -5 -16z
M126 529v-14l-40 22v19l40 -22v-5zM75 477v8l16 -8h-16zM233 236q-7 3 -22 5l-49 27v14q2 0 5.5 -0.5t5.5 -0.5l48 -26zM162 242v7l13 -7h-13zM90 11q20 -14 56 -19l75 -40q-3 0 -9 -0.5t-9 -0.5t-9 0.5t-9 0.5l-85 46q-6 6 -10 13zM180 -7q13 1 26 5l59 -32q-11 -5 -20 -8z
M229 4q11 3 18 9l48 -25l-14 -12zM260 25q4 4 10 14l45 -24q-2 -4 -9 -14zM281 67q0 1 1 3l46 -24l-6 -16l-45 24q2 5 4 13zM288 86l4 17l42 -22l-2 -18zM295 176v2l39 -21q0 -3 0.5 -10t0.5 -10l-40 22v17zM294 121q1 5 1 16v3l40 -22v-18zM325 200l6 -22l-37 19
q0 11 -3 21zM275 263q25 -18 37 -37l-27 14q-6 16 -10 23zM77 123v13v6l40 -21v-19zM117 83q2 -12 4 -21l-31 16q-5 9 -9 24zM117 155v-15l-28 15h28z" />
    <glyph glyph-name="four" unicode="4" horiz-adv-x="334" 
d="M258 331v19l40 -22v-19zM258 369v19l40 -22v-19zM258 445v19l40 -22v-19zM258 483v19l40 -22v-19zM258 559v19l40 -22v-19zM258 521v19l40 -22v-19zM258 597v19l40 -22v-19zM298 235h-3l-37 20v19l40 -22v-17zM258 407v19l40 -22v-19zM258 293v19l40 -22v-19zM298 632
v-19l-35 19h35zM83 272l4 17l43 -23l-4 -17zM91 306l4 17l43 -23l-4 -17zM99 340l4 17l43 -23l-4 -17zM115 407l4 17l43 -23l-4 -17zM122 441l4 17l43 -23l-4 -17zM130 475l4 17l43 -23l-4 -17zM107 373l4 17l43 -23l-4 -17zM207 600l-3 -12l-43 23l3 16l43 -22v-5zM153 577
l4 16l43 -23l-4 -16zM146 543l3 16l43 -23l-3 -16zM138 509l4 16l43 -23l-4 -16zM168 644l4 17l35 -18v-19zM82 235l-7 4l4 16l38 -20h-35zM207 672v-10l-30 16h36l10 -6h-16zM258 179v12h13l74 -40h-35zM247 0h11v8l40 -21v-19l-51 27v5zM258 103v19l40 -22v-19zM258 27v19
l40 -22v-19zM258 141v19l40 -22v-19zM258 65v19l40 -22v-19zM305 191v4h29l11 -6v-19zM247 -40v16l29 -16h-29zM93 191h35l75 -40h-35zM61 170v17v2l71 -38h-36zM164 191h35l8 -4v-19z" />
    <glyph glyph-name="five" unicode="5" horiz-adv-x="355" 
d="M224 653h35l75 -40h-35zM153 653h35l75 -40h-35zM98 653h19l75 -40h-35l-59 31v9zM98 568v19l40 -21v-19zM98 492v19l40 -21v-19zM98 606v19l40 -21v-19zM98 530v19l40 -21v-19zM98 378v19l40 -21v-19zM98 416v19l40 -21v-19zM98 454v19l40 -21v-19zM300 653v6h19l21 -11
v-19l-45 24h5zM125 345l-15 -11l-12 6v19zM224 276h-5l-54 28q6 4 18 10l70 -38l3 -5q-15 5 -32 5zM86 243h11v2l47 -24q-4 -6 -7 -16l-51 28v10zM104 261q3 7 8 14l51 -27l-11 -13zM195 269q-8 -3 -17 -10l-40 21l12 13zM138 300v-19l-14 7q2 2 14 12zM86 203v11l20 -11
h-20zM138 94v-3l-38 20q-2 14 -2 20l40 -21v-16zM140 71q2 -13 6 -23l-17 9q-13 10 -23 32zM138 140v-11l-21 11h21zM108 11q6 -4 20 -10l92 -49q-33 2 -54 11l-5 2l-15 8q-24 15 -38 38zM184 -8q14 0 28 3l63 -34q-11 -5 -24 -6l-70 37h3zM237 1q13 2 22 6l50 -26
q-10 -8 -15 -11l-58 30q0 1 1 1zM275 17q4 4 12 13l45 -24q-3 -5 -11 -13zM295 45q4 10 5 16l46 -25l-6 -15zM307 77q2 6 4 16l43 -23q0 -9 -3 -17zM314 110q2 12 2 19l40 -22v-13v-6zM356 177v-13l-40 22v19l40 -22v-6zM316 148v19l40 -22v-19zM351 224q3 -10 3 -21l-38 21
q0 3 -0.5 9.5t-0.5 9.5zM333 271q7 -10 12 -25l-34 18q0 2 -6 22z" />
    <glyph glyph-name="six" unicode="6" horiz-adv-x="358" 
d="M154 652q15 7 21 8l72 -38l3 -6q-13 5 -28 5q-2 0 -5 -0.5t-4 -0.5zM124 630l14 12l50 -27q-12 -6 -17 -10zM104 603l9 14l45 -24q-7 -10 -9 -14zM96 569q0 6 2 18l44 -24q-2 -6 -4 -16zM96 379v19l40 -21v-19zM96 493v19l40 -21v-19zM136 524v-14l-40 21v19l40 -21v-5z
M96 417v19l40 -21v-19zM96 455v19l40 -21v-19zM130 342q-5 -3 -15 -11l-19 10v19zM103 318l-7 -10v14zM351 523v-14l-40 21v19l40 -21v-5zM346 568q0 -1 3 -20l-38 20q0 6 -2 20zM351 488h-32l-19 10v19l51 -27v-2zM325 618q9 -14 14 -27l-33 18q-3 13 -7 23zM255 266
q-18 4 -28 5l-56 30l18 9l59 -31q4 -5 7 -13zM106 260q3 7 8 14l51 -27q-8 -8 -11 -13zM98 226q0 10 3 17l45 -24q-4 -10 -5 -16zM137 170v-3l-40 22v19l41 -22q-1 -5 -1 -16zM97 151v19l40 -22v-19zM99 111q-2 14 -2 21l40 -22v-12v-7zM198 267q-12 -3 -19 -8l-36 19
q6 8 13 12zM136 297v-15l-11 6zM216 -46q-72 3 -109 58zM181 -6q15 0 27 3l64 -34q-12 -5 -24 -6l-71 37h4zM232 2l19 9l55 -29q-10 -8 -16 -11zM266 22l13 12l50 -26q-3 -5 -11 -13zM289 48q6 10 8 15l47 -25q-1 -3 -3.5 -8.5t-3.5 -7.5zM304 78q2 4 4 16l44 -23
q-2 -12 -4 -17zM312 112l2 18l40 -22v-10v-9zM354 172v-7l-40 22v19l40 -22v-12zM314 149v19l40 -22v-19zM347 226q2 -7 4 -21l-37 20l-3 20zM315 281q13 -13 22 -31l-31 17l-9 24z" />
    <glyph glyph-name="seven" unicode="7" horiz-adv-x="304" 
d="M313 621l-3 -14l-44 23l4 17l43 -23v-3zM218 428l4 17l44 -24l-4 -17zM234 495l4 17l44 -23l-4 -17zM250 563l4 17l44 -24l-4 -17zM242 529l4 17l44 -23l-4 -17zM258 596l4 17l44 -23l-4 -17zM226 461l4 17l44 -23l-4 -17zM194 327l4 16l44 -23l-4 -17zM202 360l4 17
l44 -23l-4 -17zM186 293l4 17l44 -24l-4 -16zM210 394l4 17l44 -23l-4 -17zM222 237h-2l-42 22l4 17l44 -23zM313 660v-17l-31 17h31zM173 237l1 5l10 -5h-11zM78 655h35l75 -40h-35zM149 655h35l32 -17l-5 -17zM60 645l57 -30h-36l-21 11v19zM162 194h32l69 -37v-3h-31
l-71 38l1 1v1zM118 0q0 4 1 6l43 -23l-3 -17l-48 26l2 8h5zM154 158q2 10 4 17l43 -23q-2 -4 -4 -17zM123 23l3 17l44 -24l-4 -16zM138 90l4 17l43 -23l-3 -17zM146 124q2 10 4 17l43 -23l-4 -17zM178 50l-4 -16l-43 23l4 16zM224 197h35l4 -2v-19zM107 -25l27 -15h-30z
M110 194l-3 -11l-9 5v6h12zM100 154h-2v15l5 -3z" />
    <glyph glyph-name="eight" unicode="8" horiz-adv-x="353" 
d="M99 14q17 -10 32 -14l85 -46h-2q-20 0 -45 7l-45 24q-15 12 -25 29zM177 -6q11 0 29 4l62 -33q-14 -6 -22 -7zM230 3q14 4 22 8l48 -26q-2 -2 -7.5 -6t-6.5 -5zM261 329q8 8 11 13l46 -24q-1 -1 -11 -14zM281 356l6 16l46 -24q-1 -3 -3.5 -8.5t-3.5 -7.5zM267 22
q8 8 11 13l44 -24l-9 -13zM286 49l6 16l45 -24q-4 -10 -7 -15zM294 387q2 7 4 17l43 -23q-2 -12 -4 -17zM297 82q4 9 5 16l42 -23q0 -7 -2 -17zM302 421q2 12 2 18l41 -22q0 -3 -0.5 -9.5t-0.5 -9.5zM345 531q0 -3 0.5 -9.5t0.5 -10.5l-40 22v12v7zM306 457v8v11l40 -22v-19
zM306 153v19l40 -22v-19zM306 495v19l40 -22v-19zM306 191v17v2l38 -21q2 -12 2 -20zM304 116l2 18l40 -22v-18zM337 574l5 -23l-37 20l-3 21zM304 230q-2 14 -4 21l30 -16q4 -8 10 -24zM308 626q11 -11 19 -29l-30 17q-6 16 -10 24zM291 275q-8 16 -18 29l21 -12l-6 -4
q12 -10 26 -25zM173 661l62 -33q3 -4 7 -12q-13 5 -29 5l-62 33q7 4 19 7h3zM121 632l13 12l51 -28q-9 -3 -18 -9zM90 584l2 6l45 -24q-4 -9 -5 -16l-44 23zM100 605l9 14l45 -24l-9 -14zM87 536v9v10l42 -22q-2 -12 -2 -18zM87 498v19l40 -21v-19zM87 460v5v14l40 -21v-19z
M94 418q-3 6 -5 22l38 -20q0 -14 1 -20zM143 356q-25 12 -39 38l29 -16q2 -8 10 -22zM209 262q-14 -2 -26 -6l-50 27l7 5l-6 4l10 5zM165 247q-3 -1 -13 -12l-45 24l12 13zM142 221q-6 -12 -7 -15l-44 24q0 3 1 5l5 10zM131 189q-2 -10 -2 -18l-40 22v15v4zM89 155v19
l40 -22v-19zM129 96v-1l-39 21q-1 6 -1 20l40 -22v-18zM174 302q48 -5 67 -39l-71 39h4zM112 67q-10 10 -17 27l35 -18q1 -8 5 -22z" />
    <glyph glyph-name="nine" unicode="9" horiz-adv-x="350" 
d="M94 13q21 -13 44 -17l77 -41q-4 -1 -13 -1q-10 0 -24 2l-68 36q-11 12 -16 21zM176 -5q18 2 27 4l61 -32q-14 -6 -22 -8zM226 6q14 4 21 8l48 -26q-7 -6 -14 -11zM280 53l5 16l46 -24l-6 -16zM262 25q6 5 10 13l45 -24l-10 -14zM291 85q2 5 4 17l43 -23l-3 -18zM298 119
q0 3 0.5 9.5t0.5 9.5l40 -22v-17v-2zM299 347v19l40 -22v-19zM339 489v-12l-40 22v19l40 -22v-7zM299 461v19l40 -22v-19zM299 271v19l40 -22v-19zM299 423v19l40 -22v-19zM299 195v19l40 -22v-19zM299 233v19l40 -22v-19zM299 157v19l40 -22v-19zM299 385v19l40 -22v-19z
M299 309v19l40 -22v-19zM335 536q2 -12 2 -20l-38 21q0 3 -0.5 9.5t-0.5 9.5zM323 581q5 -13 8 -23l-36 19l-4 21zM271 646q24 -15 39 -39l-27 14q-5 13 -12 25zM121 631q10 8 15 11l56 -29q-14 -4 -22 -8zM166 654q45 0 66 -44l-77 42q2 0 3 1q4 1 8 1zM89 589q0 1 0.5 1
t0.5 1l46 -24l-6 -16l-45 24q2 8 4 14zM99 606l10 13l47 -25q-8 -8 -11 -13zM81 539q0 3 0.5 9t0.5 9l43 -23l-3 -17zM81 463v19l40 -21v-19zM121 490v-10l-40 21v19l40 -21v-9zM81 425v7v12l40 -21v-19zM85 385l-3 21l39 -21q0 -13 1 -20zM103 337q-7 11 -12 26l34 -18
q1 -11 6 -23zM82 121q-1 4 -1 13h12l28 -15v-19zM122 80q2 -14 4 -21l-27 15q-8 9 -13 25zM99 271q23 -14 50 -15l71 -38q-7 -2 -20 -2h-13l-80 43q-6 8 -8 12zM180 258q16 5 17 6h8l44 -24v-10l-7 -4h-1zM231 269q9 5 16 10l2 -1v-18z" />
    <glyph glyph-name="colon" unicode=":" horiz-adv-x="109" 
d="M120 183h-12l-38 20v19l50 -27v-12zM80 236v19l40 -22v-19zM80 274v1h33l7 -4v-19zM120 -40h-21l-29 16v19l50 -27v-8zM80 8v19l40 -22v-18zM80 46v6h24l16 -9v-19z" />
    <glyph glyph-name="semicolon" unicode=";" horiz-adv-x="109" 
d="M120 183h-5l-45 24v16h6l44 -24v-16zM80 240v19l40 -22v-19zM120 275v-19l-35 19h35zM70 183v5l10 -5h-10zM73 -60l2 18l42 -23l-2 -18zM120 -37l-1 -10l-42 23l2 18l41 -22v-9zM80 12v19l40 -22v-18zM112 -110h-17l-25 14v19l43 -23zM120 45v-17l-31 17h31z" />
    <glyph glyph-name="question" unicode="?" horiz-adv-x="307" 
d="M154 134h10v4l40 -22v-19l-50 27v10zM299 370q-1 -3 -3 -8.5t-3 -7.5l-45 24l3 11q0 1 2 5zM306 404l-3 -18l-44 24q3 12 4 17zM286 339l-9 -14l-43 23l7 14zM209 227l-3 -17l-42 23l2 14q0 2 1 3zM267 311l-12 -13l-42 23l3 3l8 10zM222 259q-6 -10 -8 -15l-41 22l8 15z
M242 286l-11 -13l-41 22l11 13zM308 429v-7l-42 22q2 12 2 18l40 -21v-12zM204 192v-19l-40 22v8v11zM308 537v-1l-40 21v19l39 -21q1 -6 1 -18zM268 481v19l40 -21v-19zM164 157v19l40 -22v-19zM268 519v19l40 -21v-19zM297 598q3 -6 7 -22l-37 20q0 2 -3 20zM251 652
q16 -9 30 -26l-24 13zM154 94v11l21 -11h-21zM111 641q10 8 16 11l58 -31q-14 -1 -25 -6zM67 522h11v4l40 -22v-19l-51 28v9zM88 615l10 14l45 -24q-8 -8 -11 -13zM78 583q0 6 2 18l45 -24q-4 -9 -5 -17zM118 533v-10l-40 22v19l40 -22v-9zM150 661q40 0 57 -33l-61 32h1
q1 0 2 1h1zM67 482v12l22 -12h-22zM164 5v19l40 -22v-18zM204 -40h-27l-22 12v19l49 -26v-5zM164 43v2h32l8 -5v-19z" />
    <glyph glyph-name="A" unicode="A" horiz-adv-x="334" 
d="M344 -40h-15l-40 22l-3 18h3l53 -28zM211 592l-3 21l37 -20l3 -21zM302 12l-3 21l37 -20l3 -20zM269 219l-3 21l37 -19l3 -21zM282 136l-3 21l37 -19l3 -21zM276 178l-4 21l38 -20l3 -21zM217 551l-3 21l37 -20l3 -21zM224 510l-4 21l37 -20l3 -21zM230 468l-3 21l36 -19
l4 -21zM205 634l-3 21l36 -20l4 -21zM295 54l-3 20l37 -19l3 -21zM250 344l-3 20l36 -19l3 -21zM244 385l-4 21l36 -19l4 -21zM263 261l-3 21l36 -19l3 -21zM289 95l-4 21l37 -20l3 -20zM237 427l-4 21l37 -20l3 -20zM256 303l-3 20l36 -19l3 -21zM118 262l2 18l43 -23
l-3 -18zM128 333l3 17l42 -22l-3 -18zM123 298l3 17l42 -22l-3 -18zM139 403l1 2l2 16l41 -22l-3 -18zM134 368l3 17l41 -22l-3 -17zM187 426l-2 -10l-41 22l2 18l40 -21zM148 474l2 18l31 -16l3 -21zM152 510l2 18l22 -11l3 -21zM156 546l3 18l12 -7l3 -21zM161 581l2 18
l3 -1l3 -21zM115 245l19 -10h-20zM228 147h-36l-75 40h36zM69 -15l3 15h4l45 -24l-2 -16h-4zM148 148l-2 -15l-43 23l3 18l48 -26h-6zM92 86l3 18l42 -23l-2 -18zM97 121l3 18l43 -23l-3 -18zM81 16l3 17l42 -23l-2 -17zM87 51l2 18l43 -23l-3 -17zM223 187l3 -20l-38 20h35
zM67 -33l13 -7h-14z" />
    <glyph glyph-name="B" unicode="B" horiz-adv-x="365" 
d="M296 281q4 9 5 17l44 -24q-4 -10 -7 -15zM307 313q2 7 4 17l42 -22q0 -9 -3 -18zM355 520v-4l-41 21l1 19l39 -21q1 -5 1 -15zM314 500v19l40 -22v-19zM313 348q1 4 1 12v7l40 -22v-19zM314 386v19l40 -22v-19zM314 424v19l40 -22v-19zM314 462v19l40 -22v-19zM279 253
l9 13l41 -22q-9 -12 -10 -13zM345 578q5 -11 6 -22l-37 20q0 11 -3 20zM295 640q24 -14 37 -36l-27 15q-6 14 -10 21zM302 215q-1 1 -2.5 3t-3 4.5t-2.5 3.5l13 -7zM112 0h35l75 -40h-35zM183 0h29h6l66 -35q-8 -3 -26 -5zM252 7q10 0 19 3l49 -26q-10 -8 -15 -11l-60 31z
M287 20q4 4 10 14l45 -24l-9 -14zM303 50q2 3 6 15l44 -23q-2 -12 -4 -17zM115 -40l-23 13v19l59 -32h-36zM313 82l3 18l40 -22v-9q0 -1 -0.5 -4t-0.5 -5zM316 119v19l40 -22v-19zM348 158q5 -11 6 -22l-38 21v1q0 12 -1 18zM307 205q14 -8 23 -18l-20 11zM238 178h-33
l-75 40h36l75 -40h-3zM145 178v-6l-40 21v19l64 -34h-24zM105 117v19l40 -21v-19zM105 155v19l40 -21v-19zM105 79v19l40 -21v-19zM201 218q39 -3 55 -29zM105 47v13l25 -13h-25zM105 649v3h31l75 -40h-36zM177 652q61 -1 79 -46l-85 46h6zM105 497v19l40 -21v-19zM105 459
v19l40 -21v-19zM105 573v19l40 -21v-19zM105 535v19l40 -21v-19zM105 307v19l40 -21v-19zM105 345v19l40 -21v-19zM105 421v19l40 -21v-19zM105 611v19l40 -21v-19zM105 383v19l40 -21v-19zM145 264h-30l-10 5v19l40 -21v-3z" />
    <glyph glyph-name="C" unicode="C" horiz-adv-x="364" 
d="M183 659q8 0 12 -1l56 -30q3 -5 7 -15q-7 3 -24 5l-70 38q1 0 5 2q6 1 14 1zM131 635q10 8 15 11l56 -30q-10 -1 -20 -8zM108 610l11 13l47 -26l-11 -12zM98 577q0 9 3 17l46 -24l-6 -16zM97 540v18v1l41 -22q-1 -6 -1 -19zM97 388v19l40 -22v-19zM97 350v19l40 -22v-19z
M97 502v19l40 -22v-19zM97 236v19l40 -22v-19zM97 160v19l40 -22v-19zM97 426v19l40 -22v-19zM97 312v19l40 -22v-19zM97 274v19l40 -22v-19zM97 464v19l40 -22v-19zM97 198v19l40 -22v-19zM98 121q-1 6 -1 20l40 -22v-18v-1zM118 72q-9 12 -15 27l35 -18q2 -15 5 -22z
M357 519v-4l-40 21v19l39 -21q1 -5 1 -15zM317 498v19l40 -21v-19zM357 455h-30l-20 11v19l50 -27v-3zM349 576q4 -14 5 -22l-38 20q0 7 -2 21zM316 632q15 -15 23 -31l-30 16q-6 16 -10 24zM223 -47q-15 0 -28 3l-72 38q-10 10 -15 19q23 -14 49 -18l78 -41q-4 -1 -12 -1z
M282 -34q-11 -6 -21 -8l-66 36q16 2 27 4zM313 -13q-7 -6 -14 -11l-53 28q9 3 20 8zM348 44q-2 -8 -6 -15l-44 23q4 13 5 17zM334 14l-9 -14l-45 24q8 8 11 13zM356 78l-3 -17l-45 24q4 9 5 16zM357 100v-3l-41 22q0 3 0.5 9t0.5 9l40 -21v-16zM317 156v4h29l11 -6v-19z" />
    <glyph glyph-name="D" unicode="D" horiz-adv-x="375" 
d="M112 0h35l75 -40h-35zM184 0q19 0 32 1l65 -34q-8 -3 -26 -5l-72 38h1zM255 11q2 0 10 2l54 -28q-15 -10 -17 -11l-60 32q5 1 13 5zM283 22q8 5 14 12l45 -25q-5 -8 -10 -12zM305 48q4 7 5 14v1l1 1l46 -24l-6 -16zM317 80l4 17l42 -23q0 -7 -2 -17zM324 114q0 3 0.5 9
t0.5 10l40 -22v-13v-6zM325 304v19l40 -22v-19zM325 152v19l40 -22v-19zM325 342v19l40 -22v-19zM325 190v19l40 -22v-19zM365 519v-9l-40 22v19l40 -22v-10zM325 494v19l40 -22v-19zM325 380v19l40 -22v-19zM325 456v19l40 -22v-19zM325 418v19l40 -22v-19zM325 266v19
l40 -22v-18zM325 228v19l40 -22v-18zM115 -40l-21 12v19l57 -31h-36zM360 570q1 -2 3 -21l-38 21q0 6 -2 20zM339 619q9 -10 15 -26l-34 18l-6 22zM107 648v5h27l75 -40h-36zM184 653q15 0 22 -1l55 -29q3 -5 7 -15q-14 4 -22 4l-76 41h14zM107 306v19l40 -21v-19zM107 268
v19l40 -21v-19zM107 230v19l40 -21v-19zM107 192v19l40 -21v-19zM107 154v19l40 -21v-19zM107 344v19l40 -21v-19zM107 78v19l40 -21v-19zM107 420v19l40 -21v-19zM107 610v19l40 -21v-19zM107 496v19l40 -21v-19zM107 458v19l40 -21v-19zM107 116v19l40 -21v-19zM107 534
v19l40 -21v-19zM107 572v19l40 -21v-19zM107 382v19l40 -21v-19zM107 49v10l19 -10h-19z" />
    <glyph glyph-name="E" unicode="E" horiz-adv-x="327" 
d="M168 654h35l75 -40h-35zM106 649v5h26l75 -40h-36zM336 614h-22l-75 40h35l62 -33v-7zM106 307v19l40 -22v-19zM106 459v19l40 -22v-19zM106 573v19l40 -22v-19zM106 611v19l40 -22v-19zM106 497v19l40 -22v-19zM106 421v19l40 -22v-19zM106 269v19l40 -22v-19zM106 383
v19l40 -22v-19zM106 535v19l40 -22v-19zM106 345v19l40 -22v-19zM299 660h35l2 -1v-19zM106 233v17l32 -17h-32zM117 187h36l75 -40h-36zM297 147h-34l-75 40h36l73 -39v-1zM146 147v-14l-40 22v19l50 -27h-10zM106 79v19l40 -22v-19zM106 117v19l40 -22v-19zM257 188v5h27
l13 -7v-19zM106 60l24 -13h-24v13zM183 0h35l75 -40h-35zM112 0h35l75 -40h-35zM336 -40h-7l-75 40h35l47 -25v-15zM115 -40l-22 12v19l58 -31h-36zM336 7v-13l-24 13h24z" />
    <glyph glyph-name="F" unicode="F" horiz-adv-x="308" 
d="M168 654h35l75 -40h-35zM105 649v5h27l75 -40h-36zM325 614h-11l-75 40h35l51 -27v-13zM105 459v19l40 -21v-19zM105 497v19l40 -21v-19zM105 573v19l40 -21v-19zM105 535v19l40 -21v-19zM105 307v19l40 -21v-19zM105 611v19l40 -21v-19zM105 383v19l40 -21v-19zM105 421
v19l40 -21v-19zM105 269v19l40 -21v-19zM105 345v19l40 -21v-19zM105 232v18l34 -18h-34zM325 660v-14l-26 14h26zM121 185h35l75 -40h-35zM298 145h-31l-75 40h36l70 -38v-2zM145 145v-11l-40 21v19l55 -29h-15zM145 -40h-30l-23 13v19l53 -29v-3zM105 117v19l40 -21v-19z
M105 41v19l40 -21v-19zM105 3v19l40 -21v-19zM105 79v19l40 -21v-19zM258 188v4h28l12 -7v-19z" />
    <glyph glyph-name="G" unicode="G" horiz-adv-x="353" 
d="M356 452h-23l-27 14v19l50 -27v-6zM316 499v19l40 -22v-19zM316 556l39 -21q0 -3 0.5 -9.5t0.5 -9.5v-1l-40 22v19zM345 578q2 -5 7 -22l-37 19q0 9 -4 21zM293 644q25 -15 40 -40l-28 14q-5 15 -12 26zM181 656q12 0 24 -3l32 -17q11 -11 19 -27l-12 4l-76 40l5 2
q3 1 8 1zM135 633q7 7 15 11l55 -29q-16 -5 -21 -8zM111 608q3 5 11 13l46 -25q-5 -3 -11 -12zM98 577q2 10 4 17l46 -25l-6 -16zM97 540v15v4l41 -22q-1 -6 -1 -19zM97 388v19l40 -22v-19zM97 350v19l40 -22v-19zM97 502v19l40 -22v-19zM97 236v19l40 -22v-19zM97 160v19
l40 -22v-19zM97 426v19l40 -22v-19zM97 312v19l40 -22v-19zM97 274v19l40 -22v-19zM97 464v19l40 -22v-19zM97 198v19l40 -22v-19zM98 121q-1 6 -1 19v1l40 -22v-19zM113 75q-8 12 -11 25l35 -19q2 -14 4 -21zM105 14q21 -13 50 -18l78 -41q-2 0 -6 -0.5t-5 -0.5
q-10 0 -28 2l-77 41zM281 -33q-11 -5 -21 -8l-67 36q11 0 27 4zM312 -12q-6 -6 -14 -11l-52 27q10 3 19 9zM347 45l-6 -16l-44 24q4 10 5 16zM334 14l-10 -14l-44 24q6 6 10 13zM354 79l-3 -17l-44 23q4 13 5 17zM315 157v19l40 -21v-19zM355 99v-1l-41 22q1 6 1 18l40 -21
v-18zM315 195v2h33l7 -4v-19zM202 180v11h14l48 -26v-14h-8zM202 151v10l18 -10h-18zM264 191v-7l-12 7h12z" />
    <glyph glyph-name="H" unicode="H" horiz-adv-x="384" 
d="M326 531v19l40 -21v-19zM326 379v19l40 -21v-19zM326 607v19l40 -21v-19zM326 265v19l40 -21v-19zM326 303v19l40 -21v-19zM326 227v19l40 -21v-19zM326 189v19l40 -21v-19zM326 151v19l40 -21v-19zM326 569v19l40 -21v-19zM326 75v19l40 -21v-19zM326 417v19l40 -21v-19
zM326 341v19l40 -21v-19zM326 37v19l40 -21v-19zM326 493v19l40 -21v-19zM326 113v19l40 -21v-19zM326 455v19l40 -21v-19zM325 0h1v18l40 -21v-18zM326 645v15h8l32 -17v-19zM329 -40l-14 8v19l49 -27h-35zM107 382v19l40 -21v-19zM107 420v19l40 -21v-19zM107 496v19
l40 -21v-19zM107 534v19l40 -21v-19zM107 610v19l40 -21v-19zM107 268v19l40 -21v-19zM107 306v19l40 -21v-19zM107 572v19l40 -21v-19zM107 458v19l40 -21v-19zM107 344v19l40 -21v-19zM107 648v12h14l26 -14v-19zM147 226h-32l-8 4v19l40 -21v-2zM132 179h36l75 -40h-36z
M203 179h36l36 -19v-19zM147 139v-6l-40 21v19l64 -34h-24zM107 2v19l40 -21v-19zM107 78v19l40 -21v-19zM107 40v19l40 -21v-19zM107 116v19l40 -21v-19zM147 -40h-32l-21 12v19l53 -29v-2z" />
    <glyph glyph-name="I" unicode="I" horiz-adv-x="158" 
d="M106 535v19l40 -22v-19zM106 383v19l40 -22v-19zM106 345v19l40 -22v-19zM106 611v19l40 -22v-19zM106 269v19l40 -22v-19zM106 231v19l40 -22v-19zM106 193v19l40 -22v-19zM106 155v19l40 -22v-19zM106 573v19l40 -22v-19zM106 79v19l40 -22v-19zM106 421v19l40 -22v-19
zM106 307v19l40 -22v-19zM106 3v19l40 -22v-18zM106 497v19l40 -22v-19zM106 117v19l40 -22v-19zM106 41v19l40 -22v-19zM106 459v19l40 -22v-19zM146 -40h-31l-22 12v19l53 -28v-3zM106 649v11h15l25 -14v-19z" />
    <glyph glyph-name="J" unicode="J" horiz-adv-x="349" 
d="M206 -47h-6l-92 49q22 -7 52 -9l71 -38q-16 -2 -25 -2zM275 -30q-4 -2 -19 -9l-64 34q7 1 21 5h4zM304 -7q-2 -2 -4 -4.5t-5 -5t-4 -3.5l-51 27q9 5 16 10zM334 52l-5 -16l-47 25l6 15zM322 20q-3 -7 -8 -14l-46 24q7 11 8 15zM339 88l-2 -18l-44 23q2 5 4 17zM299 356
v19l40 -22v-19zM299 318v19l40 -22v-19zM299 280v19l40 -22v-19zM299 242v19l40 -22v-19zM299 432v19l40 -22v-19zM299 584v19l40 -22v-19zM299 546v19l40 -22v-19zM299 622v19l40 -22v-19zM299 128v12v7l40 -22v-19zM299 394v19l40 -22v-19zM299 470v19l40 -22v-19z
M299 204v19l40 -22v-19zM299 508v19l40 -22v-19zM299 166v19l40 -22v-19zM299 660h35l5 -3v-19zM79 131v9v10l40 -21v-19zM119 91q0 -8 2 -20l-34 18l-6 22zM119 156v-8l-15 8h15z" />
    <glyph glyph-name="K" unicode="K" horiz-adv-x="357" 
d="M283 554l7 16l46 -25l-7 -15zM256 493l6 15l46 -24l-7 -16zM309 616l7 16l46 -25l-6 -15zM296 585l7 16l46 -25l-7 -15zM323 647l6 13h5l42 -22l-7 -16zM203 369l7 15l45 -24l-7 -15zM229 431l7 15l45 -24l-6 -15zM243 462l6 15l46 -24l-7 -15zM190 338q0 2 2 6l4 10
l45 -24l-6 -16zM216 400l7 15l45 -24l-7 -15zM269 524l7 15l46 -25l-7 -15zM164 276l7 15l43 -23l-7 -16zM177 307l6 15l45 -23l-7 -16zM155 253l2 7l44 -23l-7 -15l-27 14q-3 3 -6.5 9t-5.5 8zM323 -37l-26 33l67 -36h-35zM352 0l-6 8l14 -8l25 -32l-60 32h27zM218 171
q-17 20 -26 33l16 -9l25 -32zM269 106l-26 33l15 -8q8 -11 26 -33zM320 40l-25 33l14 -8l25 -32zM105 155v13l2 5l48 -25l-8 -15zM145 -40h-30l-23 13v19l53 -29v-3zM105 79v19l40 -21v-19zM105 117v19l40 -21v-19zM105 41v19l40 -21v-19zM105 3v19l40 -21v-19zM115 188
l8 15l2 -1l26 -34zM105 535v19l40 -21v-19zM105 459v19l40 -21v-19zM105 497v19l40 -21v-19zM105 611v19l40 -21v-19zM105 421v19l40 -21v-19zM105 573v19l40 -21v-19zM145 366l-2 -3l-38 20v19l40 -21v-15zM105 649v11h16l24 -13v-19zM105 345v19l32 -17l-6 -16zM105 307
v19l20 -10l-7 -16zM105 288l7 -3l-7 -16v19z" />
    <glyph glyph-name="L" unicode="L" 
d="M105 345v19l40 -21v-19zM105 307v19l40 -21v-19zM105 497v19l40 -21v-19zM105 231v19l40 -21v-19zM105 573v19l40 -21v-19zM105 155v19l40 -21v-19zM105 117v19l40 -21v-19zM105 79v19l40 -21v-19zM105 421v19l40 -21v-19zM105 269v19l40 -21v-19zM105 611v19l40 -21v-19
zM105 193v19l40 -21v-19zM105 459v19l40 -21v-19zM105 535v19l40 -21v-19zM105 383v19l40 -21v-19zM105 649v11h16l24 -13v-19zM105 47v13l25 -13h-25zM183 0h35l75 -40h-35zM112 0h35l75 -40h-35zM115 -40l-23 13v19l59 -32h-36zM258 0v7h18l22 -11v-19l-44 23h4z" />
    <glyph glyph-name="M" unicode="M" horiz-adv-x="448" 
d="M450 -40h-28l-26 14l-1 20l55 -29v-5zM396 354l-1 19l40 -21v-20zM388 548v19l39 -21l1 -20zM402 198l-1 20l40 -21v-20zM399 276l-1 19l40 -21v-19zM387 586l-1 20l40 -21v-20zM407 82l-1 19l39 -21l1 -19zM392 470l-1 19l39 -21l1 -19zM410 4l-1 20l39 -21l1 -19z
M395 392l-1 20l39 -21l1 -20zM385 625l-1 20l40 -21l1 -20zM400 237v19l39 -21l1 -19zM393 431l-1 19l40 -21v-19zM405 121l-1 19l40 -21v-19zM398 315l-1 19l39 -21l1 -19zM390 509l-1 19l39 -21l1 -19zM404 160l-1 19l39 -21l1 -19zM408 43l-1 19l40 -21v-19zM390 661h33
v-18zM292 -29h-33l-26 14l-3 20l62 -32v-2zM293 256l3 18l43 -23l-3 -18zM288 221l3 18l42 -23l-3 -17zM299 291l3 18l42 -23l-3 -17zM252 12l3 18l43 -23l-3 -17zM258 47l3 18l43 -23l-3 -17zM264 82l3 17l43 -22l-3 -18zM270 117l3 17l43 -22l-3 -18zM282 186l3 18l42 -23
l-3 -17zM276 152l3 17l42 -23l-2 -17zM304 326l3 18l37 -20l1 -19zM310 361l3 18l31 -16v-20zM315 397l3 17l26 -13v-20zM321 432l3 17l20 -11v-19zM327 467l2 17l15 -8v-18zM332 502l3 17l9 -5v-18zM338 537l2 17l4 -2v-18zM147 638l-3 21l37 -19l3 -21zM165 515l-3 20
l37 -19l3 -21zM171 473l-3 21l37 -20l3 -20zM153 597l-3 21l37 -20l3 -20zM159 556l-3 20l37 -19l3 -21zM184 390l-3 21l36 -19l3 -21zM244 220l-2 -12l-33 18l-3 20l37 -19zM203 267l-3 20l36 -19l3 -21zM178 432l-4 21l37 -20l3 -20zM197 308l-3 20l36 -19l3 -20zM191 349
l-4 21l36 -20l3 -20zM214 185l-3 20l28 -15l-3 -17zM219 144l-2 20l17 -9l-3 -18zM225 103l-3 20l7 -3l-3 -18zM84 0h10v2l40 -21v-19l-51 27zM98 132l1 19l41 -21l-1 -19zM103 244l1 19l40 -22l-1 -19zM95 58l1 19l41 -22l-1 -19zM94 20l1 19l40 -21v-19zM147 310l-1 -13
l-40 21l1 19l39 -21zM101 207l1 18l40 -21v-19zM104 281l1 19l40 -22v-18zM97 95l1 19l40 -22l-1 -18zM100 170v18l41 -21l-1 -19zM107 356v19l33 -18l3 -21zM108 394v18l27 -14l2 -20zM108 431v19l21 -11l3 -20zM109 469v19l15 -8l3 -21zM109 507v19l9 -5l3 -20zM83 -30
l18 -10h-18v10zM110 562h2l3 -20l-5 2v18z" />
    <glyph glyph-name="N" unicode="N" horiz-adv-x="396" 
d="M378 -40h-27l-27 15l-8 23l62 -33v-5zM338 385v19l40 -22v-19zM338 347v19l40 -22v-19zM338 309v19l40 -22v-19zM338 537v19l40 -22v-19zM338 233v19l40 -22v-19zM338 195v19l40 -22v-19zM338 157v19l40 -22v-19zM338 575v19l40 -22v-19zM338 81v19l40 -22v-19zM338 423
v19l40 -22v-19zM338 5v19l40 -22v-18zM338 613v19l40 -22v-19zM338 499v19l40 -22v-19zM338 119v19l40 -22v-19zM338 43v19l40 -22v-19zM338 271v19l40 -22v-19zM338 461v19l40 -22v-19zM338 651v9h18l22 -12v-19zM151 560l-8 24l33 -18l8 -23zM167 514l-8 23l33 -17l8 -24z
M183 467l-8 24l33 -18l8 -23zM199 421l-8 23l33 -17l8 -24zM215 374l-8 24l32 -18l8 -23zM135 607l-8 23l33 -17l8 -23zM231 328l-8 23l32 -17l8 -23zM247 281l-8 24l32 -17l8 -24zM286 241l1 -1l1 -19l-27 15l-7 22zM119 653l-2 7h26l1 -1l8 -23zM274 191l-7 22l22 -11
l1 -20zM287 146l-7 22l11 -6l1 -19zM94 -17v17h4l49 -26v-14h-10zM147 381v-9l-40 22v19l39 -21zM107 90v19l40 -22v-19zM107 14v19l40 -22v-18zM107 52v19l40 -22v-19zM107 356v19l40 -22v-19zM107 204v19l40 -22v-19zM107 242v19l40 -22v-19zM107 280v19l40 -22v-19z
M107 128v19l40 -22v-19zM107 318v19l40 -22v-19zM107 166v19l40 -22v-19zM140 433l5 -16v-5l-39 20l-1 20zM104 471l-1 20l23 -12l7 -23zM102 511l-1 19l12 -6l6 -23zM99 569h1l6 -23l-6 4zM94 -36l7 -4h-7v4z" />
    <glyph glyph-name="O" unicode="O" horiz-adv-x="366" 
d="M223 -47h-2l-91 49q27 -9 52 -9l70 -37q-14 -3 -29 -3zM293 -28l-18 -9l-63 33l20 5q3 0 5 1zM320 -5q-4 -6 -12 -12l-49 26q10 5 15 10zM350 55q-1 -6 -5 -16l-45 24q0 4 1 6q0 1 1.5 4.5t2.5 5.5zM339 23l-9 -14l-44 23q6 10 8 15zM356 90l-2 -18l-44 23q2 5 4 17z
M316 396v19l40 -21v-19zM316 510v19l40 -21v-19zM316 168v19l40 -21v-19zM316 434v19l40 -21v-19zM316 206v19l40 -21v-19zM316 130v9v10l40 -21v-19zM316 244v19l40 -21v-19zM316 320v19l40 -21v-19zM316 358v19l40 -21v-19zM316 282v19l40 -21v-19zM316 472v19l40 -21v-19
zM354 547l2 -20l-40 21v12v7zM340 592q8 -18 9 -24l-35 19q-1 9 -5 22zM292 647q11 -7 29 -25l-22 11zM140 642q9 7 16 10l63 -33q-17 -2 -26 -5zM115 617l12 13l47 -25q-8 -5 -14 -12zM101 595q1 3 5 9l45 -24q-4 -6 -7 -16l-45 24q0 3 2 7zM97 561v9l42 -22q-2 -12 -2 -18
l-40 21v10zM97 399v19l40 -21v-19zM97 133v5v14l40 -21v-19zM97 437v19l40 -21v-19zM97 171v19l40 -21v-19zM97 513v19l40 -21v-19zM97 209v19l40 -21v-19zM97 247v19l40 -21v-19zM97 475v19l40 -21v-19zM97 361v19l40 -21v-19zM97 323v19l40 -21v-19zM97 285v19l40 -21v-19
zM106 90q-4 10 -7 23l38 -20q0 -8 2 -20zM183 659q42 0 65 -37l-68 37h3z" />
    <glyph glyph-name="P" unicode="P" horiz-adv-x="368" 
d="M105 652v1h34l75 -40h-36zM188 653q12 0 30 -4l28 -16q15 -12 18 -27l-7 3l-83 44h14zM105 386v19l40 -22v-19zM105 500v19l40 -22v-19zM105 538v19l40 -22v-19zM105 614v19l40 -22v-19zM105 424v19l40 -22v-19zM105 272v19l40 -22v-19zM105 348v19l40 -22v-19zM105 462
v19l40 -22v-19zM105 576v19l40 -22v-19zM105 310v19l40 -22v-19zM105 236v17l32 -17h-32zM228 149h-18l-75 40h36l73 -39q-5 -1 -16 -1zM205 189q14 2 26 6l59 -32q-11 -5 -20 -8zM145 149v-4l-40 22v19l69 -37h-29zM92 -16v16h6l47 -25v-15h-8zM255 201q10 3 19 9l46 -25
l-14 -12zM305 250q4 10 5 16l46 -24l-6 -16zM287 222q8 8 11 13l44 -23l-10 -14zM316 282l4 17l43 -23l-3 -17zM323 316q1 5 1 15v4l40 -21v-19zM324 506v19l40 -21v-19zM324 430v19l40 -21v-19zM105 15v19l40 -22v-18zM324 392v19l40 -21v-19zM105 91v19l40 -22v-19z
M105 129v19l40 -22v-19zM324 354v19l40 -21v-19zM105 53v19l40 -22v-19zM324 468v19l40 -21v-19zM363 542q0 -3 0.5 -9.5t0.5 -9.5l-40 21v16v3zM351 587q5 -13 8 -23l-36 19l-4 21zM304 640q20 -14 28 -24l-21 11q-1 3 -3.5 7.5t-3.5 5.5zM92 -35l9 -5h-9v5z" />
    <glyph glyph-name="Q" unicode="Q" horiz-adv-x="366" 
d="M232 1h5l55 -28q-6 -4 -18 -10l-62 33zM249 -127h-20l-31 17v19l51 -27v-9zM260 8q8 4 15 11l44 -23l-13 -12zM302 69q0 1 1.5 4.5t2.5 5.5l44 -24l-6 -16l-44 24zM286 32l9 15l43 -23l-9 -15zM311 95l3 17l42 -22l-2 -18zM249 -45v-17l-40 22v19l43 -23h-1q-1 -1 -2 -1z
M316 168v19l40 -21v-19zM209 -78v19l40 -22v-19zM316 510v19l40 -21v-19zM316 130v9v10l40 -21v-19zM316 206v19l40 -21v-19zM316 396v19l40 -21v-19zM316 320v19l40 -21v-19zM316 434v19l40 -21v-19zM316 244v19l40 -21v-19zM316 358v19l40 -21v-19zM316 472v19l40 -21v-19
zM316 282v19l40 -21v-19zM316 560v7l38 -20l2 -20l-40 21v12zM340 592q8 -18 9 -24l-35 19q-1 9 -5 22zM292 647q11 -7 29 -25l-22 11zM141 641q15 10 17 11l62 -33q-20 -2 -28 -5zM116 617q3 5 11 13l47 -25q-8 -5 -14 -12zM101 595q0 1 5 8l44 -24l-6 -15l-45 24q0 3 2 7z
M97 561v9l42 -22q-2 -12 -2 -18l-40 21v10zM97 399v19l40 -21v-19zM97 133v5v14l40 -21v-19zM97 437v19l40 -21v-19zM97 171v19l40 -21v-19zM97 513v19l40 -21v-19zM97 209v19l40 -21v-19zM97 247v19l40 -21v-19zM97 475v19l40 -21v-19zM97 361v19l40 -21v-19zM97 323v19
l40 -21v-19zM97 285v19l40 -21v-19zM106 90q-4 10 -7 23l38 -20q0 -8 2 -20zM183 659q42 0 65 -37l-68 37h3zM158 -5v-8l-29 15q9 -3 29 -7z" />
    <glyph glyph-name="R" unicode="R" horiz-adv-x="364" 
d="M305 276l5 17l43 -23q-2 -12 -4 -18zM295 244l5 16l44 -23q-5 -13 -7 -16zM276 216q8 8 11 13l42 -22q-5 -7 -11 -14zM314 386v19l40 -22v-19zM314 500v19l40 -22v-19zM314 424v19l40 -22v-19zM314 348v19l40 -22v-19zM354 518v-2l-40 22v19l40 -22v-17zM314 462v19
l40 -22v-19zM313 310q1 5 1 15v4l40 -22v-18zM346 578q4 -14 5 -22l-38 20q0 8 -2 20zM296 641q25 -15 39 -39l-29 16q-6 16 -10 23zM302 179l-6 7l9 -5zM105 649v4h29l75 -40h-36zM179 653q27 0 47.5 -13.5t26.5 -31.5l-84 45h10zM105 383v19l40 -21v-19zM105 497v19
l40 -21v-19zM105 535v19l40 -21v-19zM105 611v19l40 -21v-19zM105 421v19l40 -21v-19zM105 269v19l40 -21v-19zM105 345v19l40 -21v-19zM105 459v19l40 -21v-19zM105 573v19l40 -21v-19zM105 307v19l40 -21v-19zM105 250l38 -20h-35l-3 1v19zM124 183h36l75 -40h-36z
M145 143v-9l-40 21v19l59 -31h-19zM145 -40h-30l-23 13v19l53 -29v-3zM105 41v19l40 -21v-19zM105 117v19l40 -21v-19zM105 79v19l40 -21v-19zM105 3v19l40 -21v-19zM204 183q44 0 57 -35l-65 35h8zM358 -40h-30l-22 12v19l52 -27v-4zM318 80v19l40 -22v-19zM318 42v19
l40 -22v-19zM318 4v19l40 -22v-18zM352 118q4 -14 5 -21l-39 21v5q0 2 -0.5 6.5t-0.5 7.5zM307 169q18 -10 28 -23l-24 13q0 1 -1.5 4.5t-2.5 5.5z" />
    <glyph glyph-name="S" unicode="S" horiz-adv-x="358" 
d="M295 472h1v18l40 -21v-19zM296 509v19l40 -21v-19zM296 563v3l38 -20q2 -14 2 -20l-40 21v16zM323 590q7 -18 8 -23l-37 19l-3 21zM299 432l-14 7v19l49 -26h-35zM274 648q17 -10 34 -31l-25 13zM128 637l15 11l59 -32q-13 -2 -23 -6zM106 611q5 7 10 13l47 -25
q-6 -4 -11 -13zM97 577l3 18l45 -24q-4 -9 -5 -17zM172 657q45 0 63 -39l-73 38q3 1 10 1zM97 464v19l40 -22v-19zM97 426v19l40 -22v-19zM97 502v19l40 -22v-19zM137 521v-3l-40 22v19l40 -22v-16zM113 379q-9 12 -13 26l37 -20v-2q0 -8 2 -18zM175 276q53 -31 64 -40
l-116 62q-10 10 -17 20q15 -12 69 -42zM221 -48q-8 0 -22 2l-84 44q-4 4 -10 14q24 -15 54 -18l77 -41q-5 -1 -15 -1zM284 -34q-8 -4 -22 -8l-66 35q19 2 27 5zM314 -13l-14 -12l-52 28q10 3 18 9zM347 45q-1 -6 -5 -16l-46 24l3 11l2 5zM334 14q-7 -12 -9 -14l-45 24
q7 10 9 14zM354 79q0 -3 -0.5 -5.5t-1.5 -6t-1 -5.5l-44 23q4 13 5 17zM355 149v-13l-40 21v19l40 -21v-6zM314 120q1 6 1 18l40 -21v-19zM338 201q10 -16 13 -25l-36 19q-2 14 -4 21zM94 123q-1 9 0 17v2l40 -21v-19zM134 83q0 -4 0.5 -7.5t1.5 -7.5t1 -6l-29 15
q-8 16 -10 25zM94 161v7h23l17 -9v-19z" />
    <glyph glyph-name="T" unicode="T" horiz-adv-x="284" 
d="M168 654h35l75 -40h-35zM204 -40h-18l-33 18v19l51 -27v-10zM261 654v6h2l38 -20v-19l-62 33h22zM204 614v-18l-40 22v19l43 -23h-3zM164 352v19l40 -22v-19zM164 314v19l40 -22v-19zM164 390v19l40 -22v-19zM164 238v19l40 -22v-19zM164 200v19l40 -22v-19zM164 162v19
l40 -22v-19zM164 542v19l40 -22v-19zM164 86v19l40 -22v-19zM164 48v19l40 -22v-19zM164 10v19l40 -22v-18zM164 124v19l40 -22v-19zM164 580v19l40 -22v-19zM164 504v19l40 -22v-19zM164 466v19l40 -22v-19zM164 276v19l40 -22v-19zM164 428v19l40 -22v-19zM55 638v16h6
l52 -28v-12h-13zM113 654v-9l-17 9h17zM55 614v5l9 -5h-9z" />
    <glyph glyph-name="U" unicode="U" horiz-adv-x="379" 
d="M114 11q19 -11 43 -16l79 -42q-2 0 -5 -0.5t-5 -0.5q-16 0 -31 3l-63 34q-11 11 -18 22zM197 -7q11 0 27 4l61 -33q-7 -3 -21 -7zM250 2q11 1 21 8l46 -24l-15 -12zM313 82l4 17l43 -23q0 -9 -3 -18zM303 50q4 10 5 16l45 -24q-3 -10 -7 -16zM285 21q8 8 11 13l42 -23
q-4 -8 -10 -13zM322 343v19l40 -21v-19zM322 229v19l40 -21v-19zM322 457v19l40 -21v-19zM322 153v19l40 -21v-19zM322 571v19l40 -21v-19zM322 609v19l40 -21v-19zM322 419v19l40 -21v-19zM322 267v19l40 -21v-19zM322 495v19l40 -21v-19zM322 191v19l40 -21v-19zM322 533
v19l40 -21v-19zM322 381v19l40 -21v-19zM322 305v19l40 -21v-19zM320 116q2 12 2 18l40 -21v-14v-5zM322 647v13h12l28 -15v-19zM103 460v19l40 -21v-19zM103 270v19l40 -21v-19zM103 232v19l40 -21v-19zM103 194v19l40 -21v-19zM103 156v19l40 -21v-19zM103 308v19l40 -21
v-19zM103 536v19l40 -21v-19zM103 422v19l40 -21v-19zM103 612v19l40 -21v-19zM103 498v19l40 -21v-19zM103 384v19l40 -21v-19zM103 574v19l40 -21v-19zM103 346v19l40 -21v-19zM143 100v-3l-39 20q-1 7 -1 20l40 -21v-16zM103 650v10h18l22 -12v-19zM144 77q1 -7 5 -21
l-27 14q-9 13 -13 26z" />
    <glyph glyph-name="V" unicode="V" horiz-adv-x="340" 
d="M183 0h15l1 10l43 -23l-3 -17zM246 308l3 18l43 -23l-3 -18zM251 343l3 18l43 -23l-3 -18zM295 624l3 17l43 -23l-3 -17zM202 27l3 18l43 -23l-3 -18zM235 238l3 17l43 -23l-3 -17zM240 273l3 17l43 -23l-3 -17zM289 589l3 17l43 -23l-2 -17zM262 413l3 18l43 -23l-3 -18
zM268 448l2 18l43 -23l-2 -18zM273 483l3 18l43 -23l-3 -18zM279 518l2 18l43 -23l-2 -18zM213 97l3 18l43 -23l-3 -18zM208 62l2 18l43 -23l-2 -18zM257 378l2 18l43 -23l-2 -18zM224 168l3 17l43 -23l-3 -17zM229 203l3 17l43 -23l-3 -17zM284 554l3 17l43 -23l-3 -17z
M219 133l2 17l43 -23l-2 -17zM174 -33l-3 21l51 -28h-36zM300 659l1 2h31l15 -8l-3 -18zM142 306v1l36 -20l4 -21l-38 20zM138 327l-3 21l37 -20l3 -21zM93 617l-3 21l37 -20l3 -21zM185 239l-2 -12l-34 19l-3 20l38 -20zM99 576l-3 21l37 -20l3 -21zM132 369l-3 21l36 -20
l4 -21zM125 410l-3 21l37 -20l3 -20zM106 535l-3 20l36 -19l3 -21zM112 493l-3 21l37 -20l3 -20zM119 452l-3 21l36 -20l3 -20zM154 205l-3 21l30 -16l-2 -18zM87 659v2h32l2 -1l3 -21zM158 165l-2 20l21 -12l-2 -17zM162 124l-2 21l13 -7l-2 -18z" />
    <glyph glyph-name="W" unicode="W" horiz-adv-x="546" 
d="M395 0h32v2l42 -22l-2 -18zM465 266l2 18l42 -22l-2 -18zM480 372l2 18l42 -22l-2 -18zM435 54l2 18l42 -22l-2 -18zM495 478l2 18l42 -22l-2 -18zM450 160l2 18l42 -22l-2 -18zM509 585l2 17l43 -22l-2 -18zM514 620l2 18l43 -23l-2 -18zM475 337l2 18l42 -23l-2 -17z
M470 302l2 17l42 -22l-2 -18zM490 443l2 18l42 -23l-2 -17zM445 125l2 18l42 -23l-2 -17zM485 408l2 17l42 -22l-2 -18zM440 90l2 17l42 -22l-2 -18zM430 19l2 18l42 -23l-2 -17zM455 196l2 17l42 -22l-2 -18zM500 514l2 17l42 -22l-2 -18zM460 231l2 18l42 -23l-2 -17z
M505 549l2 18l42 -23l-2 -17zM518 656l1 5h25l19 -10l-2 -18zM401 -40l-3 20l36 -20h-33zM369 242l-3 20l37 -19l3 -21zM325 531l-3 21l37 -20l3 -21zM313 614l-3 20l37 -20l3 -20zM319 572l-3 21l37 -20l3 -21zM331 490l-3 20l37 -19l3 -21zM345 406l-3 21l35 -19l4 -21z
M363 283l-2 20l36 -19l3 -21zM338 448l-3 21l36 -19l3 -21zM358 324l-4 20l36 -19l3 -20zM351 365l-3 21l36 -20l3 -20zM374 201l-2 20l35 -19l-2 -18zM307 655l-1 6h25l10 -5l3 -21zM380 160l-3 20l26 -13l-2 -18zM385 119l-2 20l16 -8l-2 -18zM393 79h-2l-3 19l7 -3z
M237 312l3 18l43 -23l-3 -18zM243 347l3 18l43 -23l-3 -18zM182 0h11l2 12l42 -22l-3 -18zM299 409l-2 -15l-43 23l3 18l41 -22zM222 206l3 18l42 -23l-3 -18zM197 29l3 18l42 -22l-3 -18zM248 382l3 18l43 -23l-3 -18zM207 100l3 18l42 -23l-3 -17zM212 135l3 18l42 -23
l-3 -17zM227 241l3 18l42 -23l-3 -17zM217 171l3 17l42 -22l-3 -18zM202 65l3 17l42 -22l-3 -18zM232 277l3 17l42 -23l-2 -17zM163 -28l-3 21l61 -33h-36zM259 452l2 10l1 8l31 -16l3 -21zM264 488l2 18l21 -12l3 -20zM268 524l2 18l12 -7l3 -20zM271 560l2 18l4 -2l3 -21z
M119 413l-3 21l38 -20l3 -21zM89 619l-3 21l38 -20l3 -21zM113 455l-3 20l38 -20l3 -20zM140 250l-2 20l37 -20l3 -20zM124 372l-2 21l37 -20l3 -21zM134 303l-1 8l37 -20l3 -20l-38 20zM101 537l-3 21l38 -21l3 -20zM95 578l-3 21l38 -21l3 -20zM107 496l-3 20l38 -20
l3 -20zM130 331l-3 21l37 -20l3 -21zM144 210l-2 20l35 -19l-2 -18zM149 169l-2 21l26 -14l-3 -18zM83 661h35l3 -20zM153 129l-2 20l17 -9l-2 -18zM158 88l-2 21l8 -5l-2 -18z" />
    <glyph glyph-name="X" unicode="X" horiz-adv-x="328" 
d="M270 0l-1 1l33 -17l7 -23l-65 35l-1 4h27zM249 487l5 17l45 -24l-5 -17zM258 520l5 17l45 -24l-5 -17zM211 355l5 17l45 -24l-5 -17zM221 388l4 17l45 -24l-4 -17zM230 421l5 17l45 -24l-5 -17zM240 454l4 17l45 -24l-4 -17zM268 553l4 17l45 -24l-4 -17zM277 586l5 17
l45 -24l-5 -17zM287 619l4 17l45 -24l-4 -17zM202 322l5 17l44 -24l-4 -16zM193 289l4 17l45 -24l-5 -16zM185 262l3 11l44 -24l-4 -16l-41 21zM296 652l3 9h16l31 -17l-5 -16zM262 24l-7 23l32 -17l8 -23zM247 70l-7 23l32 -17l8 -23zM202 208l-7 23l32 -17l8 -23zM232 116
l-7 23l32 -17l8 -23zM217 162l-7 23l32 -17l8 -23zM256 -40l-5 14l25 -14h-20zM121 479l-5 22l35 -18l6 -23zM132 436l-6 22l36 -19l5 -22zM140 526l2 -5l4 -16l-35 18l-5 22zM100 567l-6 22l34 -18l6 -22zM88 612l-7 22l34 -18l6 -22zM173 393l-4 -15l-26 14l-6 22l35 -18z
M74 661h28l1 -1l6 -22l-34 18zM153 349l-5 21l16 -9l-4 -16zM143 -6l-6 -17l-44 24l5 16zM176 89l-6 -16l-44 24l6 16zM153 25l-5 -16l-44 24l5 16zM115 65l6 16l43 -24l-5 -16zM182 107q0 -1 -0.5 -1t-0.5 -1l-43 24l5 16l32 -17zM132 -40h-34l-17 9l6 16l45 -24v-1z
M149 161l6 16l6 -4l7 -22z" />
    <glyph glyph-name="Y" unicode="Y" horiz-adv-x="353" 
d="M201 0l40 -21v-19l-52 28v12h12zM234 305l4 17l45 -24l-4 -17zM242 339l5 17l45 -24l-5 -17zM251 372l4 17l45 -24l-4 -17zM294 539l4 17l45 -24l-4 -17zM217 238l4 17l45 -24l-4 -17zM225 272l5 17l45 -24l-5 -17zM285 506l5 17l44 -24l-4 -17zM208 205l5 17l44 -24
l-4 -17zM259 406l5 16l45 -24l-5 -16zM201 171v4l3 13l45 -23l-5 -17zM302 573l5 16l44 -24l-4 -16zM319 640l5 16l44 -24l-4 -16zM311 606l4 17l45 -24l-4 -17zM277 473l4 16l45 -24l-4 -16zM268 439l4 17l45 -24l-4 -17zM201 57v19l40 -21v-19zM201 133v19l40 -21v-19z
M201 19v19l40 -21v-19zM201 95v19l40 -21v-19zM376 661l-3 -12l-22 12h25zM189 -40v9l16 -9h-16zM146 390l-5 22l36 -19l5 -22zM155 348l-5 21l36 -19l5 -21zM92 609l-6 22l35 -18l5 -22zM103 565l-6 22l35 -18l5 -22zM135 444l-3 11l34 -19l6 -22l-35 19zM126 477l-6 22
l34 -18l6 -22zM115 521l-6 22l34 -18l5 -22zM79 661h23l8 -4l5 -22l-34 18zM164 305l-5 21l28 -15l-4 -17zM173 262l-5 21l12 -6l-4 -17z" />
    <glyph glyph-name="Z" unicode="Z" horiz-adv-x="303" 
d="M256 597l6 17l41 -22l-6 -17zM81 83l6 16l40 -21l-5 -17zM313 622l-5 -14l-41 22l5 16l41 -22v-2zM246 565l5 16l41 -22l-5 -16zM114 179l6 16l40 -21l-5 -16zM147 276l6 16l40 -22l-5 -16zM136 244l6 16l40 -22l-5 -16zM125 211l6 16l40 -21l-5 -16zM213 468l6 16
l40 -21l-5 -16zM158 308l6 16l40 -22l-5 -16zM92 115l6 16l40 -21l-5 -16zM191 404l6 16l40 -21l-5 -16zM169 340l6 16l40 -22l-5 -16zM103 147l6 16l40 -21l-5 -16zM224 501l6 16l40 -22l-5 -16zM202 436l6 16l40 -21l-5 -16zM180 372l6 16l40 -21l-5 -16zM235 533l5 16
l41 -22l-5 -16zM74 49l-4 2l6 16l33 -18h-35zM313 660v-17l-31 17h31zM82 653h35l75 -40h-35zM153 653h35l31 -17l-6 -16zM77 636l44 -23h-36l-8 4v19zM166 0h35l75 -40h-35zM95 0h35l75 -40h-35zM54 0h5l75 -40h-35l-45 24v16zM316 -40h-4l-75 40h35l44 -23v-17zM316 9v-13
l-25 13h25zM54 -35l9 -5h-9v5z" />
    <glyph glyph-name="backslash" unicode="\" horiz-adv-x="256" 
d="M271 -31l2 -9h-21l-31 17l-6 22zM178 227l-6 22l36 -19l5 -22zM85 619l-5 22l35 -19l5 -22zM95 575l-5 22l35 -19l5 -22zM167 271l-5 22l35 -19l5 -22zM230 9l-5 22l35 -19l5 -21zM136 401l-5 22l35 -18l5 -22zM157 314l-5 22l34 -18l6 -22zM199 140l-5 22l34 -19l6 -22z
M116 488l-5 22l34 -18l6 -22zM209 97l-5 21l35 -19l5 -21zM126 445l-5 22l35 -19l5 -22zM146 358l-5 22l35 -19l5 -22zM105 532l-5 22l35 -19l5 -22zM188 184l-5 22l35 -19l5 -22zM220 53l-5 22l34 -19l6 -22zM89 655h19l2 -12z" />
    <glyph glyph-name="grave" unicode="`" horiz-adv-x="132" 
d="M103 614l-8 19l29 -16l10 -24l-39 21h8zM95 580l-13 22l41 -22h-28zM83 661h23l8 -20l-30 16z" />
    <glyph glyph-name="a" unicode="a" horiz-adv-x="281" 
d="M253 0l-2 11l37 -19l3 -21l-54 29h16zM215 239l-3 21l37 -20l3 -21zM235 115l-4 21l38 -20l3 -21zM228 156l-3 21l37 -19l3 -21zM209 281l-4 21l37 -20l4 -21zM176 488l-3 21l38 -20l3 -21zM248 32l-3 21l36 -20l4 -21zM183 447l-3 20l37 -20l3 -20zM222 198l-4 21
l37 -20l3 -21zM196 364l-3 20l36 -19l3 -21zM189 405l-3 21l37 -20l3 -20zM202 322l-3 21l37 -20l3 -20zM241 74l-3 20l37 -20l3 -20zM241 -40l-3 21l38 -21h-35zM190 519h16l1 -9zM151 216l-2 -17l-42 22l2 18zM115 273v1l42 -23l-3 -17l-42 22zM160 273q0 -1 -0.5 -2
t-0.5 -2l-42 23l3 18l38 -21zM122 327l2 18l29 -15l2 -21zM126 363l3 18l19 -10l2 -21zM131 398l2 18l10 -5l2 -21zM102 190l2 14l26 -14h-28zM135 434l3 18l2 -21zM185 106h-4l-75 40h35l41 -22zM115 -40h-17l-33 18l3 18l48 -26zM138 106l-2 -14l-43 23l3 17l49 -26h-7z
M76 10l3 17l43 -22l-3 -18zM82 45l3 17l42 -22l-3 -18zM87 80l3 17l43 -22l-3 -18z" />
    <glyph glyph-name="b" unicode="b" horiz-adv-x="306" 
d="M245 223q4 9 5 17l45 -24l-6 -16zM255 256q4 10 4 17l41 -22v-3q0 -10 -1 -16zM227 196q5 3 11 12l42 -22q-8 -9 -12 -13l-35 19h-1zM260 405v19l41 -21l-1 -19zM260 367v19l40 -21v-19zM260 329v19l40 -21v-19zM260 291v19l40 -21v-19zM261 445q0 3 -0.5 9t-0.5 8
l36 -19q2 -7 4 -21l-39 21v2zM248 506q24 -14 39 -39l-31 16q-2 9 -8 23zM97 493v18h1l75 -40h-35zM147 511q46 0 59 -39l-72 39h13zM97 417v19l40 -22v-19zM97 303v19l40 -22v-19zM97 341v19l40 -22v-19zM97 455v19l40 -22v-19zM97 265v19l40 -22v-19zM97 379v19l40 -22
v-19zM137 218h-24l-16 9v19l40 -22v-6zM204 136h-8l-75 40h35l49 -27q3 -4 5 -14q-2 1 -6 1zM137 136v-7l-40 22v19l63 -34h-23zM97 75v19l40 -22v-19zM97 113v19l40 -22v-19zM97 56l15 -8h-15v8zM95 0h35l75 -40h-35zM175 0q15 0 22 2l60 -32q-11 -6 -21 -7l-70 37h9z
M221 8q13 3 18 10l45 -24l-11 -13zM247 32l2 9l4 7l44 -23q-1 -8 -5 -17zM300 90v-10l-40 22v19l39 -21q1 -4 1 -10zM257 65l3 17l40 -21v-11v-8zM84 -13l50 -27h-35l-15 8v19zM255 160q27 -12 39 -38l-34 18z" />
    <glyph glyph-name="c" unicode="c" horiz-adv-x="305" 
d="M252 372v16h5l45 -24v-16h-5zM262 404v19l40 -21v-19zM262 443q0 3 -0.5 9.5t-0.5 9.5l36 -20q2 -7 4 -21l-39 21v1zM267 497q16 -16 22 -31l-32 17q-3 10 -8 23zM252 353l9 -5h-9v5zM152 517h7l38 -21q7 -11 11 -21q-2 0 -10 2l-68 36q9 4 22 4zM101 490q4 7 12 13
l56 -30q-12 -6 -17 -10zM91 458l3 17l47 -25q-4 -6 -7 -16zM130 403v-4l-40 21v19l41 -22q-1 -4 -1 -14zM90 154v19l40 -21v-19zM90 268v19l40 -21v-19zM90 306v19l40 -21v-19zM90 382v19l40 -21v-19zM90 116v19l40 -21v-19zM90 192v19l40 -21v-19zM90 344v19l40 -21v-19z
M90 230v19l40 -21v-19zM99 74q-5 8 -7 22l38 -20q0 -13 1 -19zM92 8q20 -12 49 -14l72 -38q-14 -2 -21 -2q-8 0 -12 1l-83 44q-1 1 -2.5 4.5t-2.5 4.5zM255 -29l-18 -9l-63 34l23 6zM295 26l-6 -16l-45 24q4 10 5 16zM280 -4l-11 -13l-48 25q8 4 15 11zM302 60q0 -6 -2 -18
l-45 24q4 9 5 17zM262 100q1 5 1 15v4l40 -22v-18zM303 126v-10l-18 10h18z" />
    <glyph glyph-name="d" unicode="d" horiz-adv-x="314" 
d="M193 -40h-23l-75 40h35l75 -40h-12zM165 0l28 4l61 -32q-5 -2 -22 -7zM216 11q11 4 19 9l48 -26l-13 -12zM247 32q4 6 7 16l46 -25q-3 -10 -7 -16zM260 63q4 9 5 16l43 -23q0 -3 -0.5 -5.5t-1.5 -6t-1 -5.5zM269 401v19l40 -22v-19zM269 363v19l40 -22v-19zM269 249v19
l40 -22v-19zM269 287v19l40 -22v-19zM269 173v19l40 -22v-19zM269 135v19l40 -22v-19zM269 211v19l40 -22v-19zM269 325v19l40 -22v-19zM268 97q1 5 1 17v2l40 -22v-18zM306 438q2 -12 2 -20l-39 21v5q0 9 -1 14zM98 -40l-13 7v20l49 -27h-36zM282 488q11 -11 18 -28l-34 18
q-1 6 -6 22zM153 512q11 0 16 -1l36 -19q5 -8 10 -22q-4 0 -6 1l-77 41h21zM138 472v-1l-40 21v19l74 -39h-34zM98 226v19l40 -21v-19zM98 188v19l40 -21v-19zM98 340v19l40 -21v-19zM98 378v19l40 -21v-19zM98 454v19l40 -21v-19zM98 264v19l40 -21v-19zM98 112v19l40 -21
v-19zM98 74v19l40 -21v-19zM98 302v19l40 -21v-19zM98 416v19l40 -21v-19zM98 150v19l40 -21v-19zM98 55l12 -6h-12v6z" />
    <glyph glyph-name="e" unicode="e" horiz-adv-x="276" 
d="M130 513h36l75 -40h-36zM286 473h-10l-75 40h36l49 -26v-14zM137 473v-2l-40 22v19l73 -39h-33zM97 265v19l40 -22v-19zM97 379v19l40 -22v-19zM97 417v19l40 -22v-19zM97 455v19l40 -22v-19zM97 227v19l40 -22v-19zM97 303v19l40 -22v-19zM97 341v19l40 -22v-19zM97 193
v15l28 -15h-28zM286 519v-13l-25 13h25zM106 146h35l75 -40h-35zM256 106h-4l-75 40h36l43 -23v-17zM137 106v-15l-40 22v19l48 -26h-8zM97 75v19l40 -22v-19zM256 153v-11l-21 11h21zM97 56l15 -8h-15v8zM166 0h35l75 -40h-35zM95 0h35l75 -40h-35zM246 0v8h11l29 -15v-19
l-49 26h9zM98 -40l-14 8v19l50 -27h-36z" />
    <glyph glyph-name="f" unicode="f" horiz-adv-x="260" 
d="M130 513h36l75 -40h-36zM276 473l-75 40h35l40 -21v-19zM137 473v-2l-40 22v19l73 -39h-33zM97 341v19l40 -22v-19zM97 417v19l40 -22v-19zM97 265v19l40 -22v-19zM97 455v19l40 -22v-19zM97 379v19l40 -22v-19zM97 303v19l40 -22v-19zM97 227v19l40 -22v-19zM97 193v15
l28 -15h-28zM276 519v-8l-15 8h15zM108 145h35l75 -40h-35zM255 105h-1l-75 40h35l41 -22v-18zM137 105v-14l-40 22v19l50 -27h-10zM95 0h2v18l40 -21v-19zM97 75v19l40 -22v-19zM97 37v19l40 -22v-19zM83 -12l51 -28h-35l-16 9v19zM255 153v-11l-20 11h20z" />
    <glyph glyph-name="g" unicode="g" horiz-adv-x="296" 
d="M253 371v18h3l46 -25v-15h-7zM262 404v19l40 -21v-19zM262 444q0 3 -0.5 9t-0.5 9l36 -20q2 -7 4 -21l-39 21v2zM265 498q15 -15 23 -31l-31 16l-9 24zM153 518h3l43 -23q4 -5 9 -19l-12 2l-62 33l17 7h2zM106 488q1 1 3.5 4t4.5 5t4 3l50 -27q-11 -3 -17 -10zM93 470
l2 4l46 -24q-3 -5 -7 -15l-44 23zM130 404v-5l-40 21v19l40 -21v-14zM90 154v19l40 -21v-19zM90 268v19l40 -21v-19zM90 306v19l40 -21v-19zM90 382v19l40 -21v-19zM90 116v19l40 -21v-19zM90 192v19l40 -21v-19zM90 344v19l40 -21v-19zM90 230v19l40 -21v-19zM98 74
q-3 7 -7 23l39 -21v-1q0 -13 1 -19zM92 9q19 -11 47 -14l72 -38q-14 -2 -21 -2q-8 0 -12 1l-79 42q-3 3 -7 11zM253 -27q-3 -3 -18 -10l-63 34q11 1 24 6zM278 -3q-3 -5 -11 -13l-48 25q8 4 15 11zM293 27q-5 -14 -6 -16l-43 23q5 8 6 16zM300 61q0 -6 -2 -18l-44 24l4 16z
M261 139v17h4l36 -19v-20zM260 101q1 5 1 14v5l40 -22v-18zM179 145v6h24l10 -5v-19zM179 126l28 -15h-28v15z" />
    <glyph glyph-name="h" unicode="h" horiz-adv-x="321" 
d="M258 0h12v1l40 -21v-19l-52 28v11zM270 96v19l40 -21v-19zM270 58v19l40 -21v-19zM270 20v19l40 -21v-19zM270 134v19l40 -21v-19zM270 286v19l40 -21v-19zM270 362v19l40 -21v-19zM270 248v19l40 -21v-19zM270 438v19l40 -21v-19zM270 172v19l40 -21v-19zM270 210v19
l40 -21v-19zM270 476v19l40 -21v-19zM270 324v19l40 -21v-19zM270 400v19l40 -21v-19zM270 514v5h27l13 -7v-19zM258 -30l18 -10h-18v10zM98 302v19l40 -21v-19zM98 340v19l40 -21v-19zM98 416v19l40 -21v-19zM98 454v19l40 -21v-19zM98 226v19l40 -21v-19zM98 378v19
l40 -21v-19zM98 264v19l40 -21v-19zM98 492v19l40 -21v-19zM98 207l36 -19h-35h-1v19zM138 519v-10l-19 10h19zM218 100h-26l-75 40h36l65 -35v-5zM138 100v-9l-40 21v19l59 -31h-19zM95 0h3v17l40 -21v-19zM98 74v19l40 -21v-19zM98 36v19l40 -21v-19zM98 -40l-13 7v20
l49 -27h-36zM218 140v-16l-30 16h30z" />
    <glyph glyph-name="i" unicode="i" horiz-adv-x="140" 
d="M95 0h1v18l40 -21v-19zM96 303v19l40 -21v-19zM96 75v19l40 -21v-19zM96 37v19l40 -21v-19zM96 493v19l40 -21v-19zM96 455v19l40 -21v-19zM96 379v19l40 -21v-19zM96 417v19l40 -21v-19zM96 113v19l40 -21v-19zM96 189v19l40 -21v-19zM96 227v19l40 -21v-19zM96 265v19
l40 -21v-19zM96 341v19l40 -21v-19zM96 151v19l40 -21v-19zM84 -13l50 -27h-35l-15 8v19zM136 519v-9l-17 9h17z" />
    <glyph glyph-name="j" unicode="j" horiz-adv-x="293" 
d="M209 -42q-18 -4 -28 -4l-100 53q-1 1 -1 2q27 -15 58 -15h3zM246 -24q-7 -5 -16 -10l-60 32q8 2 12 4q4 0 12 2zM282 33q-1 -8 -6 -16l-46 24l2 7l4 9zM269 2q-2 -3 -6 -7.5t-4 -5.5l-47 24q8 8 11 13zM288 68l-2 -19l-44 24q2 5 4 17zM248 336v19l40 -22v-19zM248 298
v19l40 -22v-19zM248 450v19l40 -22v-19zM248 412v19l40 -22v-19zM248 374v19l40 -22v-19zM248 108v7v12l40 -22v-19zM248 260v19l40 -22v-19zM248 222v19l40 -22v-19zM248 184v19l40 -22v-19zM248 488v19l40 -22v-19zM248 146v19l40 -22v-19zM288 519v-14l-27 14h27zM116 75
v-10l-35 18q-4 14 -5 22l40 -21v-9zM78 123h35l3 -2v-19z" />
    <glyph glyph-name="k" unicode="k" horiz-adv-x="300" 
d="M335 -40h-23l-68 37l-3 3h31l55 -29zM257 483l7 15l44 -23l-7 -16zM230 421l7 16l44 -24l-7 -15zM244 452l6 16l45 -24l-7 -15zM204 359l6 16l44 -24l-6 -15zM217 390l7 16l44 -24l-7 -15zM178 297l6 16l43 -23l-7 -16zM191 328q3 8 4 10l2 6l44 -24l-7 -15zM152 235
q1 2 3.5 7.5t3.5 8.5l41 -22l-7 -16zM165 266l6 16l43 -23l-7 -15zM142 208l4 11l41 -21l-7 -16l-32 17zM271 514l2 5h24l25 -14l-7 -15zM194 137l-23 31l18 -9l23 -32zM217 105l18 -9l23 -31l-18 9zM263 43l18 -10l23 -31l-18 9zM137 103v-12l-40 22v19l43 -23zM95 0h2v18
l40 -21v-19zM97 37v19l40 -22v-19zM97 75v19l40 -22v-19zM98 -40l-14 8v19l50 -27h-36zM100 149l8 15l3 -2l21 -30zM137 334l-5 -12l-37 19l1 19l41 -21v-5zM97 417v19l40 -22v-19zM97 455v19l40 -22v-19zM97 493v19l40 -22v-19zM97 379v19l40 -22v-19zM94 304l1 19l31 -17
l-7 -15zM93 267v18l20 -10l-6 -16zM92 248l8 -4l-6 -16l-2 1v19zM137 519v-10l-18 10h18z" />
    <glyph glyph-name="l" unicode="l" horiz-adv-x="244" 
d="M96 75v19l40 -21v-19zM96 303v19l40 -21v-19zM96 227v19l40 -21v-19zM96 455v19l40 -21v-19zM96 379v19l40 -21v-19zM96 417v19l40 -21v-19zM96 113v19l40 -21v-19zM96 493v19l40 -21v-19zM96 151v19l40 -21v-19zM96 265v19l40 -21v-19zM96 341v19l40 -21v-19zM96 189v19
l40 -21v-19zM96 47v9l18 -9h-18zM136 519v-9l-17 9h17zM95 0h35l75 -40h-35zM256 -40h-15l-75 40h35l55 -29v-11zM98 -40l-14 8v19l50 -27h-36zM256 7v-17l-32 17h32z" />
    <glyph glyph-name="m" unicode="m" horiz-adv-x="381" 
d="M342 0v1l39 -21l1 -19l-53 28v11h13zM329 330l-1 20l40 -21v-20zM332 253l-1 19l40 -21v-19zM335 175l-1 20l40 -21v-20zM324 447v19l39 -21l1 -19zM339 59v19l39 -21l1 -19zM341 20l-1 20l39 -21l1 -19zM336 136v20l39 -21l1 -20zM330 292l-1 19l40 -21l1 -19zM326 408
l-1 20l39 -22l1 -19zM323 486l-1 19l40 -21v-19zM334 214l-1 20l39 -21l1 -20zM328 369l-1 20l39 -21l1 -20zM338 98l-1 19l39 -21l1 -19zM330 520h31v-17zM331 -40l-1 9l17 -9h-16zM285 141l-3 -14l-43 24l3 17l43 -23v-4zM233 116l3 17l43 -23l-3 -17zM213 13h2l3 16
l43 -23l-3 -17zM221 46l3 18l43 -23l-3 -18zM227 81l3 18l43 -23l-3 -18zM245 185l3 18l35 -19l1 -20zM202 -19l-3 20l53 -28h-36zM251 220l3 17l27 -14l1 -19zM257 255l1 2l2 15l20 -10v-9v-11zM263 290l2 18l16 -9v-19zM268 325l2 18l12 -7v-18zM273 361l2 17l8 -4v-19z
M278 396l2 17l4 -2v-18zM130 475l-4 21l37 -20l4 -21zM145 391l-4 21l37 -20l4 -21zM160 307l-4 21l37 -20l4 -21zM152 349l-4 21l37 -20l4 -20zM137 433l-4 21l37 -20l4 -20zM168 265l-4 21l36 -20l4 -21zM175 223l-4 21l35 -19l-3 -17zM122 520h31l2 -1l4 -21l-37 19v3z
M180 182l-2 20l23 -12l-2 -18zM184 142l-2 20l15 -8l-2 -18zM189 102l-3 20l7 -4l-2 -17zM87 80l1 19l40 -22v-19zM90 154l1 19l40 -22v-19zM133 187l-1 -17l-41 22l1 18l40 -21zM84 6l1 18l40 -22v-18zM88 117l1 19l41 -22l-1 -19zM85 43l1 18l41 -22l-1 -18zM124 -40h-25
l-24 13l1 18l48 -26v-5zM93 229l1 18l31 -16l4 -22zM118 272l3 -18v-2l-27 14v19zM94 304v19l19 -10l2 -20zM95 342v19l13 -7l2 -21zM95 380v18l7 -4l3 -19zM98 432l2 -17l-4 2v15h2z" />
    <glyph glyph-name="n" unicode="n" horiz-adv-x="331" 
d="M257 0h15l48 -25v-15h-8l-51 27zM280 319v19l40 -22v-19zM280 53v19l40 -22v-19zM280 15v19l40 -22v-18zM280 281v19l40 -22v-19zM280 433v19l40 -22v-19zM280 395v19l40 -22v-19zM280 243v19l40 -22v-19zM280 91v19l40 -22v-19zM280 471v19l40 -22v-19zM280 205v19
l40 -22v-19zM280 167v19l40 -22v-19zM280 357v19l40 -22v-19zM280 129v19l40 -22v-19zM280 509v10h17l23 -13v-19zM271 -40l-1 4l6 -4h-5zM120 480l-8 24l32 -18l8 -23zM136 434l-8 23l32 -17l8 -23zM195 259l-5 13l32 -17l6 -17v-6l-30 17zM152 387l-8 24l31 -17l8 -24z
M183 295l-8 23l31 -17l8 -23zM167 341l-8 23l32 -17l7 -22zM211 204l-7 22l26 -13l1 -20zM224 159l-7 22l16 -8l1 -20zM119 519h15l3 -10zM238 113l-7 23l5 -3zM95 0h3v17l40 -21v-19zM98 188v19l40 -21v-19zM98 226v19l40 -21v-19zM98 112v19l40 -21v-19zM98 74v19l40 -21
v-19zM98 36v19l40 -21v-19zM98 150v19l40 -21v-19zM138 253v-10l-40 21v19l39 -21zM97 302l-1 20l30 -16l7 -23zM98 -40l-13 7v20l49 -27h-36zM95 342l-2 19l21 -11l6 -22zM92 381l-1 20l10 -6l6 -22zM89 438l5 -20l-4 2z" />
    <glyph glyph-name="o" unicode="o" horiz-adv-x="307" 
d="M191 -46q-7 0 -11 1l-80 43q-4 4 -7 10q22 -13 48 -14l72 -38q-14 -2 -22 -2zM253 -28q-13 -7 -17 -9l-63 33l23 6zM278 -3q-3 -5 -11 -13l-49 26q10 5 15 11zM294 26q-4 -10 -7 -15l-45 24l5 16zM301 60q0 -8 -3 -17l-44 24q2 4 4 16zM262 404v19l40 -21v-19zM262 290
v19l40 -21v-19zM262 252v19l40 -21v-19zM262 328v19l40 -21v-19zM262 366v19l40 -21v-19zM262 138v19l40 -21v-19zM262 176v19l40 -21v-19zM262 214v19l40 -21v-19zM261 101q1 4 1 14v4l40 -21v-19zM297 443q2 -8 4 -22l-39 21v3q0 2 -0.5 8t-0.5 9zM257 502q18 -14 29 -35
l-30 17q-6 16 -10 24zM205 476q-1 0 -3.5 0.5t-3.5 0.5l-64 34l15 6h2q6 0 8 -1l35 -18q6 -8 11 -22zM106 488q1 1 3.5 4t4.5 5t4 3l51 -27q-7 -2 -17 -10zM93 469l3 5l45 -24q-2 -3 -7 -15l-44 23zM130 405v-6l-40 21v19l40 -21v-13zM90 154v19l40 -21v-19zM90 268v19
l40 -21v-19zM90 306v19l40 -21v-19zM90 382v19l40 -21v-19zM90 116v19l40 -21v-19zM90 192v19l40 -21v-19zM90 344v19l40 -21v-19zM90 230v19l40 -21v-19zM98 74q-6 14 -7 23l39 -21v-2q0 -12 1 -18z" />
    <glyph glyph-name="p" unicode="p" horiz-adv-x="308" 
d="M196 108h-19l-75 40h36l73 -39q-5 -1 -15 -1zM172 149q14 2 24 6l59 -32l-19 -8zM220 161q6 2 16 10l45 -24q-6 -9 -12 -13zM246 185q2 3 7 15l45 -24q-5 -12 -7 -15zM259 216l5 16l43 -23q0 -3 -0.5 -5.5t-1.5 -6t-1 -5.5zM137 108v-17l-40 22v19l45 -24h-5zM267 250
q0 2 0.5 7t0.5 8v3l40 -21v-19zM95 0h2v18l40 -21v-19zM268 363v19l40 -21v-19zM268 287v19l40 -21v-19zM97 75v19l40 -22v-19zM97 37v19l40 -22v-19zM268 325v19l40 -21v-19zM268 401v19l40 -21v-19zM304 439l3 -21l-39 21v6q0 9 -1 13zM98 -40l-15 9v19l51 -28h-36z
M264 498q19 -12 31 -36l-31 17q-3 13 -9 24zM156 512q6 0 14 -2l30 -16q9 -9 14 -24q-3 0 -5 1l-77 41h24zM97 493v19l75 -40h-35v-1zM97 341v19l40 -22v-19zM97 379v19l40 -22v-19zM97 455v19l40 -22v-19zM97 417v19l40 -22v-19zM97 265v19l40 -22v-19zM97 303v19l40 -22
v-19zM97 227v19l40 -22v-19zM97 208l22 -12h-22v12z" />
    <glyph glyph-name="q" unicode="q" horiz-adv-x="307" 
d="M177 -3l19 5l55 -28l-17 -10l-57 30v3zM242 35q3 5 5 16l46 -24q-2 -5 -8 -15zM254 67q2 4 4 16l43 -23l-3 -17zM220 9q8 4 14 11l42 -22l-11 -12zM262 252v19l40 -21v-19zM262 214v19l40 -21v-19zM262 290v19l40 -21v-19zM177 -82v19l40 -21v-19zM262 404v19l40 -21v-19
zM177 -44v19l40 -21v-19zM262 366v19l40 -21v-19zM262 176v19l40 -21v-19zM262 138v19l40 -21v-19zM262 328v19l40 -21v-19zM261 101q1 4 1 14v4l40 -21v-19zM262 445q0 2 -0.5 8t-0.5 9l36 -19q2 -8 4 -22l-39 21v3zM181 -122l-14 8v19l49 -27h-35zM257 502q18 -14 29 -35
l-30 17q-6 16 -10 24zM205 475q-1 0 -3 0.5t-3 0.5l-65 35l15 6h2q6 0 8 -1l34 -18q7 -9 12 -23zM106 488q1 1 3.5 4t4.5 5t4 3l51 -27q-7 -2 -17 -10zM93 469l3 5l45 -24q-2 -3 -7 -15l-44 23zM130 405v-6l-40 21v19l40 -21v-13zM90 154v19l40 -21v-19zM90 268v19l40 -21
v-19zM90 306v19l40 -21v-19zM90 382v19l40 -21v-19zM90 116v19l40 -21v-19zM90 192v19l40 -21v-19zM90 344v19l40 -21v-19zM90 230v19l40 -21v-19zM98 74q-6 14 -7 23l39 -21v-2q0 -12 1 -18zM127 -4v-13l-23 12q-8 10 -8 11q14 -7 31 -10z" />
    <glyph glyph-name="r" unicode="r" horiz-adv-x="305" 
d="M251 0h13v4l40 -21v-19l-53 29v7zM293 179q-3 -10 -7 -16l-44 24q1 2 2.5 7t2.5 7q0 1 1 2zM300 213l-3 -18l-43 23q2 4 4 17zM300 403v-19l-40 22v19zM260 368v19l40 -22v-19zM260 330v19l40 -22v-19zM264 61v19l40 -21v-19zM264 23v19l40 -21v-19zM260 254v6v13l40 -22
v-19zM260 292v19l40 -22v-19zM294 444q4 -11 5 -21l-39 21q0 13 -1 19zM293 103q8 -16 9 -24l-38 20v3q0 7 -2 17zM277 149l-11 -12l-12 6q-6 11 -24 26l3 4zM246 505q24 -13 37 -36l-29 15q-1 6 -8 21zM251 -40v14l25 -14h-25zM137 472v-1l-40 22v19l75 -40h-35zM149 512
q21 0 36.5 -12t18.5 -27l-72 39h17zM97 341v19l40 -22v-19zM97 303v19l40 -22v-19zM97 455v19l40 -22v-19zM97 227v19l40 -22v-19zM97 265v19l40 -22v-19zM97 379v19l40 -22v-19zM97 417v19l40 -22v-19zM97 190v18l33 -18h-33zM211 103h-24l-75 40h35l63 -34q1 -2 1 -6z
M137 103v-12l-40 22v19l54 -29h-14zM95 0h2v18l40 -21v-19zM97 75v19l40 -22v-19zM97 37v19l40 -22v-19zM98 -40l-15 9v19l51 -28h-36z" />
    <glyph glyph-name="s" unicode="s" horiz-adv-x="300" 
d="M286 330h-27l-23 12v19l50 -26v-5zM246 375v19l40 -22v-19zM286 407v-16l-40 22v19l40 -22v-3zM279 452q4 -14 5 -22l-38 21q0 6 -2 20zM231 511q23 -12 36 -33l-28 15q-2 6 -8 18zM102 490q10 11 13 12l54 -29q-7 -1 -19 -9zM89 459q2 10 4 17l46 -25l-2.5 -5t-2.5 -5.5
t-1 -4.5zM129 405v-6l-40 22v19l40 -22v-13zM89 383v19l40 -22v-19zM89 345v19l40 -22v-19zM143 515q36 0 48 -35l-60 32l6 3h6zM132 287q-29 19 -38 36l35 -18v-2q0 -9 3 -16zM189 -46h-9l-85 46q-3 4 -5 8q18 -12 51 -14l71 -38q-14 -2 -23 -2zM254 -28l-18 -9l-63 33
q7 1 19 5h7zM279 -3l-12 -13l-47 25q8 4 14 11zM293 27q-5 -14 -6 -16l-44 24q4 10 5 16zM300 61q0 -6 -2 -18l-44 24q2 4 4 16zM301 119v-2l-40 22v19l37 -20q3 -9 3 -19zM260 101q1 4 1 13v6l40 -22v-18zM251 197q22 -16 35 -33l-27 14q-2 7 -8 19zM187 180q-72 41 -92 67
l63 -34q41 -26 50 -46l-13 7zM88 117v16h7l33 -18v-19zM128 75q-2 -9 0 -17l-34 18q-5 11 -6 22l40 -21v-2z" />
    <glyph glyph-name="t" unicode="t" horiz-adv-x="241" 
d="M142 507v6h24l75 -40h-36zM182 -40h-12l-38 21v18l50 -26v-13zM218 513v6h8l32 -17v-19l-57 30h17zM142 51v19l40 -22v-19zM142 13v19l40 -22v-18zM142 469v19l40 -22v-19zM142 89v19l40 -22v-19zM142 393v19l40 -22v-19zM142 355v19l40 -22v-19zM142 165v19l40 -22v-19z
M142 127v19l40 -22v-19zM142 241v19l40 -22v-19zM142 279v19l40 -22v-19zM142 317v19l40 -22v-19zM142 431v19l40 -22v-19zM142 203v19l40 -22v-19zM92 473h-29l-8 4v19l37 -20v-3zM92 513v-18l-33 18h33z" />
    <glyph glyph-name="u" unicode="u" horiz-adv-x="317" 
d="M99 7q18 -11 42 -12l73 -39q-14 -2 -20 -2q-10 0 -15 1l-70 38q-4 4 -10 14zM196 1h3l57 -30l-18 -9l-64 34q8 1 22 5zM223 7q8 4 15 11l44 -23l-12 -13zM247 32q4 9 5 17l46 -25q-4 -10 -7 -15zM258 64l5 17l43 -23l-3 -18zM266 98q0 3 0.5 8.5t0.5 8.5v2l40 -22v-19z
M267 250v19l40 -22v-19zM267 440v19l40 -22v-19zM267 402v19l40 -22v-19zM267 364v19l40 -22v-19zM267 174v19l40 -22v-19zM267 136v19l40 -22v-19zM267 212v19l40 -22v-19zM267 288v19l40 -22v-19zM267 478v19l40 -22v-19zM267 326v19l40 -22v-19zM267 516v3h30l10 -6v-19z
M95 304v19l40 -22v-19zM95 266v19l40 -22v-19zM95 494v19l40 -22v-19zM95 380v19l40 -22v-19zM95 114v1v18l40 -22v-19zM95 152v19l40 -22v-19zM95 456v19l40 -22v-19zM95 190v19l40 -22v-19zM95 418v19l40 -22v-19zM95 342v19l40 -22v-19zM95 228v19l40 -22v-19zM135 73
q0 -13 1 -19l-32 17q-6 14 -7 23zM135 519v-9l-16 9h16z" />
    <glyph glyph-name="v" unicode="v" horiz-adv-x="286" 
d="M216 315l3 18l42 -23l-3 -18zM173 34l2 18l43 -23l-3 -18zM221 350l3 18l43 -23l-3 -18zM199 210l3 17l43 -22l-3 -18zM205 245l3 17l42 -22l-3 -18zM210 280l3 17l43 -22l-3 -18zM194 175l3 17l42 -23l-2 -17zM189 140l2 17l43 -23l-2 -17zM178 69l2 18l43 -23l-2 -18z
M168 0l2 16l43 -22l-3 -18l-44 24h2zM227 385l2 18l43 -23l-3 -18zM243 490l3 18l42 -23l-2 -17zM232 420l3 18l42 -23l-2 -17zM238 455l2 18l43 -23l-3 -17zM147 -28l-3 21l61 -33h-36zM183 105l3 17l43 -23l-3 -17zM294 520l-3 -17l-32 17h35zM86 498l-3 21l37 -20l3 -21z
M111 333l-3 21l37 -20l3 -21zM92 457l-3 21l37 -20l3 -21zM98 416l-3 21l37 -20l3 -21zM118 292l-4 20l37 -20l3 -20zM105 375l-4 20l37 -19l3 -21zM154 248l-1 -14l-29 16l-3 21l33 -18v-5zM128 210l-2 20l26 -14l-2 -18zM131 170l-2 20l20 -10l-1 -19zM134 131l-2 20
l14 -8l-1 -18zM138 91l-2 20l7 -4l-1 -18z" />
    <glyph glyph-name="w" unicode="w" horiz-adv-x="451" 
d="M342 0h11l1 12l43 -22l-3 -18zM372 136l2 18l43 -23l-3 -18zM357 30l2 18l43 -23l-3 -18zM414 455l2 18l43 -23l-2 -18zM409 420l2 18l43 -23l-2 -18zM377 171l2 18l43 -23l-3 -17zM391 278l2 17l43 -22l-3 -18zM367 101l2 17l43 -22l-3 -18zM362 65l2 18l43 -23l-3 -17z
M418 491l2 18l43 -23l-2 -18zM405 384l2 18l42 -23l-2 -17zM386 242l2 18l43 -23l-2 -17zM382 207l2 17l42 -23l-2 -17zM396 313l2 18l42 -23l-2 -17zM400 349l2 17l43 -23l-2 -17zM328 -31l-3 21l56 -30h-36zM468 520l-2 -16l-31 16h33zM264 479l-3 21l37 -20l3 -21z
M276 397l-3 21l37 -20l3 -21zM294 273l-3 21l37 -20l3 -20zM288 315l-3 20l37 -20l3 -20zM282 356l-3 20l37 -20l3 -20zM270 438l-3 21l37 -20l3 -21zM334 233l-2 -18l-32 17l-3 21zM306 191l-3 20l28 -15l-2 -18zM312 150l-3 20l19 -10l-2 -18zM269 515h24l2 -14zM318 108
l-3 21l10 -5l-2 -19zM203 -40h-34l-28 15l-3 21l65 -35v-1zM195 212l3 18l43 -23l-3 -18zM201 247l3 18l42 -23l-3 -18zM184 142l3 17l43 -23l-3 -17zM179 107l3 17l42 -23l-2 -17zM190 177l3 17l42 -23l-2 -17zM173 72l3 17l43 -23l-3 -17zM163 1l2 18l43 -23l-3 -17z
M250 265l-1 -6l-43 23l3 18l39 -21zM168 37l3 17l42 -23l-2 -17zM212 317l2 13v2q1 2 1 3l26 -15l3 -20zM235 361l3 -20l-21 11q0 6 2 18zM231 402q0 -6 2 -20l-12 6q0 3 0.5 9.5t0.5 9.5zM227 442l2 -20l-6 3l2 18zM82 500l-2 20h2l35 -19l3 -21zM99 377l-3 21l37 -19
l3 -21zM87 460l-2 20l37 -20l3 -20zM110 296l-3 20l37 -19l3 -21zM104 337l-3 20l37 -20l3 -20zM93 419l-3 20l37 -20l3 -20zM152 238l-1 -2l-36 19l-3 20l37 -20zM120 214l-3 21l32 -17l-2 -18zM125 174l-3 20l23 -12l-2 -18zM129 133l-2 21l14 -8l-2 -18zM133 93l-2 20
l6 -3l-2 -18z" />
    <glyph glyph-name="x" unicode="x" horiz-adv-x="276" 
d="M267 -40h-26l-32 17l-8 23l64 -34zM163 229l5 17l45 -24l-5 -17zM240 492l5 17l45 -24l-5 -17zM221 426l5 17l45 -24l-5 -17zM230 459l5 17l45 -24l-5 -17zM173 262l5 16l45 -24l-5 -16zM183 295l4 16l45 -24l-4 -16zM192 328l5 16l45 -24l-5 -16zM202 361l4 16l45 -24
l-4 -16zM211 394l5 16l45 -24l-5 -16zM158 210l1 3l45 -24l-5 -17l-35 19zM179 144l-7 24l32 -18l8 -23zM209 52l-7 24l32 -18l8 -23zM194 98l-7 24l32 -18l8 -23zM225 6l-8 23l32 -17l8 -22zM259 520h36l4 -3l-5 -16zM107 391l-1 2l34 -18l6 -23l-35 19zM100 415l-6 22
l34 -18l6 -22zM88 459l-6 22l34 -18l6 -22zM72 520h10l22 -12l6 -22l-34 18zM143 335q-1 -5 -4 -17l-19 10l-5 22zM136 301q-3 -11 -3 -17l-4 2l-5 21zM87 4l6 16l44 -23l-5 -17zM108 68l2 5l3 12l41 -22l2 -7l-4 -11zM98 36l5 16l44 -23l-5 -16zM126 -40h-28l-24 13l6 16
l47 -25zM118 101l4 17l20 -10l6 -23zM131 150l5 -20l-9 5z" />
    <glyph glyph-name="y" unicode="y" horiz-adv-x="296" 
d="M198 248l5 17l43 -23l-4 -17zM207 282l4 17l44 -24l-5 -17zM215 315l5 17l43 -23l-4 -17zM258 482l5 17l43 -23l-5 -17zM224 349l4 16l44 -23l-5 -17zM250 449l4 17l43 -23l-4 -17zM173 148l4 17l44 -24l-4 -16zM181 182l4 16l44 -23l-4 -17zM190 215l4 17l44 -24l-4 -16
zM241 416l4 16l44 -23l-4 -17zM233 382l4 17l43 -24l-4 -16zM171 0v16l40 -21v-19l-45 24h5zM211 101v-11l-40 21v19l42 -22zM171 35v19l40 -21v-19zM171 73v19l40 -21v-19zM267 516l1 4h27l19 -11l-4 -16zM159 -15l46 -25h-35l-11 6v19zM156 328l3 -10l2 -12l-36 20l-4 21z
M93 457l-6 22l35 -18l6 -23zM116 368l-6 22l35 -18l5 -22zM76 520h6l28 -15l6 -22l-35 18zM105 413l-6 22l34 -19l6 -22zM133 283l-4 21l30 -16l-3 -17zM142 240l-4 22l14 -8l-3 -17z" />
    <glyph glyph-name="z" unicode="z" horiz-adv-x="256" 
d="M114 180l5 16l46 -25l-6 -16zM158 308l5 16l46 -24l-6 -16zM92 115l5 16l46 -24l-6 -16zM81 83l5 16l46 -24l-6 -16zM202 437l5 16l46 -25l-6 -16zM103 147l5 16l46 -24l-6 -16zM180 372l5 16l46 -24l-6 -16zM147 276l5 16l46 -25l-6 -16zM125 212l5 16l46 -25l-6 -16z
M169 340l5 16l46 -24l-6 -16zM136 244l5 16l46 -25l-6 -16zM213 469l5 16l46 -25l-6 -16zM191 404l5 16l46 -24l-6 -16zM272 483l-3 -7l-45 25l5 16l43 -23v-11zM74 49l-4 2l5 16l35 -18h-36zM272 519v-6l-11 6h11zM71 507v5h26l69 -37l-1 -3h-29zM132 512h36l9 -5l-6 -16z
M71 472v16l30 -16h-30zM95 0h35l75 -40h-35zM269 -40h-28l-75 40h35l68 -36v-4zM54 0h5l75 -40h-35l-45 24v16zM229 4v5h27l13 -7v-19zM54 -35l9 -5h-9v5z" />
    <glyph glyph-name="exclamdown" unicode="&#xa1;" horiz-adv-x="158" 
d="M104 56v19l40 -22v-19zM104 246v19l40 -22v-19zM104 284v19l40 -22v-19zM104 322v19l40 -22v-19zM104 208v19l40 -22v-19zM104 170v19l40 -22v-19zM104 -20v19l40 -21v-19zM104 18v19l40 -22v-18zM104 94v19l40 -22v-19zM104 -58v19l40 -21v-19zM104 132v19l40 -22v-19z
M104 360v19l40 -22v-19zM105 -134l-1 19l40 -22v-19zM104 -96v19l40 -21v-19zM145 -175h-35l-17 9v19zM117 391h27v-15zM102 475h2v18l40 -22v-19zM104 512v8h20l20 -11v-19zM106 435l-11 6v19l46 -25h-35z" />
    <glyph glyph-name="yen" unicode="&#xa5;" 
d="M251 471l5 17l45 -24l-5 -17zM208 304l5 17l44 -24l-5 -17zM217 337l4 17l45 -24l-5 -16zM225 371l5 16l45 -24l-5 -16zM260 504l4 16h2l43 -23l-4 -17zM243 438l4 16l45 -24l-4 -16zM234 404l4 17l45 -24l-4 -17zM200 271l4 16l44 -23l-4 -17zM191 237l4 17l44 -24
l-4 -16zM223 185h-5l-35 19l4 16l44 -23l-4 -17l-4 2v3zM315 520l-2 -6l-11 6h13zM158 304l-2 -10l-32 17l-4 21l36 -19zM81 486l-6 22l35 -18l6 -22zM93 442l-6 22l35 -19l5 -22zM115 358l-5 17l35 -18l5 -22l-34 18zM105 397l-6 23l34 -19l6 -22zM132 269l-4 21l24 -13
l-3 -17zM141 226l-4 21l9 -5l-4 -17zM89 520h13l2 -8zM167 141l2 10h6l75 -40h-27v5h-18l-38 20v5zM222 145h35l6 -3v-19zM219 151l-1 -4l-8 4h9zM207 43v-4l-40 21v19l68 -36h-28zM167 0v3l40 -21v-19l-52 28v9h12zM167 22v19l40 -21v-19zM209 76h35l19 -10v-19zM155 -40
v12l22 -12h-22zM207 83v-6l-12 6h12zM100 76h2l13 -7v-19l-15 8v18zM115 141v-15l-15 8v11h14z" />
    <glyph glyph-name="brokenbar" unicode="&#xa6;" horiz-adv-x="710" 
d="M108 875v19l503 -269v-19zM108 837v19l503 -269v-19zM108 799v19l503 -269v-19zM108 761v19l503 -269v-19zM108 723v19l503 -269v-19zM108 685v19l503 -269v-19zM108 647v19l503 -269v-19zM108 609v19l503 -269v-19zM108 571v19l503 -269v-19zM108 533v19l503 -269v-19z
M108 495v19l503 -269v-19zM108 457v19l503 -269v-19zM108 419v19l503 -269v-19zM108 381v19l503 -269v-19zM108 343v19l503 -269v-19zM108 305v19l503 -269v-19zM108 267v19l503 -269v-19zM108 229v19l503 -269v-19zM108 191v19l503 -269v-19zM108 153v19l503 -269v-19z
M108 115v19l503 -269v-19zM108 77v19l503 -269v-19zM108 39v19l503 -269v-19zM108 1v19l503 -269v-19zM108 -37v19l503 -269v-19z" />
    <glyph glyph-name="dieresis" unicode="&#xa8;" horiz-adv-x="165" 
d="M103 589h-1l-39 21v10h3v7l37 -20v-18zM66 646v15h8l29 -16v-19zM143 620h2v3l37 -20v-14h-9l-30 16v15zM145 642v19l37 -20v-19z" />
    <glyph glyph-name="macron" unicode="&#xaf;" horiz-adv-x="180" 
d="M54 659h24l61 -33h-35l-50 27v6zM190 626h-15l-62 33h36l41 -22v-11zM190 666v-10l-19 10h19zM54 634l14 -8h-14v8z" />
    <glyph glyph-name="acute" unicode="&#xb4;" horiz-adv-x="123" 
d="M58 612l1 2h4l6 11l34 -18l-9 -14zM78 640l8 14l34 -18l-9 -14zM95 668l3 5h25l14 -8l-9 -14zM47 587l4 10l19 -10h-23z" />
    <glyph glyph-name="cedilla" unicode="&#xb8;" horiz-adv-x="211" 
d="M124 -139q6 -3 12 -3h18l44 -23q-5 -4 -17 -10l-68 36h11zM100 -170q-15 9 -21 30l73 -39h-16q-15 0 -28 5zM221 -119v-1l-43 23q3 7 3 17l36 -19q4 -12 4 -20zM218 -138q-2 -5 -8 -15l-37 20q4 8 4 13q0 3 -1 4zM128 -98h-15l4 14l15 -8q-2 -4 -4 -6zM124 -59
q10 -4 12 -16l-15 8zM166 -41q-14 14 -33 17l2 7l33 -18zM174 -15l-1 -3l-7 3h8z" />
    <glyph glyph-name="questiondown" unicode="&#xbf;" horiz-adv-x="307" 
d="M93 138q1 2 8 14l44 -23q-6 -10 -8 -15zM84 105q0 5 2 17l45 -24q-2 -4 -4 -16zM111 166l12 13l42 -23l-1 -1q-4 -4 -10 -12zM217 242l-5 -16l-43 23q2 5 4 17zM188 182l-11 -14l-42 23q4 4 12 13zM205 211q-2 -5 -8 -15l-40 21q2 3 7 16zM226 314q0 -13 -1 -19l-41 22
q2 12 2 18zM224 276l-3 -17l-43 23q2 7 4 17zM123 50v-4l-40 21v19l41 -22q-1 -5 -1 -14zM83 29v19l40 -21v-19zM186 354v2v17l40 -22v-19zM83 -8v18l40 -21v-19zM86 -48q-3 9 -3 20l40 -21v-8v-11zM129 -99q-23 7 -35 27l32 -17zM226 385v-14l-27 14h27zM150 -148
q1 0 5.5 0.5t7.5 0.5l66 -35q-7 -3 -25 -5l-78 41q16 -2 24 -2zM266 -164q-2 -2 -16 -10l-60 32q14 0 27 5zM305 -108l-6 -16l-45 24q2 5 4 15v2zM312 -74l-3 -18l-45 24q4 13 5 17zM290 -138q-3 -5 -11 -13l-45 24q5 3 12 12zM272 -34q0 3 0.5 9t0.5 9v1l40 -22v-19z
M165 -185q-39 7 -63 33zM313 -3v-14l-28 14h28zM176 474h9v13l40 -21v-19l-49 26v1zM185 506v13h12l28 -15v-19zM179 434l-3 1v19l38 -20h-35z" />
    <glyph glyph-name="Agrave" unicode="&#xc0;" horiz-adv-x="334" 
d="M344 -40h-15l-40 22l-3 18h3l53 -28zM211 592l-3 21l37 -20l3 -21zM302 12l-3 21l37 -20l3 -20zM269 219l-3 21l37 -19l3 -21zM282 136l-3 21l37 -19l3 -21zM276 178l-4 21l38 -20l3 -21zM217 551l-3 21l37 -20l3 -21zM224 510l-4 21l37 -20l3 -21zM230 468l-3 21l36 -19
l4 -21zM205 634l-3 21l36 -20l4 -21zM295 54l-3 20l37 -19l3 -21zM250 344l-3 20l36 -19l3 -21zM244 385l-4 21l36 -19l4 -21zM263 261l-3 21l36 -19l3 -21zM289 95l-4 21l37 -20l3 -20zM237 427l-4 21l37 -20l3 -20zM256 303l-3 20l36 -19l3 -21zM118 262l2 18l43 -23
l-3 -18zM128 333l3 17l42 -22l-3 -18zM123 298l3 17l42 -22l-3 -18zM139 403l1 2l2 16l41 -22l-3 -18zM134 368l3 17l41 -22l-3 -17zM187 426l-2 -10l-41 22l2 18l40 -21zM148 474l2 18l31 -16l3 -21zM152 510l2 18l22 -11l3 -21zM156 546l3 18l12 -7l3 -21zM161 581l2 18
l3 -1l3 -21zM115 245l19 -10h-20zM228 147h-36l-75 40h36zM69 -15l3 15h4l45 -24l-2 -16h-4zM148 148l-2 -15l-43 23l3 18l48 -26h-6zM92 86l3 18l42 -23l-2 -18zM97 121l3 18l43 -23l-3 -18zM81 16l3 17l42 -23l-2 -17zM87 51l2 18l43 -23l-3 -17zM223 187l3 -20l-38 20h35
zM67 -33l13 -7h-14zM194 741l-9 18l31 -15l11 -22l-42 19h9zM185 710l-14 20l44 -20h-30zM172 785h25l8 -18l-32 15z" />
    <glyph glyph-name="Aacute" unicode="&#xc1;" horiz-adv-x="334" 
d="M344 -40h-15l-40 22l-3 18h3l53 -28zM211 592l-3 21l37 -20l3 -21zM302 12l-3 21l37 -20l3 -20zM269 219l-3 21l37 -19l3 -21zM282 136l-3 21l37 -19l3 -21zM276 178l-4 21l38 -20l3 -21zM217 551l-3 21l37 -20l3 -21zM224 510l-4 21l37 -20l3 -21zM230 468l-3 21l36 -19
l4 -21zM205 634l-3 21l36 -20l4 -21zM295 54l-3 20l37 -19l3 -21zM250 344l-3 20l36 -19l3 -21zM244 385l-4 21l36 -19l4 -21zM263 261l-3 21l36 -19l3 -21zM289 95l-4 21l37 -20l3 -20zM237 427l-4 21l37 -20l3 -20zM256 303l-3 20l36 -19l3 -21zM118 262l2 18l43 -23
l-3 -18zM128 333l3 17l42 -22l-3 -18zM123 298l3 17l42 -22l-3 -18zM139 403l1 2l2 16l41 -22l-3 -18zM134 368l3 17l41 -22l-3 -17zM187 426l-2 -10l-41 22l2 18l40 -21zM148 474l2 18l31 -16l3 -21zM152 510l2 18l22 -11l3 -21zM156 546l3 18l12 -7l3 -21zM161 581l2 18
l3 -1l3 -21zM115 245l19 -10h-20zM228 147h-36l-75 40h36zM69 -15l3 15h4l45 -24l-2 -16h-4zM148 148l-2 -15l-43 23l3 18l48 -26h-6zM92 86l3 18l42 -23l-2 -18zM97 121l3 18l43 -23l-3 -18zM81 16l3 17l42 -23l-2 -17zM87 51l2 18l43 -23l-3 -17zM223 187l3 -20l-38 20h35
zM67 -33l13 -7h-14zM180 740l1 2h4l6 11l37 -18l-10 -14zM201 768l9 13l36 -17l-10 -14zM219 795l3 5h27l15 -8l-10 -14zM168 716l4 9l21 -9h-25z" />
    <glyph glyph-name="Acircumflex" unicode="&#xc2;" horiz-adv-x="334" 
d="M344 -40h-15l-40 22l-3 18h3l53 -28zM211 592l-3 21l37 -20l3 -21zM302 12l-3 21l37 -20l3 -20zM269 219l-3 21l37 -19l3 -21zM282 136l-3 21l37 -19l3 -21zM276 178l-4 21l38 -20l3 -21zM217 551l-3 21l37 -20l3 -21zM224 510l-4 21l37 -20l3 -21zM230 468l-3 21l36 -19
l4 -21zM205 634l-3 21l36 -20l4 -21zM295 54l-3 20l37 -19l3 -21zM250 344l-3 20l36 -19l3 -21zM244 385l-4 21l36 -19l4 -21zM263 261l-3 21l36 -19l3 -21zM289 95l-4 21l37 -20l3 -20zM237 427l-4 21l37 -20l3 -20zM256 303l-3 20l36 -19l3 -21zM118 262l2 18l43 -23
l-3 -18zM128 333l3 17l42 -22l-3 -18zM123 298l3 17l42 -22l-3 -18zM139 403l1 2l2 16l41 -22l-3 -18zM134 368l3 17l41 -22l-3 -17zM187 426l-2 -10l-41 22l2 18l40 -21zM148 474l2 18l31 -16l3 -21zM152 510l2 18l22 -11l3 -21zM156 546l3 18l12 -7l3 -21zM161 581l2 18
l3 -1l3 -21zM115 245l19 -10h-20zM228 147h-36l-75 40h36zM69 -15l3 15h4l45 -24l-2 -16h-4zM148 148l-2 -15l-43 23l3 18l48 -26h-6zM92 86l3 18l42 -23l-2 -18zM97 121l3 18l43 -23l-3 -18zM81 16l3 17l42 -23l-2 -17zM87 51l2 18l43 -23l-3 -17zM223 187l3 -20l-38 20h35
zM67 -33l13 -7h-14zM264 732l26 -27h-9l-62 33h35zM149 738l12 12l35 -19l-12 -11zM167 705h-24l-17 9l12 11l33 -17zM172 761l5 5l17 -16z" />
    <glyph glyph-name="Atilde" unicode="&#xc3;" horiz-adv-x="334" 
d="M344 -40h-15l-40 22l-3 18h3l53 -28zM211 592l-3 21l37 -20l3 -21zM302 12l-3 21l37 -20l3 -20zM269 219l-3 21l37 -19l3 -21zM282 136l-3 21l37 -19l3 -21zM276 178l-4 21l38 -20l3 -21zM217 551l-3 21l37 -20l3 -21zM224 510l-4 21l37 -20l3 -21zM230 468l-3 21l36 -19
l4 -21zM205 634l-3 21l36 -20l4 -21zM295 54l-3 20l37 -19l3 -21zM250 344l-3 20l36 -19l3 -21zM244 385l-4 21l36 -19l4 -21zM263 261l-3 21l36 -19l3 -21zM289 95l-4 21l37 -20l3 -20zM237 427l-4 21l37 -20l3 -20zM256 303l-3 20l36 -19l3 -21zM118 262l2 18l43 -23
l-3 -18zM128 333l3 17l42 -22l-3 -18zM123 298l3 17l42 -22l-3 -18zM139 403l1 2l2 16l41 -22l-3 -18zM134 368l3 17l41 -22l-3 -17zM187 426l-2 -10l-41 22l2 18l40 -21zM148 474l2 18l31 -16l3 -21zM152 510l2 18l22 -11l3 -21zM156 546l3 18l12 -7l3 -21zM161 581l2 18
l3 -1l3 -21zM115 245l19 -10h-20zM228 147h-36l-75 40h36zM69 -15l3 15h4l45 -24l-2 -16h-4zM148 148l-2 -15l-43 23l3 18l48 -26h-6zM92 86l3 18l42 -23l-2 -18zM97 121l3 18l43 -23l-3 -18zM81 16l3 17l42 -23l-2 -17zM87 51l2 18l43 -23l-3 -17zM223 187l3 -20l-38 20h35
zM67 -33l13 -7h-14zM230 706q-9 0 -13 1l-82 44q1 1 4 2.5t4 2.5q8 -1 20 -8q15 -12 33 -10l53 -29q-9 -3 -19 -3zM274 727l-8 -8l-46 25q4 2 6 4q3 -1 8 -1q8 0 13 1l27 -14v-7zM154 722q-11 -4 -17 -10l-7 4v19zM274 766v-13l-9 5z" />
    <glyph glyph-name="Adieresis" unicode="&#xc4;" horiz-adv-x="334" 
d="M344 -40h-15l-40 22l-3 18h3l53 -28zM211 592l-3 21l37 -20l3 -21zM302 12l-3 21l37 -20l3 -20zM269 219l-3 21l37 -19l3 -21zM282 136l-3 21l37 -19l3 -21zM276 178l-4 21l38 -20l3 -21zM217 551l-3 21l37 -20l3 -21zM224 510l-4 21l37 -20l3 -21zM230 468l-3 21l36 -19
l4 -21zM205 634l-3 21l36 -20l4 -21zM295 54l-3 20l37 -19l3 -21zM250 344l-3 20l36 -19l3 -21zM244 385l-4 21l36 -19l4 -21zM263 261l-3 21l36 -19l3 -21zM289 95l-4 21l37 -20l3 -20zM237 427l-4 21l37 -20l3 -20zM256 303l-3 20l36 -19l3 -21zM118 262l2 18l43 -23
l-3 -18zM128 333l3 17l42 -22l-3 -18zM123 298l3 17l42 -22l-3 -18zM139 403l1 2l2 16l41 -22l-3 -18zM134 368l3 17l41 -22l-3 -17zM187 426l-2 -10l-41 22l2 18l40 -21zM148 474l2 18l31 -16l3 -21zM152 510l2 18l22 -11l3 -21zM156 546l3 18l12 -7l3 -21zM161 581l2 18
l3 -1l3 -21zM115 245l19 -10h-20zM228 147h-36l-75 40h36zM69 -15l3 15h4l45 -24l-2 -16h-4zM148 148l-2 -15l-43 23l3 18l48 -26h-6zM92 86l3 18l42 -23l-2 -18zM97 121l3 18l43 -23l-3 -18zM81 16l3 17l42 -23l-2 -17zM87 51l2 18l43 -23l-3 -17zM223 187l3 -20l-38 20h35
zM67 -33l13 -7h-14zM184 704h-1l-39 21v10h3v7l37 -20v-18zM147 761v15h8l29 -16v-19zM224 735h2v3l37 -20v-14h-9l-30 16v15zM226 757v19l37 -20v-19z" />
    <glyph glyph-name="Aring" unicode="&#xc5;" horiz-adv-x="334" 
d="M344 -40h-7l-49 27l-2 13h12l43 -23zM269 684v-4l-44 24q2 6 4 17l38 -21q2 -10 2 -16zM242 638q-2 -2 -4 -2l2 -16l-37 20l-3 20h1zM249 349l-3 21l37 -20l3 -21zM255 308l-3 20l38 -20l3 -20zM288 100l-3 21l37 -20l3 -21zM301 17l-3 21l37 -20l3 -20zM269 224l-3 21
l36 -19l4 -21zM275 183l-3 21l37 -20l3 -21zM262 266l-3 21l37 -20l3 -20zM210 598l-4 21l37 -20l3 -20zM217 556l-4 21l37 -19l3 -21zM282 142l-4 21l37 -20l3 -21zM295 59l-4 21l37 -20l3 -21zM242 391l-3 20l37 -19l3 -21zM236 432l-3 20l37 -19l3 -21zM230 473l-3 21
l36 -19l3 -21zM223 515l-3 21l36 -20l3 -20zM225 666q7 7 8 15l32 -17q-3 -9 -9 -15zM292 -40l-1 6l11 -6h-10zM146 708q2 6 10 14l29 -15q-7 -7 -20 -7h-3zM193 724v-3l-22 12q2 1 5 2t7 2t6 2q4 -8 4 -15zM118 267l3 18l43 -23l-3 -18zM124 302l3 18l42 -23l-3 -18z
M140 407l2 18l42 -22l-3 -18zM129 337l3 18l42 -23l-3 -17zM187 428l-1 -7l-42 22l2 18l39 -21zM135 372l2 18l42 -22l-3 -18zM148 479l2 18l31 -17l2 -20zM152 515l2 18l22 -12l3 -20zM156 551l2 18l14 -7l2 -21zM116 249l27 -14h-29zM161 586l2 18l4 -2l2 -20zM229 147
h-28l-75 40h36l66 -36zM148 147l-2 -9l-42 23l2 17l59 -31h-17zM72 0h7v3l43 -23l-3 -17l-49 26zM82 20l3 18l43 -23l-3 -17zM98 126l3 17l43 -23l-3 -17zM93 91l2 17l43 -23l-3 -17zM87 56l3 17l43 -23l-3 -17zM223 188l2 -16l-28 15h26v1zM66 -40l1 12l22 -12h-23z" />
    <glyph glyph-name="AE" unicode="&#xc6;" horiz-adv-x="412" 
d="M253 189v1h35l93 -50h-36zM252 0h35l94 -50h-35zM429 607h-33l-81 43h36l78 -42v-1zM429 -50h-13l-86 46h36l63 -33v-13zM253 645v5h27l80 -43h-35zM130 179l2 8h19l49 -26v-19zM336 183h36l40 -22v-19zM253 265v19l50 -26v-20zM303 140v-15l-50 26v19l57 -30h-7z
M253 607v19l50 -26v-19zM253 75v19l50 -26v-19zM253 113v19l50 -26v-19zM253 341v19l50 -26v-19zM253 531v19l50 -26v-19zM253 569v19l50 -26v-19zM253 303v19l50 -26v-19zM253 379l1 19l49 -26v-19zM98 44l4 17l47 -25l-4 -17zM90 10l4 17l47 -25l-4 -16zM82 -23l4 17
l47 -25l-4 -17zM114 111l4 17l47 -25l-4 -17zM255 416v19l48 -26v-18zM122 145l4 17l48 -26l-5 -16zM106 78l4 16l47 -25l-4 -16zM256 454l1 18l46 -24v-19zM154 280l4 17l42 -22v-19zM258 491v18l45 -24v-18zM274 -50l-24 13v19l60 -32h-36zM195 233h-24l-25 13l4 17
l46 -24zM162 314l4 17l34 -18v-20zM170 348l4 17l26 -14v-19zM386 650h36l7 -4v-19zM178 381l4 17l19 -10l-1 -19zM186 415l4 17l13 -7l-1 -18zM402 -4h27v-14zM253 246l25 -13h-25v13zM194 449l4 17l6 -4l-1 -18zM76 -50l2 10l19 -10h-21zM253 56l20 -10h-20v10zM202 483
l3 17h1l-1 -19zM253 498v14l3 -1zM194 183h6v-3zM407 183h5v-3z" />
    <glyph glyph-name="Ccedilla" unicode="&#xc7;" horiz-adv-x="364" 
d="M264 -207l-89 47h19q7 0 10 1q5 -14 19 -14h12l47 -25q-8 -6 -18 -9zM258 612l2 -7q-16 4 -27 4h-4l-61 33q11 5 20 8zM262 -54l-59 31l4 17l76 -41q-5 -2 -21 -7zM308 -150v-5l-56 30q2 7 4 17l49 -26q3 -7 3 -16zM366 79l-50 27v14v5l51 -27v-8q0 -2 -0.5 -5.5
t-0.5 -5.5zM367 516v-7v-12l-50 27v19zM185 594l-48 26q2 2 14 12l52 -28q-12 -6 -18 -10zM147 520v-12v-7l-50 27v15q0 1 1 3zM301 -37l-55 29q14 2 23 7l47 -25q-10 -8 -15 -11zM97 262v19l50 -27v-19zM97 490v19l50 -27v-19zM97 148v19l50 -27v-19zM97 186v19l50 -27v-19
zM97 300v19l50 -27v-19zM97 376v19l50 -27v-19zM97 414v19l50 -27v-19zM97 452v19l50 -27v-19zM97 224v19l50 -27v-19zM97 338v19l50 -27v-19zM317 486v19l50 -27v-19zM147 91v-8l-46 24q-2 7 -4 21l50 -26v-11zM316 581l45 -24q2 -7 4 -21l-48 26q0 3 -0.5 9.5t-0.5 9.5z
M150 537l-48 26q0 1 2 7t4 9l46 -25q-2 -5 -4 -17zM360 45l-46 24q2 12 2 18l48 -26q-2 -12 -4 -16zM162 569l-46 25l9 13l47 -25q-6 -6 -10 -13zM347 13l-42 23l6 16l44 -23q-2 -6 -8 -16zM339 -1l-11 -13l-43 23q8 8 11 13zM317 144v6h24l26 -14v-19zM295 -186l-37 20
q6 6 6 15v1l40 -22q-3 -8 -9 -14zM167 -174l66 -36h-10q-45 0 -56 36zM305 625l31 -16q8 -11 17 -28l-41 21q-4 16 -7 23zM154 45q-28 10 -43 38l37 -20q2 -9 6 -18zM121 2l45 -24l-4 -14q-26 17 -41 38zM317 467l41 -22h-36l-5 3v19zM207 -101l4 12q4 -7 2 -15zM209 -45
h-11l1 5zM245 -65l8 -4l-1 -6q-3 6 -7 10z" />
    <glyph glyph-name="Egrave" unicode="&#xc8;" horiz-adv-x="327" 
d="M168 654h35l75 -40h-35zM106 649v5h26l75 -40h-36zM336 614h-22l-75 40h35l62 -33v-7zM106 307v19l40 -22v-19zM106 459v19l40 -22v-19zM106 573v19l40 -22v-19zM106 611v19l40 -22v-19zM106 497v19l40 -22v-19zM106 421v19l40 -22v-19zM106 269v19l40 -22v-19zM106 383
v19l40 -22v-19zM106 535v19l40 -22v-19zM106 345v19l40 -22v-19zM299 660h35l2 -1v-19zM106 233v17l32 -17h-32zM117 187h36l75 -40h-36zM297 147h-34l-75 40h36l73 -39v-1zM146 147v-14l-40 22v19l50 -27h-10zM106 79v19l40 -22v-19zM106 117v19l40 -22v-19zM257 188v5h27
l13 -7v-19zM106 60l24 -13h-24v13zM183 0h35l75 -40h-35zM112 0h35l75 -40h-35zM336 -40h-7l-75 40h35l47 -25v-15zM115 -40l-22 12v19l58 -31h-36zM336 7v-13l-24 13h24zM209 740l-8 19l29 -16l10 -24l-39 21h8zM201 706l-13 22l41 -22h-28zM189 787h23l8 -20l-30 16z" />
    <glyph glyph-name="Eacute" unicode="&#xc9;" horiz-adv-x="327" 
d="M168 654h35l75 -40h-35zM106 649v5h26l75 -40h-36zM336 614h-22l-75 40h35l62 -33v-7zM106 307v19l40 -22v-19zM106 459v19l40 -22v-19zM106 573v19l40 -22v-19zM106 611v19l40 -22v-19zM106 497v19l40 -22v-19zM106 421v19l40 -22v-19zM106 269v19l40 -22v-19zM106 383
v19l40 -22v-19zM106 535v19l40 -22v-19zM106 345v19l40 -22v-19zM299 660h35l2 -1v-19zM106 233v17l32 -17h-32zM117 187h36l75 -40h-36zM297 147h-34l-75 40h36l73 -39v-1zM146 147v-14l-40 22v19l50 -27h-10zM106 79v19l40 -22v-19zM106 117v19l40 -22v-19zM257 188v5h27
l13 -7v-19zM106 60l24 -13h-24v13zM183 0h35l75 -40h-35zM112 0h35l75 -40h-35zM336 -40h-7l-75 40h35l47 -25v-15zM115 -40l-22 12v19l58 -31h-36zM336 7v-13l-24 13h24zM189 738l1 2h4l6 11l34 -18l-9 -14zM209 766l8 14l34 -18l-9 -14zM226 794l3 5h25l14 -8l-9 -14z
M178 713l4 10l19 -10h-23z" />
    <glyph glyph-name="Ecircumflex" unicode="&#xca;" horiz-adv-x="327" 
d="M168 654h35l75 -40h-35zM106 649v5h26l75 -40h-36zM336 614h-22l-75 40h35l62 -33v-7zM106 307v19l40 -22v-19zM106 459v19l40 -22v-19zM106 573v19l40 -22v-19zM106 611v19l40 -22v-19zM106 497v19l40 -22v-19zM106 421v19l40 -22v-19zM106 269v19l40 -22v-19zM106 383
v19l40 -22v-19zM106 535v19l40 -22v-19zM106 345v19l40 -22v-19zM299 660h35l2 -1v-19zM106 233v17l32 -17h-32zM117 187h36l75 -40h-36zM297 147h-34l-75 40h36l73 -39v-1zM146 147v-14l-40 22v19l50 -27h-10zM106 79v19l40 -22v-19zM106 117v19l40 -22v-19zM257 188v5h27
l13 -7v-19zM106 60l24 -13h-24v13zM183 0h35l75 -40h-35zM112 0h35l75 -40h-35zM336 -40h-7l-75 40h35l47 -25v-15zM115 -40l-22 12v19l58 -31h-36zM336 7v-13l-24 13h24zM273 737l26 -25h-9l-62 30h35zM158 742l12 11l35 -17l-13 -11zM175 712h-24l-17 8l12 11l33 -16z
M180 764l5 4l18 -15z" />
    <glyph glyph-name="Edieresis" unicode="&#xcb;" horiz-adv-x="327" 
d="M168 654h35l75 -40h-35zM106 649v5h26l75 -40h-36zM336 614h-22l-75 40h35l62 -33v-7zM106 307v19l40 -22v-19zM106 459v19l40 -22v-19zM106 573v19l40 -22v-19zM106 611v19l40 -22v-19zM106 497v19l40 -22v-19zM106 421v19l40 -22v-19zM106 269v19l40 -22v-19zM106 383
v19l40 -22v-19zM106 535v19l40 -22v-19zM106 345v19l40 -22v-19zM299 660h35l2 -1v-19zM106 233v17l32 -17h-32zM117 187h36l75 -40h-36zM297 147h-34l-75 40h36l73 -39v-1zM146 147v-14l-40 22v19l50 -27h-10zM106 79v19l40 -22v-19zM106 117v19l40 -22v-19zM257 188v5h27
l13 -7v-19zM106 60l24 -13h-24v13zM183 0h35l75 -40h-35zM112 0h35l75 -40h-35zM336 -40h-7l-75 40h35l47 -25v-15zM115 -40l-22 12v19l58 -31h-36zM336 7v-13l-24 13h24zM198 708h-1l-39 21v10h3v7l37 -20v-18zM161 765v15h8l29 -16v-19zM238 739h2v3l37 -20v-14h-9l-30 16
v15zM240 761v19l37 -20v-19z" />
    <glyph glyph-name="Igrave" unicode="&#xcc;" horiz-adv-x="158" 
d="M106 535v19l40 -22v-19zM106 383v19l40 -22v-19zM106 345v19l40 -22v-19zM106 611v19l40 -22v-19zM106 269v19l40 -22v-19zM106 231v19l40 -22v-19zM106 193v19l40 -22v-19zM106 155v19l40 -22v-19zM106 573v19l40 -22v-19zM106 79v19l40 -22v-19zM106 421v19l40 -22v-19
zM106 307v19l40 -22v-19zM106 3v19l40 -22v-18zM106 497v19l40 -22v-19zM106 117v19l40 -22v-19zM106 41v19l40 -22v-19zM106 459v19l40 -22v-19zM146 -40h-31l-22 12v19l53 -28v-3zM106 649v11h15l25 -14v-19zM107 740l-8 19l29 -16l10 -24l-39 21h8zM99 706l-13 22l41 -22
h-28zM87 787h23l8 -20l-30 16z" />
    <glyph glyph-name="Iacute" unicode="&#xcd;" horiz-adv-x="158" 
d="M106 535v19l40 -22v-19zM106 383v19l40 -22v-19zM106 345v19l40 -22v-19zM106 611v19l40 -22v-19zM106 269v19l40 -22v-19zM106 231v19l40 -22v-19zM106 193v19l40 -22v-19zM106 155v19l40 -22v-19zM106 573v19l40 -22v-19zM106 79v19l40 -22v-19zM106 421v19l40 -22v-19
zM106 307v19l40 -22v-19zM106 3v19l40 -22v-18zM106 497v19l40 -22v-19zM106 117v19l40 -22v-19zM106 41v19l40 -22v-19zM106 459v19l40 -22v-19zM146 -40h-31l-22 12v19l53 -28v-3zM106 649v11h15l25 -14v-19zM91 738l1 2h4l6 11l34 -18l-9 -14zM111 766l8 14l34 -18
l-9 -14zM128 794l3 5h25l14 -8l-9 -14zM80 713l4 10l19 -10h-23z" />
    <glyph glyph-name="Icircumflex" unicode="&#xce;" horiz-adv-x="158" 
d="M106 535v19l40 -22v-19zM106 383v19l40 -22v-19zM106 345v19l40 -22v-19zM106 611v19l40 -22v-19zM106 269v19l40 -22v-19zM106 231v19l40 -22v-19zM106 193v19l40 -22v-19zM106 155v19l40 -22v-19zM106 573v19l40 -22v-19zM106 79v19l40 -22v-19zM106 421v19l40 -22v-19
zM106 307v19l40 -22v-19zM106 3v19l40 -22v-18zM106 497v19l40 -22v-19zM106 117v19l40 -22v-19zM106 41v19l40 -22v-19zM106 459v19l40 -22v-19zM146 -40h-31l-22 12v19l53 -28v-3zM106 649v11h15l25 -14v-19zM180 732l27 -28h-10l-63 34h36zM63 738l12 13l36 -20l-13 -12z
M81 704h-25l-17 9l12 12l34 -18zM86 763l5 5l18 -17z" />
    <glyph glyph-name="Idieresis" unicode="&#xcf;" horiz-adv-x="158" 
d="M106 535v19l40 -22v-19zM106 383v19l40 -22v-19zM106 345v19l40 -22v-19zM106 611v19l40 -22v-19zM106 269v19l40 -22v-19zM106 231v19l40 -22v-19zM106 193v19l40 -22v-19zM106 155v19l40 -22v-19zM106 573v19l40 -22v-19zM106 79v19l40 -22v-19zM106 421v19l40 -22v-19
zM106 307v19l40 -22v-19zM106 3v19l40 -22v-18zM106 497v19l40 -22v-19zM106 117v19l40 -22v-19zM106 41v19l40 -22v-19zM106 459v19l40 -22v-19zM146 -40h-31l-22 12v19l53 -28v-3zM106 649v11h15l25 -14v-19zM99 704h-1l-39 21v10h3v7l37 -20v-18zM62 761v15h8l29 -16v-19
zM139 735h2v3l37 -20v-14h-9l-30 16v15zM141 757v19l37 -20v-19z" />
    <glyph glyph-name="Eth" unicode="&#xd0;" horiz-adv-x="375" 
d="M227 132h-30l-90 48v2h32l88 -47v-3zM104 -8v8h21l93 -50h-36zM253 -49l-91 48h35l84 -45q-15 -3 -28 -3zM266 608l2 -8l-27 3l-88 47h35zM107 636v14h10l88 -47h-36zM304 -39l-71 38q11 0 31 2l59 -31q-4 -2 -19 -9zM374 75l-51 28v6q0 2 0.5 6t0.5 6l51 -27v-6
q0 -3 -0.5 -7t-0.5 -6zM373 57l-3 -18l-49 26q2 12 2 19zM107 294v19l50 -26v-19zM107 256v19l50 -26v-19zM107 332v19l50 -26v-19zM325 406v19l50 -27v-19zM325 330v19l50 -27v-19zM325 254v19l50 -27v-19zM325 178v19l50 -27v-19zM107 370v19l50 -26v-19zM107 560v19
l50 -26v-19zM325 216v19l50 -27v-19zM107 446v19l50 -26v-19zM325 292v19l50 -27v-19zM107 522v19l50 -26v-19zM107 598v19l50 -26v-19zM375 512v-3v-16l-50 27v19zM325 140v19l50 -27v-19zM107 408v19l50 -26v-19zM325 482v19l50 -27v-19zM107 104v19l50 -26v-19zM325 368
v19l50 -27v-19zM325 444v19l50 -27v-19zM107 484v19l50 -26v-19zM157 132v-16l-50 26v19l55 -29h-5zM349 -5l-12 -13l-51 26q6 3 16 11zM325 558v1q0 12 -1 18l48 -26q2 -12 2 -20zM157 49h-18l-32 17v19l50 -26v-10zM365 23l-7 -15l-46 25l6 15zM318 618l38 -20
q5 -9 10 -25l-44 24q-2 16 -4 21zM111 -50l-7 4v19l43 -23h-36zM184 177h36l7 -4v-19zM107 227v10l19 -10h-19z" />
    <glyph glyph-name="Ntilde" unicode="&#xd1;" horiz-adv-x="396" 
d="M378 -40h-27l-27 15l-8 23l62 -33v-5zM338 385v19l40 -22v-19zM338 347v19l40 -22v-19zM338 309v19l40 -22v-19zM338 537v19l40 -22v-19zM338 233v19l40 -22v-19zM338 195v19l40 -22v-19zM338 157v19l40 -22v-19zM338 575v19l40 -22v-19zM338 81v19l40 -22v-19zM338 423
v19l40 -22v-19zM338 5v19l40 -22v-18zM338 613v19l40 -22v-19zM338 499v19l40 -22v-19zM338 119v19l40 -22v-19zM338 43v19l40 -22v-19zM338 271v19l40 -22v-19zM338 461v19l40 -22v-19zM338 651v9h18l22 -12v-19zM151 560l-8 24l33 -18l8 -23zM167 514l-8 23l33 -17l8 -24z
M183 467l-8 24l33 -18l8 -23zM199 421l-8 23l33 -17l8 -24zM215 374l-8 24l32 -18l8 -23zM135 607l-8 23l33 -17l8 -23zM231 328l-8 23l32 -17l8 -23zM247 281l-8 24l32 -17l8 -24zM286 241l1 -1l1 -19l-27 15l-7 22zM119 653l-2 7h26l1 -1l8 -23zM274 191l-7 22l22 -11
l1 -20zM287 146l-7 22l11 -6l1 -19zM94 -17v17h4l49 -26v-14h-10zM147 381v-9l-40 22v19l39 -21zM107 90v19l40 -22v-19zM107 14v19l40 -22v-18zM107 52v19l40 -22v-19zM107 356v19l40 -22v-19zM107 204v19l40 -22v-19zM107 242v19l40 -22v-19zM107 280v19l40 -22v-19z
M107 128v19l40 -22v-19zM107 318v19l40 -22v-19zM107 166v19l40 -22v-19zM140 433l5 -16v-5l-39 20l-1 20zM104 471l-1 20l23 -12l7 -23zM102 511l-1 19l12 -6l6 -23zM99 569h1l6 -23l-6 4zM94 -36l7 -4h-7v4zM261 706q-9 0 -13 1l-82 44q1 1 4 2.5t4 2.5q8 -1 20 -8
q15 -12 33 -10l53 -29q-9 -3 -19 -3zM305 727q-1 -1 -2.5 -3t-3 -3t-2.5 -2l-46 25q4 2 6 4q3 -1 8 -1q8 0 13 1l27 -14v-7zM185 722q-10 -4 -17 -10l-7 4v19zM305 766v-13l-9 5z" />
    <glyph glyph-name="Ograve" unicode="&#xd2;" horiz-adv-x="366" 
d="M223 -47h-2l-91 49q27 -9 52 -9l70 -37q-14 -3 -29 -3zM293 -28l-18 -9l-63 33l20 5q3 0 5 1zM320 -5q-4 -6 -12 -12l-49 26q10 5 15 10zM350 55q-1 -6 -5 -16l-45 24q0 4 1 6q0 1 1.5 4.5t2.5 5.5zM339 23l-9 -14l-44 23q6 10 8 15zM356 90l-2 -18l-44 23q2 5 4 17z
M316 396v19l40 -21v-19zM316 510v19l40 -21v-19zM316 168v19l40 -21v-19zM316 434v19l40 -21v-19zM316 206v19l40 -21v-19zM316 130v9v10l40 -21v-19zM316 244v19l40 -21v-19zM316 320v19l40 -21v-19zM316 358v19l40 -21v-19zM316 282v19l40 -21v-19zM316 472v19l40 -21v-19
zM354 547l2 -20l-40 21v12v7zM340 592q8 -18 9 -24l-35 19q-1 9 -5 22zM292 647q11 -7 29 -25l-22 11zM140 642q9 7 16 10l63 -33q-17 -2 -26 -5zM115 617l12 13l47 -25q-8 -5 -14 -12zM101 595q1 3 5 9l45 -24q-4 -6 -7 -16l-45 24q0 3 2 7zM97 561v9l42 -22q-2 -12 -2 -18
l-40 21v10zM97 399v19l40 -21v-19zM97 133v5v14l40 -21v-19zM97 437v19l40 -21v-19zM97 171v19l40 -21v-19zM97 513v19l40 -21v-19zM97 209v19l40 -21v-19zM97 247v19l40 -21v-19zM97 475v19l40 -21v-19zM97 361v19l40 -21v-19zM97 323v19l40 -21v-19zM97 285v19l40 -21v-19
zM106 90q-4 10 -7 23l38 -20q0 -8 2 -20zM183 659q42 0 65 -37l-68 37h3zM217 725l-8 19l29 -16l10 -24l-39 21h8zM209 691l-13 22l41 -22h-28zM197 772h23l8 -20l-30 16z" />
    <glyph glyph-name="Oacute" unicode="&#xd3;" horiz-adv-x="366" 
d="M223 -47h-2l-91 49q27 -9 52 -9l70 -37q-14 -3 -29 -3zM293 -28l-18 -9l-63 33l20 5q3 0 5 1zM320 -5q-4 -6 -12 -12l-49 26q10 5 15 10zM350 55q-1 -6 -5 -16l-45 24q0 4 1 6q0 1 1.5 4.5t2.5 5.5zM339 23l-9 -14l-44 23q6 10 8 15zM356 90l-2 -18l-44 23q2 5 4 17z
M316 396v19l40 -21v-19zM316 510v19l40 -21v-19zM316 168v19l40 -21v-19zM316 434v19l40 -21v-19zM316 206v19l40 -21v-19zM316 130v9v10l40 -21v-19zM316 244v19l40 -21v-19zM316 320v19l40 -21v-19zM316 358v19l40 -21v-19zM316 282v19l40 -21v-19zM316 472v19l40 -21v-19
zM354 547l2 -20l-40 21v12v7zM340 592q8 -18 9 -24l-35 19q-1 9 -5 22zM292 647q11 -7 29 -25l-22 11zM140 642q9 7 16 10l63 -33q-17 -2 -26 -5zM115 617l12 13l47 -25q-8 -5 -14 -12zM101 595q1 3 5 9l45 -24q-4 -6 -7 -16l-45 24q0 3 2 7zM97 561v9l42 -22q-2 -12 -2 -18
l-40 21v10zM97 399v19l40 -21v-19zM97 133v5v14l40 -21v-19zM97 437v19l40 -21v-19zM97 171v19l40 -21v-19zM97 513v19l40 -21v-19zM97 209v19l40 -21v-19zM97 247v19l40 -21v-19zM97 475v19l40 -21v-19zM97 361v19l40 -21v-19zM97 323v19l40 -21v-19zM97 285v19l40 -21v-19
zM106 90q-4 10 -7 23l38 -20q0 -8 2 -20zM183 659q42 0 65 -37l-68 37h3zM193 740l1 2h4l6 11l34 -18l-9 -14zM213 768l8 14l34 -18l-9 -14zM230 796l3 5h25l14 -8l-9 -14zM182 715l4 10l19 -10h-23z" />
    <glyph glyph-name="Ocircumflex" unicode="&#xd4;" horiz-adv-x="366" 
d="M223 -47h-2l-91 49q27 -9 52 -9l70 -37q-14 -3 -29 -3zM293 -28l-18 -9l-63 33l20 5q3 0 5 1zM320 -5q-4 -6 -12 -12l-49 26q10 5 15 10zM350 55q-1 -6 -5 -16l-45 24q0 4 1 6q0 1 1.5 4.5t2.5 5.5zM339 23l-9 -14l-44 23q6 10 8 15zM356 90l-2 -18l-44 23q2 5 4 17z
M316 396v19l40 -21v-19zM316 510v19l40 -21v-19zM316 168v19l40 -21v-19zM316 434v19l40 -21v-19zM316 206v19l40 -21v-19zM316 130v9v10l40 -21v-19zM316 244v19l40 -21v-19zM316 320v19l40 -21v-19zM316 358v19l40 -21v-19zM316 282v19l40 -21v-19zM316 472v19l40 -21v-19
zM354 547l2 -20l-40 21v12v7zM340 592q8 -18 9 -24l-35 19q-1 9 -5 22zM292 647q11 -7 29 -25l-22 11zM140 642q9 7 16 10l63 -33q-17 -2 -26 -5zM115 617l12 13l47 -25q-8 -5 -14 -12zM101 595q1 3 5 9l45 -24q-4 -6 -7 -16l-45 24q0 3 2 7zM97 561v9l42 -22q-2 -12 -2 -18
l-40 21v10zM97 399v19l40 -21v-19zM97 133v5v14l40 -21v-19zM97 437v19l40 -21v-19zM97 171v19l40 -21v-19zM97 513v19l40 -21v-19zM97 209v19l40 -21v-19zM97 247v19l40 -21v-19zM97 475v19l40 -21v-19zM97 361v19l40 -21v-19zM97 323v19l40 -21v-19zM97 285v19l40 -21v-19
zM106 90q-4 10 -7 23l38 -20q0 -8 2 -20zM183 659q42 0 65 -37l-68 37h3zM284 735l27 -28h-10l-63 34h36zM167 741l12 13l36 -20l-13 -12zM185 707h-25l-17 9l12 12l34 -18zM190 766l5 5l18 -17z" />
    <glyph glyph-name="Otilde" unicode="&#xd5;" horiz-adv-x="366" 
d="M223 -47h-2l-91 49q27 -9 52 -9l70 -37q-14 -3 -29 -3zM293 -28l-18 -9l-63 33l20 5q3 0 5 1zM320 -5q-4 -6 -12 -12l-49 26q10 5 15 10zM350 55q-1 -6 -5 -16l-45 24q0 4 1 6q0 1 1.5 4.5t2.5 5.5zM339 23l-9 -14l-44 23q6 10 8 15zM356 90l-2 -18l-44 23q2 5 4 17z
M316 396v19l40 -21v-19zM316 510v19l40 -21v-19zM316 168v19l40 -21v-19zM316 434v19l40 -21v-19zM316 206v19l40 -21v-19zM316 130v9v10l40 -21v-19zM316 244v19l40 -21v-19zM316 320v19l40 -21v-19zM316 358v19l40 -21v-19zM316 282v19l40 -21v-19zM316 472v19l40 -21v-19
zM354 547l2 -20l-40 21v12v7zM340 592q8 -18 9 -24l-35 19q-1 9 -5 22zM292 647q11 -7 29 -25l-22 11zM140 642q9 7 16 10l63 -33q-17 -2 -26 -5zM115 617l12 13l47 -25q-8 -5 -14 -12zM101 595q1 3 5 9l45 -24q-4 -6 -7 -16l-45 24q0 3 2 7zM97 561v9l42 -22q-2 -12 -2 -18
l-40 21v10zM97 399v19l40 -21v-19zM97 133v5v14l40 -21v-19zM97 437v19l40 -21v-19zM97 171v19l40 -21v-19zM97 513v19l40 -21v-19zM97 209v19l40 -21v-19zM97 247v19l40 -21v-19zM97 475v19l40 -21v-19zM97 361v19l40 -21v-19zM97 323v19l40 -21v-19zM97 285v19l40 -21v-19
zM106 90q-4 10 -7 23l38 -20q0 -8 2 -20zM183 659q42 0 65 -37l-68 37h3zM248 711q-9 0 -13 1l-82 44q1 1 4 2.5t4 2.5q8 -1 20 -8q15 -12 33 -10l53 -29q-9 -3 -19 -3zM292 732l-8 -8l-46 25q4 2 6 4q3 -1 8 -1q8 0 13 1l27 -14v-7zM172 727q-11 -3 -17 -10l-7 4v19z
M292 771v-13l-9 5z" />
    <glyph glyph-name="Odieresis" unicode="&#xd6;" horiz-adv-x="366" 
d="M223 -47h-2l-91 49q27 -9 52 -9l70 -37q-14 -3 -29 -3zM293 -28l-18 -9l-63 33l20 5q3 0 5 1zM320 -5q-4 -6 -12 -12l-49 26q10 5 15 10zM350 55q-1 -6 -5 -16l-45 24q0 4 1 6q0 1 1.5 4.5t2.5 5.5zM339 23l-9 -14l-44 23q6 10 8 15zM356 90l-2 -18l-44 23q2 5 4 17z
M316 396v19l40 -21v-19zM316 510v19l40 -21v-19zM316 168v19l40 -21v-19zM316 434v19l40 -21v-19zM316 206v19l40 -21v-19zM316 130v9v10l40 -21v-19zM316 244v19l40 -21v-19zM316 320v19l40 -21v-19zM316 358v19l40 -21v-19zM316 282v19l40 -21v-19zM316 472v19l40 -21v-19
zM354 547l2 -20l-40 21v12v7zM340 592q8 -18 9 -24l-35 19q-1 9 -5 22zM292 647q11 -7 29 -25l-22 11zM140 642q9 7 16 10l63 -33q-17 -2 -26 -5zM115 617l12 13l47 -25q-8 -5 -14 -12zM101 595q1 3 5 9l45 -24q-4 -6 -7 -16l-45 24q0 3 2 7zM97 561v9l42 -22q-2 -12 -2 -18
l-40 21v10zM97 399v19l40 -21v-19zM97 133v5v14l40 -21v-19zM97 437v19l40 -21v-19zM97 171v19l40 -21v-19zM97 513v19l40 -21v-19zM97 209v19l40 -21v-19zM97 247v19l40 -21v-19zM97 475v19l40 -21v-19zM97 361v19l40 -21v-19zM97 323v19l40 -21v-19zM97 285v19l40 -21v-19
zM106 90q-4 10 -7 23l38 -20q0 -8 2 -20zM183 659q42 0 65 -37l-68 37h3zM201 710h-1l-39 21v10h3v7l37 -20v-18zM164 767v15h8l29 -16v-19zM241 741h2v3l37 -20v-14h-9l-30 16v15zM243 763v19l37 -20v-19z" />
    <glyph glyph-name="Oslash" unicode="&#xd8;" horiz-adv-x="366" 
d="M233 -57l-107 57l1 3q24 -9 48 -10l88 -47q-13 -3 -30 -3zM207 -5h1q16 -4 25 -4q10 0 15 1l55 -29q-5 -4 -17 -10zM215 607l-11 -3l-52 28l17 10l48 -26zM316 139v7l50 -27v-19l-51 27q0 2 0.5 6t0.5 6zM316 164v20l50 -27v-19zM316 202v20l50 -27v-19zM97 510v19
l50 -27v-19zM316 241v19l50 -27v-19zM316 317v19l50 -27v-19zM316 354v19l50 -26v-19zM316 392v19l50 -26v-19zM316 506v19l50 -26v-19zM97 396v19l50 -27v-19zM97 320v19l50 -27v-19zM316 430v19l50 -26v-19zM97 358v19l50 -27v-19zM97 472v19l50 -27v-19zM97 434v19
l50 -27v-19zM366 81l-2 -18l-49 26v19zM316 279v18l50 -26v-19zM316 469v18l50 -26v-19zM147 521l-50 26q1 4 5 17l47 -26q-2 -10 -2 -17zM316 545v15v3l47 -25l3 -20zM285 10l46 -24q-6 -7 -13 -13l-49 27q9 3 16 10zM313 71l48 -26l-6 -16l-45 24zM185 596l-14 -12l-45 24
q4 7 12 13zM97 282v19l46 -25l-4 -17zM154 555l-46 25l3.5 7t4.5 7l45 -24q-2 -3 -7 -15zM305 37l44 -23q-3 -7 -8 -14l-44 23q2 2 4.5 7zM310 605l37 -20q5 -10 10 -25l-43 23q-2 14 -4 22zM193 230l4 17l38 -20q-2 -7 -4 -17zM186 196l3 17l38 -20l-4 -17zM200 264l4 17
l38 -20q-1 -3 -2 -8.5t-2 -8.5zM222 366l4 17l38 -20q-2 -13 -4 -17zM208 298l4 17l37 -20l-4 -17zM177 -47l-4 -16l-37 20l3 17l43 -23q-4 2 -5 2zM157 59l4 17l37 -20l-3 -15h-4zM215 332l4 17l37 -20l-3 -17zM171 128l4 17l37 -20l-3 -17zM164 94l4 17l37 -20l-3 -17z
M220 159l-4 -17l-37 20l3 17zM97 244v19l39 -21l-4 -17zM167 -94h-7l-32 17l4 17l38 -20zM290 672l3 17l36 -19l-3 -17zM230 400l4 17l31 -16v-19zM97 206v19l31 -17l-4 -17zM286 655l36 -19l-2 -13l8 -9l-27 14q-6 15 -15 27zM237 434l4 17l24 -12v-19zM97 168v19l24 -13
l-4 -17zM210 655l14 -7l-3 -15l-32 17q14 4 21 5zM245 468l3 17l17 -9v-18zM97 130v8v11l17 -9l-4 -17zM252 503l4 16l9 -4v-19zM310 700h26l-3 -13zM264 553h1v-19l-5 2q2 12 4 17zM99 109l7 -4l-2 -11q-4 10 -5 15z" />
    <glyph glyph-name="Ugrave" unicode="&#xd9;" horiz-adv-x="379" 
d="M114 11q19 -11 43 -16l79 -42q-2 0 -5 -0.5t-5 -0.5q-16 0 -31 3l-63 34q-11 11 -18 22zM197 -7q11 0 27 4l61 -33q-7 -3 -21 -7zM250 2q11 1 21 8l46 -24l-15 -12zM313 82l4 17l43 -23q0 -9 -3 -18zM303 50q4 10 5 16l45 -24q-3 -10 -7 -16zM285 21q8 8 11 13l42 -23
q-4 -8 -10 -13zM322 343v19l40 -21v-19zM322 229v19l40 -21v-19zM322 457v19l40 -21v-19zM322 153v19l40 -21v-19zM322 571v19l40 -21v-19zM322 609v19l40 -21v-19zM322 419v19l40 -21v-19zM322 267v19l40 -21v-19zM322 495v19l40 -21v-19zM322 191v19l40 -21v-19zM322 533
v19l40 -21v-19zM322 381v19l40 -21v-19zM322 305v19l40 -21v-19zM320 116q2 12 2 18l40 -21v-14v-5zM322 647v13h12l28 -15v-19zM103 460v19l40 -21v-19zM103 270v19l40 -21v-19zM103 232v19l40 -21v-19zM103 194v19l40 -21v-19zM103 156v19l40 -21v-19zM103 308v19l40 -21
v-19zM103 536v19l40 -21v-19zM103 422v19l40 -21v-19zM103 612v19l40 -21v-19zM103 498v19l40 -21v-19zM103 384v19l40 -21v-19zM103 574v19l40 -21v-19zM103 346v19l40 -21v-19zM143 100v-3l-39 20q-1 7 -1 20l40 -21v-16zM103 650v10h18l22 -12v-19zM144 77q1 -7 5 -21
l-27 14q-9 13 -13 26zM219 738l-8 19l29 -16l10 -24l-39 21h8zM211 704l-13 22l41 -22h-28zM199 785h23l8 -20l-30 16z" />
    <glyph glyph-name="Uacute" unicode="&#xda;" horiz-adv-x="379" 
d="M114 11q19 -11 43 -16l79 -42q-2 0 -5 -0.5t-5 -0.5q-16 0 -31 3l-63 34q-11 11 -18 22zM197 -7q11 0 27 4l61 -33q-7 -3 -21 -7zM250 2q11 1 21 8l46 -24l-15 -12zM313 82l4 17l43 -23q0 -9 -3 -18zM303 50q4 10 5 16l45 -24q-3 -10 -7 -16zM285 21q8 8 11 13l42 -23
q-4 -8 -10 -13zM322 343v19l40 -21v-19zM322 229v19l40 -21v-19zM322 457v19l40 -21v-19zM322 153v19l40 -21v-19zM322 571v19l40 -21v-19zM322 609v19l40 -21v-19zM322 419v19l40 -21v-19zM322 267v19l40 -21v-19zM322 495v19l40 -21v-19zM322 191v19l40 -21v-19zM322 533
v19l40 -21v-19zM322 381v19l40 -21v-19zM322 305v19l40 -21v-19zM320 116q2 12 2 18l40 -21v-14v-5zM322 647v13h12l28 -15v-19zM103 460v19l40 -21v-19zM103 270v19l40 -21v-19zM103 232v19l40 -21v-19zM103 194v19l40 -21v-19zM103 156v19l40 -21v-19zM103 308v19l40 -21
v-19zM103 536v19l40 -21v-19zM103 422v19l40 -21v-19zM103 612v19l40 -21v-19zM103 498v19l40 -21v-19zM103 384v19l40 -21v-19zM103 574v19l40 -21v-19zM103 346v19l40 -21v-19zM143 100v-3l-39 20q-1 7 -1 20l40 -21v-16zM103 650v10h18l22 -12v-19zM144 77q1 -7 5 -21
l-27 14q-9 13 -13 26zM199 736l1 2h4l6 11l34 -18l-9 -14zM219 764l8 14l34 -18l-9 -14zM236 792l3 5h25l14 -8l-9 -14zM188 711l4 10l19 -10h-23z" />
    <glyph glyph-name="Ucircumflex" unicode="&#xdb;" horiz-adv-x="379" 
d="M114 11q19 -11 43 -16l79 -42q-2 0 -5 -0.5t-5 -0.5q-16 0 -31 3l-63 34q-11 11 -18 22zM197 -7q11 0 27 4l61 -33q-7 -3 -21 -7zM250 2q11 1 21 8l46 -24l-15 -12zM313 82l4 17l43 -23q0 -9 -3 -18zM303 50q4 10 5 16l45 -24q-3 -10 -7 -16zM285 21q8 8 11 13l42 -23
q-4 -8 -10 -13zM322 343v19l40 -21v-19zM322 229v19l40 -21v-19zM322 457v19l40 -21v-19zM322 153v19l40 -21v-19zM322 571v19l40 -21v-19zM322 609v19l40 -21v-19zM322 419v19l40 -21v-19zM322 267v19l40 -21v-19zM322 495v19l40 -21v-19zM322 191v19l40 -21v-19zM322 533
v19l40 -21v-19zM322 381v19l40 -21v-19zM322 305v19l40 -21v-19zM320 116q2 12 2 18l40 -21v-14v-5zM322 647v13h12l28 -15v-19zM103 460v19l40 -21v-19zM103 270v19l40 -21v-19zM103 232v19l40 -21v-19zM103 194v19l40 -21v-19zM103 156v19l40 -21v-19zM103 308v19l40 -21
v-19zM103 536v19l40 -21v-19zM103 422v19l40 -21v-19zM103 612v19l40 -21v-19zM103 498v19l40 -21v-19zM103 384v19l40 -21v-19zM103 574v19l40 -21v-19zM103 346v19l40 -21v-19zM143 100v-3l-39 20q-1 7 -1 20l40 -21v-16zM103 650v10h18l22 -12v-19zM144 77q1 -7 5 -21
l-27 14q-9 13 -13 26zM287 736l27 -28h-10l-63 34h36zM170 742l12 13l36 -20l-13 -12zM188 708h-25l-17 9l12 12l34 -18zM193 767l5 5l18 -17z" />
    <glyph glyph-name="Udieresis" unicode="&#xdc;" horiz-adv-x="379" 
d="M114 11q19 -11 43 -16l79 -42q-2 0 -5 -0.5t-5 -0.5q-16 0 -31 3l-63 34q-11 11 -18 22zM197 -7q11 0 27 4l61 -33q-7 -3 -21 -7zM250 2q11 1 21 8l46 -24l-15 -12zM313 82l4 17l43 -23q0 -9 -3 -18zM303 50q4 10 5 16l45 -24q-3 -10 -7 -16zM285 21q8 8 11 13l42 -23
q-4 -8 -10 -13zM322 343v19l40 -21v-19zM322 229v19l40 -21v-19zM322 457v19l40 -21v-19zM322 153v19l40 -21v-19zM322 571v19l40 -21v-19zM322 609v19l40 -21v-19zM322 419v19l40 -21v-19zM322 267v19l40 -21v-19zM322 495v19l40 -21v-19zM322 191v19l40 -21v-19zM322 533
v19l40 -21v-19zM322 381v19l40 -21v-19zM322 305v19l40 -21v-19zM320 116q2 12 2 18l40 -21v-14v-5zM322 647v13h12l28 -15v-19zM103 460v19l40 -21v-19zM103 270v19l40 -21v-19zM103 232v19l40 -21v-19zM103 194v19l40 -21v-19zM103 156v19l40 -21v-19zM103 308v19l40 -21
v-19zM103 536v19l40 -21v-19zM103 422v19l40 -21v-19zM103 612v19l40 -21v-19zM103 498v19l40 -21v-19zM103 384v19l40 -21v-19zM103 574v19l40 -21v-19zM103 346v19l40 -21v-19zM143 100v-3l-39 20q-1 7 -1 20l40 -21v-16zM103 650v10h18l22 -12v-19zM144 77q1 -7 5 -21
l-27 14q-9 13 -13 26zM205 705h-1l-39 21v10h3v7l37 -20v-18zM168 762v15h8l29 -16v-19zM245 736h2v3l37 -20v-14h-9l-30 16v15zM247 758v19l37 -20v-19z" />
    <glyph glyph-name="Yacute" unicode="&#xdd;" horiz-adv-x="353" 
d="M201 0l40 -21v-19l-52 28v12h12zM234 305l4 17l45 -24l-4 -17zM242 339l5 17l45 -24l-5 -17zM251 372l4 17l45 -24l-4 -17zM294 539l4 17l45 -24l-4 -17zM217 238l4 17l45 -24l-4 -17zM225 272l5 17l45 -24l-5 -17zM285 506l5 17l44 -24l-4 -17zM208 205l5 17l44 -24
l-4 -17zM259 406l5 16l45 -24l-5 -16zM201 171v4l3 13l45 -23l-5 -17zM302 573l5 16l44 -24l-4 -16zM319 640l5 16l44 -24l-4 -16zM311 606l4 17l45 -24l-4 -17zM277 473l4 16l45 -24l-4 -16zM268 439l4 17l45 -24l-4 -17zM201 57v19l40 -21v-19zM201 133v19l40 -21v-19z
M201 19v19l40 -21v-19zM201 95v19l40 -21v-19zM376 661l-3 -12l-22 12h25zM189 -40v9l16 -9h-16zM146 390l-5 22l36 -19l5 -22zM155 348l-5 21l36 -19l5 -21zM92 609l-6 22l35 -18l5 -22zM103 565l-6 22l35 -18l5 -22zM135 444l-3 11l34 -19l6 -22l-35 19zM126 477l-6 22
l34 -18l6 -22zM115 521l-6 22l34 -18l5 -22zM79 661h23l8 -4l5 -22l-34 18zM159 326l5 -21l19 -11l4 17zM168 283l5 -21l3 -2l4 17zM185 737l1 2h4l6 11l34 -18l-9 -14zM205 765l8 14l34 -18l-9 -14zM225 798l-3 -5l33 -17l9 14l-14 8h-25zM178 722l-4 -10h23z" />
    <glyph glyph-name="Thorn" unicode="&#xde;" horiz-adv-x="368" 
d="M238 507h-31l-94 50h36l6 -3l88 -47h-5zM249 47h-11h-24l-93 50h34v-3h7zM276 52l-79 42h36l64 -35q-5 -2 -21 -7zM155 47v-6l-50 26v19l74 -39h-24zM155 507v-10l-50 26v19l66 -35h-16zM102 -7v7h3v10l50 -26v-19zM323 407v19l51 -27v-20zM323 369v19l51 -28v-19z
M374 190v-1l-51 28v19l51 -28v-18zM323 331v19l51 -28v-19zM323 255v19l51 -28v-19zM323 293v19l51 -28v-19zM374 417l-51 27l1 19l48 -26q2 -12 2 -20zM105 181v19l50 -26v-19zM105 219v19l50 -26v-19zM105 257v19l50 -26v-19zM105 333v19l50 -26v-19zM105 295v19l50 -26
v-19zM105 371v19l50 -26v-19zM105 447v19l50 -26v-19zM105 485v19l50 -26v-19zM105 409v19l50 -26v-19zM105 29v19l50 -26v-19zM328 81l-14 -12l-52 28q2 1 19 9zM105 637v14h10l40 -21v-19zM373 171l-3 -17l-48 25q1 4 1 11v8zM358 122l-44 23q1 1 6 17l45 -24
q-3 -10 -7 -16zM340 94l-45 24q8 8 11 13l44 -24q-4 -7 -10 -13zM320 503l40 -21q6 -10 9 -24l-46 25q0 2 -3 20zM190 554h23q35 -10 50 -39zM111 -50l-9 5v19l45 -24h-36zM105 144v18l34 -18h-34zM105 618l27 -14h-27v14zM308 537q20 -12 33 -26l-28 15q-5 9 -5 11z
M151 651h4v-2z" />
    <glyph glyph-name="agrave" unicode="&#xe0;" horiz-adv-x="273" 
d="M249 0l-2 11l37 -19l3 -21l-54 29h16zM211 239l-3 21l37 -20l3 -21zM231 115l-4 21l38 -20l3 -21zM224 156l-3 21l37 -19l3 -21zM205 281l-4 21l37 -20l4 -21zM172 488l-3 21l38 -20l3 -21zM244 32l-3 21l36 -20l4 -21zM179 447l-3 20l37 -20l3 -20zM218 198l-4 21
l37 -20l3 -21zM192 364l-3 20l36 -19l3 -21zM185 405l-3 21l37 -20l3 -20zM198 322l-3 21l37 -20l3 -20zM237 74l-3 20l37 -20l3 -20zM237 -40l-3 21l38 -21h-35zM186 519h16l1 -9zM147 216l-2 -17l-42 22l2 18zM111 273v1l42 -23l-3 -17l-42 22zM156 273q0 -1 -0.5 -2
t-0.5 -2l-42 23l3 18l38 -21zM118 327l2 18l29 -15l2 -21zM122 363l3 18l19 -10l2 -21zM127 398l2 18l10 -5l2 -21zM98 190l2 14l26 -14h-28zM131 434l3 18l2 -21zM181 106h-4l-75 40h35l41 -22zM111 -40h-17l-33 18l3 18l48 -26zM134 106l-2 -14l-43 23l3 17l49 -26h-7z
M72 10l3 17l43 -22l-3 -18zM78 45l3 17l42 -22l-3 -18zM83 80l3 17l43 -22l-3 -18zM165 601l-8 19l29 -16l10 -24l-39 21h8zM157 567l-13 22l41 -22h-28zM145 648h23l8 -20l-30 16z" />
    <glyph glyph-name="aacute" unicode="&#xe1;" horiz-adv-x="273" 
d="M249 0l-2 11l37 -19l3 -21l-54 29h16zM211 239l-3 21l37 -20l3 -21zM231 115l-4 21l38 -20l3 -21zM224 156l-3 21l37 -19l3 -21zM205 281l-4 21l37 -20l4 -21zM172 488l-3 21l38 -20l3 -21zM244 32l-3 21l36 -20l4 -21zM179 447l-3 20l37 -20l3 -20zM218 198l-4 21
l37 -20l3 -21zM192 364l-3 20l36 -19l3 -21zM185 405l-3 21l37 -20l3 -20zM198 322l-3 21l37 -20l3 -20zM237 74l-3 20l37 -20l3 -20zM237 -40l-3 21l38 -21h-35zM186 519h16l1 -9zM147 216l-2 -17l-42 22l2 18zM111 273v1l42 -23l-3 -17l-42 22zM156 273q0 -1 -0.5 -2
t-0.5 -2l-42 23l3 18l38 -21zM118 327l2 18l29 -15l2 -21zM122 363l3 18l19 -10l2 -21zM127 398l2 18l10 -5l2 -21zM98 190l2 14l26 -14h-28zM131 434l3 18l2 -21zM181 106h-4l-75 40h35l41 -22zM111 -40h-17l-33 18l3 18l48 -26zM134 106l-2 -14l-43 23l3 17l49 -26h-7z
M72 10l3 17l43 -22l-3 -18zM78 45l3 17l42 -22l-3 -18zM83 80l3 17l43 -22l-3 -18zM146 599l1 2h4l6 11l34 -18l-9 -14zM166 627l8 14l34 -18l-9 -14zM183 655l3 5h25l14 -8l-9 -14zM135 574l4 10l19 -10h-23z" />
    <glyph glyph-name="acircumflex" unicode="&#xe2;" horiz-adv-x="273" 
d="M249 0l-2 11l37 -19l3 -21l-54 29h16zM211 239l-3 21l37 -20l3 -21zM231 115l-4 21l38 -20l3 -21zM224 156l-3 21l37 -19l3 -21zM205 281l-4 21l37 -20l4 -21zM172 488l-3 21l38 -20l3 -21zM244 32l-3 21l36 -20l4 -21zM179 447l-3 20l37 -20l3 -20zM218 198l-4 21
l37 -20l3 -21zM192 364l-3 20l36 -19l3 -21zM185 405l-3 21l37 -20l3 -20zM198 322l-3 21l37 -20l3 -20zM237 74l-3 20l37 -20l3 -20zM237 -40l-3 21l38 -21h-35zM186 519h16l1 -9zM147 216l-2 -17l-42 22l2 18zM111 273v1l42 -23l-3 -17l-42 22zM156 273q0 -1 -0.5 -2
t-0.5 -2l-42 23l3 18l38 -21zM118 327l2 18l29 -15l2 -21zM122 363l3 18l19 -10l2 -21zM127 398l2 18l10 -5l2 -21zM98 190l2 14l26 -14h-28zM131 434l3 18l2 -21zM181 106h-4l-75 40h35l41 -22zM111 -40h-17l-33 18l3 18l48 -26zM134 106l-2 -14l-43 23l3 17l49 -26h-7z
M72 10l3 17l43 -22l-3 -18zM78 45l3 17l42 -22l-3 -18zM83 80l3 17l43 -22l-3 -18zM228 602l26 -29h-10l-59 35h34zM119 608l11 13l34 -20l-12 -13zM136 573h-24l-15 9l11 12l32 -18zM141 634l4 5l17 -18z" />
    <glyph glyph-name="atilde" unicode="&#xe3;" horiz-adv-x="273" 
d="M249 0l-2 11l37 -19l3 -21l-54 29h16zM211 239l-3 21l37 -20l3 -21zM231 115l-4 21l38 -20l3 -21zM224 156l-3 21l37 -19l3 -21zM205 281l-4 21l37 -20l4 -21zM172 488l-3 21l38 -20l3 -21zM244 32l-3 21l36 -20l4 -21zM179 447l-3 20l37 -20l3 -20zM218 198l-4 21
l37 -20l3 -21zM192 364l-3 20l36 -19l3 -21zM185 405l-3 21l37 -20l3 -20zM198 322l-3 21l37 -20l3 -20zM237 74l-3 20l37 -20l3 -20zM237 -40l-3 21l38 -21h-35zM186 519h16l1 -9zM147 216l-2 -17l-42 22l2 18zM111 273v1l42 -23l-3 -17l-42 22zM156 273q0 -1 -0.5 -2
t-0.5 -2l-42 23l3 18l38 -21zM118 327l2 18l29 -15l2 -21zM122 363l3 18l19 -10l2 -21zM127 398l2 18l10 -5l2 -21zM98 190l2 14l26 -14h-28zM131 434l3 18l2 -21zM181 106h-4l-75 40h35l41 -22zM111 -40h-17l-33 18l3 18l48 -26zM134 106l-2 -14l-43 23l3 17l49 -26h-7z
M72 10l3 17l43 -22l-3 -18zM78 45l3 17l42 -22l-3 -18zM83 80l3 17l43 -22l-3 -18zM193 590q-8 0 -12 1l-74 44q1 1 3.5 2.5t3.5 2.5q8 -1 18 -8q15 -11 30 -10l48 -29q-8 -3 -17 -3zM233 611q-2 -2 -4 -4.5t-3 -3.5l-42 25q4 2 5 4q3 -1 8 -1q7 0 11 1l25 -14v-7zM124 606
q-10 -4 -15 -10l-6 4v19zM233 650v-13l-8 5z" />
    <glyph glyph-name="adieresis" unicode="&#xe4;" horiz-adv-x="273" 
d="M249 0l-2 11l37 -19l3 -21l-54 29h16zM211 239l-3 21l37 -20l3 -21zM231 115l-4 21l38 -20l3 -21zM224 156l-3 21l37 -19l3 -21zM205 281l-4 21l37 -20l4 -21zM172 488l-3 21l38 -20l3 -21zM244 32l-3 21l36 -20l4 -21zM179 447l-3 20l37 -20l3 -20zM218 198l-4 21
l37 -20l3 -21zM192 364l-3 20l36 -19l3 -21zM185 405l-3 21l37 -20l3 -20zM198 322l-3 21l37 -20l3 -20zM237 74l-3 20l37 -20l3 -20zM237 -40l-3 21l38 -21h-35zM186 519h16l1 -9zM147 216l-2 -17l-42 22l2 18zM111 273v1l42 -23l-3 -17l-42 22zM156 273q0 -1 -0.5 -2
t-0.5 -2l-42 23l3 18l38 -21zM118 327l2 18l29 -15l2 -21zM122 363l3 18l19 -10l2 -21zM127 398l2 18l10 -5l2 -21zM98 190l2 14l26 -14h-28zM131 434l3 18l2 -21zM181 106h-4l-75 40h35l41 -22zM111 -40h-17l-33 18l3 18l48 -26zM134 106l-2 -14l-43 23l3 17l49 -26h-7z
M72 10l3 17l43 -22l-3 -18zM78 45l3 17l42 -22l-3 -18zM83 80l3 17l43 -22l-3 -18zM152 580h-1l-39 21v10h3v7l37 -20v-18zM115 637v15h8l29 -16v-19zM192 611h2v3l37 -20v-14h-9l-30 16v15zM194 633v19l37 -20v-19z" />
    <glyph glyph-name="aring" unicode="&#xe5;" horiz-adv-x="273" 
d="M249 0l-2 11l37 -19l3 -21l-54 29h16zM211 239l-3 21l37 -20l3 -21zM231 115l-4 21l38 -20l3 -21zM224 156l-3 21l37 -19l3 -21zM205 281l-4 21l37 -20l4 -21zM172 488l-3 21l38 -20l3 -21zM244 32l-3 21l36 -20l4 -21zM179 447l-3 20l37 -20l3 -20zM218 198l-4 21
l37 -20l3 -21zM192 364l-3 20l36 -19l3 -21zM185 405l-3 21l37 -20l3 -20zM198 322l-3 21l37 -20l3 -20zM237 74l-3 20l37 -20l3 -20zM237 -40l-3 21l38 -21h-35zM186 519h16l1 -9zM147 216l-2 -17l-42 22l2 18zM111 273v1l42 -23l-3 -17l-42 22zM156 273q0 -1 -0.5 -2
t-0.5 -2l-42 23l3 18l38 -21zM118 327l2 18l29 -15l2 -21zM122 363l3 18l19 -10l2 -21zM127 398l2 18l10 -5l2 -21zM98 190l2 14l26 -14h-28zM131 434l3 18l2 -21zM181 106h-4l-75 40h35l41 -22zM111 -40h-17l-33 18l3 18l48 -26zM134 106l-2 -14l-43 23l3 17l49 -26h-7z
M72 10l3 17l43 -22l-3 -18zM78 45l3 17l42 -22l-3 -18zM83 80l3 17l43 -22l-3 -18zM149 595q5 -4 13 -4l41 -20q-6 -3 -22 -8l-60 31h12q10 0 16 1zM229 614v-4l-35 18q0 1 1.5 7t1.5 10l29 -16q3 -6 3 -15zM185 597q7 4 9 13l31 -16q-1 -2 -9 -13zM116 633q4 7 9 12l30 -15
q-9 -6 -21 -6zM162 646v-1l-21 11q10 4 16 5l1 -1q4 -5 4 -14z" />
    <glyph glyph-name="ae" unicode="&#xe6;" horiz-adv-x="333" 
d="M214 514h36l75 -40h-36zM305 514v5h6l34 -18v-19l-60 32h20zM246 474v-15l-40 21v19l47 -25h-7zM206 404v19l40 -21v-19zM206 290v19l40 -21v-19zM206 366v19l40 -21v-19zM206 442v19l40 -21v-19zM206 252v19l40 -21v-19zM246 193l-40 21v19l40 -21v-19zM206 328v19
l40 -21v-19zM206 148h17l75 -40h-35l-57 30v10zM259 148h33v1l40 -21v-19zM206 100v19l40 -21v-19zM246 47h-11l-29 15v19l40 -21v-13zM332 153v-6l-11 6h11zM66 0h7l43 -22l-3 -18l-50 27zM142 106l-2 -9l-43 23l3 18l59 -32h-17zM76 18l4 17l43 -23l-3 -17zM83 52l4 17
l43 -23l-3 -17zM90 86l4 17l43 -23l-3 -17zM121 146h35l3 -2v-19zM60 -30l18 -10h-20zM117 224l3 17l39 -20v-20zM123 258l4 18l32 -17v-20zM130 293l4 17l26 -14l-1 -19zM137 327l4 17l20 -11l-1 -19zM144 361l3 18l16 -9l-1 -18zM150 396l3 17l11 -6l-1 -18zM113 207
l26 -14h-28zM157 431l3 17l6 -3l-1 -19zM165 474h2l-1 -10l-3 1zM199 0h17l75 -40h-36l-56 30v10zM345 -40h-19l-74 40h35l58 -31v-9zM345 7v-19l-36 19h36zM199 -29l21 -11h-21v11z" />
    <glyph glyph-name="ccedilla" unicode="&#xe7;" horiz-adv-x="305" 
d="M127 -154q10 -2 17 -2h8l71 -38q-10 -2 -18 -2h-14l-62 34q-2 4 -2 8zM269 -142q-1 -7 -5 -16l-39 21q0 4 -4 12l3 7zM256 -173q-2 -2 -14 -12l-48 26h10q9 0 14 6zM228 -84q31 -10 39 -38l-38 20q0 13 -1 18zM184 -97q0 -10 -6 -16l-15 8l5 17zM258 -22q-10 -8 -15 -11
l-59 32q12 3 15 4q6 0 9 1zM296 33l-6 -16l-43 23l2 10l3 7zM209 -54q-5 6 -16 9l-22 12l4 17l48 -26q-3 0 -4 -1l-5 -13zM303 67l-3 -17l-43 23q2 5 4 17zM282 3l-11 -13l-42 22q8 8 11 13zM263 115v11h2l38 -21v-19l-40 22v7zM140 -5l-3 -9l-30 15q4 -1 33 -6zM110 493
q4 4 14 12l55 -29q-12 -3 -21 -9zM93 470l6 10l46 -24q-5 -7 -8 -15l-45 24q0 3 1 5zM90 428v15v4l42 -22q-2 -12 -2 -18zM90 162v19l40 -21v-19zM90 238v19l40 -21v-19zM90 352v19l40 -21v-19zM90 276v19l40 -21v-19zM90 200v19l40 -21v-19zM90 390v19l40 -21v-19zM90 124
v19l40 -21v-19zM90 314v19l40 -21v-19zM94 84q-2 5 -4 21l40 -21v-8v-11zM152 517q40 0 54 -37l-64 35l6 2h4zM252 388h10v5l40 -21v-19l-50 27v8zM302 403v-12l-40 21v19l40 -21v-7zM295 452q4 -14 5 -22l-38 20l-2 20zM247 511q22 -11 36 -34l-29 15q-3 12 -7 19zM252 361
l24 -13h-24v13z" />
    <glyph glyph-name="egrave" unicode="&#xe8;" horiz-adv-x="268" 
d="M126 513h36l75 -40h-36zM282 473h-10l-75 40h36l49 -26v-14zM133 473v-2l-40 22v19l73 -39h-33zM93 265v19l40 -22v-19zM93 379v19l40 -22v-19zM93 417v19l40 -22v-19zM93 455v19l40 -22v-19zM93 227v19l40 -22v-19zM93 303v19l40 -22v-19zM93 341v19l40 -22v-19zM93 193
v15l28 -15h-28zM282 519v-13l-25 13h25zM102 146h35l75 -40h-35zM252 106h-4l-75 40h36l43 -23v-17zM133 106v-15l-40 22v19l48 -26h-8zM93 75v19l40 -22v-19zM252 153v-11l-21 11h21zM93 56l15 -8h-15v8zM162 0h35l75 -40h-35zM91 0h35l75 -40h-35zM242 0v8h11l29 -15v-19
l-49 26h9zM94 -40l-14 8v19l50 -27h-36zM176 605l-8 19l29 -16l10 -24l-39 21h8zM168 571l-13 22l41 -22h-28zM156 652h23l8 -20l-30 16z" />
    <glyph glyph-name="eacute" unicode="&#xe9;" horiz-adv-x="268" 
d="M126 513h36l75 -40h-36zM282 473h-10l-75 40h36l49 -26v-14zM133 473v-2l-40 22v19l73 -39h-33zM93 265v19l40 -22v-19zM93 379v19l40 -22v-19zM93 417v19l40 -22v-19zM93 455v19l40 -22v-19zM93 227v19l40 -22v-19zM93 303v19l40 -22v-19zM93 341v19l40 -22v-19zM93 193
v15l28 -15h-28zM282 519v-13l-25 13h25zM102 146h35l75 -40h-35zM252 106h-4l-75 40h36l43 -23v-17zM133 106v-15l-40 22v19l48 -26h-8zM93 75v19l40 -22v-19zM252 153v-11l-21 11h21zM93 56l15 -8h-15v8zM162 0h35l75 -40h-35zM91 0h35l75 -40h-35zM242 0v8h11l29 -15v-19
l-49 26h9zM94 -40l-14 8v19l50 -27h-36zM151 602l1 2h4l6 11l34 -18l-9 -14zM171 630l8 14l34 -18l-9 -14zM188 658l3 5h25l14 -8l-9 -14zM140 577l4 10l19 -10h-23z" />
    <glyph glyph-name="ecircumflex" unicode="&#xea;" horiz-adv-x="268" 
d="M126 513h36l75 -40h-36zM282 473h-10l-75 40h36l49 -26v-14zM133 473v-2l-40 22v19l73 -39h-33zM93 265v19l40 -22v-19zM93 379v19l40 -22v-19zM93 417v19l40 -22v-19zM93 455v19l40 -22v-19zM93 227v19l40 -22v-19zM93 303v19l40 -22v-19zM93 341v19l40 -22v-19zM93 193
v15l28 -15h-28zM282 519v-13l-25 13h25zM102 146h35l75 -40h-35zM252 106h-4l-75 40h36l43 -23v-17zM133 106v-15l-40 22v19l48 -26h-8zM93 75v19l40 -22v-19zM252 153v-11l-21 11h21zM93 56l15 -8h-15v8zM162 0h35l75 -40h-35zM91 0h35l75 -40h-35zM242 0v8h11l29 -15v-19
l-49 26h9zM94 -40l-14 8v19l50 -27h-36zM234 603l25 -30h-9l-58 36h33zM127 609l11 14l33 -21l-12 -13zM144 573h-23l-16 10l11 12l31 -19zM148 635l5 6l16 -18z" />
    <glyph glyph-name="edieresis" unicode="&#xeb;" horiz-adv-x="268" 
d="M126 513h36l75 -40h-36zM282 473h-10l-75 40h36l49 -26v-14zM133 473v-2l-40 22v19l73 -39h-33zM93 265v19l40 -22v-19zM93 379v19l40 -22v-19zM93 417v19l40 -22v-19zM93 455v19l40 -22v-19zM93 227v19l40 -22v-19zM93 303v19l40 -22v-19zM93 341v19l40 -22v-19zM93 193
v15l28 -15h-28zM282 519v-13l-25 13h25zM102 146h35l75 -40h-35zM252 106h-4l-75 40h36l43 -23v-17zM133 106v-15l-40 22v19l48 -26h-8zM93 75v19l40 -22v-19zM252 153v-11l-21 11h21zM93 56l15 -8h-15v8zM162 0h35l75 -40h-35zM91 0h35l75 -40h-35zM242 0v8h11l29 -15v-19
l-49 26h9zM94 -40l-14 8v19l50 -27h-36zM162 578h-1l-39 21v10h3v7l37 -20v-18zM125 635v15h8l29 -16v-19zM202 609h2v3l37 -20v-14h-9l-30 16v15zM204 631v19l37 -20v-19z" />
    <glyph glyph-name="igrave" unicode="&#xec;" horiz-adv-x="132" 
d="M91 0h1v18l40 -21v-19zM92 303v19l40 -21v-19zM92 75v19l40 -21v-19zM92 37v19l40 -21v-19zM92 493v19l40 -21v-19zM92 455v19l40 -21v-19zM92 379v19l40 -21v-19zM92 417v19l40 -21v-19zM92 113v19l40 -21v-19zM92 189v19l40 -21v-19zM92 227v19l40 -21v-19zM92 265v19
l40 -21v-19zM92 341v19l40 -21v-19zM92 151v19l40 -21v-19zM80 -13l50 -27h-35l-15 8v19zM132 519v-9l-17 9h17zM95 605l-8 19l27 -16l10 -24l-37 21h8zM87 571l-12 22l38 -22h-26zM76 652h21l8 -20l-28 16z" />
    <glyph glyph-name="iacute" unicode="&#xed;" horiz-adv-x="132" 
d="M91 0h1v18l40 -21v-19zM92 303v19l40 -21v-19zM92 75v19l40 -21v-19zM92 37v19l40 -21v-19zM92 493v19l40 -21v-19zM92 455v19l40 -21v-19zM92 379v19l40 -21v-19zM92 417v19l40 -21v-19zM92 113v19l40 -21v-19zM92 189v19l40 -21v-19zM92 227v19l40 -21v-19zM92 265v19
l40 -21v-19zM92 341v19l40 -21v-19zM92 151v19l40 -21v-19zM80 -13l50 -27h-35l-15 8v19zM132 519v-9l-17 9h17zM70 601l1 2h3l6 11l30 -18l-8 -14zM88 629l7 14l30 -18l-8 -14zM103 657l3 5h22l13 -8l-8 -14zM60 576l4 10l17 -10h-21z" />
    <glyph glyph-name="icircumflex" unicode="&#xee;" horiz-adv-x="132" 
d="M91 0h1v18l40 -21v-19zM92 303v19l40 -21v-19zM92 75v19l40 -21v-19zM92 37v19l40 -21v-19zM92 493v19l40 -21v-19zM92 455v19l40 -21v-19zM92 379v19l40 -21v-19zM92 417v19l40 -21v-19zM92 113v19l40 -21v-19zM92 189v19l40 -21v-19zM92 227v19l40 -21v-19zM92 265v19
l40 -21v-19zM92 341v19l40 -21v-19zM92 151v19l40 -21v-19zM80 -13l50 -27h-35l-15 8v19zM132 519v-9l-17 9h17zM148 596l23 -32h-9l-52 39h30zM52 603l10 15l29 -23l-10 -14zM67 564h-21l-14 10l10 14l28 -21zM71 632l4 6l15 -20z" />
    <glyph glyph-name="idieresis" unicode="&#xef;" horiz-adv-x="132" 
d="M91 0h1v18l40 -21v-19zM92 303v19l40 -21v-19zM92 75v19l40 -21v-19zM92 37v19l40 -21v-19zM92 493v19l40 -21v-19zM92 455v19l40 -21v-19zM92 379v19l40 -21v-19zM92 417v19l40 -21v-19zM92 113v19l40 -21v-19zM92 189v19l40 -21v-19zM92 227v19l40 -21v-19zM92 265v19
l40 -21v-19zM92 341v19l40 -21v-19zM92 151v19l40 -21v-19zM80 -13l50 -27h-35l-15 8v19zM132 519v-9l-17 9h17zM84 580h-1l-39 21v10h3v7l37 -20v-18zM47 637v15h8l29 -16v-19zM124 611h2v3l37 -20v-14h-9l-30 16v15zM126 633v19l37 -20v-19z" />
    <glyph glyph-name="eth" unicode="&#xf0;" horiz-adv-x="305" 
d="M149 -6h7l66 -35q-8 -3 -26 -5l-84 45q18 -5 37 -5zM194 3q5 0 13 2l51 -27q-10 -8 -16 -11l-59 32q6 1 11 4zM224 15q5 5 10 13l46 -24l-10 -14zM203 608q4 2 6 4l28 -15l-17 -10l-34 18l-10 20l4 2l18 -10zM245 53l3 6l45 -25q-1 -7 -5 -16l-47 25zM253 75q2 5 4 17
l42 -22q0 -7 -2 -19zM259 338v19l40 -22v-19zM259 186v19l40 -22v-19zM259 110v5v14l40 -22v-19zM259 148v19l40 -22v-19zM259 224v19l40 -22v-19zM259 300v19l40 -22v-19zM259 376v19l40 -22v-19zM259 262v19l40 -22v-19zM259 414v15v4l37 -20l3 -21zM256 454l-6 22l30 -17
l10 -23zM238 505l-11 21l27 -15l13 -26l-27 15q-2 4 -2 5zM213 552l-13 26l26 -14l14 -26zM257 609l-3 -2l-28 15q14 8 16 10zM159 551l-6 -4l-21 11l-4 7l12 7l10 -5zM179 658l-10 -6l-11 6l-1 3h21zM119 488q12 8 18 10l63 -34q0 -1 2 -5q-8 2 -13 2q-6 0 -16 -2zM95 463
q1 1 5 6.5t6 7.5l47 -25q-7 -6 -13 -13zM87 430q0 13 1 18l44 -24q-2 -6 -4 -16zM87 164v19l40 -22v-19zM87 278v19l40 -22v-19zM87 316v19l40 -22v-19zM87 202v19l40 -22v-19zM127 389v-19l-40 22v19zM87 354v19l40 -22v-19zM87 126v19l40 -22v-19zM87 240v19l40 -22v-19z
M91 86q-4 12 -4 21l40 -22v-11v-8zM131 45q-13 3 -23 13l22 -12z" />
    <glyph glyph-name="ntilde" unicode="&#xf1;" horiz-adv-x="323" 
d="M253 0h15l48 -25v-15h-8l-51 27zM276 319v19l40 -22v-19zM276 53v19l40 -22v-19zM276 15v19l40 -22v-18zM276 281v19l40 -22v-19zM276 433v19l40 -22v-19zM276 395v19l40 -22v-19zM276 243v19l40 -22v-19zM276 91v19l40 -22v-19zM276 471v19l40 -22v-19zM276 205v19
l40 -22v-19zM276 167v19l40 -22v-19zM276 357v19l40 -22v-19zM276 129v19l40 -22v-19zM276 509v10h17l23 -13v-19zM267 -40l-1 4l6 -4h-5zM116 480l-8 24l32 -18l8 -23zM132 434l-8 23l32 -17l8 -23zM191 259l-5 13l32 -17l6 -17v-6l-30 17zM148 387l-8 24l31 -17l8 -24z
M179 295l-8 23l31 -17l8 -23zM163 341l-8 23l32 -17l7 -22zM207 204l-7 22l26 -13l1 -20zM220 159l-7 22l16 -8l1 -20zM115 519h15l3 -10zM234 113l-7 23l5 -3zM91 0h3v17l40 -21v-19zM94 188v19l40 -21v-19zM94 226v19l40 -21v-19zM94 112v19l40 -21v-19zM94 74v19l40 -21
v-19zM94 36v19l40 -21v-19zM94 150v19l40 -21v-19zM134 253v-10l-40 21v19l39 -21zM93 302l-1 20l30 -16l7 -23zM94 -40l-13 7v20l49 -27h-36zM91 342l-2 19l21 -11l6 -22zM88 381l-1 20l10 -6l6 -22zM85 438l5 -20l-4 2zM225 589q-9 0 -13 1l-82 44q1 1 4 2.5t4 2.5
q8 -1 20 -8q15 -12 33 -10l53 -29q-9 -3 -19 -3zM269 610q-1 -1 -2.5 -3t-3 -3t-2.5 -2l-46 25q4 2 6 4q3 -1 8 -1q8 0 13 1l27 -14v-7zM149 605q-10 -3 -17 -10l-7 4v19zM269 649v-13l-9 5z" />
    <glyph glyph-name="ograve" unicode="&#xf2;" horiz-adv-x="299" 
d="M187 -46q-7 0 -11 1l-80 43q-4 4 -7 10q22 -13 48 -14l72 -38q-14 -2 -22 -2zM249 -28q-12 -7 -17 -9l-63 33l23 6zM274 -3q-3 -5 -11 -13l-49 26q10 5 15 11zM290 26q-4 -10 -7 -15l-45 24l5 16zM297 60q0 -8 -3 -17l-44 24q2 4 4 16zM258 404v19l40 -21v-19zM258 290
v19l40 -21v-19zM258 252v19l40 -21v-19zM258 328v19l40 -21v-19zM258 366v19l40 -21v-19zM258 138v19l40 -21v-19zM258 176v19l40 -21v-19zM258 214v19l40 -21v-19zM257 101q1 4 1 14v4l40 -21v-19zM293 443q2 -8 4 -22l-39 21v3q0 2 -0.5 8t-0.5 9zM253 502q18 -14 29 -35
l-30 17q-6 16 -10 24zM201 476q-1 0 -3.5 0.5t-3.5 0.5l-64 34l15 6h2q6 0 8 -1l35 -18q6 -8 11 -22zM102 488q1 1 3.5 4t4.5 5t4 3l51 -27q-7 -2 -17 -10zM89 469l3 5l45 -24q-2 -3 -7 -15l-44 23zM126 405v-6l-40 21v19l40 -21v-13zM86 154v19l40 -21v-19zM86 268v19
l40 -21v-19zM86 306v19l40 -21v-19zM86 382v19l40 -21v-19zM86 116v19l40 -21v-19zM86 192v19l40 -21v-19zM86 344v19l40 -21v-19zM86 230v19l40 -21v-19zM94 74q-6 14 -7 23l39 -21v-2q0 -12 1 -18zM177 604l-8 19l29 -16l10 -24l-39 21h8zM169 570l-13 22l41 -22h-28z
M157 651h23l8 -20l-30 16z" />
    <glyph glyph-name="oacute" unicode="&#xf3;" horiz-adv-x="299" 
d="M187 -46q-7 0 -11 1l-80 43q-4 4 -7 10q22 -13 48 -14l72 -38q-14 -2 -22 -2zM249 -28q-12 -7 -17 -9l-63 33l23 6zM274 -3q-3 -5 -11 -13l-49 26q10 5 15 11zM290 26q-4 -10 -7 -15l-45 24l5 16zM297 60q0 -8 -3 -17l-44 24q2 4 4 16zM258 404v19l40 -21v-19zM258 290
v19l40 -21v-19zM258 252v19l40 -21v-19zM258 328v19l40 -21v-19zM258 366v19l40 -21v-19zM258 138v19l40 -21v-19zM258 176v19l40 -21v-19zM258 214v19l40 -21v-19zM257 101q1 4 1 14v4l40 -21v-19zM293 443q2 -8 4 -22l-39 21v3q0 2 -0.5 8t-0.5 9zM253 502q18 -14 29 -35
l-30 17q-6 16 -10 24zM201 476q-1 0 -3.5 0.5t-3.5 0.5l-64 34l15 6h2q6 0 8 -1l35 -18q6 -8 11 -22zM102 488q1 1 3.5 4t4.5 5t4 3l51 -27q-7 -2 -17 -10zM89 469l3 5l45 -24q-2 -3 -7 -15l-44 23zM126 405v-6l-40 21v19l40 -21v-13zM86 154v19l40 -21v-19zM86 268v19
l40 -21v-19zM86 306v19l40 -21v-19zM86 382v19l40 -21v-19zM86 116v19l40 -21v-19zM86 192v19l40 -21v-19zM86 344v19l40 -21v-19zM86 230v19l40 -21v-19zM94 74q-6 14 -7 23l39 -21v-2q0 -12 1 -18zM154 602l1 2h4l6 11l34 -18l-9 -14zM174 630l8 14l34 -18l-9 -14z
M191 658l3 5h25l14 -8l-9 -14zM143 577l4 10l19 -10h-23z" />
    <glyph glyph-name="ocircumflex" unicode="&#xf4;" horiz-adv-x="299" 
d="M187 -46q-7 0 -11 1l-80 43q-4 4 -7 10q22 -13 48 -14l72 -38q-14 -2 -22 -2zM249 -28q-12 -7 -17 -9l-63 33l23 6zM274 -3q-3 -5 -11 -13l-49 26q10 5 15 11zM290 26q-4 -10 -7 -15l-45 24l5 16zM297 60q0 -8 -3 -17l-44 24q2 4 4 16zM258 404v19l40 -21v-19zM258 290
v19l40 -21v-19zM258 252v19l40 -21v-19zM258 328v19l40 -21v-19zM258 366v19l40 -21v-19zM258 138v19l40 -21v-19zM258 176v19l40 -21v-19zM258 214v19l40 -21v-19zM257 101q1 4 1 14v4l40 -21v-19zM293 443q2 -8 4 -22l-39 21v3q0 2 -0.5 8t-0.5 9zM253 502q18 -14 29 -35
l-30 17q-6 16 -10 24zM201 476q-1 0 -3.5 0.5t-3.5 0.5l-64 34l15 6h2q6 0 8 -1l35 -18q6 -8 11 -22zM102 488q1 1 3.5 4t4.5 5t4 3l51 -27q-7 -2 -17 -10zM89 469l3 5l45 -24q-2 -3 -7 -15l-44 23zM126 405v-6l-40 21v19l40 -21v-13zM86 154v19l40 -21v-19zM86 268v19
l40 -21v-19zM86 306v19l40 -21v-19zM86 382v19l40 -21v-19zM86 116v19l40 -21v-19zM86 192v19l40 -21v-19zM86 344v19l40 -21v-19zM86 230v19l40 -21v-19zM94 74q-6 14 -7 23l39 -21v-2q0 -12 1 -18zM248 609l27 -28h-10l-63 34h36zM131 615l12 13l36 -20l-13 -12zM149 581
h-25l-17 9l12 12l34 -18zM154 640l5 5l18 -17z" />
    <glyph glyph-name="otilde" unicode="&#xf5;" horiz-adv-x="299" 
d="M187 -46q-7 0 -11 1l-80 43q-4 4 -7 10q22 -13 48 -14l72 -38q-14 -2 -22 -2zM249 -28q-12 -7 -17 -9l-63 33l23 6zM274 -3q-3 -5 -11 -13l-49 26q10 5 15 11zM290 26q-4 -10 -7 -15l-45 24l5 16zM297 60q0 -8 -3 -17l-44 24q2 4 4 16zM258 404v19l40 -21v-19zM258 290
v19l40 -21v-19zM258 252v19l40 -21v-19zM258 328v19l40 -21v-19zM258 366v19l40 -21v-19zM258 138v19l40 -21v-19zM258 176v19l40 -21v-19zM258 214v19l40 -21v-19zM257 101q1 4 1 14v4l40 -21v-19zM293 443q2 -8 4 -22l-39 21v3q0 2 -0.5 8t-0.5 9zM253 502q18 -14 29 -35
l-30 17q-6 16 -10 24zM201 476q-1 0 -3.5 0.5t-3.5 0.5l-64 34l15 6h2q6 0 8 -1l35 -18q6 -8 11 -22zM102 488q1 1 3.5 4t4.5 5t4 3l51 -27q-7 -2 -17 -10zM89 469l3 5l45 -24q-2 -3 -7 -15l-44 23zM126 405v-6l-40 21v19l40 -21v-13zM86 154v19l40 -21v-19zM86 268v19
l40 -21v-19zM86 306v19l40 -21v-19zM86 382v19l40 -21v-19zM86 116v19l40 -21v-19zM86 192v19l40 -21v-19zM86 344v19l40 -21v-19zM86 230v19l40 -21v-19zM94 74q-6 14 -7 23l39 -21v-2q0 -12 1 -18zM214 595q-9 0 -13 1l-82 44q1 1 4 2.5t4 2.5q8 -1 20 -8q15 -12 33 -10
l53 -29q-9 -3 -19 -3zM258 616l-8 -8l-46 25q4 2 6 4q3 -1 8 -1q8 0 13 1l27 -14v-7zM138 611q-11 -3 -17 -10l-7 4v19zM258 655v-13l-9 5z" />
    <glyph glyph-name="odieresis" unicode="&#xf6;" horiz-adv-x="299" 
d="M187 -46q-7 0 -11 1l-80 43q-4 4 -7 10q22 -13 48 -14l72 -38q-14 -2 -22 -2zM249 -28q-12 -7 -17 -9l-63 33l23 6zM274 -3q-3 -5 -11 -13l-49 26q10 5 15 11zM290 26q-4 -10 -7 -15l-45 24l5 16zM297 60q0 -8 -3 -17l-44 24q2 4 4 16zM258 404v19l40 -21v-19zM258 290
v19l40 -21v-19zM258 252v19l40 -21v-19zM258 328v19l40 -21v-19zM258 366v19l40 -21v-19zM258 138v19l40 -21v-19zM258 176v19l40 -21v-19zM258 214v19l40 -21v-19zM257 101q1 4 1 14v4l40 -21v-19zM293 443q2 -8 4 -22l-39 21v3q0 2 -0.5 8t-0.5 9zM253 502q18 -14 29 -35
l-30 17q-6 16 -10 24zM201 476q-1 0 -3.5 0.5t-3.5 0.5l-64 34l15 6h2q6 0 8 -1l35 -18q6 -8 11 -22zM102 488q1 1 3.5 4t4.5 5t4 3l51 -27q-7 -2 -17 -10zM89 469l3 5l45 -24q-2 -3 -7 -15l-44 23zM126 405v-6l-40 21v19l40 -21v-13zM86 154v19l40 -21v-19zM86 268v19
l40 -21v-19zM86 306v19l40 -21v-19zM86 382v19l40 -21v-19zM86 116v19l40 -21v-19zM86 192v19l40 -21v-19zM86 344v19l40 -21v-19zM86 230v19l40 -21v-19zM94 74q-6 14 -7 23l39 -21v-2q0 -12 1 -18zM167 583h-1l-39 21v10h3v7l37 -20v-18zM130 640v15h8l29 -16v-19z
M207 614h2v3l37 -20v-14h-9l-30 16v15zM209 636v19l37 -20v-19z" />
    <glyph glyph-name="oslash" unicode="&#xf8;" horiz-adv-x="307" 
d="M223 -42q-9 -2 -27 -4l-79 42l1 2q13 -4 33 -4h5zM259 -23q-10 -8 -16 -11l-59 32l13 5q7 0 10 1zM282 2l-10 -13l-46 24q8 8 11 13zM296 33q-4 -14 -6 -16l-45 24l3 11l2 5zM302 68l-2 -18l-44 23l4 17zM262 336v19l40 -21v-19zM302 405v-14l-40 21v19l40 -21v-5z
M262 184v19l40 -21v-19zM262 374v19l40 -21v-19zM262 146v19l40 -21v-19zM262 222v19l40 -21v-19zM262 108v7v12l40 -21v-19zM262 298v19l40 -21v-19zM262 260v19l40 -21v-19zM293 453q4 -10 6 -23l-37 20l-2 20zM158 -44l-4 -18l-33 18l3 17l-1 1zM222 547l3 18l33 -18
l-3 -17zM150 -89h-16l-19 10l3 18l33 -18q0 -1 -0.5 -4.5t-0.5 -5.5zM251 507q16 -12 28 -28l-26 14q-9 20 -14 27l13 -7zM262 573l-1 -8l-15 8h16zM172 46l-4 -2l-39 21l3 18l42 -23zM135 100l3 18l42 -23l-3 -17zM147 170l3 17l42 -22l-3 -18zM159 239l3 18l42 -23l-3 -17
zM210 266l-3 -14l-42 22l3 18l42 -23v-3zM153 205l3 17l42 -23l-3 -17zM141 135l3 17l42 -22l-3 -17zM171 309l3 17l36 -19v-19zM177 344l3 17l30 -16v-19zM183 379l3 17l24 -13v-19zM189 413l3 18l18 -10v-19zM210 445v-5l-15 8l2 18l12 -7q0 -2 0.5 -6.5t0.5 -7.5zM93 469
l7 11l44 -24q-5 -7 -8 -15l-44 24q0 3 1 4zM111 493l13 12l40 -22l-2 -12l-5 -3zM90 428v17v2l41 -22q-1 -6 -1 -18zM90 352v19l40 -21v-19zM90 390v19l40 -21v-19zM90 314v19l40 -21v-19zM90 276v19l39 -21l-3 -17zM90 238v19l33 -18l-3 -17zM90 200v19l27 -14l-3 -18z
M90 162v19l21 -11l-3 -18zM90 124v19l15 -8l-3 -17zM149 517h2q10 0 19 -3l-3 -13l-25 13zM95 84q-5 10 -5 21l9 -5l-3 -17z" />
    <glyph glyph-name="ugrave" unicode="&#xf9;" horiz-adv-x="309" 
d="M95 7q18 -11 42 -12l73 -39q-14 -2 -20 -2q-10 0 -15 1l-70 38q-4 4 -10 14zM192 1h3l57 -30q-2 -1 -5.5 -3t-6.5 -3.5t-6 -2.5l-64 34q8 1 22 5zM219 7q8 4 15 11l44 -23l-12 -13zM243 32q4 9 5 17l46 -25q-4 -10 -7 -15zM254 64l5 17l43 -23l-3 -18zM262 98
q0 3 0.5 8.5t0.5 8.5v2l40 -22v-19zM263 250v19l40 -22v-19zM263 440v19l40 -22v-19zM263 402v19l40 -22v-19zM263 364v19l40 -22v-19zM263 174v19l40 -22v-19zM263 136v19l40 -22v-19zM263 212v19l40 -22v-19zM263 288v19l40 -22v-19zM263 478v19l40 -22v-19zM263 326v19
l40 -22v-19zM263 516v3h30l10 -6v-19zM91 304v19l40 -22v-19zM91 266v19l40 -22v-19zM91 494v19l40 -22v-19zM91 380v19l40 -22v-19zM91 114v1v18l40 -22v-19zM91 152v19l40 -22v-19zM91 456v19l40 -22v-19zM91 190v19l40 -22v-19zM91 418v19l40 -22v-19zM91 342v19l40 -22
v-19zM91 228v19l40 -22v-19zM131 73q0 -13 1 -19l-32 17q-6 14 -7 23zM131 519v-9l-16 9h16zM183 603l-8 19l29 -16l10 -24l-39 21h8zM175 569l-13 22l41 -22h-28zM163 650h23l8 -20l-30 16z" />
    <glyph glyph-name="uacute" unicode="&#xfa;" horiz-adv-x="309" 
d="M95 7q18 -11 42 -12l73 -39q-14 -2 -20 -2q-10 0 -15 1l-70 38q-4 4 -10 14zM192 1h3l57 -30q-2 -1 -5.5 -3t-6.5 -3.5t-6 -2.5l-64 34q8 1 22 5zM219 7q8 4 15 11l44 -23l-12 -13zM243 32q4 9 5 17l46 -25q-4 -10 -7 -15zM254 64l5 17l43 -23l-3 -18zM262 98
q0 3 0.5 8.5t0.5 8.5v2l40 -22v-19zM263 250v19l40 -22v-19zM263 440v19l40 -22v-19zM263 402v19l40 -22v-19zM263 364v19l40 -22v-19zM263 174v19l40 -22v-19zM263 136v19l40 -22v-19zM263 212v19l40 -22v-19zM263 288v19l40 -22v-19zM263 478v19l40 -22v-19zM263 326v19
l40 -22v-19zM263 516v3h30l10 -6v-19zM91 304v19l40 -22v-19zM91 266v19l40 -22v-19zM91 494v19l40 -22v-19zM91 380v19l40 -22v-19zM91 114v1v18l40 -22v-19zM91 152v19l40 -22v-19zM91 456v19l40 -22v-19zM91 190v19l40 -22v-19zM91 418v19l40 -22v-19zM91 342v19l40 -22
v-19zM91 228v19l40 -22v-19zM131 73q0 -13 1 -19l-32 17q-6 14 -7 23zM131 519v-9l-16 9h16zM161 604l1 2h4l6 11l34 -18l-9 -14zM181 632l8 14l34 -18l-9 -14zM198 660l3 5h25l14 -8l-9 -14zM150 579l4 10l19 -10h-23z" />
    <glyph glyph-name="ucircumflex" unicode="&#xfb;" horiz-adv-x="309" 
d="M95 7q18 -11 42 -12l73 -39q-14 -2 -20 -2q-10 0 -15 1l-70 38q-4 4 -10 14zM192 1h3l57 -30q-2 -1 -5.5 -3t-6.5 -3.5t-6 -2.5l-64 34q8 1 22 5zM219 7q8 4 15 11l44 -23l-12 -13zM243 32q4 9 5 17l46 -25q-4 -10 -7 -15zM254 64l5 17l43 -23l-3 -18zM262 98
q0 3 0.5 8.5t0.5 8.5v2l40 -22v-19zM263 250v19l40 -22v-19zM263 440v19l40 -22v-19zM263 402v19l40 -22v-19zM263 364v19l40 -22v-19zM263 174v19l40 -22v-19zM263 136v19l40 -22v-19zM263 212v19l40 -22v-19zM263 288v19l40 -22v-19zM263 478v19l40 -22v-19zM263 326v19
l40 -22v-19zM263 516v3h30l10 -6v-19zM91 304v19l40 -22v-19zM91 266v19l40 -22v-19zM91 494v19l40 -22v-19zM91 380v19l40 -22v-19zM91 114v1v18l40 -22v-19zM91 152v19l40 -22v-19zM91 456v19l40 -22v-19zM91 190v19l40 -22v-19zM91 418v19l40 -22v-19zM91 342v19l40 -22
v-19zM91 228v19l40 -22v-19zM131 73q0 -13 1 -19l-32 17q-6 14 -7 23zM131 519v-9l-16 9h16zM253 605l27 -28h-10l-63 34h36zM136 611l12 13l36 -20l-13 -12zM154 577h-25l-17 9l12 12l34 -18zM159 636l5 5l18 -17z" />
    <glyph glyph-name="udieresis" unicode="&#xfc;" horiz-adv-x="309" 
d="M95 7q18 -11 42 -12l73 -39q-14 -2 -20 -2q-10 0 -15 1l-70 38q-4 4 -10 14zM192 1h3l57 -30q-2 -1 -5.5 -3t-6.5 -3.5t-6 -2.5l-64 34q8 1 22 5zM219 7q8 4 15 11l44 -23l-12 -13zM243 32q4 9 5 17l46 -25q-4 -10 -7 -15zM254 64l5 17l43 -23l-3 -18zM262 98
q0 3 0.5 8.5t0.5 8.5v2l40 -22v-19zM263 250v19l40 -22v-19zM263 440v19l40 -22v-19zM263 402v19l40 -22v-19zM263 364v19l40 -22v-19zM263 174v19l40 -22v-19zM263 136v19l40 -22v-19zM263 212v19l40 -22v-19zM263 288v19l40 -22v-19zM263 478v19l40 -22v-19zM263 326v19
l40 -22v-19zM263 516v3h30l10 -6v-19zM91 304v19l40 -22v-19zM91 266v19l40 -22v-19zM91 494v19l40 -22v-19zM91 380v19l40 -22v-19zM91 114v1v18l40 -22v-19zM91 152v19l40 -22v-19zM91 456v19l40 -22v-19zM91 190v19l40 -22v-19zM91 418v19l40 -22v-19zM91 342v19l40 -22
v-19zM91 228v19l40 -22v-19zM131 73q0 -13 1 -19l-32 17q-6 14 -7 23zM131 519v-9l-16 9h16zM169 581h-1l-39 21v10h3v7l37 -20v-18zM132 638v15h8l29 -16v-19zM209 612h2v3l37 -20v-14h-9l-30 16v15zM211 634v19l37 -20v-19z" />
    <glyph glyph-name="yacute" unicode="&#xfd;" 
d="M194 248l5 17l43 -23l-4 -17zM203 282l4 17l44 -24l-5 -17zM211 315l5 17l43 -23l-4 -17zM254 482l5 17l43 -23l-5 -17zM220 349l4 16l44 -23l-5 -17zM246 449l4 17l43 -23l-4 -17zM169 148l4 17l44 -24l-4 -16zM177 182l4 16l44 -23l-4 -17zM186 215l4 17l44 -24l-4 -16
zM237 416l4 16l44 -23l-4 -17zM229 382l4 17l43 -24l-4 -16zM167 0v16l40 -21v-19l-45 24h5zM207 101v-11l-40 21v19l42 -22zM167 35v19l40 -21v-19zM167 73v19l40 -21v-19zM263 516l1 4h27l19 -11l-4 -16zM155 -15l46 -25h-35l-11 6v19zM152 328l3 -10l2 -12l-36 20l-4 21z
M89 457l-6 22l35 -18l6 -23zM112 368l-6 22l35 -18l5 -22zM72 520h6l28 -15l6 -22l-35 18zM101 413l-6 22l34 -19l6 -22zM129 283l-4 21l30 -16l-3 -17zM134 262l4 -22l7 -3l3 17zM154 604l1 2h4l6 11l34 -18l-9 -14zM174 632l8 14l34 -18l-9 -14zM191 660l3 5h25l14 -8
l-9 -14zM147 589l-4 -10h23z" />
    <glyph glyph-name="thorn" unicode="&#xfe;" horiz-adv-x="300" 
d="M117 72h35l69 -37q-13 -3 -29 -3zM195 80q7 0 11 1l52 -28q-7 -5 -16 -10l-61 32q3 1 14 5zM133 -40h-20l-34 19v19l54 -29v-9zM133 32v-7l-40 22v19l63 -34h-23zM225 90q1 1 6 5t7 7l44 -24q-9 -12 -10 -13zM246 117q4 7 5 15v1l46 -25q-1 -8 -6 -15zM258 149l4 16
l42 -22l-2 -18zM93 9v19l40 -22v-18zM304 329v-15l-40 21v19l40 -21v-4zM264 183v7v12l40 -21v-19zM264 221v19l40 -21v-19zM264 259v19l40 -21v-19zM264 297v19l40 -21v-19zM297 375q4 -14 5 -22l-38 20q0 8 -2 20zM251 429q20 -11 32 -28l-27 14q-1 3 -5 14zM93 427v9h18
l75 -40h-35zM93 161v19l40 -22v-19zM93 237v19l40 -22v-19zM93 199v19l40 -22v-19zM93 389v19l40 -22v-19zM93 351v19l40 -22v-19zM93 275v19l40 -22v-19zM93 313v19l40 -22v-19zM152 436q38 0 54 -32l-59 32h5zM133 120h-35l-5 3v19zM93 503v16h5l35 -19v-17h-3z" />
    <glyph glyph-name="ydieresis" unicode="&#xff;" 
d="M194 248l5 17l43 -23l-4 -17zM203 282l4 17l44 -24l-5 -17zM211 315l5 17l43 -23l-4 -17zM254 482l5 17l43 -23l-5 -17zM220 349l4 16l44 -23l-5 -17zM246 449l4 17l43 -23l-4 -17zM169 148l4 17l44 -24l-4 -16zM177 182l4 16l44 -23l-4 -17zM186 215l4 17l44 -24l-4 -16
zM237 416l4 16l44 -23l-4 -17zM229 382l4 17l43 -24l-4 -16zM167 0v16l40 -21v-19l-45 24h5zM207 101v-11l-40 21v19l42 -22zM167 35v19l40 -21v-19zM167 73v19l40 -21v-19zM263 516l1 4h27l19 -11l-4 -16zM155 -15l46 -25h-35l-11 6v19zM152 328l3 -10l2 -12l-36 20l-4 21z
M89 457l-6 22l35 -18l6 -23zM112 368l-6 22l35 -18l5 -22zM72 520h6l28 -15l6 -22l-35 18zM101 413l-6 22l34 -19l6 -22zM129 283l-4 21l30 -16l-3 -17zM138 240l-4 22l14 -8l-3 -17zM160 580h-1l-39 21v10h3v7l37 -20v-18zM123 637v15h8l29 -16v-19zM200 611h2v3l37 -20
v-14h-9l-30 16v15zM202 633v19l37 -20v-19z" />
    <glyph glyph-name="Amacron" unicode="&#x100;" horiz-adv-x="334" 
d="M344 -40h-15l-40 22l-3 18h3l53 -28zM211 592l-3 21l37 -20l3 -21zM302 12l-3 21l37 -20l3 -20zM269 219l-3 21l37 -19l3 -21zM282 136l-3 21l37 -19l3 -21zM276 178l-4 21l38 -20l3 -21zM217 551l-3 21l37 -20l3 -21zM224 510l-4 21l37 -20l3 -21zM230 468l-3 21l36 -19
l4 -21zM205 634l-3 21l36 -20l4 -21zM295 54l-3 20l37 -19l3 -21zM250 344l-3 20l36 -19l3 -21zM244 385l-4 21l36 -19l4 -21zM263 261l-3 21l36 -19l3 -21zM289 95l-4 21l37 -20l3 -20zM237 427l-4 21l37 -20l3 -20zM256 303l-3 20l36 -19l3 -21zM118 262l2 18l43 -23
l-3 -18zM128 333l3 17l42 -22l-3 -18zM123 298l3 17l42 -22l-3 -18zM139 403l1 2l2 16l41 -22l-3 -18zM134 368l3 17l41 -22l-3 -17zM187 426l-2 -10l-41 22l2 18l40 -21zM148 474l2 18l31 -16l3 -21zM152 510l2 18l22 -11l3 -21zM156 546l3 18l12 -7l3 -21zM161 581l2 18
l3 -1l3 -21zM115 245l19 -10h-20zM228 147h-36l-75 40h36zM69 -15l3 15h4l45 -24l-2 -16h-4zM148 148l-2 -15l-43 23l3 18l48 -26h-6zM92 86l3 18l42 -23l-2 -18zM97 121l3 18l43 -23l-3 -18zM81 16l3 17l42 -23l-2 -17zM87 51l2 18l43 -23l-3 -17zM223 187l3 -20l-38 20h35
zM67 -33l13 -7h-14zM130 744h24l61 -33h-35l-50 27v6zM266 711h-15l-62 33h36l41 -22v-11zM266 751v-10l-19 10h19zM130 719l14 -8h-14v8z" />
    <glyph glyph-name="amacron" unicode="&#x101;" horiz-adv-x="273" 
d="M249 0l-2 11l37 -19l3 -21l-54 29h16zM211 239l-3 21l37 -20l3 -21zM231 115l-4 21l38 -20l3 -21zM224 156l-3 21l37 -19l3 -21zM205 281l-4 21l37 -20l4 -21zM172 488l-3 21l38 -20l3 -21zM244 32l-3 21l36 -20l4 -21zM179 447l-3 20l37 -20l3 -20zM218 198l-4 21
l37 -20l3 -21zM192 364l-3 20l36 -19l3 -21zM185 405l-3 21l37 -20l3 -20zM198 322l-3 21l37 -20l3 -20zM237 74l-3 20l37 -20l3 -20zM237 -40l-3 21l38 -21h-35zM186 519h16l1 -9zM147 216l-2 -17l-42 22l2 18zM111 273v1l42 -23l-3 -17l-42 22zM156 273q0 -1 -0.5 -2
t-0.5 -2l-42 23l3 18l38 -21zM118 327l2 18l29 -15l2 -21zM122 363l3 18l19 -10l2 -21zM127 398l2 18l10 -5l2 -21zM98 190l2 14l26 -14h-28zM131 434l3 18l2 -21zM181 106h-4l-75 40h35l41 -22zM111 -40h-17l-33 18l3 18l48 -26zM134 106l-2 -14l-43 23l3 17l49 -26h-7z
M72 10l3 17l43 -22l-3 -18zM78 45l3 17l42 -22l-3 -18zM83 80l3 17l43 -22l-3 -18zM99 639h24l61 -33h-35l-50 27v6zM235 606h-15l-62 33h36l41 -22v-11zM235 646v-10l-19 10h19zM99 614l14 -8h-14v8z" />
    <glyph glyph-name="Abreve" unicode="&#x102;" horiz-adv-x="334" 
d="M344 -40h-15l-40 22l-3 18h3l53 -28zM211 592l-3 21l37 -20l3 -21zM302 12l-3 21l37 -20l3 -20zM269 219l-3 21l37 -19l3 -21zM282 136l-3 21l37 -19l3 -21zM276 178l-4 21l38 -20l3 -21zM217 551l-3 21l37 -20l3 -21zM224 510l-4 21l37 -20l3 -21zM230 468l-3 21l36 -19
l4 -21zM205 634l-3 21l36 -20l4 -21zM295 54l-3 20l37 -19l3 -21zM250 344l-3 20l36 -19l3 -21zM244 385l-4 21l36 -19l4 -21zM263 261l-3 21l36 -19l3 -21zM289 95l-4 21l37 -20l3 -20zM237 427l-4 21l37 -20l3 -20zM256 303l-3 20l36 -19l3 -21zM118 262l2 18l43 -23
l-3 -18zM128 333l3 17l42 -22l-3 -18zM123 298l3 17l42 -22l-3 -18zM139 403l1 2l2 16l41 -22l-3 -18zM134 368l3 17l41 -22l-3 -17zM187 426l-2 -10l-41 22l2 18l40 -21zM148 474l2 18l31 -16l3 -21zM152 510l2 18l22 -11l3 -21zM156 546l3 18l12 -7l3 -21zM161 581l2 18
l3 -1l3 -21zM115 245l19 -10h-20zM228 147h-36l-75 40h36zM69 -15l3 15h4l45 -24l-2 -16h-4zM148 148l-2 -15l-43 23l3 18l48 -26h-6zM92 86l3 18l42 -23l-2 -18zM97 121l3 18l43 -23l-3 -18zM81 16l3 17l42 -23l-2 -17zM87 51l2 18l43 -23l-3 -17zM223 187l3 -20l-38 20h35
zM67 -33l13 -7h-14zM174 739h9l58 -31q-13 -5 -26 -5l-68 36h10h17zM271 730q-1 -2 -12 -13l-48 26q13 0 22 7zM283 761q-2 -12 -4 -17l-38 21q2 8 2 12h11zM177 704q-28 5 -43 23z" />
    <glyph glyph-name="abreve" unicode="&#x103;" horiz-adv-x="273" 
d="M249 0l-2 11l37 -19l3 -21l-54 29h16zM211 239l-3 21l37 -20l3 -21zM231 115l-4 21l38 -20l3 -21zM224 156l-3 21l37 -19l3 -21zM205 281l-4 21l37 -20l4 -21zM172 488l-3 21l38 -20l3 -21zM244 32l-3 21l36 -20l4 -21zM179 447l-3 20l37 -20l3 -20zM218 198l-4 21
l37 -20l3 -21zM192 364l-3 20l36 -19l3 -21zM185 405l-3 21l37 -20l3 -20zM198 322l-3 21l37 -20l3 -20zM237 74l-3 20l37 -20l3 -20zM237 -40l-3 21l38 -21h-35zM186 519h16l1 -9zM147 216l-2 -17l-42 22l2 18zM111 273v1l42 -23l-3 -17l-42 22zM156 273q0 -1 -0.5 -2
t-0.5 -2l-42 23l3 18l38 -21zM118 327l2 18l29 -15l2 -21zM122 363l3 18l19 -10l2 -21zM127 398l2 18l10 -5l2 -21zM98 190l2 14l26 -14h-28zM131 434l3 18l2 -21zM181 106h-4l-75 40h35l41 -22zM111 -40h-17l-33 18l3 18l48 -26zM134 106l-2 -14l-43 23l3 17l49 -26h-7z
M72 10l3 17l43 -22l-3 -18zM78 45l3 17l42 -22l-3 -18zM83 80l3 17l43 -22l-3 -18zM144 613h9l58 -31q-13 -5 -26 -5l-68 36h10h17zM241 604q-1 -2 -12 -13l-48 26q13 0 22 7zM253 635q-2 -12 -4 -17l-38 21q2 8 2 12h11zM147 578q-28 5 -43 23z" />
    <glyph glyph-name="Aogonek" unicode="&#x104;" horiz-adv-x="334" 
d="M340 -40l-3 -5l-48 25l8 15l45 -24l2 -11h-4zM211 591l-3 21l37 -20l4 -21zM218 550l-4 21l38 -20l3 -21zM224 508l-3 21l37 -20l4 -21zM231 467l-4 21l38 -20l3 -21zM269 218l-3 21l37 -20l4 -21zM205 633l-3 20l37 -20l3 -20zM250 342l-3 21l37 -20l3 -21zM283 135
l-3 21l36 -20l4 -21zM237 426l-3 20l37 -20l3 -20zM256 301l-3 21l37 -20l3 -21zM289 94l-3 20l37 -20l3 -20zM276 177l-3 21l37 -20l3 -21zM296 52l-4 21l37 -19l3 -21zM244 384l-3 21l36 -20l4 -21zM302 11l-3 20l37 -19l3 -20zM263 260l-3 20l36 -19l4 -21zM315 -64
l-4 -6l-22 12l9 15l31 -17l-7 -12zM225 660h10l1 -6zM290 -78q-4 0 -10 3l1 2l10 -5h-1zM123 296l3 18l42 -22l-3 -18zM128 332l3 17l42 -22l-3 -18zM118 261l2 18l43 -23l-3 -17zM139 402l1 3l2 15l41 -22l-3 -18zM134 367l3 17l41 -22l-3 -17zM187 426l-2 -11l-41 22l2 18
l40 -21zM148 473l2 18l31 -17l3 -20zM152 509l2 18l23 -12l2 -21zM156 545l3 17l13 -7l2 -20zM161 580l2 18l4 -2l2 -20zM115 244l17 -9h-18zM115 187h36l75 -40h-36zM69 -16l3 16h2l47 -25l-2 -15h-6zM148 147l-2 -15l-43 23l3 18l48 -26h-6zM97 120l3 18l43 -23l-3 -18z
M81 15l3 17l42 -23l-2 -17zM92 85l3 18l42 -23l-2 -17zM87 50l2 17l43 -23l-3 -16zM186 187h36l1 -1l3 -20zM66 -40l1 6l11 -6h-12zM286 -114h1l66 -35q-10 -5 -27 -5l-48 26q-3 5 -5 15q4 -1 13 -1zM375 -128q-1 -1 -7 -10l-38 20q11 0 21 8l16 -8z" />
    <glyph glyph-name="aogonek" unicode="&#x105;" horiz-adv-x="281" 
d="M320 -131q-5 -9 -11 -13l-58 31q8 2 12 4q4 -13 16 -13q7 0 15 5zM276 -155q-38 0 -47 34l61 -32q-8 -2 -14 -2zM288 -40l-7 -14l-42 23l-1 7l4 10l48 -26h-2zM181 455l-3 21l37 -20l4 -21zM188 414l-4 21l38 -20l3 -21zM207 289l-3 21l37 -20l4 -21zM175 497l-3 20
l37 -20l3 -20zM227 165l-3 20l37 -19l3 -21zM240 82l-3 21l36 -20l4 -21zM246 41l-3 20l37 -20l3 -20zM214 248l-4 21l38 -20l3 -21zM194 373l-3 20l37 -20l3 -20zM201 331l-3 21l36 -20l4 -21zM221 206l-4 21l37 -19l3 -21zM253 0l-3 20l36 -20l4 -20l-38 20h1zM233 124
l-3 20l37 -20l3 -20zM263 -68q-3 -4 -9 -9l-15 8l7 15l28 -15l-3 -9zM138 106l-1 -7l-43 23l3 17l62 -33h-21zM66 -15l3 15h5l43 -23l-2 -17h-2zM121 146h35l25 -13l3 -21zM77 17l3 17l43 -23l-3 -17zM83 52l3 17l43 -23l-3 -17zM89 87l2 17l43 -23l-3 -17zM63 -40l1 8
l14 -8h-15zM153 224l-3 -18l-42 23l3 17zM115 273l1 8l42 -22l-3 -18l-42 23zM118 299l2 18l37 -20l2 -20zM123 335l2 17l27 -14l2 -20zM105 211l40 -21h-35l-8 4zM127 370l3 18l17 -9l2 -21zM132 406l2 18l8 -4l2 -21zM136 441l2 12l1 -13z" />
    <glyph glyph-name="Cacute" unicode="&#x106;" horiz-adv-x="364" 
d="M183 659q8 0 12 -1l56 -30q3 -5 7 -15q-7 3 -24 5l-70 38q1 0 5 2q6 1 14 1zM131 635q10 8 15 11l56 -30q-10 -1 -20 -8zM108 610l11 13l47 -26l-11 -12zM98 577q0 9 3 17l46 -24l-6 -16zM97 540v18v1l41 -22q-1 -6 -1 -19zM97 388v19l40 -22v-19zM97 350v19l40 -22v-19z
M97 502v19l40 -22v-19zM97 236v19l40 -22v-19zM97 160v19l40 -22v-19zM97 426v19l40 -22v-19zM97 312v19l40 -22v-19zM97 274v19l40 -22v-19zM97 464v19l40 -22v-19zM97 198v19l40 -22v-19zM98 121q-1 6 -1 20l40 -22v-18v-1zM118 72q-9 12 -15 27l35 -18q2 -15 5 -22z
M357 519v-4l-40 21v19l39 -21q1 -5 1 -15zM317 498v19l40 -21v-19zM357 455h-30l-20 11v19l50 -27v-3zM349 576q4 -14 5 -22l-38 20q0 7 -2 21zM316 632q15 -15 23 -31l-30 16q-6 16 -10 24zM223 -47q-15 0 -28 3l-72 38q-10 10 -15 19q23 -14 49 -18l78 -41q-4 -1 -12 -1z
M282 -34q-11 -6 -21 -8l-66 36q16 2 27 4zM313 -13q-7 -6 -14 -11l-53 28q9 3 20 8zM348 44q-2 -8 -6 -15l-44 23q4 13 5 17zM334 14l-9 -14l-45 24q8 8 11 13zM356 78l-3 -17l-45 24q4 9 5 16zM357 100v-3l-41 22q0 3 0.5 9t0.5 9l40 -21v-16zM317 156v4h29l11 -6v-19z
M194 742l1 2h4l6 11l34 -18l-9 -14zM214 770l8 14l34 -18l-9 -14zM231 798l3 5h25l14 -8l-9 -14zM183 717l4 10l19 -10h-23z" />
    <glyph glyph-name="cacute" unicode="&#x107;" horiz-adv-x="297" 
d="M248 372v16h5l45 -24v-16h-5zM258 404v19l40 -21v-19zM258 443q0 3 -0.5 9.5t-0.5 9.5l36 -20q2 -7 4 -21l-39 21v1zM263 497q16 -16 22 -31l-32 17q-3 10 -8 23zM248 353l9 -5h-9v5zM148 517h7l38 -21q7 -11 11 -21q-2 0 -10 2l-68 36q9 4 22 4zM97 490q4 7 12 13
l56 -30q-12 -6 -17 -10zM87 458l3 17l47 -25q-4 -6 -7 -16zM126 403v-4l-40 21v19l41 -22q-1 -4 -1 -14zM86 154v19l40 -21v-19zM86 268v19l40 -21v-19zM86 306v19l40 -21v-19zM86 382v19l40 -21v-19zM86 116v19l40 -21v-19zM86 192v19l40 -21v-19zM86 344v19l40 -21v-19z
M86 230v19l40 -21v-19zM95 74q-5 8 -7 22l38 -20q0 -13 1 -19zM88 8q20 -12 49 -14l72 -38q-14 -2 -21 -2q-8 0 -12 1l-83 44q-1 1 -2.5 4.5t-2.5 4.5zM251 -29l-18 -9l-63 34l23 6zM291 26l-6 -16l-45 24q4 10 5 16zM276 -4l-11 -13l-48 25q8 4 15 11zM298 60q0 -6 -2 -18
l-45 24q4 9 5 17zM258 100q1 5 1 15v4l40 -22v-18zM299 126v-10l-18 10h18zM158 602l1 2h4l6 11l34 -18l-9 -14zM178 630l8 14l34 -18l-9 -14zM195 658l3 5h25l14 -8l-9 -14zM147 577l4 10l19 -10h-23z" />
    <glyph glyph-name="Ccircumflex" unicode="&#x108;" horiz-adv-x="364" 
d="M183 659q8 0 12 -1l56 -30q3 -5 7 -15q-7 3 -24 5l-70 38q1 0 5 2q6 1 14 1zM131 635q10 8 15 11l56 -30q-10 -1 -20 -8zM108 610l11 13l47 -26l-11 -12zM98 577q0 9 3 17l46 -24l-6 -16zM97 540v18v1l41 -22q-1 -6 -1 -19zM97 388v19l40 -22v-19zM97 350v19l40 -22v-19z
M97 502v19l40 -22v-19zM97 236v19l40 -22v-19zM97 160v19l40 -22v-19zM97 426v19l40 -22v-19zM97 312v19l40 -22v-19zM97 274v19l40 -22v-19zM97 464v19l40 -22v-19zM97 198v19l40 -22v-19zM98 121q-1 6 -1 20l40 -22v-18v-1zM118 72q-9 12 -15 27l35 -18q2 -15 5 -22z
M357 519v-4l-40 21v19l39 -21q1 -5 1 -15zM317 498v19l40 -21v-19zM357 455h-30l-20 11v19l50 -27v-3zM349 576q4 -14 5 -22l-38 20q0 7 -2 21zM316 632q15 -15 23 -31l-30 16q-6 16 -10 24zM223 -47q-15 0 -28 3l-72 38q-10 10 -15 19q23 -14 49 -18l78 -41q-4 -1 -12 -1z
M282 -34q-11 -6 -21 -8l-66 36q16 2 27 4zM313 -13q-7 -6 -14 -11l-53 28q9 3 20 8zM348 44q-2 -8 -6 -15l-44 23q4 13 5 17zM334 14l-9 -14l-45 24q8 8 11 13zM356 78l-3 -17l-45 24q4 9 5 16zM357 100v-3l-41 22q0 3 0.5 9t0.5 9l40 -21v-16zM317 156v4h29l11 -6v-19z
M286 736l27 -28h-10l-63 34h36zM169 742l12 13l36 -20l-13 -12zM187 708h-25l-17 9l12 12l34 -18zM192 767l5 5l18 -17z" />
    <glyph glyph-name="ccircumflex" unicode="&#x109;" horiz-adv-x="297" 
d="M248 372v16h5l45 -24v-16h-5zM258 404v19l40 -21v-19zM258 443q0 3 -0.5 9.5t-0.5 9.5l36 -20q2 -7 4 -21l-39 21v1zM263 497q16 -16 22 -31l-32 17q-3 10 -8 23zM248 353l9 -5h-9v5zM148 517h7l38 -21q7 -11 11 -21q-2 0 -10 2l-68 36q9 4 22 4zM97 490q4 7 12 13
l56 -30q-12 -6 -17 -10zM87 458l3 17l47 -25q-4 -6 -7 -16zM126 403v-4l-40 21v19l41 -22q-1 -4 -1 -14zM86 154v19l40 -21v-19zM86 268v19l40 -21v-19zM86 306v19l40 -21v-19zM86 382v19l40 -21v-19zM86 116v19l40 -21v-19zM86 192v19l40 -21v-19zM86 344v19l40 -21v-19z
M86 230v19l40 -21v-19zM95 74q-5 8 -7 22l38 -20q0 -13 1 -19zM88 8q20 -12 49 -14l72 -38q-14 -2 -21 -2q-8 0 -12 1l-83 44q-1 1 -2.5 4.5t-2.5 4.5zM251 -29l-18 -9l-63 34l23 6zM291 26l-6 -16l-45 24q4 10 5 16zM276 -4l-11 -13l-48 25q8 4 15 11zM298 60q0 -6 -2 -18
l-45 24q4 9 5 17zM258 100q1 5 1 15v4l40 -22v-18zM299 126v-10l-18 10h18zM244 605l25 -30h-9l-60 36h34zM134 611l11 14l34 -21l-12 -13zM151 575h-24l-16 10l11 12l32 -19zM155 637l5 6l17 -18z" />
    <glyph glyph-name="Cdotaccent" unicode="&#x10a;" horiz-adv-x="364" 
d="M183 659q8 0 12 -1l56 -30q3 -5 7 -15q-7 3 -24 5l-70 38q1 0 5 2q6 1 14 1zM131 635q10 8 15 11l56 -30q-10 -1 -20 -8zM108 610l11 13l47 -26l-11 -12zM98 577q0 9 3 17l46 -24l-6 -16zM97 540v18v1l41 -22q-1 -6 -1 -19zM97 388v19l40 -22v-19zM97 350v19l40 -22v-19z
M97 502v19l40 -22v-19zM97 236v19l40 -22v-19zM97 160v19l40 -22v-19zM97 426v19l40 -22v-19zM97 312v19l40 -22v-19zM97 274v19l40 -22v-19zM97 464v19l40 -22v-19zM97 198v19l40 -22v-19zM98 121q-1 6 -1 20l40 -22v-18v-1zM118 72q-9 12 -15 27l35 -18q2 -15 5 -22z
M357 519v-4l-40 21v19l39 -21q1 -5 1 -15zM317 498v19l40 -21v-19zM357 455h-30l-20 11v19l50 -27v-3zM349 576q4 -14 5 -22l-38 20q0 7 -2 21zM316 632q15 -15 23 -31l-30 16q-6 16 -10 24zM223 -47q-15 0 -28 3l-72 38q-10 10 -15 19q23 -14 49 -18l78 -41q-4 -1 -12 -1z
M282 -34q-11 -6 -21 -8l-66 36q16 2 27 4zM313 -13q-7 -6 -14 -11l-53 28q9 3 20 8zM348 44q-2 -8 -6 -15l-44 23q4 13 5 17zM334 14l-9 -14l-45 24q8 8 11 13zM356 78l-3 -17l-45 24q4 9 5 16zM357 100v-3l-41 22q0 3 0.5 9t0.5 9l40 -21v-16zM317 156v4h29l11 -6v-19z
M204 745h7v15l32 -17v-19zM211 779v6h25l7 -4v-19zM195 731l39 -21h-36l-3 2v19z" />
    <glyph glyph-name="cdotaccent" unicode="&#x10b;" horiz-adv-x="297" 
d="M248 372v16h5l45 -24v-16h-5zM258 404v19l40 -21v-19zM258 443q0 3 -0.5 9.5t-0.5 9.5l36 -20q2 -7 4 -21l-39 21v1zM263 497q16 -16 22 -31l-32 17q-3 10 -8 23zM248 353l9 -5h-9v5zM148 517h7l38 -21q7 -11 11 -21q-2 0 -10 2l-68 36q9 4 22 4zM97 490q4 7 12 13
l56 -30q-12 -6 -17 -10zM87 458l3 17l47 -25q-4 -6 -7 -16zM126 403v-4l-40 21v19l41 -22q-1 -4 -1 -14zM86 154v19l40 -21v-19zM86 268v19l40 -21v-19zM86 306v19l40 -21v-19zM86 382v19l40 -21v-19zM86 116v19l40 -21v-19zM86 192v19l40 -21v-19zM86 344v19l40 -21v-19z
M86 230v19l40 -21v-19zM95 74q-5 8 -7 22l38 -20q0 -13 1 -19zM88 8q20 -12 49 -14l72 -38q-14 -2 -21 -2q-8 0 -12 1l-83 44q-1 1 -2.5 4.5t-2.5 4.5zM251 -29l-18 -9l-63 34l23 6zM291 26l-6 -16l-45 24q4 10 5 16zM276 -4l-11 -13l-48 25q8 4 15 11zM298 60q0 -6 -2 -18
l-45 24q4 9 5 17zM258 100q1 5 1 15v4l40 -22v-18zM299 126v-10l-18 10h18zM166 617h7v15l32 -17v-19zM173 651v6h25l7 -4v-19zM157 603l39 -21h-36l-3 2v19z" />
    <glyph glyph-name="Ccaron" unicode="&#x10c;" horiz-adv-x="364" 
d="M183 659q8 0 12 -1l56 -30q3 -5 7 -15q-7 3 -24 5l-70 38q1 0 5 2q6 1 14 1zM131 635q10 8 15 11l56 -30q-10 -1 -20 -8zM108 610l11 13l47 -26l-11 -12zM98 577q0 9 3 17l46 -24l-6 -16zM97 540v18v1l41 -22q-1 -6 -1 -19zM97 388v19l40 -22v-19zM97 350v19l40 -22v-19z
M97 502v19l40 -22v-19zM97 236v19l40 -22v-19zM97 160v19l40 -22v-19zM97 426v19l40 -22v-19zM97 312v19l40 -22v-19zM97 274v19l40 -22v-19zM97 464v19l40 -22v-19zM97 198v19l40 -22v-19zM98 121q-1 6 -1 20l40 -22v-18v-1zM118 72q-9 12 -15 27l35 -18q2 -15 5 -22z
M357 519v-4l-40 21v19l39 -21q1 -5 1 -15zM317 498v19l40 -21v-19zM357 455h-30l-20 11v19l50 -27v-3zM349 576q4 -14 5 -22l-38 20q0 7 -2 21zM316 632q15 -15 23 -31l-30 16q-6 16 -10 24zM223 -47q-15 0 -28 3l-72 38q-10 10 -15 19q23 -14 49 -18l78 -41q-4 -1 -12 -1z
M282 -34q-11 -6 -21 -8l-66 36q16 2 27 4zM313 -13q-7 -6 -14 -11l-53 28q9 3 20 8zM348 44q-2 -8 -6 -15l-44 23q4 13 5 17zM334 14l-9 -14l-45 24q8 8 11 13zM356 78l-3 -17l-45 24q4 9 5 16zM357 100v-3l-41 22q0 3 0.5 9t0.5 9l40 -21v-16zM317 156v4h29l11 -6v-19z
M245 713h-30l-40 21l-8 9h28l52 -28zM223 747l13 12l35 -19l-12 -13zM249 771l13 12l33 -18l-12 -13zM315 786l-8 -8l-15 8h23z" />
    <glyph glyph-name="ccaron" unicode="&#x10d;" horiz-adv-x="297" 
d="M248 372v16h5l45 -24v-16h-5zM258 404v19l40 -21v-19zM258 443q0 3 -0.5 9.5t-0.5 9.5l36 -20q2 -7 4 -21l-39 21v1zM263 497q16 -16 22 -31l-32 17q-3 10 -8 23zM248 353l9 -5h-9v5zM148 517h7l38 -21q7 -11 11 -21q-2 0 -10 2l-68 36q9 4 22 4zM97 490q4 7 12 13
l56 -30q-12 -6 -17 -10zM87 458l3 17l47 -25q-4 -6 -7 -16zM126 403v-4l-40 21v19l41 -22q-1 -4 -1 -14zM86 154v19l40 -21v-19zM86 268v19l40 -21v-19zM86 306v19l40 -21v-19zM86 382v19l40 -21v-19zM86 116v19l40 -21v-19zM86 192v19l40 -21v-19zM86 344v19l40 -21v-19z
M86 230v19l40 -21v-19zM95 74q-5 8 -7 22l38 -20q0 -13 1 -19zM88 8q20 -12 49 -14l72 -38q-14 -2 -21 -2q-8 0 -12 1l-83 44q-1 1 -2.5 4.5t-2.5 4.5zM251 -29l-18 -9l-63 34l23 6zM291 26l-6 -16l-45 24q4 10 5 16zM276 -4l-11 -13l-48 25q8 4 15 11zM298 60q0 -6 -2 -18
l-45 24q4 9 5 17zM258 100q1 5 1 15v4l40 -22v-18zM299 126v-10l-18 10h18zM205 577h-29l-38 22l-8 9h27l50 -29zM184 612l13 13l33 -20l-11 -14zM209 637l13 12l31 -18l-11 -14zM273 653l-8 -9l-15 9h23z" />
    <glyph glyph-name="Dcaron" unicode="&#x10e;" horiz-adv-x="375" 
d="M112 0h35l75 -40h-35zM184 0q19 0 32 1l65 -34q-8 -3 -26 -5l-72 38h1zM255 11q2 0 10 2l54 -28q-15 -10 -17 -11l-60 32q5 1 13 5zM283 22q8 5 14 12l45 -25q-5 -8 -10 -12zM305 48q4 7 5 14v1l1 1l46 -24l-6 -16zM317 80l4 17l42 -23q0 -7 -2 -17zM324 114q0 3 0.5 9
t0.5 10l40 -22v-13v-6zM325 304v19l40 -22v-19zM325 152v19l40 -22v-19zM325 342v19l40 -22v-19zM325 190v19l40 -22v-19zM365 519v-9l-40 22v19l40 -22v-10zM325 494v19l40 -22v-19zM325 380v19l40 -22v-19zM325 456v19l40 -22v-19zM325 418v19l40 -22v-19zM325 266v19
l40 -22v-18zM325 228v19l40 -22v-18zM115 -40l-21 12v19l57 -31h-36zM360 570q1 -2 3 -21l-38 21q0 6 -2 20zM339 619q9 -10 15 -26l-34 18l-6 22zM107 648v5h27l75 -40h-36zM184 653q15 0 22 -1l55 -29q3 -5 7 -15q-14 4 -22 4l-76 41h14zM107 306v19l40 -21v-19zM107 268
v19l40 -21v-19zM107 230v19l40 -21v-19zM107 192v19l40 -21v-19zM107 154v19l40 -21v-19zM107 344v19l40 -21v-19zM107 78v19l40 -21v-19zM107 420v19l40 -21v-19zM107 610v19l40 -21v-19zM107 496v19l40 -21v-19zM107 458v19l40 -21v-19zM107 116v19l40 -21v-19zM107 534
v19l40 -21v-19zM107 572v19l40 -21v-19zM107 382v19l40 -21v-19zM107 49v10l19 -10h-19zM241 710h-30l-40 21l-8 9h28l52 -28zM219 744l13 12l35 -19l-12 -13zM245 768l13 12l33 -18l-12 -13zM311 783l-8 -8l-15 8h23z" />
    <glyph glyph-name="dcaron" unicode="&#x10f;" horiz-adv-x="306" 
d="M189 -40h-23l-75 40h35l75 -40h-12zM161 0l28 4l61 -32q-5 -2 -22 -7zM212 11q11 4 19 9l48 -26l-13 -12zM243 32q4 6 7 16l46 -25q-3 -10 -7 -16zM256 63q4 9 5 16l43 -23q0 -3 -0.5 -5.5t-1.5 -6t-1 -5.5zM265 401v19l40 -22v-19zM265 363v19l40 -22v-19zM265 249v19
l40 -22v-19zM265 287v19l40 -22v-19zM265 173v19l40 -22v-19zM265 135v19l40 -22v-19zM265 211v19l40 -22v-19zM265 325v19l40 -22v-19zM264 97q1 5 1 17v2l40 -22v-18zM302 438q2 -12 2 -20l-39 21v5q0 9 -1 14zM94 -40l-13 7v20l49 -27h-36zM278 488q11 -11 18 -28l-34 18
q-1 6 -6 22zM149 512q11 0 16 -1l36 -19q5 -8 10 -22q-4 0 -6 1l-77 41h21zM134 472v-1l-40 21v19l74 -39h-34zM94 226v19l40 -21v-19zM94 188v19l40 -21v-19zM94 340v19l40 -21v-19zM94 378v19l40 -21v-19zM94 454v19l40 -21v-19zM94 264v19l40 -21v-19zM94 112v19l40 -21
v-19zM94 74v19l40 -21v-19zM94 302v19l40 -21v-19zM94 416v19l40 -21v-19zM94 150v19l40 -21v-19zM94 55l12 -6h-12v6zM208 582h-30l-40 21l-8 9h28l52 -28zM186 616l13 12l35 -19l-12 -13zM212 640l13 12l33 -18l-12 -13zM278 655l-8 -8l-15 8h23z" />
    <glyph glyph-name="Dcroat" unicode="&#x110;" horiz-adv-x="375" 
d="M109 0h36l75 -40h-36zM183 0q18 0 31 1l65 -35q-8 -2 -26 -4l-73 38h3zM258 12q3 0 5 1l54 -29q-9 -7 -16 -10l-61 32q9 2 18 6zM282 21q7 4 13 12l47 -25l-11 -12zM308 58q1 1 1 2q1 2 1 3l46 -24q-4 -14 -6 -16l-46 25q2 4 4 10zM317 79l4 17l42 -23q0 -6 -2 -18z
M324 113q0 3 0.5 9t0.5 10l40 -22v-12v-7zM325 493v19l40 -22v-19zM325 417v19l40 -22v-19zM325 455v19l40 -22v-19zM365 519v-10l-40 22v19l40 -22v-9zM325 341v19l40 -22v-19zM325 265v19l40 -22v-19zM325 189v19l40 -22v-19zM325 227v19l40 -22v-19zM325 303v19l40 -22
v-19zM325 379v19l40 -22v-19zM325 151v19l40 -22v-19zM113 -40l-19 11v19l55 -30h-36zM360 568q3 -9 3 -20l-38 21q0 7 -2 19zM340 618q9 -14 14 -27l-34 18q-4 16 -7 23zM183 653q14 0 21 -1l56 -30l6 -13q-1 0 -9.5 1.5t-13.5 1.5l-76 41h16zM107 647v6h25l75 -40h-36z
M107 533v19l40 -21v-19zM107 495v19l40 -21v-19zM107 457v19l40 -21v-19zM107 571v19l40 -21v-19zM107 381v19l40 -21v-19zM107 305v19l40 -21v-19zM107 343v19l40 -21v-19zM107 419v19l40 -21v-19zM107 609v19l40 -21v-19zM107 267v19l40 -21v-19zM147 227h-36l-4 2v19z
M217 142h-18l-75 40h36l57 -31v-9zM147 142v-10l-40 21v19l57 -30h-17zM107 115v19l40 -21v-19zM107 77v19l40 -21v-19zM217 187v-17l-31 17h31zM107 58l17 -9h-17v9zM45 148v19l9 -5v-19z" />
    <glyph glyph-name="dcroat" unicode="&#x111;" horiz-adv-x="306" 
d="M188 -40h-4l-75 40h36l72 -38q-12 -2 -29 -2zM178 1q11 1 25 6l58 -31q-9 -6 -19 -9zM222 16q1 1 14 11l50 -27l-11 -12zM113 -40l-32 18v19l68 -37h-36zM247 40q3 5 7 15l46 -24l-6 -16zM260 71l3 18l42 -22q0 -7 -2 -19zM265 335v19l40 -22v-19zM265 259v19l40 -22v-19
zM305 404v-15l-40 22v19l40 -22v-4zM265 373v19l40 -22v-19zM265 297v19l40 -22v-19zM265 183v19l40 -22v-19zM265 107v7v12l40 -22v-19zM265 145v19l40 -22v-19zM265 221v19l40 -22v-19zM300 449q2 -7 4 -21l-39 21q0 4 -0.5 10t-0.5 9zM254 509q26 -12 38 -37l-32 17
q0 4 -6 20zM94 502v10h17l75 -40h-35zM94 312v19l40 -21v-19zM94 426v19l40 -21v-19zM94 464v19l40 -21v-19zM94 274v19l40 -21v-19zM94 388v19l40 -21v-19zM94 350v19l40 -21v-19zM134 221h-11l-29 15v19l40 -21v-13zM148 512q48 0 59 -32l-60 32h1zM94 178h2l75 -40h-35
l-42 22v18zM161 178v3h1l39 -21v-19l-69 37h29zM94 84v19l40 -21v-19zM94 122v19l40 -21v-19zM94 65l30 -16h-30v16z" />
    <glyph glyph-name="Emacron" unicode="&#x112;" horiz-adv-x="327" 
d="M168 654h35l75 -40h-35zM106 649v5h26l75 -40h-36zM336 614h-22l-75 40h35l62 -33v-7zM106 307v19l40 -22v-19zM106 459v19l40 -22v-19zM106 573v19l40 -22v-19zM106 611v19l40 -22v-19zM106 497v19l40 -22v-19zM106 421v19l40 -22v-19zM106 269v19l40 -22v-19zM106 383
v19l40 -22v-19zM106 535v19l40 -22v-19zM106 345v19l40 -22v-19zM299 660h35l2 -1v-19zM106 233v17l32 -17h-32zM117 187h36l75 -40h-36zM297 147h-34l-75 40h36l73 -39v-1zM146 147v-14l-40 22v19l50 -27h-10zM106 79v19l40 -22v-19zM106 117v19l40 -22v-19zM257 188v5h27
l13 -7v-19zM106 60l24 -13h-24v13zM183 0h35l75 -40h-35zM112 0h35l75 -40h-35zM336 -40h-7l-75 40h35l47 -25v-15zM115 -40l-22 12v19l58 -31h-36zM336 7v-13l-24 13h24zM139 746h24l61 -33h-35l-50 27v6zM275 713h-15l-62 33h36l41 -22v-11zM275 753v-10l-19 10h19z
M139 721l14 -8h-14v8z" />
    <glyph glyph-name="emacron" unicode="&#x113;" horiz-adv-x="268" 
d="M126 513h36l75 -40h-36zM282 473h-10l-75 40h36l49 -26v-14zM133 473v-2l-40 22v19l73 -39h-33zM93 265v19l40 -22v-19zM93 379v19l40 -22v-19zM93 417v19l40 -22v-19zM93 455v19l40 -22v-19zM93 227v19l40 -22v-19zM93 303v19l40 -22v-19zM93 341v19l40 -22v-19zM93 193
v15l28 -15h-28zM282 519v-13l-25 13h25zM102 146h35l75 -40h-35zM252 106h-4l-75 40h36l43 -23v-17zM133 106v-15l-40 22v19l48 -26h-8zM93 75v19l40 -22v-19zM252 153v-11l-21 11h21zM93 56l15 -8h-15v8zM162 0h35l75 -40h-35zM91 0h35l75 -40h-35zM242 0v8h11l29 -15v-19
l-49 26h9zM94 -40l-14 8v19l50 -27h-36zM106 644h24l61 -33h-35l-50 27v6zM242 611h-15l-62 33h36l41 -22v-11zM242 651v-10l-19 10h19zM106 619l14 -8h-14v8z" />
    <glyph glyph-name="Ebreve" unicode="&#x114;" horiz-adv-x="327" 
d="M168 654h35l75 -40h-35zM106 649v5h26l75 -40h-36zM336 614h-22l-75 40h35l62 -33v-7zM106 307v19l40 -22v-19zM106 459v19l40 -22v-19zM106 573v19l40 -22v-19zM106 611v19l40 -22v-19zM106 497v19l40 -22v-19zM106 421v19l40 -22v-19zM106 269v19l40 -22v-19zM106 383
v19l40 -22v-19zM106 535v19l40 -22v-19zM106 345v19l40 -22v-19zM299 660h35l2 -1v-19zM106 233v17l32 -17h-32zM117 187h36l75 -40h-36zM297 147h-34l-75 40h36l73 -39v-1zM146 147v-14l-40 22v19l50 -27h-10zM106 79v19l40 -22v-19zM106 117v19l40 -22v-19zM257 188v5h27
l13 -7v-19zM106 60l24 -13h-24v13zM183 0h35l75 -40h-35zM112 0h35l75 -40h-35zM336 -40h-7l-75 40h35l47 -25v-15zM115 -40l-22 12v19l58 -31h-36zM336 7v-13l-24 13h24zM185 743h9l58 -31q-13 -5 -26 -5l-68 36h10h17zM282 734q-2 -2 -12 -13l-48 26q13 0 22 7zM294 765
q-2 -12 -4 -17l-38 21q2 8 2 12h11zM188 708q-28 5 -43 23z" />
    <glyph glyph-name="ebreve" unicode="&#x115;" horiz-adv-x="268" 
d="M126 513h36l75 -40h-36zM282 473h-10l-75 40h36l49 -26v-14zM133 473v-2l-40 22v19l73 -39h-33zM93 265v19l40 -22v-19zM93 379v19l40 -22v-19zM93 417v19l40 -22v-19zM93 455v19l40 -22v-19zM93 227v19l40 -22v-19zM93 303v19l40 -22v-19zM93 341v19l40 -22v-19zM93 193
v15l28 -15h-28zM282 519v-13l-25 13h25zM102 146h35l75 -40h-35zM252 106h-4l-75 40h36l43 -23v-17zM133 106v-15l-40 22v19l48 -26h-8zM93 75v19l40 -22v-19zM252 153v-11l-21 11h21zM93 56l15 -8h-15v8zM162 0h35l75 -40h-35zM91 0h35l75 -40h-35zM242 0v8h11l29 -15v-19
l-49 26h9zM94 -40l-14 8v19l50 -27h-36zM151 616h9l58 -31q-13 -5 -26 -5l-68 36h10h17zM248 607q-1 -3 -12 -13l-48 26q13 0 22 7zM260 638q-2 -12 -4 -17l-38 21q2 8 2 12h11zM154 581q-28 5 -43 23z" />
    <glyph glyph-name="Edotaccent" unicode="&#x116;" horiz-adv-x="327" 
d="M168 654h35l75 -40h-35zM106 649v5h26l75 -40h-36zM336 614h-22l-75 40h35l62 -33v-7zM106 307v19l40 -22v-19zM106 459v19l40 -22v-19zM106 573v19l40 -22v-19zM106 611v19l40 -22v-19zM106 497v19l40 -22v-19zM106 421v19l40 -22v-19zM106 269v19l40 -22v-19zM106 383
v19l40 -22v-19zM106 535v19l40 -22v-19zM106 345v19l40 -22v-19zM299 660h35l2 -1v-19zM106 233v17l32 -17h-32zM117 187h36l75 -40h-36zM297 147h-34l-75 40h36l73 -39v-1zM146 147v-14l-40 22v19l50 -27h-10zM106 79v19l40 -22v-19zM106 117v19l40 -22v-19zM257 188v5h27
l13 -7v-19zM106 60l24 -13h-24v13zM183 0h35l75 -40h-35zM112 0h35l75 -40h-35zM336 -40h-7l-75 40h35l47 -25v-15zM115 -40l-22 12v19l58 -31h-36zM336 7v-13l-24 13h24zM196 741h7v15l32 -17v-19zM203 775v6h25l7 -4v-19zM187 727l39 -21h-36l-3 2v19z" />
    <glyph glyph-name="edotaccent" unicode="&#x117;" horiz-adv-x="268" 
d="M126 513h36l75 -40h-36zM282 473h-10l-75 40h36l49 -26v-14zM133 473v-2l-40 22v19l73 -39h-33zM93 265v19l40 -22v-19zM93 379v19l40 -22v-19zM93 417v19l40 -22v-19zM93 455v19l40 -22v-19zM93 227v19l40 -22v-19zM93 303v19l40 -22v-19zM93 341v19l40 -22v-19zM93 193
v15l28 -15h-28zM282 519v-13l-25 13h25zM102 146h35l75 -40h-35zM252 106h-4l-75 40h36l43 -23v-17zM133 106v-15l-40 22v19l48 -26h-8zM93 75v19l40 -22v-19zM252 153v-11l-21 11h21zM93 56l15 -8h-15v8zM162 0h35l75 -40h-35zM91 0h35l75 -40h-35zM242 0v8h11l29 -15v-19
l-49 26h9zM94 -40l-14 8v19l50 -27h-36zM163 617h7v15l32 -17v-19zM170 651v6h25l7 -4v-19zM154 603l39 -21h-36l-3 2v19z" />
    <glyph glyph-name="Eogonek" unicode="&#x118;" horiz-adv-x="327" 
d="M166 654h35l75 -40h-36zM336 614h-25l-74 40h35l64 -34v-6zM106 648v6h24l75 -40h-36zM106 458v19l40 -22v-19zM106 420v19l40 -22v-19zM106 572v19l40 -22v-19zM106 610v19l40 -22v-19zM106 496v19l40 -22v-19zM106 382v19l40 -22v-19zM106 268v19l40 -22v-19zM106 344
v19l40 -22v-19zM106 534v19l40 -22v-19zM106 306v19l40 -22v-19zM296 660h36l4 -2v-19zM106 233v16l30 -16h-30zM297 147h-36l-75 40h36zM115 187h36l75 -40h-36zM146 147v-15l-40 22v19l48 -26h-8zM106 78v19l40 -22v-19zM106 116v19l40 -22v-19zM257 187v6h24l16 -9v-19z
M106 59l22 -12h-22v12zM109 0h36l75 -40h-36zM180 0h36l26 -14l-8 -14zM93 -10l56 -30h-36l-20 11v19zM329 -40l-1 -1l-47 26l7 15l48 -26v-14h-7zM290 -40h-21l4 10l47 -26l-7 -14l-31 16zM276 -84q-5 0 -9 2l7 13l20 -10q-10 -5 -18 -5zM336 7v-14l-27 14h27zM272 -118
q7 0 19 2l59 -31q-7 -6 -20 -9l-71 38v1q4 -1 13 -1zM364 -132q-2 -2 -2 -3l-29 16q8 3 11 9z" />
    <glyph glyph-name="eogonek" unicode="&#x119;" horiz-adv-x="276" 
d="M145 513h35l75 -40h-35zM97 501v12h12l75 -40h-35zM216 513h30v3l40 -22v-19zM97 273v19l40 -22v-19zM97 387v19l40 -22v-19zM97 425v19l40 -22v-19zM97 463v19l40 -22v-19zM97 235v19l40 -22v-19zM97 311v19l40 -22v-19zM97 349v19l40 -22v-19zM137 193h-33l-7 4v19
l40 -22v-1zM286 519v-6l-10 6h10zM121 146h35l75 -40h-35zM137 106v-7l-40 22v19l63 -34h-23zM192 146h24v6l40 -22v-18zM97 83v19l40 -22v-19zM97 64l29 -16h-29v16zM256 153v-3l-6 3h6zM109 0h36l43 -23l-7 -15zM84 -5l65 -35h-36l-29 16v19zM198 0l-4 -7l-14 7h18z
M276 -40l-4 -9l-47 25l7 16l54 -29v-3h-10zM246 3v5h26l14 -7v-19zM255 -68q-1 -3 -5 -7l-23 12l7 16l31 -17l-4 -11zM227 -82q-3 0 -7 2v2zM216 -115l2 -1h2l68 -37q-9 -3 -24 -3h-5l-34 19q-7 9 -9 22zM315 -131q-6 -8 -10 -11l-38 20h1q13 0 21 7l23 -12zM252 -111
q0 -2 2 -4l-5 3h1z" />
    <glyph glyph-name="Ecaron" unicode="&#x11a;" horiz-adv-x="327" 
d="M168 654h35l75 -40h-35zM106 649v5h26l75 -40h-36zM336 614h-22l-75 40h35l62 -33v-7zM106 307v19l40 -22v-19zM106 459v19l40 -22v-19zM106 573v19l40 -22v-19zM106 611v19l40 -22v-19zM106 497v19l40 -22v-19zM106 421v19l40 -22v-19zM106 269v19l40 -22v-19zM106 383
v19l40 -22v-19zM106 535v19l40 -22v-19zM106 345v19l40 -22v-19zM299 660h35l2 -1v-19zM106 233v17l32 -17h-32zM117 187h36l75 -40h-36zM297 147h-34l-75 40h36l73 -39v-1zM146 147v-14l-40 22v19l50 -27h-10zM106 79v19l40 -22v-19zM106 117v19l40 -22v-19zM257 188v5h27
l13 -7v-19zM106 60l24 -13h-24v13zM183 0h35l75 -40h-35zM112 0h35l75 -40h-35zM336 -40h-7l-75 40h35l47 -25v-15zM115 -40l-22 12v19l58 -31h-36zM336 7v-13l-24 13h24zM240 717h-30l-41 19l-8 8h29l52 -25zM218 748l13 11l35 -17l-12 -12zM244 769l13 11l33 -16l-12 -12z
M310 783l-8 -7l-15 7h23z" />
    <glyph glyph-name="ecaron" unicode="&#x11b;" horiz-adv-x="268" 
d="M126 513h36l75 -40h-36zM282 473h-10l-75 40h36l49 -26v-14zM133 473v-2l-40 22v19l73 -39h-33zM93 265v19l40 -22v-19zM93 379v19l40 -22v-19zM93 417v19l40 -22v-19zM93 455v19l40 -22v-19zM93 227v19l40 -22v-19zM93 303v19l40 -22v-19zM93 341v19l40 -22v-19zM93 193
v15l28 -15h-28zM282 519v-13l-25 13h25zM102 146h35l75 -40h-35zM252 106h-4l-75 40h36l43 -23v-17zM133 106v-15l-40 22v19l48 -26h-8zM93 75v19l40 -22v-19zM252 153v-11l-21 11h21zM93 56l15 -8h-15v8zM162 0h35l75 -40h-35zM91 0h35l75 -40h-35zM242 0v8h11l29 -15v-19
l-49 26h9zM94 -40l-14 8v19l50 -27h-36zM207 586h-30l-40 21l-8 9h28l52 -28zM185 620l13 12l35 -19l-12 -13zM211 644l13 12l33 -18l-12 -13zM277 659l-8 -8l-15 8h23z" />
    <glyph glyph-name="Gcircumflex" unicode="&#x11c;" horiz-adv-x="353" 
d="M356 452h-23l-27 14v19l50 -27v-6zM316 499v19l40 -22v-19zM316 556l39 -21q0 -3 0.5 -9.5t0.5 -9.5v-1l-40 22v19zM345 578q2 -5 7 -22l-37 19q0 9 -4 21zM293 644q25 -15 40 -40l-28 14q-5 15 -12 26zM181 656q12 0 24 -3l32 -17q11 -11 19 -27l-12 4l-76 40l5 2
q3 1 8 1zM135 633q7 7 15 11l55 -29q-16 -5 -21 -8zM111 608q3 5 11 13l46 -25q-5 -3 -11 -12zM98 577q2 10 4 17l46 -25l-6 -16zM97 540v15v4l41 -22q-1 -6 -1 -19zM97 388v19l40 -22v-19zM97 350v19l40 -22v-19zM97 502v19l40 -22v-19zM97 236v19l40 -22v-19zM97 160v19
l40 -22v-19zM97 426v19l40 -22v-19zM97 312v19l40 -22v-19zM97 274v19l40 -22v-19zM97 464v19l40 -22v-19zM97 198v19l40 -22v-19zM98 121q-1 6 -1 19v1l40 -22v-19zM113 75q-8 12 -11 25l35 -19q2 -14 4 -21zM105 14q21 -13 50 -18l78 -41q-2 0 -6 -0.5t-5 -0.5
q-10 0 -28 2l-77 41zM281 -33q-11 -5 -21 -8l-67 36q11 0 27 4zM312 -12q-6 -6 -14 -11l-52 27q10 3 19 9zM347 45l-6 -16l-44 24q4 10 5 16zM334 14l-10 -14l-44 24q6 6 10 13zM354 79l-3 -17l-44 23q4 13 5 17zM315 157v19l40 -21v-19zM355 99v-1l-41 22q1 6 1 18l40 -21
v-18zM315 195v2h33l7 -4v-19zM202 180v11h14l48 -26v-14h-8zM202 151v10l18 -10h-18zM264 191v-7l-12 7h12zM281 735l27 -25h-10l-63 30h36zM165 740l12 12l35 -18l-13 -11zM182 710h-24l-17 8l12 11l33 -17zM187 763l5 4l18 -15z" />
    <glyph glyph-name="gcircumflex" unicode="&#x11d;" 
d="M249 371v18h3l46 -25v-15h-7zM258 404v19l40 -21v-19zM258 444q0 3 -0.5 9t-0.5 9l36 -20q2 -7 4 -21l-39 21v2zM261 498q15 -15 23 -31l-31 16l-9 24zM149 518h3l43 -23q4 -5 9 -19l-12 2l-62 33l17 7h2zM102 488q1 1 3.5 4t4.5 5t4 3l50 -27q-11 -3 -17 -10zM89 470
l2 4l46 -24q-3 -5 -7 -15l-44 23zM126 404v-5l-40 21v19l40 -21v-14zM86 154v19l40 -21v-19zM86 268v19l40 -21v-19zM86 306v19l40 -21v-19zM86 382v19l40 -21v-19zM86 116v19l40 -21v-19zM86 192v19l40 -21v-19zM86 344v19l40 -21v-19zM86 230v19l40 -21v-19zM94 74
q-3 7 -7 23l39 -21v-1q0 -13 1 -19zM88 9q19 -11 47 -14l72 -38q-14 -2 -21 -2q-8 0 -12 1l-79 42q-3 3 -7 11zM249 -27q-3 -3 -18 -10l-63 34q11 1 24 6zM274 -3q-3 -5 -11 -13l-48 25q8 4 15 11zM289 27q-5 -14 -6 -16l-43 23q5 8 6 16zM296 61q0 -6 -2 -18l-44 24l4 16z
M257 139v17h4l36 -19v-20zM256 101q1 5 1 14v5l40 -22v-18zM175 145v6h24l10 -5v-19zM175 126l28 -15h-28v15zM248 605l26 -30h-10l-61 37h35zM133 612l12 14l35 -22l-12 -13zM151 575h-25l-16 10l12 13l33 -20zM156 639l5 6l17 -19z" />
    <glyph glyph-name="Gbreve" unicode="&#x11e;" horiz-adv-x="353" 
d="M356 452h-23l-27 14v19l50 -27v-6zM316 499v19l40 -22v-19zM316 556l39 -21q0 -3 0.5 -9.5t0.5 -9.5v-1l-40 22v19zM345 578q2 -5 7 -22l-37 19q0 9 -4 21zM293 644q25 -15 40 -40l-28 14q-5 15 -12 26zM181 656q12 0 24 -3l32 -17q11 -11 19 -27l-12 4l-76 40l5 2
q3 1 8 1zM135 633q7 7 15 11l55 -29q-16 -5 -21 -8zM111 608q3 5 11 13l46 -25q-5 -3 -11 -12zM98 577q2 10 4 17l46 -25l-6 -16zM97 540v15v4l41 -22q-1 -6 -1 -19zM97 388v19l40 -22v-19zM97 350v19l40 -22v-19zM97 502v19l40 -22v-19zM97 236v19l40 -22v-19zM97 160v19
l40 -22v-19zM97 426v19l40 -22v-19zM97 312v19l40 -22v-19zM97 274v19l40 -22v-19zM97 464v19l40 -22v-19zM97 198v19l40 -22v-19zM98 121q-1 6 -1 19v1l40 -22v-19zM113 75q-8 12 -11 25l35 -19q2 -14 4 -21zM105 14q21 -13 50 -18l78 -41q-2 0 -6 -0.5t-5 -0.5
q-10 0 -28 2l-77 41zM281 -33q-11 -5 -21 -8l-67 36q11 0 27 4zM312 -12q-6 -6 -14 -11l-52 27q10 3 19 9zM347 45l-6 -16l-44 24q4 10 5 16zM334 14l-10 -14l-44 24q6 6 10 13zM354 79l-3 -17l-44 23q4 13 5 17zM315 157v19l40 -21v-19zM355 99v-1l-41 22q1 6 1 18l40 -21
v-18zM315 195v2h33l7 -4v-19zM202 180v11h14l48 -26v-14h-8zM202 151v10l18 -10h-18zM264 191v-7l-12 7h12zM192 744h9l58 -31q-13 -5 -26 -5l-68 36h10h17zM289 735q-1 -3 -12 -13l-48 26q13 0 22 7zM301 766q-2 -12 -4 -17l-38 21q2 8 2 12h11zM195 709q-28 5 -43 23z" />
    <glyph glyph-name="gbreve" unicode="&#x11f;" 
d="M249 371v18h3l46 -25v-15h-7zM258 404v19l40 -21v-19zM258 444q0 3 -0.5 9t-0.5 9l36 -20q2 -7 4 -21l-39 21v2zM261 498q15 -15 23 -31l-31 16l-9 24zM149 518h3l43 -23q4 -5 9 -19l-12 2l-62 33l17 7h2zM102 488q1 1 3.5 4t4.5 5t4 3l50 -27q-11 -3 -17 -10zM89 470
l2 4l46 -24q-3 -5 -7 -15l-44 23zM126 404v-5l-40 21v19l40 -21v-14zM86 154v19l40 -21v-19zM86 268v19l40 -21v-19zM86 306v19l40 -21v-19zM86 382v19l40 -21v-19zM86 116v19l40 -21v-19zM86 192v19l40 -21v-19zM86 344v19l40 -21v-19zM86 230v19l40 -21v-19zM94 74
q-3 7 -7 23l39 -21v-1q0 -13 1 -19zM88 9q19 -11 47 -14l72 -38q-14 -2 -21 -2q-8 0 -12 1l-79 42q-3 3 -7 11zM249 -27q-3 -3 -18 -10l-63 34q11 1 24 6zM274 -3q-3 -5 -11 -13l-48 25q8 4 15 11zM289 27q-5 -14 -6 -16l-43 23q5 8 6 16zM296 61q0 -6 -2 -18l-44 24l4 16z
M257 139v17h4l36 -19v-20zM256 101q1 5 1 14v5l40 -22v-18zM175 145v6h24l10 -5v-19zM175 126l28 -15h-28v15zM157 617h9l58 -31q-13 -5 -26 -5l-68 36h10h17zM254 608q-1 -3 -12 -13l-48 26q13 0 22 7zM266 639q-2 -12 -4 -17l-38 21q2 8 2 12h11zM160 582q-28 5 -43 23z
" />
    <glyph glyph-name="Gdotaccent" unicode="&#x120;" horiz-adv-x="353" 
d="M356 452h-23l-27 14v19l50 -27v-6zM316 499v19l40 -22v-19zM316 556l39 -21q0 -3 0.5 -9.5t0.5 -9.5v-1l-40 22v19zM345 578q2 -5 7 -22l-37 19q0 9 -4 21zM293 644q25 -15 40 -40l-28 14q-5 15 -12 26zM181 656q12 0 24 -3l32 -17q11 -11 19 -27l-12 4l-76 40l5 2
q3 1 8 1zM135 633q7 7 15 11l55 -29q-16 -5 -21 -8zM111 608q3 5 11 13l46 -25q-5 -3 -11 -12zM98 577q2 10 4 17l46 -25l-6 -16zM97 540v15v4l41 -22q-1 -6 -1 -19zM97 388v19l40 -22v-19zM97 350v19l40 -22v-19zM97 502v19l40 -22v-19zM97 236v19l40 -22v-19zM97 160v19
l40 -22v-19zM97 426v19l40 -22v-19zM97 312v19l40 -22v-19zM97 274v19l40 -22v-19zM97 464v19l40 -22v-19zM97 198v19l40 -22v-19zM98 121q-1 6 -1 19v1l40 -22v-19zM113 75q-8 12 -11 25l35 -19q2 -14 4 -21zM105 14q21 -13 50 -18l78 -41q-2 0 -6 -0.5t-5 -0.5
q-10 0 -28 2l-77 41zM281 -33q-11 -5 -21 -8l-67 36q11 0 27 4zM312 -12q-6 -6 -14 -11l-52 27q10 3 19 9zM347 45l-6 -16l-44 24q4 10 5 16zM334 14l-10 -14l-44 24q6 6 10 13zM354 79l-3 -17l-44 23q4 13 5 17zM315 157v19l40 -21v-19zM355 99v-1l-41 22q1 6 1 18l40 -21
v-18zM315 195v2h33l7 -4v-19zM202 180v11h14l48 -26v-14h-8zM202 151v10l18 -10h-18zM264 191v-7l-12 7h12zM202 742h7v15l32 -17v-19zM209 776v6h25l7 -4v-19zM193 728l39 -21h-36l-3 2v19z" />
    <glyph glyph-name="gdotaccent" unicode="&#x121;" 
d="M249 371v18h3l46 -25v-15h-7zM258 404v19l40 -21v-19zM258 444q0 3 -0.5 9t-0.5 9l36 -20q2 -7 4 -21l-39 21v2zM261 498q15 -15 23 -31l-31 16l-9 24zM149 518h3l43 -23q4 -5 9 -19l-12 2l-62 33l17 7h2zM102 488q1 1 3.5 4t4.5 5t4 3l50 -27q-11 -3 -17 -10zM89 470
l2 4l46 -24q-3 -5 -7 -15l-44 23zM126 404v-5l-40 21v19l40 -21v-14zM86 154v19l40 -21v-19zM86 268v19l40 -21v-19zM86 306v19l40 -21v-19zM86 382v19l40 -21v-19zM86 116v19l40 -21v-19zM86 192v19l40 -21v-19zM86 344v19l40 -21v-19zM86 230v19l40 -21v-19zM94 74
q-3 7 -7 23l39 -21v-1q0 -13 1 -19zM88 9q19 -11 47 -14l72 -38q-14 -2 -21 -2q-8 0 -12 1l-79 42q-3 3 -7 11zM249 -27q-3 -3 -18 -10l-63 34q11 1 24 6zM274 -3q-3 -5 -11 -13l-48 25q8 4 15 11zM289 27q-5 -14 -6 -16l-43 23q5 8 6 16zM296 61q0 -6 -2 -18l-44 24l4 16z
M257 139v17h4l36 -19v-20zM256 101q1 5 1 14v5l40 -22v-18zM175 145v6h24l10 -5v-19zM175 126l28 -15h-28v15zM165 616h7v15l32 -17v-19zM172 650v6h25l7 -4v-19zM156 602l39 -21h-36l-3 2v19z" />
    <glyph glyph-name="uni0122" unicode="&#x122;" horiz-adv-x="353" 
d="M356 452h-23l-27 14v19l50 -27v-6zM316 499v19l40 -22v-19zM316 556l39 -21q0 -3 0.5 -9.5t0.5 -9.5v-1l-40 22v19zM345 578q2 -5 7 -22l-37 19q0 9 -4 21zM293 644q25 -15 40 -40l-28 14q-5 15 -12 26zM181 656q12 0 24 -3l32 -17q11 -11 19 -27l-12 4l-76 40l5 2
q3 1 8 1zM135 633q7 7 15 11l55 -29q-16 -5 -21 -8zM111 608q3 5 11 13l46 -25q-5 -3 -11 -12zM98 577q2 10 4 17l46 -25l-6 -16zM97 540v15v4l41 -22q-1 -6 -1 -19zM97 388v19l40 -22v-19zM97 350v19l40 -22v-19zM97 502v19l40 -22v-19zM97 236v19l40 -22v-19zM97 160v19
l40 -22v-19zM97 426v19l40 -22v-19zM97 312v19l40 -22v-19zM97 274v19l40 -22v-19zM97 464v19l40 -22v-19zM97 198v19l40 -22v-19zM98 121q-1 6 -1 19v1l40 -22v-19zM113 75q-8 12 -11 25l35 -19q2 -14 4 -21zM105 14q21 -13 50 -18l78 -41q-2 0 -6 -0.5t-5 -0.5
q-10 0 -28 2l-77 41zM281 -33q-11 -5 -21 -8l-67 36q11 0 27 4zM312 -12q-6 -6 -14 -11l-52 27q10 3 19 9zM347 45l-6 -16l-44 24q4 10 5 16zM334 14l-10 -14l-44 24q6 6 10 13zM354 79l-3 -17l-44 23q4 13 5 17zM315 157v19l40 -21v-19zM355 99v-1l-41 22q1 6 1 18l40 -21
v-18zM315 195v2h33l7 -4v-19zM202 180v11h14l48 -26v-14h-8zM202 151v10l18 -10h-18zM264 191v-7l-12 7h12zM207 -148l3 15l45 -20l-3 -15zM204 -167v4l45 -20l-4 -15l-41 19v12zM213 -118l1 3v12l42 -18v-16zM214 -86v7h19l23 -10v-16zM204 -195l35 -16h-35v16z" />
    <glyph glyph-name="uni0123" unicode="&#x123;" 
d="M167 619h4v13l40 -22v-18l-44 23v4zM171 651v13l1 5l39 -21v-19zM177 703h3l31 -17v-19l-37 20zM167 596l21 -11h-21v11zM252 382v18h3l46 -25v-15h-7zM261 415v19l40 -21v-19zM261 455q0 3 -0.5 9t-0.5 9l36 -20q2 -7 4 -21l-39 21v2zM264 509q15 -15 23 -31l-31 16
l-9 24zM152 529h3l43 -23q4 -5 9 -19l-12 2l-62 33l17 7h2zM105 499l12 12l50 -27q-11 -4 -17 -10zM92 481l2 4l46 -24q-3 -5 -7 -15l-44 23zM129 415v-5l-40 21v19l40 -21v-14zM89 165v19l40 -21v-19zM89 279v19l40 -21v-19zM89 317v19l40 -21v-19zM89 393v19l40 -21v-19z
M89 127v19l40 -21v-19zM89 203v19l40 -21v-19zM89 355v19l40 -21v-19zM89 241v19l40 -21v-19zM97 85q-3 7 -7 23l39 -21v-1q0 -13 1 -19zM91 20q19 -11 47 -14l72 -38q-14 -2 -21 -2q-8 0 -12 1l-79 42q-3 3 -7 11zM252 -16q-3 -3 -18 -10l-63 34q11 1 24 6zM277 8
q-3 -5 -11 -13l-48 25q8 4 15 11zM292 38q-4 -14 -6 -16l-43 23q5 8 6 16zM299 72q0 -6 -2 -18l-44 24l4 16zM260 150v17h4l36 -19v-20zM259 112q1 5 1 14v5l40 -22v-18zM178 156v6h24l10 -5v-19zM178 137l28 -15h-28v15z" />
    <glyph glyph-name="Hcircumflex" unicode="&#x124;" horiz-adv-x="384" 
d="M326 531v19l40 -21v-19zM326 379v19l40 -21v-19zM326 607v19l40 -21v-19zM326 265v19l40 -21v-19zM326 303v19l40 -21v-19zM326 227v19l40 -21v-19zM326 189v19l40 -21v-19zM326 151v19l40 -21v-19zM326 569v19l40 -21v-19zM326 75v19l40 -21v-19zM326 417v19l40 -21v-19
zM326 341v19l40 -21v-19zM326 37v19l40 -21v-19zM326 493v19l40 -21v-19zM326 113v19l40 -21v-19zM326 455v19l40 -21v-19zM325 0h1v18l40 -21v-18zM326 645v15h8l32 -17v-19zM329 -40l-14 8v19l49 -27h-35zM107 382v19l40 -21v-19zM107 420v19l40 -21v-19zM107 496v19
l40 -21v-19zM107 534v19l40 -21v-19zM107 610v19l40 -21v-19zM107 268v19l40 -21v-19zM107 306v19l40 -21v-19zM107 572v19l40 -21v-19zM107 458v19l40 -21v-19zM107 344v19l40 -21v-19zM107 648v12h14l26 -14v-19zM147 226h-32l-8 4v19l40 -21v-2zM132 179h36l75 -40h-36z
M203 179h36l36 -19v-19zM147 139v-6l-40 21v19l64 -34h-24zM107 2v19l40 -21v-19zM107 78v19l40 -21v-19zM107 40v19l40 -21v-19zM107 116v19l40 -21v-19zM147 -40h-32l-21 12v19l53 -29v-2zM292 735l27 -28h-10l-63 34h36zM175 741l12 13l36 -20l-13 -12zM193 707h-25
l-17 9l12 12l34 -18zM198 766l5 5l18 -17z" />
    <glyph glyph-name="hcircumflex" unicode="&#x125;" horiz-adv-x="313" 
d="M254 0h12v1l40 -21v-19l-52 28v11zM266 96v19l40 -21v-19zM266 58v19l40 -21v-19zM266 20v19l40 -21v-19zM266 134v19l40 -21v-19zM266 286v19l40 -21v-19zM266 362v19l40 -21v-19zM266 248v19l40 -21v-19zM266 438v19l40 -21v-19zM266 172v19l40 -21v-19zM266 210v19
l40 -21v-19zM266 476v19l40 -21v-19zM266 324v19l40 -21v-19zM266 400v19l40 -21v-19zM266 514v5h27l13 -7v-19zM254 -30l18 -10h-18v10zM94 302v19l40 -21v-19zM94 340v19l40 -21v-19zM94 416v19l40 -21v-19zM94 454v19l40 -21v-19zM94 226v19l40 -21v-19zM94 378v19
l40 -21v-19zM94 264v19l40 -21v-19zM94 492v19l40 -21v-19zM94 207l36 -19h-35h-1v19zM134 519v-10l-19 10h19zM214 100h-26l-75 40h36l65 -35v-5zM134 100v-9l-40 21v19l59 -31h-19zM91 0h3v17l40 -21v-19zM94 74v19l40 -21v-19zM94 36v19l40 -21v-19zM94 -40l-13 7v20
l49 -27h-36zM214 140v-16l-30 16h30zM257 608l27 -28h-10l-63 34h36zM140 614l12 13l36 -20l-13 -12zM158 580h-25l-17 9l12 12l34 -18zM163 639l5 5l18 -17z" />
    <glyph glyph-name="Hbar" unicode="&#x126;" horiz-adv-x="384" 
d="M326 606v19l40 -21v-19zM326 644v16h6l34 -18v-19zM326 587l36 -19h-35h-1v19zM107 609v19l40 -21v-19zM107 647v13h12l28 -15v-19zM147 568h-34l-6 3v19l40 -21v-1zM107 533v2h32l8 -4v-3h5l62 -33h-35zM275 495h-26l-61 33h35l52 -28v-5zM107 305v19l40 -21v-19z
M107 343v19l40 -21v-19zM107 419v19l40 -21v-19zM107 457v19l40 -21v-19zM107 495v19l40 -21v-19zM107 267v19l40 -21v-19zM107 381v19l40 -21v-19zM147 226h-34l-6 3v19l40 -21v-1zM275 528v-9l-16 9h16zM409 495h-17l-66 35v5h27l13 -7l43 -23v-10zM326 0v17l40 -21v-19
l-43 23h3zM326 150v19l40 -21v-19zM326 74v19l40 -21v-19zM326 36v19l40 -21v-19zM326 492v19l40 -21v-19zM326 454v19l40 -21v-19zM326 416v19l40 -21v-19zM326 378v19l40 -21v-19zM326 112v19l40 -21v-19zM326 188v19l40 -21v-19zM326 264v19l40 -21v-19zM326 302v19
l40 -21v-19zM326 340v19l40 -21v-19zM326 226v19l40 -21v-19zM315 -15l47 -25h-36l-11 6v19zM409 528v-4l-8 4h8zM130 179h36l74 -40h-35zM201 179h36l38 -21v-19zM147 139v-7l-40 21v19l62 -33h-22zM107 1v19l40 -21v-19zM107 115v19l40 -21v-19zM107 39v19l40 -21v-19z
M107 77v19l40 -21v-19zM147 -40h-34l-19 11v19l53 -29v-1z" />
    <glyph glyph-name="hbar" unicode="&#x127;" horiz-adv-x="313" 
d="M94 502v17h4l36 -19v-19zM94 469v14l27 -14h-27zM94 426v10h17l75 -40h-35zM94 236v19l40 -21v-19zM94 274v19l40 -21v-19zM94 388v19l40 -21v-19zM94 312v19l40 -21v-19zM94 350v19l40 -21v-19zM160 429h35l19 -10v-19zM134 188h-21l-19 10v19l40 -21v-8zM306 396v-7
l-40 21v19l62 -33h-22zM254 0h12v11l40 -21v-19l-52 28v1zM306 465l-40 21v19l40 -21v-19zM266 106v19l40 -21v-19zM266 220v19l40 -21v-19zM266 258v19l40 -21v-19zM266 334v19l40 -21v-19zM266 30v19l40 -21v-19zM266 372v19l40 -21v-19zM266 144v19l40 -21v-19zM266 68
v19l40 -21v-19zM266 296v19l40 -21v-19zM266 182v19l40 -21v-19zM289 436h11v13l6 -3v-17h31l3 -2v-19zM254 -20l37 -20h-35l-2 1v19zM306 519v-16l-30 16h30zM214 100h-7l-75 40h35l47 -25v-15zM94 122v18h2l75 -40h-35zM134 -40h-21l-32 18v19l53 -29v-8zM94 8v19l40 -21
v-19zM94 46v19l40 -21v-19zM94 84v19l40 -21v-19zM214 140v-6l-11 6h11z" />
    <glyph glyph-name="Itilde" unicode="&#x128;" horiz-adv-x="158" 
d="M106 535v19l40 -22v-19zM106 383v19l40 -22v-19zM106 345v19l40 -22v-19zM106 611v19l40 -22v-19zM106 269v19l40 -22v-19zM106 231v19l40 -22v-19zM106 193v19l40 -22v-19zM106 155v19l40 -22v-19zM106 573v19l40 -22v-19zM106 79v19l40 -22v-19zM106 421v19l40 -22v-19
zM106 307v19l40 -22v-19zM106 3v19l40 -22v-18zM106 497v19l40 -22v-19zM106 117v19l40 -22v-19zM106 41v19l40 -22v-19zM106 459v19l40 -22v-19zM146 -40h-31l-22 12v19l53 -28v-3zM106 649v11h15l25 -14v-19zM143 709q-9 0 -13 1l-82 44q1 1 4 2.5t4 2.5q8 -1 20 -8
q15 -12 33 -10l53 -29q-9 -3 -19 -3zM187 730q-1 -1 -2.5 -3t-3 -3t-2.5 -2l-46 25q4 2 6 4q3 -1 8 -1q8 0 13 1l27 -14v-7zM67 725q-11 -3 -17 -10l-7 4v19zM187 769v-13l-9 5z" />
    <glyph glyph-name="itilde" unicode="&#x129;" horiz-adv-x="132" 
d="M91 0h1v18l40 -21v-19zM92 303v19l40 -21v-19zM92 75v19l40 -21v-19zM92 37v19l40 -21v-19zM92 493v19l40 -21v-19zM92 455v19l40 -21v-19zM92 379v19l40 -21v-19zM92 417v19l40 -21v-19zM92 113v19l40 -21v-19zM92 189v19l40 -21v-19zM92 227v19l40 -21v-19zM92 265v19
l40 -21v-19zM92 341v19l40 -21v-19zM92 151v19l40 -21v-19zM80 -13l50 -27h-35l-15 8v19zM132 519v-9l-17 9h17zM119 605q-8 0 -11 1l-70 40q1 1 3 2.5t3 2.5q8 -1 18 -8q12 -11 28 -9l45 -26q-7 -3 -16 -3zM157 624l-7 -7l-40 23l6 3q2 -1 6 -1q7 0 12 1l23 -12v-7zM54 620
q-8 -3 -15 -9l-6 3v18zM157 660v-12l-8 5z" />
    <glyph glyph-name="Imacron" unicode="&#x12a;" horiz-adv-x="158" 
d="M106 535v19l40 -22v-19zM106 383v19l40 -22v-19zM106 345v19l40 -22v-19zM106 611v19l40 -22v-19zM106 269v19l40 -22v-19zM106 231v19l40 -22v-19zM106 193v19l40 -22v-19zM106 155v19l40 -22v-19zM106 573v19l40 -22v-19zM106 79v19l40 -22v-19zM106 421v19l40 -22v-19
zM106 307v19l40 -22v-19zM106 3v19l40 -22v-18zM106 497v19l40 -22v-19zM106 117v19l40 -22v-19zM106 41v19l40 -22v-19zM106 459v19l40 -22v-19zM146 -40h-31l-22 12v19l53 -28v-3zM106 649v11h15l25 -14v-19zM44 743h24l61 -33h-35l-50 27v6zM180 710h-15l-62 33h36
l41 -22v-11zM180 750v-10l-19 10h19zM44 718l14 -8h-14v8z" />
    <glyph glyph-name="imacron" unicode="&#x12b;" horiz-adv-x="132" 
d="M91 0h1v18l40 -21v-19zM92 303v19l40 -21v-19zM92 75v19l40 -21v-19zM92 37v19l40 -21v-19zM92 493v19l40 -21v-19zM92 455v19l40 -21v-19zM92 379v19l40 -21v-19zM92 417v19l40 -21v-19zM92 113v19l40 -21v-19zM92 189v19l40 -21v-19zM92 227v19l40 -21v-19zM92 265v19
l40 -21v-19zM92 341v19l40 -21v-19zM92 151v19l40 -21v-19zM80 -13l50 -27h-35l-15 8v19zM132 519v-9l-17 9h17zM33 643h22l56 -30h-32l-46 25v5zM158 613h-14l-57 30h33l38 -20v-10zM158 649v-9l-17 9h17zM33 620l13 -7h-13v7z" />
    <glyph glyph-name="Ibreve" unicode="&#x12c;" horiz-adv-x="158" 
d="M106 535v19l40 -22v-19zM106 383v19l40 -22v-19zM106 345v19l40 -22v-19zM106 611v19l40 -22v-19zM106 269v19l40 -22v-19zM106 231v19l40 -22v-19zM106 193v19l40 -22v-19zM106 155v19l40 -22v-19zM106 573v19l40 -22v-19zM106 79v19l40 -22v-19zM106 421v19l40 -22v-19
zM106 307v19l40 -22v-19zM106 3v19l40 -22v-18zM106 497v19l40 -22v-19zM106 117v19l40 -22v-19zM106 41v19l40 -22v-19zM106 459v19l40 -22v-19zM146 -40h-31l-22 12v19l53 -28v-3zM106 649v11h15l25 -14v-19zM89 742h9l58 -31q-13 -5 -26 -5l-68 36h10h17zM186 733
q-2 -3 -12 -13l-48 26q13 0 22 7zM198 764q-2 -12 -4 -17l-38 21q2 8 2 12h11zM92 707q-28 5 -43 23z" />
    <glyph glyph-name="ibreve" unicode="&#x12d;" horiz-adv-x="132" 
d="M109 626h2l47 -25q-6 -5 -18 -10l-64 35q6 0 16 2q4 -2 16 -2h1zM107 586q-50 0 -68 40l76 -40h-8zM177 629q-3 -10 -7 -15l-38 20q6 6 8 14zM182 660q0 -3 -0.5 -7.5t-0.5 -6.5l-27 14h28zM92 11h1v18l40 -21v-19zM93 314v19l40 -21v-19zM93 86v19l40 -21v-19zM93 48v19
l40 -21v-19zM93 504v19l40 -21v-19zM93 466v19l40 -21v-19zM93 390v19l40 -21v-19zM93 428v19l40 -21v-19zM93 124v19l40 -21v-19zM93 200v19l40 -21v-19zM93 238v19l40 -21v-19zM93 276v19l40 -21v-19zM93 352v19l40 -21v-19zM93 162v19l40 -21v-19zM81 -2l50 -27h-35
l-15 8v19zM133 530v-9l-17 9h17z" />
    <glyph glyph-name="Iogonek" unicode="&#x12e;" horiz-adv-x="158" 
d="M74 -123q4 -1 13 -1h6l64 -34q-11 -5 -25 -6l-55 30q-3 9 -3 11zM135 -128q12 2 19 9l17 -9l8 -9l-8 -10zM140 -40l-6 -11l-41 22v12l2 6l51 -27v-2h-6zM106 420v19l40 -22v-19zM106 572v19l40 -22v-19zM106 344v19l40 -22v-19zM106 610v19l40 -22v-19zM106 230v19
l40 -22v-19zM106 268v19l40 -22v-19zM106 192v19l40 -22v-19zM106 154v19l40 -22v-19zM106 116v19l40 -22v-19zM106 78v19l40 -22v-19zM106 40v19l40 -22v-19zM106 382v19l40 -22v-19zM106 306v19l40 -22v-19zM106 2v19l40 -21v-19zM106 534v19l40 -22v-19zM106 496v19
l40 -22v-19zM106 458v19l40 -22v-19zM106 648v12h13l27 -15v-19zM124 -79l-5 6l-4 -5l-26 13l7 16l32 -18zM91 -88q-4 0 -10 3l2 5l13 -7q-2 -1 -5 -1z" />
    <glyph glyph-name="iogonek" unicode="&#x12f;" horiz-adv-x="140" 
d="M84 -24v15l1 3l51 -27v-7h-8l-3 -6zM96 159v19l40 -21v-19zM96 121v19l40 -21v-19zM96 197v19l40 -21v-19zM96 45v19l40 -21v-19zM96 349v19l40 -21v-19zM96 83v19l40 -21v-19zM96 463v19l40 -21v-19zM96 425v19l40 -21v-19zM96 235v19l40 -21v-19zM96 273v19l40 -21v-19
zM96 387v19l40 -21v-19zM96 7v19l40 -21v-19zM96 311v19l40 -21v-19zM96 501v18h2l38 -20v-19zM107 -73q0 -1 -1 -1l-27 14l7 16l32 -18l-6 -15l-3 1zM79 -88q-4 0 -10 3l4 10l19 -10q-7 -3 -13 -3zM136 519v-1l-2 1h2zM75 -124q11 0 15 1l60 -32q-9 -5 -21 -8l-67 36v4
q4 -1 13 -1zM132 -126q8 3 14 12l4 -2l17 -21l-4 -5z" />
    <glyph glyph-name="Idotaccent" unicode="&#x130;" horiz-adv-x="158" 
d="M106 535v19l40 -22v-19zM106 383v19l40 -22v-19zM106 345v19l40 -22v-19zM106 611v19l40 -22v-19zM106 269v19l40 -22v-19zM106 231v19l40 -22v-19zM106 193v19l40 -22v-19zM106 155v19l40 -22v-19zM106 573v19l40 -22v-19zM106 79v19l40 -22v-19zM106 421v19l40 -22v-19
zM106 307v19l40 -22v-19zM106 3v19l40 -22v-18zM106 497v19l40 -22v-19zM106 117v19l40 -22v-19zM106 41v19l40 -22v-19zM106 459v19l40 -22v-19zM146 -40h-31l-22 12v19l53 -28v-3zM106 649v11h15l25 -14v-19zM97 740h7v15l32 -17v-19zM104 774v6h25l7 -4v-19zM88 726
l39 -21h-36l-3 2v19z" />
    <glyph glyph-name="dotlessi" unicode="&#x131;" horiz-adv-x="132" 
d="M133 -40h-20l-33 18v19l53 -28v-9zM93 47v19l40 -22v-19zM93 9v19l40 -22v-18zM93 237v19l40 -22v-19zM93 275v19l40 -22v-19zM93 351v19l40 -22v-19zM93 389v19l40 -22v-19zM93 465v19l40 -22v-19zM93 427v19l40 -22v-19zM93 161v19l40 -22v-19zM93 199v19l40 -22v-19z
M93 313v19l40 -22v-19zM93 85v19l40 -22v-19zM93 123v19l40 -22v-19zM93 503v16h5l35 -19v-19z" />
    <glyph glyph-name="IJ" unicode="&#x132;" horiz-adv-x="508" 
d="M106 535v19l40 -22v-19zM106 383v19l40 -22v-19zM106 345v19l40 -22v-19zM106 611v19l40 -22v-19zM106 269v19l40 -22v-19zM106 231v19l40 -22v-19zM106 193v19l40 -22v-19zM106 155v19l40 -22v-19zM106 573v19l40 -22v-19zM106 79v19l40 -22v-19zM106 421v19l40 -22v-19
zM106 307v19l40 -22v-19zM106 3v19l40 -22v-18zM106 497v19l40 -22v-19zM106 117v19l40 -22v-19zM106 41v19l40 -22v-19zM106 459v19l40 -22v-19zM146 -40h-31l-22 12v19l53 -28v-3zM106 649v11h15l25 -14v-19zM362 -47h-6l-92 49q22 -7 52 -9l71 -38q-16 -2 -25 -2z
M431 -30q-4 -2 -19 -9l-64 34q7 1 21 5h4zM460 -7q-2 -2 -4 -4.5t-5 -5t-4 -3.5l-51 27q9 5 16 10zM490 52l-5 -16l-47 25l6 15zM478 20q-3 -7 -8 -14l-46 24q7 11 8 15zM495 88l-2 -18l-44 23q2 5 4 17zM455 356v19l40 -22v-19zM455 318v19l40 -22v-19zM455 280v19l40 -22
v-19zM455 242v19l40 -22v-19zM455 432v19l40 -22v-19zM455 584v19l40 -22v-19zM455 546v19l40 -22v-19zM455 622v19l40 -22v-19zM455 128v12v7l40 -22v-19zM455 394v19l40 -22v-19zM455 470v19l40 -22v-19zM455 204v19l40 -22v-19zM455 508v19l40 -22v-19zM455 166v19
l40 -22v-19zM455 660h35l5 -3v-19zM235 131v9v10l40 -21v-19zM275 91q0 -8 2 -20l-34 18l-6 22zM275 156v-8l-15 8h15z" />
    <glyph glyph-name="ij" unicode="&#x133;" horiz-adv-x="429" 
d="M91 0h1v18l40 -21v-19zM92 303v19l40 -21v-19zM92 75v19l40 -21v-19zM92 37v19l40 -21v-19zM92 493v19l40 -21v-19zM92 455v19l40 -21v-19zM92 379v19l40 -21v-19zM92 417v19l40 -21v-19zM92 113v19l40 -21v-19zM92 189v19l40 -21v-19zM92 227v19l40 -21v-19zM92 265v19
l40 -21v-19zM92 341v19l40 -21v-19zM92 151v19l40 -21v-19zM80 -13l50 -27h-35l-15 8v19zM132 519v-9l-17 9h17zM339 -42q-18 -4 -28 -4l-100 53q-1 1 -1 2q27 -15 58 -15h3zM376 -24q-7 -5 -16 -10l-60 32q8 2 12 4q4 0 12 2zM412 33q-1 -8 -6 -16l-46 24l2 7l4 9zM399 2
q-2 -3 -6 -7.5t-4 -5.5l-47 24q8 8 11 13zM418 68l-2 -19l-44 24q2 5 4 17zM378 336v19l40 -22v-19zM378 298v19l40 -22v-19zM378 450v19l40 -22v-19zM378 412v19l40 -22v-19zM378 374v19l40 -22v-19zM378 108v7v12l40 -22v-19zM378 260v19l40 -22v-19zM378 222v19l40 -22
v-19zM378 184v19l40 -22v-19zM378 488v19l40 -22v-19zM378 146v19l40 -22v-19zM418 519v-14l-27 14h27zM246 75v-10l-35 18q-4 14 -5 22l40 -21v-9zM208 123h35l3 -2v-19z" />
    <glyph glyph-name="Jcircumflex" unicode="&#x134;" horiz-adv-x="349" 
d="M206 -47h-6l-92 49q22 -7 52 -9l71 -38q-16 -2 -25 -2zM275 -30q-4 -2 -19 -9l-64 34q7 1 21 5h4zM304 -7q-2 -2 -4 -4.5t-5 -5t-4 -3.5l-51 27q9 5 16 10zM334 52l-5 -16l-47 25l6 15zM322 20q-3 -7 -8 -14l-46 24q7 11 8 15zM339 88l-2 -18l-44 23q2 5 4 17zM299 356
v19l40 -22v-19zM299 318v19l40 -22v-19zM299 280v19l40 -22v-19zM299 242v19l40 -22v-19zM299 432v19l40 -22v-19zM299 584v19l40 -22v-19zM299 546v19l40 -22v-19zM299 622v19l40 -22v-19zM299 128v12v7l40 -22v-19zM299 394v19l40 -22v-19zM299 470v19l40 -22v-19z
M299 204v19l40 -22v-19zM299 508v19l40 -22v-19zM299 166v19l40 -22v-19zM299 660h35l5 -3v-19zM79 131v9v10l40 -21v-19zM119 91q0 -8 2 -20l-34 18l-6 22zM119 156v-8l-15 8h15zM366 735l27 -28h-10l-63 34h36zM249 741l12 13l36 -20l-13 -12zM267 707h-25l-17 9l12 12
l34 -18zM272 766l5 5l18 -17z" />
    <glyph glyph-name="jcircumflex" unicode="&#x135;" horiz-adv-x="285" 
d="M205 -42q-18 -4 -28 -4l-100 53q-1 1 -1 2q27 -15 58 -15h3zM242 -24q-7 -5 -16 -10l-60 32q8 2 12 4q4 0 12 2zM278 33q-1 -8 -6 -16l-46 24l2 7l4 9zM265 2q-2 -3 -6 -7.5t-4 -5.5l-47 24q8 8 11 13zM284 68l-2 -19l-44 24q2 5 4 17zM244 336v19l40 -22v-19zM244 298
v19l40 -22v-19zM244 450v19l40 -22v-19zM244 412v19l40 -22v-19zM244 374v19l40 -22v-19zM244 108v7v12l40 -22v-19zM244 260v19l40 -22v-19zM244 222v19l40 -22v-19zM244 184v19l40 -22v-19zM244 488v19l40 -22v-19zM244 146v19l40 -22v-19zM284 519v-14l-27 14h27zM112 75
v-10l-35 18q-4 14 -5 22l40 -21v-9zM74 123h35l3 -2v-19zM305 604l25 -29h-9l-60 35h34zM195 610l11 14l34 -21l-12 -12zM211 575h-23l-16 10l11 12l32 -19zM216 636l5 5l17 -17z" />
    <glyph glyph-name="uni0136" unicode="&#x136;" horiz-adv-x="357" 
d="M283 554l7 16l46 -25l-7 -15zM256 493l6 15l46 -24l-7 -16zM309 616l7 16l46 -25l-6 -15zM296 585l7 16l46 -25l-7 -15zM323 647l6 13h5l42 -22l-7 -16zM203 369l7 15l45 -24l-7 -15zM229 431l7 15l45 -24l-6 -15zM243 462l6 15l46 -24l-7 -15zM190 338q0 2 2 6l4 10
l45 -24l-6 -16zM216 400l7 15l45 -24l-7 -15zM269 524l7 15l46 -25l-7 -15zM164 276l7 15l43 -23l-7 -16zM177 307l6 15l45 -23l-7 -16zM155 253l2 7l44 -23l-7 -15l-27 14q-3 3 -6.5 9t-5.5 8zM323 -37l-26 33l67 -36h-35zM352 0l-6 8l14 -8l25 -32l-60 32h27zM218 171
q-17 20 -26 33l16 -9l25 -32zM269 106l-26 33l15 -8q8 -11 26 -33zM320 40l-25 33l14 -8l25 -32zM105 155v13l2 5l48 -25l-8 -15zM145 -40h-30l-23 13v19l53 -29v-3zM105 79v19l40 -21v-19zM105 117v19l40 -21v-19zM105 41v19l40 -21v-19zM105 3v19l40 -21v-19zM115 188
l8 15l2 -1l26 -34zM105 535v19l40 -21v-19zM105 459v19l40 -21v-19zM105 497v19l40 -21v-19zM105 611v19l40 -21v-19zM105 421v19l40 -21v-19zM105 573v19l40 -21v-19zM145 366l-2 -3l-38 20v19l40 -21v-15zM105 649v11h16l24 -13v-19zM105 345v19l32 -17l-6 -16zM105 307
v19l20 -10l-7 -16zM105 288l7 -3l-7 -16v19zM209 -139l3 15l45 -20l-3 -15zM206 -158v4l45 -20l-4 -15l-41 19v12zM215 -109l1 3v12l42 -18v-16zM216 -77v7h19l23 -10v-16zM206 -186l35 -16h-35v16z" />
    <glyph glyph-name="uni0137" unicode="&#x137;" horiz-adv-x="292" 
d="M331 -40h-23l-68 37l-3 3h31l55 -29zM253 483l7 15l44 -23l-7 -16zM226 421l7 16l44 -24l-7 -15zM240 452l6 16l45 -24l-7 -15zM200 359l6 16l44 -24l-6 -15zM213 390l7 16l44 -24l-7 -15zM174 297l6 16l43 -23l-7 -16zM187 328q3 8 4 10l2 6l44 -24l-7 -15zM148 235
q1 2 3.5 7.5t3.5 8.5l41 -22l-7 -16zM161 266l6 16l43 -23l-7 -15zM138 208l4 11l41 -21l-7 -16l-32 17zM267 514l2 5h24l25 -14l-7 -15zM190 137l-23 31l18 -9l23 -32zM213 105l18 -9l23 -31l-18 9zM259 43l18 -10l23 -31l-18 9zM133 103v-12l-40 22v19l43 -23zM91 0h2v18
l40 -21v-19zM93 37v19l40 -22v-19zM93 75v19l40 -22v-19zM94 -40l-14 8v19l50 -27h-36zM96 149l8 15l3 -2l21 -30zM133 334l-5 -12l-37 19l1 19l41 -21v-5zM93 417v19l40 -22v-19zM93 455v19l40 -22v-19zM93 493v19l40 -22v-19zM93 379v19l40 -22v-19zM90 304l1 19l31 -17
l-7 -15zM89 267v18l20 -10l-6 -16zM88 248l8 -4l-6 -16l-2 1v19zM133 519v-10l-18 10h18zM174 -135l2 15l39 -20l-3 -14zM171 -154v4l39 -20l-3 -14l-36 19v11zM179 -105l1 3v12l36 -18v-16zM180 -73v7h16l20 -10v-16zM171 -182l31 -16h-31v16z" />
    <glyph glyph-name="kgreenlandic" unicode="&#x138;" horiz-adv-x="292" 
d="M331 -40h-23l-68 37l-3 3h31l55 -29zM253 483l7 15l44 -23l-7 -16zM226 421l7 16l44 -24l-7 -15zM240 452l6 16l45 -24l-7 -15zM200 359l6 16l44 -24l-6 -15zM213 390l7 16l44 -24l-7 -15zM174 297l6 16l43 -23l-7 -16zM187 328q3 8 4 10l2 6l44 -24l-7 -15zM148 235
q1 2 3.5 7.5t3.5 8.5l41 -22l-7 -16zM161 266l6 16l43 -23l-7 -15zM138 208l4 11l41 -21l-7 -16l-32 17zM267 514l2 5h24l25 -14l-7 -15zM190 137l-23 31l18 -9l23 -32zM213 105l18 -9l23 -31l-18 9zM259 43l18 -10l23 -31l-18 9zM133 103v-12l-40 22v19l43 -23zM91 0h2v18
l40 -21v-19zM93 37v19l40 -22v-19zM93 75v19l40 -22v-19zM94 -40l-14 8v19l50 -27h-36zM96 149l8 15l3 -2l21 -30zM133 334l-5 -12l-37 19l1 19l41 -21v-5zM93 417v19l40 -22v-19zM93 455v19l40 -22v-19zM93 493v19l40 -22v-19zM93 379v19l40 -22v-19zM90 304l1 19l31 -17
l-7 -15zM89 267v18l20 -10l-6 -16zM88 248l8 -4l-6 -16l-2 1v19zM133 519v-10l-18 10h18z" />
    <glyph glyph-name="Lacute" unicode="&#x139;" 
d="M105 345v19l40 -21v-19zM105 307v19l40 -21v-19zM105 497v19l40 -21v-19zM105 231v19l40 -21v-19zM105 573v19l40 -21v-19zM105 155v19l40 -21v-19zM105 117v19l40 -21v-19zM105 79v19l40 -21v-19zM105 421v19l40 -21v-19zM105 269v19l40 -21v-19zM105 611v19l40 -21v-19
zM105 193v19l40 -21v-19zM105 459v19l40 -21v-19zM105 535v19l40 -21v-19zM105 383v19l40 -21v-19zM105 649v11h16l24 -13v-19zM105 47v13l25 -13h-25zM183 0h35l75 -40h-35zM112 0h35l75 -40h-35zM115 -40l-23 13v19l59 -32h-36zM258 0v7h18l22 -11v-19l-44 23h4zM93 740
l1 2h4l6 11l34 -18l-9 -14zM113 768l8 14l34 -18l-9 -14zM130 796l3 5h25l14 -8l-9 -14zM82 715l4 10l19 -10h-23z" />
    <glyph glyph-name="lacute" unicode="&#x13a;" horiz-adv-x="236" 
d="M92 75v19l40 -21v-19zM92 303v19l40 -21v-19zM92 227v19l40 -21v-19zM92 455v19l40 -21v-19zM92 379v19l40 -21v-19zM92 417v19l40 -21v-19zM92 113v19l40 -21v-19zM92 493v19l40 -21v-19zM92 151v19l40 -21v-19zM92 265v19l40 -21v-19zM92 341v19l40 -21v-19zM92 189v19
l40 -21v-19zM92 47v9l18 -9h-18zM132 519v-9l-17 9h17zM91 0h35l75 -40h-35zM252 -40h-15l-75 40h35l55 -29v-11zM94 -40l-14 8v19l50 -27h-36zM252 7v-17l-32 17h32zM80 605l1 2h4l6 11l34 -18l-9 -14zM100 633l8 14l34 -18l-9 -14zM117 661l3 5h25l14 -8l-9 -14zM69 580
l4 10l19 -10h-23z" />
    <glyph glyph-name="uni013B" unicode="&#x13b;" 
d="M105 345v19l40 -21v-19zM105 307v19l40 -21v-19zM105 497v19l40 -21v-19zM105 231v19l40 -21v-19zM105 573v19l40 -21v-19zM105 155v19l40 -21v-19zM105 117v19l40 -21v-19zM105 79v19l40 -21v-19zM105 421v19l40 -21v-19zM105 269v19l40 -21v-19zM105 611v19l40 -21v-19
zM105 193v19l40 -21v-19zM105 459v19l40 -21v-19zM105 535v19l40 -21v-19zM105 383v19l40 -21v-19zM105 649v11h16l24 -13v-19zM105 47v13l25 -13h-25zM183 0h35l75 -40h-35zM112 0h35l75 -40h-35zM115 -40l-23 13v19l59 -32h-36zM258 0v7h18l22 -11v-19l-44 23h4zM177 -141
l2 14l39 -19l-3 -15zM174 -160v4l39 -20l-3 -14l-36 18v12zM182 -112l1 3v12l36 -18v-15zM183 -81v8h16l20 -10v-16zM174 -187l31 -16h-31v16z" />
    <glyph glyph-name="uni013C" unicode="&#x13c;" horiz-adv-x="236" 
d="M92 75v19l40 -21v-19zM92 303v19l40 -21v-19zM92 227v19l40 -21v-19zM92 455v19l40 -21v-19zM92 379v19l40 -21v-19zM92 417v19l40 -21v-19zM92 113v19l40 -21v-19zM92 493v19l40 -21v-19zM92 151v19l40 -21v-19zM92 265v19l40 -21v-19zM92 341v19l40 -21v-19zM92 189v19
l40 -21v-19zM92 47v9l18 -9h-18zM132 519v-9l-17 9h17zM91 0h35l75 -40h-35zM252 -40h-15l-75 40h35l55 -29v-11zM94 -40l-14 8v19l50 -27h-36zM252 7v-17l-32 17h32zM139 -139l3 14l36 -19l-3 -14zM137 -157v3l36 -19l-3 -14l-33 18v12zM144 -110l1 3v12l34 -17v-16z
M145 -79v7h15l19 -10v-16zM137 -185l28 -16h-28v16z" />
    <glyph glyph-name="Lcaron" unicode="&#x13d;" 
d="M105 345v19l40 -21v-19zM105 307v19l40 -21v-19zM105 497v19l40 -21v-19zM105 231v19l40 -21v-19zM105 573v19l40 -21v-19zM105 155v19l40 -21v-19zM105 117v19l40 -21v-19zM105 79v19l40 -21v-19zM105 421v19l40 -21v-19zM105 269v19l40 -21v-19zM105 611v19l40 -21v-19
zM105 193v19l40 -21v-19zM105 459v19l40 -21v-19zM105 535v19l40 -21v-19zM105 383v19l40 -21v-19zM105 649v11h16l24 -13v-19zM105 47v13l25 -13h-25zM183 0h35l75 -40h-35zM112 0h35l75 -40h-35zM115 -40l-23 13v19l59 -32h-36zM258 0v7h18l22 -11v-19l-44 23h4zM145 710
h-30l-40 21l-8 9h28l52 -28zM123 744l13 12l35 -19l-12 -13zM149 768l13 12l33 -18l-12 -13zM215 783l-8 -8l-15 8h23z" />
    <glyph glyph-name="lcaron" unicode="&#x13e;" horiz-adv-x="236" 
d="M92 75v19l40 -21v-19zM92 303v19l40 -21v-19zM92 227v19l40 -21v-19zM92 455v19l40 -21v-19zM92 379v19l40 -21v-19zM92 417v19l40 -21v-19zM92 113v19l40 -21v-19zM92 493v19l40 -21v-19zM92 151v19l40 -21v-19zM92 265v19l40 -21v-19zM92 341v19l40 -21v-19zM92 189v19
l40 -21v-19zM92 47v9l18 -9h-18zM132 519v-9l-17 9h17zM91 0h35l75 -40h-35zM252 -40h-15l-75 40h35l55 -29v-11zM94 -40l-14 8v19l50 -27h-36zM252 7v-17l-32 17h32zM119 581h-26l-34 22l-7 9h24l45 -29zM100 616l11 13l30 -20l-10 -14zM122 641l11 12l29 -18l-11 -14z
M179 657l-7 -9l-13 9h20z" />
    <glyph glyph-name="Ldot" unicode="&#x13f;" 
d="M105 345v19l40 -21v-19zM105 307v19l40 -21v-19zM105 497v19l40 -21v-19zM105 231v19l40 -21v-19zM105 573v19l40 -21v-19zM105 155v19l40 -21v-19zM105 117v19l40 -21v-19zM105 79v19l40 -21v-19zM105 421v19l40 -21v-19zM105 269v19l40 -21v-19zM105 611v19l40 -21v-19
zM105 193v19l40 -21v-19zM105 459v19l40 -21v-19zM105 535v19l40 -21v-19zM105 383v19l40 -21v-19zM105 649v11h16l24 -13v-19zM105 47v13l25 -13h-25zM183 0h35l75 -40h-35zM112 0h35l75 -40h-35zM115 -40l-23 13v19l59 -32h-36zM258 0v7h18l22 -11v-19l-44 23h4zM204 183
h6v15l29 -17v-20zM210 217v7h23l6 -4v-20zM195 168l36 -21h-33l-3 2v19z" />
    <glyph glyph-name="ldot" unicode="&#x140;" horiz-adv-x="236" 
d="M92 75v19l40 -21v-19zM92 303v19l40 -21v-19zM92 227v19l40 -21v-19zM92 455v19l40 -21v-19zM92 379v19l40 -21v-19zM92 417v19l40 -21v-19zM92 113v19l40 -21v-19zM92 493v19l40 -21v-19zM92 151v19l40 -21v-19zM92 265v19l40 -21v-19zM92 341v19l40 -21v-19zM92 189v19
l40 -21v-19zM92 47v9l18 -9h-18zM132 519v-9l-17 9h17zM91 0h35l75 -40h-35zM252 -40h-15l-75 40h35l55 -29v-11zM94 -40l-14 8v19l50 -27h-36zM252 7v-17l-32 17h32zM174 172h6v15l27 -17v-20zM180 206v7h21l6 -4v-20zM166 157l34 -21h-31l-3 2v19z" />
    <glyph glyph-name="Lslash" unicode="&#x141;" 
d="M104 383v19l40 -22v-19zM104 459v19l40 -22v-19zM104 497v19l40 -22v-19zM104 573v19l40 -22v-19zM104 535v19l40 -22v-19zM104 611v19l40 -22v-19zM104 345v19l40 -22v-19zM104 421v19l40 -22v-19zM104 307v19l40 -22v-19zM104 649v11h15l25 -14v-19zM104 288l25 -14
l-19 -9l-6 4v19zM113 226l19 9l12 -7v-5l5 2l41 -21l-19 -9zM144 182v-11l-40 22v19l48 -26zM104 79v19l40 -22v-19zM104 155v19l40 -22v-19zM104 117v19l40 -22v-19zM216 216l-7 -3l-40 21l19 9l28 -15v-12zM104 47v13l24 -13h-24zM216 256v-9l-9 5zM180 0h36l75 -40h-36z
M109 0h36l75 -40h-36zM113 -40l-22 12v19l58 -31h-36zM258 0v7h16l24 -13v-18l-46 24h6z" />
    <glyph glyph-name="lslash" unicode="&#x142;" horiz-adv-x="236" 
d="M92 313v19l40 -21v-19zM92 427v19l40 -21v-19zM92 465v19l40 -21v-19zM92 389v19l40 -21v-19zM92 351v19l40 -21v-19zM92 503v16h6l34 -18v-19zM112 265l-20 10v19l38 -20zM92 217h1l58 -31l-18 -9l-41 22v18zM92 123v19l40 -21v-19zM92 161v19l40 -21v-19zM92 85v19
l40 -21v-19zM133 215l18 9l38 -20l-19 -9zM93 47h-1v19l36 -19h-35zM170 234l18 9l4 -2v-19zM112 226l19 9h1v-19zM109 0h36l75 -40h-36zM180 0h32v2l40 -21v-19zM113 -40l-33 18v19l69 -37h-36zM252 7v-7l-14 7h14z" />
    <glyph glyph-name="Nacute" unicode="&#x143;" horiz-adv-x="396" 
d="M378 -40h-27l-27 15l-8 23l62 -33v-5zM338 385v19l40 -22v-19zM338 347v19l40 -22v-19zM338 309v19l40 -22v-19zM338 537v19l40 -22v-19zM338 233v19l40 -22v-19zM338 195v19l40 -22v-19zM338 157v19l40 -22v-19zM338 575v19l40 -22v-19zM338 81v19l40 -22v-19zM338 423
v19l40 -22v-19zM338 5v19l40 -22v-18zM338 613v19l40 -22v-19zM338 499v19l40 -22v-19zM338 119v19l40 -22v-19zM338 43v19l40 -22v-19zM338 271v19l40 -22v-19zM338 461v19l40 -22v-19zM338 651v9h18l22 -12v-19zM151 560l-8 24l33 -18l8 -23zM167 514l-8 23l33 -17l8 -24z
M183 467l-8 24l33 -18l8 -23zM199 421l-8 23l33 -17l8 -24zM215 374l-8 24l32 -18l8 -23zM135 607l-8 23l33 -17l8 -23zM231 328l-8 23l32 -17l8 -23zM247 281l-8 24l32 -17l8 -24zM286 241l1 -1l1 -19l-27 15l-7 22zM119 653l-2 7h26l1 -1l8 -23zM274 191l-7 22l22 -11
l1 -20zM287 146l-7 22l11 -6l1 -19zM94 -17v17h4l49 -26v-14h-10zM147 381v-9l-40 22v19l39 -21zM107 90v19l40 -22v-19zM107 14v19l40 -22v-18zM107 52v19l40 -22v-19zM107 356v19l40 -22v-19zM107 204v19l40 -22v-19zM107 242v19l40 -22v-19zM107 280v19l40 -22v-19z
M107 128v19l40 -22v-19zM107 318v19l40 -22v-19zM107 166v19l40 -22v-19zM140 433l5 -16v-5l-39 20l-1 20zM104 471l-1 20l23 -12l7 -23zM102 511l-1 19l12 -6l6 -23zM99 569h1l6 -23l-6 4zM101 -40l-7 4v-4h7zM206 735l1 2h4l6 11l34 -18l-9 -14zM226 763l8 14l34 -18
l-9 -14zM243 791l3 5h25l14 -8l-9 -14zM199 720l-4 -10h23z" />
    </font>
</defs>
</svg>
