<?xml version="1.0" standalone="no"?>
<!DOCTYPE svg PUBLIC "-//W3C//DTD SVG 1.1//EN" "http://www.w3.org/Graphics/SVG/1.1/DTD/svg11.dtd" >
<svg xmlns="http://www.w3.org/2000/svg" xmlns:xlink="http://www.w3.org/1999/xlink" version="1.1">
<metadata>
Created by FontForge 20161013 at Mon Sep  9 16:33:02 2013
 By ,,,
Copyright (c) 2013 by Christopher J. Lee. All rights reserved.
</metadata>
<defs>
<font id="CanterBold3D" horiz-adv-x="308" >
  <font-face 
    font-family="Canter Bold 3D"
    font-weight="700"
    font-stretch="normal"
    units-per-em="1000"
    panose-1="0 0 0 0 0 0 0 0 0 0"
    ascent="750"
    descent="-250"
    x-height="564"
    cap-height="705"
    bbox="-16 -233 587 850"
    underline-thickness="50"
    underline-position="-200"
    unicode-range="U+0020-20AC"
  />
<missing-glyph horiz-adv-x="500" 
 />
    <glyph glyph-name=".notdef" horiz-adv-x="500" 
 />
    <glyph glyph-name=".null" horiz-adv-x="0" 
 />
    <glyph glyph-name="nonmarkingreturn" horiz-adv-x="333" 
 />
    <glyph glyph-name="space" unicode=" " horiz-adv-x="159" 
 />
    <glyph glyph-name="exclam" unicode="!" horiz-adv-x="178" 
d="M64 0h49v87h-49v-87zM64 136h50l1 565h-52zM112 -52l-47 47h-6v97h45l-39 39h-6l-1 575h62v-6l47 -47l-1 -569h-46l45 -45v-91h-53z" />
    <glyph glyph-name="dollar" unicode="$" horiz-adv-x="320" 
d="M220 156v-42q0 -29 -12.5 -48.5t-36.5 -23.5v170q49 -30 49 -56zM99 343v102q0 60 41 68v-225q-40 29 -41 55zM140 -4v-54h31v53q48 4 74 37t26 82v45q0 19 -7 35t-26.5 31t-29 21.5t-37.5 22.5v243q35 -11 35 -66v-76h50v77q0 46 -22.5 77t-62.5 37v53h-31v-52
q-47 -4 -71 -35.5t-24 -81.5v-104q1 -35 24 -59t71 -52v-187q-22 7 -33 26.5t-9 45.5v58h-53v-58q-1 -49 25.5 -81.5t69.5 -37.5zM135 -63v28l-9 8l-32 32q-56 33 -54 110v63h63v-6l32 -32v73q-6 5 -11 11l-21 20q-62 42 -63 97v104q0 51 24.5 84t70.5 38v52h41v-6l47 -47
v-22q14 -13 21 -27l31 -30q33 -33 33 -90v-79h-54l-31 31v-106q31 -23 41 -43l31 -30q28 -28 28 -61v-45q0 -50 -26 -83.5t-74 -37.5v-53h-35l-47 47h-6z" />
    <glyph glyph-name="ampersand" unicode="&#x26;" horiz-adv-x="360" 
d="M211 409l4 -49q11 8 38 11v-246q0 -40 -20.5 -63t-57.5 -23q-31 0 -51 21.5t-20 63.5v143q0 40 20 68.5t55 30.5h5v46h-6q-83 0 -83 106v39q0 46 19.5 72t56.5 26q72 0 72 -97v-59h50v59q0 66 -31.5 105t-90.5 39q-62 0 -95 -41t-33 -104v-40q0 -94 63 -131
q-54 -41 -54 -119v-143q0 -65 34.5 -98.5t88.5 -33.5q52 0 90 31t38 101v240q22 0 42 14l-2 52q-25 -19 -67.5 -12.5t-64.5 -8.5zM147 468q0 -29 5 -48q12 -3 26 -3h11v-6l18 -19l-1 19q24 18 67 12q42 -8 75 17v-10l47 -46l2 -57q-18 -13 -42 -15v-238q0 -72 -38.5 -103
t-91.5 -31q-55 0 -89 34l-31 30q-58 33 -58 120v143q0 71 49 118q-58 38 -58 132v40q0 66 34.5 108t98.5 42q70 0 103 -54l32 -31q39 -39 39 -114v-61h-54l-47 47h-6v64q0 24 -6 44q-4 1 -11 1q-36 0 -55 -25.5t-19 -70.5v-39zM156 74q0 -20 2 -28q5 -2 17 -2q35 0 54 22
t19 59l-3 198l-9 10v-19h-7q-35 -2 -54 -29.5t-19 -67.5v-143z" />
    <glyph glyph-name="comma" unicode="," horiz-adv-x="128" 
d="M40 -69h38l12 73v82h-50v-155zM88 -121l-47 47h-6v165h60v-6l47 -47v-84l-12 -75h-42z" />
    <glyph glyph-name="hyphen" unicode="-" horiz-adv-x="245" 
d="M40 221v-43h166v43h-166zM35 173v53h176v-6l47 -47v-47h-170l-47 47h-6z" />
    <glyph glyph-name="period" unicode="." horiz-adv-x="132" 
d="M40 0h50v92h-50v-92zM88 -52l-47 47h-6v102h60v-6l47 -47v-96h-54z" />
    <glyph glyph-name="slash" unicode="/" horiz-adv-x="276" 
d="M26 0h49l167 705h-47zM74 -52l-47 47h-7l170 715h58l-2 -6l48 -47l-167 -709h-53z" />
    <glyph glyph-name="zero" unicode="0" horiz-adv-x="387" 
d="M275 560v-421q0 -42 -21.5 -70t-60.5 -28q-23 0 -38 7l104 573q16 -26 16 -61zM193 659q19 0 35 -8l-106 -573q-15 25 -15 60v423q0 43 22 70.5t64 27.5zM193 -7q63 0 98 43t35 103v421q0 61 -36 103.5t-97 42.5q-66 0 -102.5 -42.5t-36.5 -102.5v-423q0 -61 38 -103
t101 -42zM144 -20l-29 29q-66 41 -66 129v423q0 62 38 106t106 44q74 0 112 -60l31 -30q42 -44 42 -111v-421q0 -61 -35.5 -104.5t-99.5 -43.5q-60 0 -99 39zM159 511v-205l54 296q-54 -18 -54 -91zM215 49q27 8 41 32.5t14 57.5v204z" />
    <glyph glyph-name="one" unicode="1" horiz-adv-x="199" 
d="M135 700h-110v-47h59v-653h51v700zM20 705h120v-6l47 -47v-704h-55l-47 47h-6v606h-6l-47 47h-6v57z" />
    <glyph glyph-name="two" unicode="2" horiz-adv-x="351" 
d="M303 462v108q0 66 -39 98t-88 32q-51 0 -88 -33t-37 -99v-53h49v51q0 40 20 64t56 24q31 0 53.5 -20t22.5 -65v-107q0 -7 -2.5 -14.5t-8 -15.5t-10 -14t-15 -15.5t-15.5 -14t-18.5 -16t-17.5 -14.5q-116 -97 -119 -162v-196h257v48h-204v148q1 28 27 57.5t72 69.5
q6 5 22 18.5t22.5 19.5t18.5 17.5t17.5 19.5t12.5 19t9.5 22t2.5 23zM99 463l-47 47h-6v58q0 68 38.5 102.5t91.5 34.5q73 0 111 -57l33 -33q35 -35 35 -95v-108q0 -24 -14 -47.5t-28 -36.5t-45 -40l-19 -17q-96 -82 -98 -125v-93h157v-6l47 -47v-52h-261l-47 47h-6v201
q3 69 121 165l20 18q22 19 32.5 28t21.5 25.5t11 29.5v107q0 19 -4 31q-12 2 -17 2q-36 0 -55 -23.5t-19 -62.5v-53h-53z" />
    <glyph glyph-name="three" unicode="3" horiz-adv-x="360" 
d="M132 330v-48h39q83 0 83 -107v-38q0 -43 -21.5 -70t-59.5 -27q-40 0 -63 26t-23 70v59h-50v-59q0 -64 38 -104.5t98 -40.5q61 0 96.5 42t35.5 104v39q0 95 -68 132q60 37 60 118v145q0 64 -34.5 97t-87.5 33t-91.5 -30.5t-38.5 -100.5v-53h51v52q0 39 21 62.5t58 23.5
q31 0 50.5 -21.5t19.5 -63.5v-144q0 -39 -20 -66.5t-55 -29.5h-38zM127 277v58h43q33 2 51.5 27.5t18.5 63.5v144q0 13 -4 31q-8 2 -11 2q-36 0 -56.5 -22.5t-20.5 -61.5v-54h-55l-47 47h-6v58q0 73 40 104.5t95 31.5q72 0 106 -53l33 -33q35 -35 35 -99v-145
q0 -75 -53 -115l21 -22l-3 3l6 -5q37 -37 37 -111v-39q0 -63 -36 -105.5t-98 -42.5q-59 0 -97 38l-32 31q-62 42 -62 128v64h60v-6l47 -47v-61q0 -22 4 -37q12 -4 30 -4q35 0 55.5 25.5t20.5 66.5v38q0 32 -8 53q-12 2 -20 2h-41l-47 47h-6z" />
    <glyph glyph-name="four" unicode="4" horiz-adv-x="354" 
d="M315 191v44h-47v437h-51v-437h-133l111 483h-50l-114 -491v-36h186v-191h51v191h47zM79 139l-47 47h-6v42l114 495h61l-2 -6l41 -40h33v-6l47 -47v-390l47 -47v-48h-47v-191h-55l-47 47h-6v144h-133zM147 240h65v277z" />
    <glyph glyph-name="five" unicode="5" horiz-adv-x="375" 
d="M194 363q-54 0 -86 -43v333h202v46h-254v-456h51q8 31 34.5 52t52.5 21q81 0 81 -99v-83q0 -42 -20.5 -68t-60.5 -26t-63 26.5t-23 67.5v46h-52v-46q0 -61 36.5 -101.5t101.5 -40.5q63 0 97.5 40.5t34.5 101.5v83q0 74 -35 110t-97 36zM194 368q79 0 113 -55l33 -32
q38 -38 38 -114v-83q0 -62 -35 -103t-99 -41t-100 38l-30 30q-63 39 -63 126v51h62v-6l47 -47v-48q0 -21 4 -34q15 -5 30 -5q37 0 56.5 24.5t19.5 64.5v83q0 27 -6 45q-12 2 -20 2q-26 0 -51.5 -21t-33.5 -52h-55l-47 47h-6v466h264v-6l47 -47v-50h-202v-240q19 7 34 7z" />
    <glyph glyph-name="six" unicode="6" horiz-adv-x="378" 
d="M273 212v-73q0 -41 -21.5 -68.5t-60.5 -27.5q-40 0 -62 27.5t-22 67.5v72q0 43 23.5 72t62.5 29q80 0 80 -99zM193 357q-24 0 -48.5 -13t-38.5 -36v256q2 45 24.5 71t61.5 26q38 0 58 -26.5t20 -71.5v-35h51v35q0 66 -34 105t-95 39q-62 0 -100 -39.5t-38 -103.5v-426
q0 -62 37 -103t100 -41t97 40t36 104v74q0 69 -35.5 107t-95.5 38zM193 362q75 0 111 -56l33 -32q39 -39 39 -112v-74q-2 -65 -36.5 -105.5t-98.5 -40.5q-60 0 -98 38l-30 29q-64 41 -64 129v426q0 66 39.5 107t103.5 41q76 0 111 -58l31 -30q39 -39 39 -111v-37h-55l-47 47
h-6v40q0 21 -7 44q-10 2 -16 2q-38 0 -60 -25.5t-24 -69.5v-159q17 7 35 7zM268 139v73q0 27 -6 45q-12 2 -19 2q-39 0 -61.5 -28t-22.5 -71v-72q0 -21 4 -36q11 -4 28 -4q37 0 57 26t20 65z" />
    <glyph glyph-name="seven" unicode="7" horiz-adv-x="324" 
d="M68 237v-43h52l-46 -194h54q2 13 8 38.5t9 37.5l9 40q1 4 7.5 34t10.5 45v-1h61v43h-50l100 424v39h-253v-45h200l-51 -213q-30 -120 -49 -205h-62zM63 189v53h62l42 173l7 28l38 160h-134l-47 47h-6v55h263v-6l47 -47v-41l-91 -382l41 -40v-47l-62 1q-3 -10 -6.5 -27
t-4.5 -22l-6 -28l-9 -40l-9 -38q-3 -11 -8 -40h-58l-47 47h-7l37 157l-36 37h-6z" />
    <glyph glyph-name="eight" unicode="8" horiz-adv-x="373" 
d="M184 350q-40 0 -63.5 36t-23.5 79v80q0 52 23 84t63 32q42 0 62 -31.5t20 -84.5v-80q0 -45 -21 -80t-60 -35zM265 208v-72q0 -44 -22 -69t-59 -25q-40 0 -62.5 26t-22.5 68v72q0 41 24 67.5t61 26.5q39 -2 60 -27t21 -67zM316 465v80q0 75 -34 118.5t-99 43.5
q-66 0 -101 -45.5t-35 -116.5v-80q0 -40 17 -77.5t46 -59.5q-63 -40 -63 -120v-72q0 -63 38.5 -102.5t98.5 -39.5q59 0 94.5 39t37.5 101v74q0 78 -58 120q54 35 58 137zM135 -20l-33 32q-60 41 -60 124v72q0 77 59 121q-27 25 -43 62t-16 74v80q0 73 36.5 120t104.5 47
q76 0 112 -58l30 -30q43 -43 43 -129v-80q-4 -101 -55 -136l14 -14q41 -43 41 -107v-74q-2 -63 -38 -102.5t-96 -39.5q-59 0 -99 38zM184 355q37 0 56.5 33t19.5 77v80q0 36 -10 62q-12 2 -17 2q-39 0 -61.5 -31t-22.5 -83v-80q0 -30 10 -56q9 -4 25 -4zM260 208q0 21 -6 39
l-20 3q-37 0 -60 -25.5t-23 -66.5v-72q0 -20 4 -35q12 -4 29 -4q35 0 55.5 24t20.5 65v72z" />
    <glyph glyph-name="nine" unicode="9" horiz-adv-x="370" 
d="M257 529v-96q0 -47 -20.5 -88t-60.5 -41q-47 0 -66 39t-19 89v98q0 51 21.5 87.5t63.5 36.5q81 0 81 -125zM309 139v390q0 75 -32.5 124t-100.5 49t-102.5 -50.5t-34.5 -121.5v-98q0 -71 32.5 -123.5t98.5 -52.5q29 0 53.5 16.5t35.5 43.5v-177q0 -42 -22.5 -69
t-64.5 -27q-38 0 -59.5 27.5t-21.5 69.5v34h-51v-34q0 -61 36 -103.5t96 -42.5q63 0 100 40.5t37 104.5zM136 237l-33 32q-69 46 -69 163v98q0 72 36 124.5t106 52.5q73 0 109 -59l29 -28q47 -47 47 -141v-390q0 -64 -37.5 -105.5t-101.5 -41.5q-54 0 -91 37l-29 29
q-67 41 -67 132v39h61v-6l47 -47v-36q0 -23 4 -39q12 -3 25 -3q40 0 61 25.5t21 65.5v70q-14 -5 -34 -5q-51 0 -84 33zM252 433v96q0 42 -11 71q-10 2 -15 2q-42 0 -62.5 -36t-20.5 -86v-98q0 -37 10 -70q11 -3 23 -3q38 0 57 39t19 85z" />
    <glyph glyph-name="colon" unicode=":" horiz-adv-x="129" 
d="M40 223h50v92h-50v-92zM40 0h50v92h-50v-92zM88 -52l-47 47h-6v102h60v-6l47 -47v-96h-54zM88 171l-47 47h-6v102h60v-6l47 -47v-96h-54z" />
    <glyph glyph-name="semicolon" unicode=";" horiz-adv-x="129" 
d="M40 -70h42l8 73v82h-50v-155zM40 223h50v92h-50v-92zM88 -122l-47 47h-6v165h60v-6l47 -47v-84l-8 -75h-46zM88 171l-47 47h-6v102h60v-6l47 -47v-96h-54z" />
    <glyph glyph-name="question" unicode="?" horiz-adv-x="327" 
d="M125 0h49v85h-49v-85zM124 134h50v69q0 45 8.5 74.5t34.5 52.5q59 56 61 139v108q0 67 -35 98.5t-83 31.5q-50 0 -86.5 -33t-36.5 -99v-53h51v51q0 40 18 64t54 24q67 0 67 -85v-107q-2 -64 -41 -105q-37 -33 -49.5 -71t-12.5 -90v-69zM85 470l-47 47h-6v58
q0 68 38 102.5t90 34.5q69 0 102 -54l33 -32q35 -35 35 -99v-108q-2 -85 -62 -140q-26 -23 -34 -52.5t-8 -73.5v-71h-45l45 -45v-89h-53l-47 47h-6v95h44l-39 39h-6v74q0 101 64 164q37 42 39 102v107q0 20 -4 33h-8q-70 0 -70 -86v-53h-55zM166 652l44 -43l-43 43h-1z" />
    <glyph glyph-name="A" unicode="A" horiz-adv-x="354" 
d="M227 235h-103l26 170l25 207l25 -207zM233 188l29 -188h52l-109 700h-61l-108 -700h53l29 188v-1h115v1zM257 -5l-22 140q-22 1 -65 1q-5 -31 -14.5 -94t-14.5 -94h-57l-47 47h-6l108 710h71l1 -7l46 -46l109 -704h-56l-47 47h-6zM202 355l-19 -115h38l-19 117v-2z" />
    <glyph glyph-name="B" unicode="B" horiz-adv-x="385" 
d="M274 158v-49q0 -13 -3 -25t-15.5 -24.5t-33.5 -12.5h-107v171h93q30 -1 48 -16t18 -44zM115 652h72q87 -1 87 -92v-199q0 -42 -27.5 -69.5t-57.5 -27.5h-74v388zM326 109v49q0 73 -60 92q58 36 58 110l1 200q0 65 -36 102.5t-102 37.5h-125v-700h160q42 0 73 27.5
t31 81.5zM110 -52l-47 47h-6v710h130q84 0 121 -59l31 -31q38 -38 38 -105l-1 -200q0 -66 -49 -105l25 -24q26 -26 26 -73v-49q0 -55 -31.5 -83t-74.5 -28h-162zM167 600v-331h22q28 0 54 26t26 66v199q0 19 -5 37q-12 3 -27 3h-70zM269 109v49v6q-8 2 -11 2h-91v-114h55
q27 0 37 18.5t10 38.5z" />
    <glyph glyph-name="C" unicode="C" horiz-adv-x="384" 
d="M193 -7q65 0 99.5 43.5t34.5 103.5v60h-51v-60q0 -42 -21.5 -70.5t-61.5 -28.5t-63 29.5t-23 70.5v417q0 46 24 73.5t62 27.5q84 0 84 -101v-63h50v64q0 69 -36.5 108.5t-98.5 39.5q-63 0 -100.5 -40.5t-37.5 -108.5v-416q0 -64 38 -106.5t101 -42.5zM159 91q0 -26 6 -40
q13 -5 28 -5q38 0 58 27t20 67v65h61v-6l47 -47v-62q0 -60 -35.5 -104.5t-100.5 -44.5q-59 0 -98 39l-29 28q-67 42 -67 134v416q0 70 39 112t104 42q78 0 115 -59l31 -30q41 -41 41 -114v-66h-54l-47 47h-6v68q0 28 -6 47q-14 2 -23 2q-37 0 -60.5 -26.5t-23.5 -72.5v-417z
" />
    <glyph glyph-name="D" unicode="D" horiz-adv-x="395" 
d="M284 559v-421q0 -29 -7.5 -48t-22.5 -27.5t-28 -11t-32 -2.5h-77v604h77q22 0 35.5 -2.5t27.5 -11.5t20.5 -28.5t6.5 -51.5zM335 138v421q0 47 -11.5 77t-34 43t-43 17t-52.5 4h-130v-700h130q141 0 141 138zM112 -52l-47 47h-6v710h135q45 0 76 -10t49 -41l34 -33
q34 -34 34 -112v-421q0 -140 -143 -140h-132zM279 138v421q0 19 -4 39q-15 3 -31 3h-75v-547h25q18 0 30.5 2.5t26 10.5t21 26t7.5 45z" />
    <glyph glyph-name="E" unicode="E" horiz-adv-x="347" 
d="M116 654h190v46h-243v-700h243v47h-190v140h151v46h-151v421zM111 -52l-47 47h-6v710h253v-6l47 -47v-50h-190v-364h104v-6l47 -47v-50h-151v-83h143v-6l47 -47v-51h-247z" />
    <glyph glyph-name="F" unicode="F" horiz-adv-x="328" 
d="M115 654h180v46h-233v-700h53v185h153v47h-153v422zM110 -52l-47 47h-6v710h243v-6l47 -47v-50h-180v-365h106v-6l47 -47v-51h-153v-185h-57z" />
    <glyph glyph-name="G" unicode="G" horiz-adv-x="373" 
d="M325 237h-153v-46h102v-52q0 -97 -82 -97q-41 0 -63 26.5t-22 71.5v415q0 45 23 73t61 28q43 0 64 -28t21 -72v-64h50v64q0 66 -36.5 106.5t-99.5 40.5q-62 0 -99 -42.5t-37 -105.5v-415q0 -69 37.5 -107.5t100.5 -38.5q62 0 97.5 40.5t35.5 104.5v98zM167 242h163v-6
l47 -47v-100q0 -65 -36.5 -106t-98.5 -41q-60 0 -100 38l-30 29q-63 39 -63 131v415q0 65 38.5 109t102.5 44q77 0 115 -59l32 -31q41 -41 41 -112v-66h-54l-47 47h-6v69q0 25 -7 45q-10 3 -23 3q-37 0 -59.5 -27.5t-22.5 -71.5v-415q0 -23 4 -39q12 -4 29 -4q77 0 77 92
h-49l-47 47h-6v56z" />
    <glyph glyph-name="H" unicode="H" horiz-adv-x="404" 
d="M336 700h-51v-474h-168v474h-53v-700h53v179h168v-179h51v700zM280 705h61v-6l47 -47v-704h-55l-47 47h-6v132h-111v-179h-57l-47 47h-6v710h63v-6l47 -47v-421h111v474z" />
    <glyph glyph-name="I" unicode="I" horiz-adv-x="178" 
d="M63 0h53v700h-53v-700zM111 -52l-47 47h-6v710h63v-6l47 -47v-704h-57z" />
    <glyph glyph-name="J" unicode="J" horiz-adv-x="369" 
d="M176 -7q65 0 99 41t34 106v560h-52l1 -560q0 -46 -21.5 -73t-60.5 -27q-42 0 -64.5 26.5t-22.5 73.5v56h-53v-56q0 -70 37.5 -108.5t102.5 -38.5zM141 90q0 -27 5 -41q12 -4 30 -4q37 0 57 25.5t20 69.5l-1 565h62v-6l47 -47v-562q0 -66 -34.5 -107.5t-100.5 -41.5
q-64 0 -102 38l-30 29q-63 38 -63 132v61h63v-6l47 -47v-58z" />
    <glyph glyph-name="K" unicode="K" horiz-adv-x="377" 
d="M162 257l194 443h-57l-137 -316l-47 -116v432h-53v-700h53v168l19 36l162 -204h66q-195 250 -200 257zM364 705l-3 -6l48 -47l-195 -445q6 -9 19.5 -26t63 -79.5t119.5 -153.5h-71l-47 47h-4l-116 145l-11 -23v-169h-57l-47 47h-6v710h63v-6l47 -47v-243l128 296h69z" />
    <glyph glyph-name="L" unicode="L" 
d="M268 47h-153v653h-53v-700h206v47zM110 -52l-47 47h-6v710h63v-6l47 -47v-600h106v-6l47 -47v-51h-210z" />
    <glyph glyph-name="M" unicode="M" horiz-adv-x="468" 
d="M120 562h2l29 -214l55 -337h56l56 337l34 215h2l-1 -220l14 -343h53l-27 701h-65l-62 -402l-30 -202l-27 202l-61 402h-68l-27 -701h51l13 343zM154 699l46 -46l57 -383q2 18 4 29l62 407h75v-6l47 -47l27 -705h-57l-47 47h-6l-9 205l-39 -241h-60l-47 47h-6l-35 215
l-10 -273h-55l-47 47h-6l27 711h78z" />
    <glyph glyph-name="N" unicode="N" horiz-adv-x="416" 
d="M348 700h-52v-434l8 -145l-40 139l-150 440h-50v-700h53v421l-8 152l43 -146l147 -427h49v700zM291 705h62v-6l47 -47v-704h-53l-47 47h-5l-126 366v-413h-57l-47 47h-6v710h59l2 -8l46 -45l125 -368v421z" />
    <glyph glyph-name="O" unicode="O" horiz-adv-x="386" 
d="M193 659q40 0 61 -29t21 -70v-421q0 -42 -21.5 -70t-60.5 -28q-42 0 -64 28t-22 69v423q0 43 22 70.5t64 27.5zM193 -7q63 0 98 43t35 103v421q0 61 -36 103.5t-97 42.5q-66 0 -102.5 -42.5t-36.5 -102.5v-423q0 -61 38 -103t101 -42zM144 -20l-29 29q-66 41 -66 129v423
q0 62 38 106t106 44q74 0 112 -60l31 -30q42 -44 42 -111v-421q0 -61 -35.5 -104.5t-99.5 -43.5q-60 0 -99 39zM159 88q0 -22 4 -37q15 -5 30 -5q37 0 57 26.5t20 66.5v421q0 23 -8 45q-12 2 -19 2q-41 0 -62.5 -27t-21.5 -69v-423z" />
    <glyph glyph-name="P" unicode="P" horiz-adv-x="388" 
d="M283 560v-229q0 -43 -25.5 -69t-59.5 -26h-83v417h83q40 0 62.5 -24.5t22.5 -68.5zM334 331v229q0 71 -40.5 105.5t-95.5 34.5h-136v-700h53v189h83q62 0 99 43t37 99zM110 -52l-47 47h-6v710h141q80 0 118 -60l32 -31q38 -38 38 -104v-229q0 -57 -37.5 -100.5
t-100.5 -43.5h-81v-189h-57zM278 331v229q0 16 -6 38q-10 3 -24 3h-81v-360h31q32 0 56 24.5t24 65.5z" />
    <glyph glyph-name="Q" unicode="Q" horiz-adv-x="386" 
d="M193 659q40 0 61 -29t21 -70v-421q0 -42 -21.5 -70t-60.5 -28q-42 0 -64 28t-22 69v423q0 43 22 70.5t64 27.5zM168 -5v-82h51v82q51 9 79 50t28 94v421q0 61 -36 103.5t-97 42.5q-66 0 -102.5 -42.5t-36.5 -102.5v-423q0 -55 30.5 -95t83.5 -48zM163 -92v56
q-11 7 -19 16l-31 30q-64 42 -64 128v423q0 62 38 106t106 44q74 0 112 -60l31 -30q42 -44 42 -111v-421q0 -54 -28 -95.5t-79 -50.5v-82h-55l-47 47h-6zM159 88q0 -22 4 -37q15 -5 30 -5q37 0 57 26.5t20 66.5v421q0 23 -8 45q-12 2 -19 2q-41 0 -62.5 -27t-21.5 -69v-423z
" />
    <glyph glyph-name="R" unicode="R" horiz-adv-x="384" 
d="M115 230v423h74q41 0 62.5 -25.5t21.5 -69.5v-233q0 -43 -27 -69t-57 -26h-74zM328 0v123q0 69 -61 92q27 17 42 48t15 62v233q1 72 -36 106.5t-99 35.5h-127v-700h53v183h99q29 0 45.5 -16.5t16.5 -43.5v-123h52zM110 -52l-47 47h-6v710h132q85 -2 119 -58l32 -31
q37 -37 36 -108v-233q0 -64 -49 -105l21 -22l-3 3l6 -5q29 -29 29 -73v-125h-56l-47 47h-6v128q0 5 -1 8h-6h-97v-183h-57zM167 601v-366h22q29 0 54 24.5t25 65.5v233q0 23 -6 41q-14 2 -23 2h-72z" />
    <glyph glyph-name="S" unicode="S" horiz-adv-x="378" 
d="M191 -8q65 0 99.5 41.5t34.5 104.5v51q0 12 -1.5 22t-7.5 20t-9.5 16.5t-14.5 15.5t-15 13.5t-19.5 14t-19.5 12t-23 13t-23 12.5q-25 14 -40.5 25t-29.5 29.5t-15 40.5v138q0 47 20 71.5t55 24.5q38 0 55.5 -26.5t17.5 -68.5v-90h51v91q0 62 -33 102t-91 40
q-63 0 -95.5 -40t-32.5 -104v-140q3 -35 24.5 -64t39 -41t57.5 -34q2 -2 3.5 -2.5t3 -1.5t3.5 -2q4 -2 15.5 -8.5t15.5 -9t13.5 -8t13 -8.5t10 -9t9.5 -10.5t6.5 -10.5t4.5 -12.5t1 -14.5v-47q0 -43 -21.5 -71t-61.5 -28q-43 0 -66 29.5t-21 71.5v68h-52v-68q-1 -66 38 -107
t101 -41zM159 373q0 -14 4 -23q20 -12 31 -17l18 -10h-1q82 -45 105 -83l28 -27q33 -33 33 -74v-51q0 -63 -35 -105.5t-101 -42.5q-61 0 -100 39l-30 30q-66 41 -64 131v73h62v-6l47 -47v-70q-2 -23 4 -41q15 -5 31 -5q37 0 57.5 26.5t20.5 67.5v47q0 12 -4 21l-18 11l-13 7
l-10 6q-63 36 -82 56l-24 24q-64 44 -69 111v140q0 66 34 107.5t99 41.5q70 0 106 -57l30 -30q40 -40 40 -110v-93h-55l-47 47h-6v95q0 23 -6 41q-8 2 -12 2q-34 0 -53.5 -23.5t-19.5 -70.5v-138z" />
    <glyph glyph-name="T" unicode="T" horiz-adv-x="304" 
d="M271 654v46h-246v-46h98v-654h51v654h97zM276 705v-6l47 -47v-50h-97v-654h-55l-47 47h-6v607h-45l-47 47h-6v56h256z" />
    <glyph glyph-name="U" unicode="U" horiz-adv-x="399" 
d="M332 139v561h-51v-561q0 -44 -20.5 -72t-64.5 -28q-41 0 -62 29.5t-21 71.5v560h-53v-560q0 -63 37.5 -105.5t98.5 -42.5q65 0 100.5 43.5t35.5 103.5zM337 705v-6l47 -47v-563q0 -61 -36 -105t-102 -44q-57 0 -95 38l-30 29q-66 42 -66 133v565h63v-6l47 -47v-562
q0 -27 5 -43q12 -3 26 -3q80 0 80 95v566h61z" />
    <glyph glyph-name="V" unicode="V" horiz-adv-x="360" 
d="M178 94h-2l-24 212l-61 395h-53l107 -701h63l110 701h-54l-61 -395zM96 706l1 -7l46 -46l54 -353l1 6l61 400h64l-1 -5l48 -48l-110 -705h-67l-47 47h-6l-107 711h63z" />
    <glyph glyph-name="W" unicode="W" horiz-adv-x="566" 
d="M403 79h-2l-30 225l-61 397h-52l-60 -398l-26 -223h-3l-25 223l-56 398h-53l100 -701h68l68 462l14 133l16 -133l70 -462h66l98 701h-51l-56 -397zM315 706l1 -7l46 -46l57 -380l4 31l56 402h61l-1 -6l48 -47l-98 -705h-70l-47 47h-6l-53 350l-58 -397h-72l-47 47h-6
l-100 711h63l1 -7l46 -46l51 -367q0 5 2 17l60 403h62z" />
    <glyph glyph-name="X" unicode="X" horiz-adv-x="348" 
d="M195 262l126 439h-54l-100 -368l-94 368h-55l123 -440l-93 -261h54l65 189l59 -189h54zM328 706l-2 -6l48 -47l-127 -441l86 -264h-59l-47 47h-5l-25 78q-6 -18 -21 -59.5t-22 -65.5h-59l-47 47h-7l95 266q-96 340 -125 445h66l2 -7l46 -46l59 -230l79 283h65z" />
    <glyph glyph-name="Y" unicode="Y" horiz-adv-x="373" 
d="M346 701h-55q-8 -33 -65 -256l-41 -191l-40 190l-66 257h-53l133 -526v-175h52v175zM286 706h67l-2 -6l48 -47l-136 -528v-177h-56l-47 47h-6v179q-10 43 -33 132t-34 132q-50 194 -68 268h64l1 -7l47 -46l66 -259l6 -30l18 82z" />
    <glyph glyph-name="Z" unicode="Z" horiz-adv-x="323" 
d="M288 662v38h-241v-47h188l-211 -613v-40h262v49h-206zM293 705v-6l47 -47v-41l-189 -557h140v-6l47 -47v-53h-266l-47 47h-6v47l193 559h-117l-47 47h-6v57h251z" />
    <glyph glyph-name="backslash" unicode="\" horiz-adv-x="276" 
d="M190 -5l-168 705h61l2 -8l45 -45l165 -699h-52l-47 47h-6zM28 695l167 -695h48l-165 695h-50z" />
    <glyph glyph-name="grave" unicode="`" horiz-adv-x="152" 
d="M19 701l49 -87h45l-37 87h-57zM161 574h-56l-35 35h-5l-55 97h70l3 -9l45 -44z" />
    <glyph glyph-name="a" unicode="a" horiz-adv-x="301" 
d="M182 190h-70l13 83l23 180l22 -180zM189 147l22 -147h52l-87 559h-57l-86 -559h52l23 146h81v1zM206 -5l-15 99h-31q-3 -24 -11.5 -73t-11.5 -73h-56l-47 47h-6l86 569h67l1 -7l46 -46l87 -563h-56l-47 47h-6z" />
    <glyph glyph-name="b" unicode="b" horiz-adv-x="326" 
d="M220 130v-40q0 -42 -35 -42h-78v128h67q19 0 32.5 -13.5t13.5 -32.5zM107 511h50q63 0 63 -66v-156q0 -31 -19.5 -51t-41.5 -20h-52v293zM270 90v40q0 56 -48 73q48 24 48 85l1 157q0 57 -31.5 85.5t-82.5 28.5h-103v-559h131q35 0 60 22.5t25 67.5zM102 -52l-47 47h-6
v569h108q73 0 102 -51l34 -33q30 -30 30 -85l-1 -157q0 -56 -39 -82l17 -17q22 -21 22 -59v-40q0 -45 -26 -68.5t-61 -23.5h-133zM159 459v-236q20 0 38 18.5t18 47.5v156q0 3 -0.5 7t-0.5 7h-7h-48zM215 90v34h-56v-71h26q16 0 23 12.5t7 24.5z" />
    <glyph glyph-name="c" unicode="c" horiz-adv-x="325" 
d="M162 -6q54 0 82.5 34.5t28.5 86.5v51h-52v-51q0 -72 -59 -72q-30 0 -46 20t-16 53v327q0 35 17.5 54.5t44.5 19.5q29 0 44.5 -20t15.5 -54v-55h50v55q0 57 -30 89t-81 32q-52 0 -83 -33.5t-31 -87.5v-327q0 -55 31 -88.5t84 -33.5zM152 66v-18h10q54 0 54 67v56h62v-6
l47 -47v-53q0 -53 -29 -88t-84 -35q-52 0 -83 31l-33 33q-54 32 -54 110v327q0 56 32.5 91t86.5 35q66 0 97 -50l33 -33q33 -33 33 -93v-57h-54l-47 47h-6v60q0 8 -2 22h-3q-27 0 -43.5 -18.5t-16.5 -53.5v-327z" />
    <glyph glyph-name="d" unicode="d" horiz-adv-x="334" 
d="M228 444v-330q0 -65 -65 -65h-55v463h55q31 0 47.5 -13.5t17.5 -54.5zM279 114v330q0 67 -32 91t-84 24h-108v-559h108q16 0 30.5 3t36.5 12.5t35.5 35t13.5 63.5zM103 -52l-47 47h-6v569h113q79 0 106 -50l33 -32q29 -31 29 -88v-330q0 -32 -10 -55t-23 -34.5t-32 -18
t-30 -7.5t-23 -1h-110zM223 114v330q0 6 -2 16h-61v-406h3q60 0 60 60z" />
    <glyph glyph-name="e" unicode="e" horiz-adv-x="296" 
d="M107 513h149v46h-202v-559h202v48h-149v98h119v47h-119v320zM102 -52l-47 47h-6v569h212v-6l47 -47v-50h-149v-263h72v-6l47 -47v-51h-119v-41h102v-6l47 -47v-52h-206z" />
    <glyph glyph-name="f" unicode="f" horiz-adv-x="280" 
d="M107 513h139v46h-193v-559h54v145h118v48h-118v320zM101 -52l-47 47h-6v569h203v-6l47 -47v-50h-139v-263h71v-6l47 -47v-52h-118v-145h-58z" />
    <glyph glyph-name="g" unicode="g" horiz-adv-x="316" 
d="M271 196h-122v-45h74v-36q0 -35 -17 -53t-46 -18t-44.5 19.5t-15.5 51.5v329q0 33 16 53.5t47 20.5q29 0 44.5 -21t15.5 -53v-55h49v55q0 53 -30 86.5t-79 33.5q-55 0 -85.5 -34t-30.5 -86v-329q0 -55 31 -87.5t82 -32.5q52 0 81.5 33t29.5 87v81zM271 337l-47 47h-6v60
q0 8 -2 22h-3q-30 0 -45.5 -19.5t-15.5 -52.5v-193h124v-6l47 -47v-83q0 -55 -30.5 -88.5t-82.5 -33.5q-50 0 -81 31l-32 32q-55 32 -55 109v329q0 54 31.5 89.5t89.5 35.5q64 0 94 -51l33 -32q34 -34 34 -92v-57h-53zM152 65v-16h8q50 0 57 50h-20l-45 45v-79z" />
    <glyph glyph-name="h" unicode="h" horiz-adv-x="341" 
d="M280 559h-52v-371h-120v371h-53v-559h53v140h120v-140h52v559zM223 564h62v-6l47 -47v-563h-56l-47 47h-6v93h-63v-140h-57l-47 47h-6v569h63v-6l47 -47v-318h63v371z" />
    <glyph glyph-name="i" unicode="i" horiz-adv-x="160" 
d="M54 0h52v559h-52v-559zM102 -52l-47 47h-6v569h62v-6l47 -47v-563h-56z" />
    <glyph glyph-name="j" unicode="j" horiz-adv-x="313" 
d="M148 -6q53 0 81.5 35.5t28.5 85.5v444h-51v-444q0 -30 -16 -51.5t-43 -21.5q-29 0 -45.5 21.5t-16.5 51.5v48h-53v-48q0 -51 32 -86t83 -35zM138 65q0 -12 1 -18h9q25 0 39.5 20t14.5 48v449h61v-6l47 -47v-446q0 -51 -29 -87t-83 -36q-49 0 -82 33l-32 31
q-56 35 -56 109v53h63v-6l47 -47v-50z" />
    <glyph glyph-name="k" unicode="k" horiz-adv-x="320" 
d="M147 215l151 344h-55q-77 -179 -78 -181l-63 -154l5 155v180h-53v-559h53v143l12 23l43 -63l80 -103h63zM306 564l-3 -6l48 -47l-151 -346l159 -217h-68l-47 47h-4l-79 100l-2 -3v-144h-57l-47 47h-6v569h63v-6l47 -47v-134q0 2 1 3l53 123l26 61h67z" />
    <glyph glyph-name="l" unicode="l" horiz-adv-x="264" 
d="M226 47h-120v512h-52v-559h172v47zM102 -52l-47 47h-6v569h62v-6l47 -47v-459h73v-6l47 -47v-51h-176z" />
    <glyph glyph-name="m" unicode="m" horiz-adv-x="401" 
d="M293 429h2l-5 -176l11 -253h51l-21 560h-61l-57 -353l-13 -116l-12 117l-63 352h-59l-21 -560h49l10 252l2 180h2l23 -178l43 -241h51l43 244zM296 -5l-3 59l-16 -93h-55l-47 47h-6l-17 95l-6 -155h-53l-47 47h-6l21 570h69l1 -8l46 -45l41 -238l47 291h71v-6l47 -47
l21 -564h-55l-47 47h-6z" />
    <glyph glyph-name="n" unicode="n" horiz-adv-x="351" 
d="M104 559h-49v-559h53v293l-9 145l40 -142l102 -296h49v559h-53v-294l11 -152l-43 146zM50 564h58l2 -8l46 -45l76 -226v279h63v-6l47 -47v-563h-53l-47 47h-5l-77 223v-270h-57l-47 47h-6v569z" />
    <glyph glyph-name="o" unicode="o" horiz-adv-x="327" 
d="M161 517q29 0 44 -21t15 -51v-330q0 -32 -15 -52t-44 -20t-45 20.5t-16 50.5v331q0 32 15.5 52t45.5 20zM161 -6q53 0 82 35.5t29 85.5v330q0 50 -30.5 84.5t-80.5 34.5q-54 0 -84 -34.5t-30 -84.5v-331q0 -51 31 -85.5t83 -34.5zM130 -26l-31 31q-57 32 -57 109v331
q0 52 31.5 88t87.5 36q63 0 97 -53l31 -31q35 -35 35 -90v-330q0 -51 -30 -87t-83 -36q-49 0 -81 32zM152 64v-16h9q27 0 40.5 18.5t13.5 48.5v330q0 6 -2 20h-2q-29 0 -44 -19.5t-15 -50.5v-331z" />
    <glyph glyph-name="p" unicode="p" horiz-adv-x="328" 
d="M227 445v-180q0 -32 -18 -50.5t-43 -18.5h-59v316h59q29 0 45 -17.5t16 -49.5zM278 265v180q0 58 -33.5 86t-78.5 28h-113v-559h54v148h59q51 0 81.5 34.5t30.5 82.5zM101 -52l-47 47h-6v569h118q69 0 100 -53l33 -32q31 -31 31 -84v-180q0 -48 -31 -83.5t-83 -35.5h-57
v-148h-58zM222 265v180q0 3 -0.5 8t-0.5 7h-62v-259h7q22 0 39 17.5t17 46.5z" />
    <glyph glyph-name="q" unicode="q" horiz-adv-x="327" 
d="M161 517q29 0 44 -21t15 -51v-330q0 -32 -15 -52t-44 -20t-45 20.5t-16 50.5v331q0 32 15.5 52t45.5 20zM137 -4v-78h50v79q40 8 62.5 41.5t22.5 76.5v330q0 50 -30.5 84.5t-80.5 34.5q-54 0 -84 -34.5t-30 -84.5v-331q0 -45 24 -78t66 -40zM132 -87v58l-2 1l-30 30
q-27 15 -42.5 45t-15.5 67v331q0 52 31.5 88t87.5 36q63 0 97 -53l31 -31q35 -35 35 -90v-330q0 -43 -22.5 -77t-62.5 -43v-79h-54l-47 47h-6zM152 64v-16h9q27 0 40.5 18.5t13.5 48.5v330q0 6 -2 20h-2q-29 0 -44 -19.5t-15 -50.5v-331z" />
    <glyph glyph-name="r" unicode="r" horiz-adv-x="325" 
d="M107 190v322h52q27 0 43.5 -18.5t16.5 -50.5v-183q0 -31 -19 -50.5t-41 -19.5h-52zM274 0v102q0 50 -42 72q38 25 38 86v183q0 59 -33 87.5t-78 28.5h-106v-559h54v143h72q20 0 31 -11.5t11 -29.5v-102h53zM101 -52l-47 47h-6v569h111q68 0 99 -52l32 -32q32 -32 32 -87
v-183q0 -58 -33 -84l15 -15q22 -22 22 -59v-104h-57l-47 47h-6v96h-57v-143h-58zM159 460v-265q20 0 37.5 18t17.5 47v183q0 5 -2 17h-53z" />
    <glyph glyph-name="s" unicode="s" horiz-adv-x="320" 
d="M159 -6q54 0 83 34t29 86v45q0 19 -7 34.5t-25 30.5t-29 22t-37 22q-38 23 -55.5 39t-18.5 36v102q0 35 15 52.5t39 17.5q53 0 53 -69v-76h50v77q0 52 -27.5 84t-75.5 32q-53 0 -80.5 -32.5t-27.5 -85.5v-104q0 -26 17 -48.5t36 -36t59 -36.5q24 -14 34 -21t19.5 -18.5
t9.5 -24.5v-42q0 -32 -15.5 -52.5t-45.5 -20.5t-46.5 21.5t-14.5 52.5v58h-53v-58q-1 -54 31.5 -87.5t82.5 -33.5zM151 293v-4q11 -8 25 -16q2 -1 12 -7.5t13 -8.5l12 -8t13 -9t11 -8.5t11 -10t9 -10.5t8 -12l30 -29q28 -28 28 -61v-45q0 -53 -29.5 -87.5t-84.5 -34.5
q-50 0 -82 32l-33 32q-55 34 -54 109v63h63v-6l47 -47v-60q-1 -10 0 -19h9q27 0 41.5 19t14.5 49v42q0 1 -2 7l-7 5q-57 33 -81 57l-23 22q-62 46 -62 94v104q0 55 29 89t84 34q62 0 91 -50l31 -31q33 -33 33 -90v-79h-54l-47 47h-6v81q0 11 -1 17q-49 -3 -49 -68v-102z" />
    <glyph glyph-name="t" unicode="t" horiz-adv-x="261" 
d="M228 513v46h-203v-46h77v-513h50v513h76zM233 564v-6l47 -47v-50h-76v-513h-54l-47 47h-6v466h-24l-47 47h-6v56h213z" />
    <glyph glyph-name="u" unicode="u" horiz-adv-x="337" 
d="M277 115v444h-52v-444q0 -74 -61 -74q-29 0 -44 21.5t-15 52.5v444h-53v-444q0 -52 30.5 -86.5t81.5 -34.5q54 0 83.5 35.5t29.5 85.5zM282 564v-6l47 -47v-446q0 -51 -30 -87t-85 -36q-50 0 -79 31l-34 33q-54 35 -54 109v449h63v-6l47 -47v-446q0 -13 1 -19h6
q56 0 56 69v449h62z" />
    <glyph glyph-name="v" unicode="v" horiz-adv-x="306" 
d="M151 77h-2l-14 170l-48 313h-52l84 -560h59l86 560h-52l-48 -312zM92 565l1 -7l46 -46l29 -200l39 253h62l-1 -5l48 -48l-86 -564h-63l-47 47h-6l-84 570h62z" />
    <glyph glyph-name="w" unicode="w" horiz-adv-x="471" 
d="M145 91h-1l-24 205l-35 264h-51l80 -560h59l51 330q6 41 12 129q10 -100 14 -127l50 -332h63l75 560h-53q-6 -44 -14 -102t-13 -96.5t-9 -65.5l-17 -208h-1l-30 205l-38 262h-53l-41 -258zM90 565l1 -7l46 -46l27 -211l41 259h63l1 -7l46 -46l29 -208l19 138q2 20 8 62
l9 66h63l-1 -6l48 -47l-75 -564h-67l-47 47h-6l-31 210l-39 -257h-63l-47 47h-6l-80 570h61z" />
    <glyph glyph-name="x" unicode="x" horiz-adv-x="296" 
d="M168 210l102 350h-55l-48 -169q-25 -97 -25 -120l-25 120l-46 169h-54l98 -350l-75 -210h56l24 73l21 77l20 -78l24 -72h52zM277 565l-2 -6l48 -47l-103 -352l70 -212h-57l-47 47h-5l-9 27l-24 -74h-61l-47 47h-7l77 215l-100 355h65l2 -7l46 -46l35 -134l4 14l49 173h66
z" />
    <glyph glyph-name="y" unicode="y" horiz-adv-x="316" 
d="M289 560h-55l-52 -203l-26 -135l-27 136l-53 202h-51l104 -419v-141h52v141zM230 565h66l-2 -6l48 -47l-109 -422v-142h-56l-47 47h-6v145l-52 210q-12 48 -53 215h60l2 -7l46 -46l46 -175q2 14 4 21z" />
    <glyph glyph-name="z" unicode="z" horiz-adv-x="276" 
d="M242 523v36h-201v-47h148l-165 -474v-38h215v49h-160zM247 564v-6l47 -47v-39l-144 -418h94v-6l47 -47v-53h-219l-47 47h-6v45l146 420h-76l-47 47h-6v57h211z" />
    <glyph glyph-name="exclamdown" unicode="&#xa1;" horiz-adv-x="178" 
d="M114 560h-49v-85h49v85zM114 431h-50l-1 -566h52zM60 565h59v-6l47 -47v-89h-40l40 -40l1 -570h-56l-47 47h-6l1 576h41l-34 34h-6v95z" />
    <glyph glyph-name="yen" unicode="&#xa5;" 
d="M233 151v34h-45l97 375h-55l-52 -203l-26 -135l-27 136l-53 202h-51l93 -375h-44v-34h52l3 -10v-25h-55v-33h55v-83h52v83h56v33h-56v25l2 10h54zM77 558l46 -46l46 -175q2 14 4 21l53 207h66l-2 -6l48 -47l-89 -340l36 -35v-38h-31l31 -31v-37h-56v-83h-56l-47 47h-6v36
h-2l-47 47h-6v43h31l-25 25h-6v44h42l-92 375h60z" />
    <glyph glyph-name="dieresis" unicode="&#xa8;" horiz-adv-x="185" 
d="M113 620h42v81h-42v-81zM33 620h43v81h-43v-81zM128 583h-62l-32 32h-6v91h53v-6l27 -27v33h52v-6l47 -47v-70h-60l-19 18v-18z" />
    <glyph glyph-name="macron" unicode="&#xaf;" horiz-adv-x="200" 
d="M31 699v-40h136v40h-136zM219 619h-152l-35 35h-6v50h146v-6l47 -47v-32z" />
    <glyph glyph-name="acute" unicode="&#xb4;" horiz-adv-x="143" 
d="M131 573h-66l-36 36h-8l43 96h70l-4 -6l48 -47zM73 614l51 86h-56l-39 -86h44z" />
    <glyph glyph-name="cedilla" unicode="&#xb8;" horiz-adv-x="231" 
d="M86 -83h-39q3 -56 59 -56h21q39 0 56 29t2 57.5t-54 28.5l13 49h-38l-23 -83h43q21 0 20.5 -22t-20.5 -22h-20q-19 0 -20 19zM42 -78h49q0 -5 1 -7v-1l12 -11h2h11l-34 34h-7l26 93h49l-2 -6l48 -47l-8 -27v-1l38 -38q16 -18 16 -40q0 -24 -18 -43t-48 -19h-21
q-28 0 -44 16l-38 38q-31 14 -32 59z" />
    <glyph glyph-name="questiondown" unicode="&#xbf;" horiz-adv-x="327" 
d="M195 559h-49v-85h49v85zM196 425h-50v-69q0 -45 -8.5 -74.5t-34.5 -52.5q-59 -56 -61 -139v-108q0 -67 35 -98.5t83 -31.5q50 0 86.5 33t36.5 99v53h-51v-51q0 -40 -18 -64t-54 -24q-67 0 -67 85v107q2 64 41 105q37 33 49.5 71t12.5 90v69zM141 564h59v-6l47 -47v-89
h-44l45 -45v-71q0 -103 -63 -162q-38 -42 -40 -104v-107q0 -20 2 -29q4 -1 13 -1q67 0 67 83v56h61v-6l47 -47v-55q0 -66 -37 -100t-88 -34q-52 0 -85 33l-32 32q-56 35 -56 117v108q2 85 63 142q41 39 41 124v74h45l-39 39h-6v95z" />
    <glyph glyph-name="Agrave" unicode="&#xc0;" horiz-adv-x="354" 
d="M227 235h-103l26 170l25 207l25 -207zM233 188l29 -188h52l-109 700h-61l-108 -700h53l29 188v-1h115v1zM257 -5l-22 140q-22 1 -65 1q-5 -31 -14.5 -94t-14.5 -94h-57l-47 47h-6l108 710h71l1 -7l46 -46l109 -704h-56l-47 47h-6zM202 355l-19 -115h38l-19 117v-2z
M104 834l52 -82h48l-39 82h-61zM255 715h-59l-37 33h-6l-58 90h74l3 -8l48 -41z" />
    <glyph glyph-name="Aacute" unicode="&#xc1;" horiz-adv-x="354" 
d="M227 235h-103l26 170l25 207l25 -207zM233 188l29 -188h52l-109 700h-61l-108 -700h53l29 188v-1h115v1zM257 -5l-22 140q-22 1 -65 1q-5 -31 -14.5 -94t-14.5 -94h-57l-47 47h-6l108 710h71l1 -7l46 -46l109 -704h-56l-47 47h-6zM202 355l-19 -115h38l-19 117v-2z
M257 713h-70l-38 35h-9l46 95h75l-5 -6l51 -47zM196 753l54 85h-60l-41 -85h47z" />
    <glyph glyph-name="Acircumflex" unicode="&#xc2;" horiz-adv-x="354" 
d="M227 235h-103l26 170l25 207l25 -207zM233 188l29 -188h52l-109 700h-61l-108 -700h53l29 188v-1h115v1zM257 -5l-22 140q-22 1 -65 1q-5 -31 -14.5 -94t-14.5 -94h-57l-47 47h-6l108 710h71l1 -7l46 -46l109 -704h-56l-47 47h-6zM202 355l-19 -115h38l-19 117v-2z
M305 717h-57l-26 23l-26 -24h-85l-29 29h-10l81 82h44zM154 823l-71 -73h49l43 38l44 -38h48l-71 73h-42z" />
    <glyph glyph-name="Atilde" unicode="&#xc3;" horiz-adv-x="354" 
d="M227 235h-103l26 170l25 207l25 -207zM233 188l29 -188h52l-109 700h-61l-108 -700h53l29 188v-1h115v1zM257 -5l-22 140q-22 1 -65 1q-5 -31 -14.5 -94t-14.5 -94h-57l-47 47h-6l108 710h71l1 -7l46 -46l109 -704h-56l-47 47h-6zM202 355l-19 -115h38l-19 117v-2z
M171 758q16 -12 38 -9.5t37 20.5v39q-32 -34 -69 -10q-16 12 -38 9.5t-37 -20.5v-39q32 34 69 10zM135 707l-33 35l-5 -5v52q21 24 49 24q18 0 34 -11l-1 1q16 -9 27 -9q22 0 45 25v-10l47 -47v-27q-14 -16 -36 -21t-42 7q-45 28 -85 -14z" />
    <glyph glyph-name="Adieresis" unicode="&#xc4;" horiz-adv-x="354" 
d="M227 235h-103l26 170l25 207l25 -207zM233 188l29 -188h52l-109 700h-61l-108 -700h53l29 188v-1h115v1zM257 -5l-22 140q-22 1 -65 1q-5 -31 -14.5 -94t-14.5 -94h-57l-47 47h-6l108 710h71l1 -7l46 -46l109 -704h-56l-47 47h-6zM202 355l-19 -115h38l-19 117v-2z
M194 751h42v81h-42v-81zM114 751h43v81h-43v-81zM209 714h-62l-32 32h-6v91h53v-6l27 -27v33h52v-6l47 -47v-70h-60l-19 18v-18z" />
    <glyph glyph-name="Aring" unicode="&#xc5;" horiz-adv-x="354" 
d="M203 724q0 -11 -8.5 -17.5t-19.5 -6.5t-19.5 6.5t-8.5 17.5q0 26 28 26t28 -26zM227 235h-103l26 170l25 215l25 -215zM239 724q0 28 -19 42.5t-45 14.5t-45 -15t-19 -41q0 -33 29 -48l-104 -677h53l29 187h115v1l29 -188h52l-106 676q31 14 31 48zM84 -52l-47 47h-6
l104 679q-29 19 -29 51q0 28 20.5 44.5t48.5 16.5q47 0 63 -36l37 -36q16 -16 16 -40q0 -34 -31 -49l106 -677h-56l-47 47h-6l-22 140h-65q-5 -31 -14.5 -93.5t-14.5 -93.5h-57zM202 355l-19 -115h38l-19 117v-2z" />
    <glyph glyph-name="AE" unicode="&#xc6;" horiz-adv-x="432" 
d="M216 566h3l-9 -213v-120h-66zM263 657h126v43h-184l-169 -700h53l48 188v-1h73v-187h179v46h-126v144h109v43h-109v424zM84 -52l-47 47h-7l170 710h194v-6l47 -47v-47h-126v-367h62v-6l47 -47v-47h-109v-87h79v-6l47 -47v-50h-183l-47 47h-6v141h-17l-48 -188h-56z" />
    <glyph glyph-name="Ccedilla" unicode="&#xc7;" horiz-adv-x="384" 
d="M163 -104h-39q3 -56 59 -56h21q39 0 56 29t2 57.5t-54 28.5l10 40q52 9 80.5 50.5t28.5 94.5v60h-51v-60q0 -42 -21.5 -70.5t-61.5 -28.5t-63 29.5t-23 70.5v417q0 46 24 73.5t62 27.5q84 0 84 -101v-63h50v64q0 69 -36.5 108.5t-98.5 39.5q-63 0 -100.5 -40.5
t-37.5 -108.5v-416q0 -60 34 -102t92 -46l-20 -73h43q21 0 20.5 -22t-20.5 -22h-20q-19 0 -20 19zM119 -99h49q0 -5 1 -7l12 -12h2h11l-34 34h-7l13 47q-13 8 -22 17l-30 29q-65 42 -65 133v416q0 70 39 112t104 42q78 0 115 -59l31 -30q41 -41 41 -114v-66h-54l-47 47h-6
v68q0 28 -6 47q-14 2 -23 2q-37 0 -60.5 -26.5t-23.5 -72.5v-417q0 -26 6 -40q13 -5 28 -5q38 0 58 27t20 67v65h61v-6l47 -47v-62q0 -53 -28 -95.5t-81 -51.5l-4 -13l2 -4l36 -36q16 -18 16 -40q0 -24 -18 -43t-48 -19h-21q-28 0 -44 16l-38 38q-31 14 -32 59z" />
    <glyph glyph-name="Egrave" unicode="&#xc8;" horiz-adv-x="347" 
d="M116 654h190v46h-243v-700h243v47h-190v140h151v46h-151v421zM111 -52l-47 47h-6v710h253v-6l47 -47v-50h-190v-364h104v-6l47 -47v-50h-151v-83h143v-6l47 -47v-51h-247zM125 840l49 -87h45l-37 87h-57zM267 713h-56l-35 35h-5l-55 97h70l3 -9l45 -44z" />
    <glyph glyph-name="Eacute" unicode="&#xc9;" horiz-adv-x="347" 
d="M116 654h190v46h-243v-700h243v47h-190v140h151v46h-151v421zM111 -52l-47 47h-6v710h253v-6l47 -47v-50h-190v-364h104v-6l47 -47v-50h-151v-83h143v-6l47 -47v-51h-247zM262 712h-66l-36 36h-8l43 96h70l-4 -6l48 -47zM204 753l51 86h-56l-39 -86h44z" />
    <glyph glyph-name="Ecircumflex" unicode="&#xca;" horiz-adv-x="347" 
d="M116 654h190v46h-243v-700h243v47h-190v140h151v46h-151v421zM111 -52l-47 47h-6v710h253v-6l47 -47v-50h-190v-364h104v-6l47 -47v-50h-151v-83h143v-6l47 -47v-51h-247zM314 722h-57l-26 21l-26 -21h-86l-29 26h-10l82 75h44zM163 819l-72 -67h49l43 36l45 -36h48
l-71 67h-42z" />
    <glyph glyph-name="Edieresis" unicode="&#xcb;" horiz-adv-x="347" 
d="M116 654h190v46h-243v-700h243v47h-190v140h151v46h-151v421zM111 -52l-47 47h-6v710h253v-6l47 -47v-50h-190v-364h104v-6l47 -47v-50h-151v-83h143v-6l47 -47v-51h-247zM208 750h42v81h-42v-81zM128 750h43v81h-43v-81zM223 713h-62l-32 32h-6v91h53v-6l27 -27v33h52
v-6l47 -47v-70h-60l-19 18v-18z" />
    <glyph glyph-name="Igrave" unicode="&#xcc;" horiz-adv-x="178" 
d="M63 0h53v700h-53v-700zM111 -52l-47 47h-6v710h63v-6l47 -47v-704h-57zM23 842l49 -87h45l-37 87h-57zM165 715h-56l-35 35h-5l-55 97h70l3 -9l45 -44z" />
    <glyph glyph-name="Iacute" unicode="&#xcd;" horiz-adv-x="178" 
d="M63 0h53v700h-53v-700zM111 -52l-47 47h-6v710h63v-6l47 -47v-704h-57zM164 711h-66l-36 36h-8l43 96h70l-4 -6l48 -47zM106 752l51 86h-56l-39 -86h44z" />
    <glyph glyph-name="Icircumflex" unicode="&#xce;" horiz-adv-x="178" 
d="M63 0h53v700h-53v-700zM111 -52l-47 47h-6v710h63v-6l47 -47v-704h-57zM222 715h-58l-27 24l-26 -25h-87l-30 30h-10l83 87h45zM68 826l-73 -77h50l44 41l45 -41h49l-72 77h-43z" />
    <glyph glyph-name="Idieresis" unicode="&#xcf;" horiz-adv-x="178" 
d="M63 0h53v700h-53v-700zM111 -52l-47 47h-6v710h63v-6l47 -47v-704h-57zM109 749h42v81h-42v-81zM29 749h43v81h-43v-81zM124 712h-62l-32 32h-6v91h53v-6l27 -27v33h52v-6l47 -47v-70h-60l-19 18v-18z" />
    <glyph glyph-name="Eth" unicode="&#xd0;" horiz-adv-x="395" 
d="M283 559v-421q0 -29 -7.5 -48t-22 -27.5t-28 -11t-32.5 -2.5h-76v133h70v45h-70v426h76q23 0 36 -2.5t26.5 -11.5t20 -28.5t7.5 -51.5zM16 227v-45h48v-182h129q142 0 142 138v421q0 47 -11.5 77t-34 43t-43.5 17t-53 4h-129v-473h-48zM11 177v55h48v473h134
q45 0 76.5 -10t49.5 -41l32 -31l2 -2q34 -34 34 -112v-421q0 -140 -144 -140h-131l-47 47h-6v140l-42 42h-6zM278 138v421q-2 28 -5 40q-9 2 -30 2h-74v-369h23v-6l47 -47v-49h-70v-76h24q18 0 30.5 2.5t26.5 10.5t21 26t7 45z" />
    <glyph glyph-name="Ntilde" unicode="&#xd1;" horiz-adv-x="416" 
d="M348 700h-52v-434l8 -145l-40 139l-150 440h-50v-700h53v421l-8 152l43 -146l147 -427h49v700zM291 705h62v-6l47 -47v-704h-53l-47 47h-5l-126 366v-413h-57l-47 47h-6v710h59l2 -8l46 -45l125 -368v421zM204 761q16 -12 38 -9.5t37 20.5v39q-32 -34 -69 -10
q-16 12 -38 9.5t-37 -20.5v-39q32 34 69 10zM168 710l-33 35l-5 -5v52q21 24 49 24q18 0 34 -11l-1 1q16 -9 27 -9q22 0 45 25v-10l47 -47v-27q-14 -16 -36 -21t-42 7q-45 28 -85 -14z" />
    <glyph glyph-name="Ograve" unicode="&#xd2;" horiz-adv-x="386" 
d="M193 659q40 0 61 -29t21 -70v-421q0 -42 -21.5 -70t-60.5 -28q-42 0 -64 28t-22 69v423q0 43 22 70.5t64 27.5zM193 -7q63 0 98 43t35 103v421q0 61 -36 103.5t-97 42.5q-66 0 -102.5 -42.5t-36.5 -102.5v-423q0 -61 38 -103t101 -42zM144 -20l-29 29q-66 41 -66 129v423
q0 62 38 106t106 44q74 0 112 -60l31 -30q42 -44 42 -111v-421q0 -61 -35.5 -104.5t-99.5 -43.5q-60 0 -99 39zM159 88q0 -22 4 -37q15 -5 30 -5q37 0 57 26.5t20 66.5v421q0 23 -8 45q-12 2 -19 2q-41 0 -62.5 -27t-21.5 -69v-423zM133 840l49 -87h45l-37 87h-57zM275 713
h-56l-35 35h-5l-55 97h70l3 -9l45 -44z" />
    <glyph glyph-name="Oacute" unicode="&#xd3;" horiz-adv-x="386" 
d="M193 659q40 0 61 -29t21 -70v-421q0 -42 -21.5 -70t-60.5 -28q-42 0 -64 28t-22 69v423q0 43 22 70.5t64 27.5zM193 -7q63 0 98 43t35 103v421q0 61 -36 103.5t-97 42.5q-66 0 -102.5 -42.5t-36.5 -102.5v-423q0 -61 38 -103t101 -42zM144 -20l-29 29q-66 41 -66 129v423
q0 62 38 106t106 44q74 0 112 -60l31 -30q42 -44 42 -111v-421q0 -61 -35.5 -104.5t-99.5 -43.5q-60 0 -99 39zM159 88q0 -22 4 -37q15 -5 30 -5q37 0 57 26.5t20 66.5v421q0 23 -8 45q-12 2 -19 2q-41 0 -62.5 -27t-21.5 -69v-423zM266 715h-66l-36 36h-8l43 96h70l-4 -6
l48 -47zM259 842l-51 -86h-44l39 86h56z" />
    <glyph glyph-name="Ocircumflex" unicode="&#xd4;" horiz-adv-x="386" 
d="M193 659q40 0 61 -29t21 -70v-421q0 -42 -21.5 -70t-60.5 -28q-42 0 -64 28t-22 69v423q0 43 22 70.5t64 27.5zM193 -7q63 0 98 43t35 103v421q0 61 -36 103.5t-97 42.5q-66 0 -102.5 -42.5t-36.5 -102.5v-423q0 -61 38 -103t101 -42zM144 -20l-29 29q-66 41 -66 129v423
q0 62 38 106t106 44q74 0 112 -60l31 -30q42 -44 42 -111v-421q0 -61 -35.5 -104.5t-99.5 -43.5q-60 0 -99 39zM159 88q0 -22 4 -37q15 -5 30 -5q37 0 57 26.5t20 66.5v421q0 23 -8 45q-12 2 -19 2q-41 0 -62.5 -27t-21.5 -69v-423zM326 721h-58l-27 24l-26 -25h-87l-30 30
h-10l83 87h45zM99 755l73 77h43l72 -77h-49l-45 41l-44 -41h-50z" />
    <glyph glyph-name="Otilde" unicode="&#xd5;" horiz-adv-x="386" 
d="M193 659q40 0 61 -29t21 -70v-421q0 -42 -21.5 -70t-60.5 -28q-42 0 -64 28t-22 69v423q0 43 22 70.5t64 27.5zM193 -7q63 0 98 43t35 103v421q0 61 -36 103.5t-97 42.5q-66 0 -102.5 -42.5t-36.5 -102.5v-423q0 -61 38 -103t101 -42zM144 -20l-29 29q-66 41 -66 129v423
q0 62 38 106t106 44q74 0 112 -60l31 -30q42 -44 42 -111v-421q0 -61 -35.5 -104.5t-99.5 -43.5q-60 0 -99 39zM159 88q0 -22 4 -37q15 -5 30 -5q37 0 57 26.5t20 66.5v421q0 23 -8 45q-12 2 -19 2q-41 0 -62.5 -27t-21.5 -69v-423zM191 764q16 -12 38 -9.5t37 20.5v39
q-32 -34 -69 -10q-16 12 -38 9.5t-37 -20.5v-39q32 34 69 10zM155 713l-33 35l-5 -5v52q21 24 49 24q18 0 34 -11l-1 1q16 -9 27 -9q22 0 45 25v-10l47 -47v-27q-14 -16 -36 -21t-42 7q-45 28 -85 -14z" />
    <glyph glyph-name="Odieresis" unicode="&#xd6;" horiz-adv-x="386" 
d="M193 659q40 0 61 -29t21 -70v-421q0 -42 -21.5 -70t-60.5 -28q-42 0 -64 28t-22 69v423q0 43 22 70.5t64 27.5zM193 -7q63 0 98 43t35 103v421q0 61 -36 103.5t-97 42.5q-66 0 -102.5 -42.5t-36.5 -102.5v-423q0 -61 38 -103t101 -42zM144 -20l-29 29q-66 41 -66 129v423
q0 62 38 106t106 44q74 0 112 -60l31 -30q42 -44 42 -111v-421q0 -61 -35.5 -104.5t-99.5 -43.5q-60 0 -99 39zM159 88q0 -22 4 -37q15 -5 30 -5q37 0 57 26.5t20 66.5v421q0 23 -8 45q-12 2 -19 2q-41 0 -62.5 -27t-21.5 -69v-423zM211 754h42v81h-42v-81zM131 754h43v81
h-43v-81zM226 717h-62l-32 32h-6v91h53v-6l27 -27v33h52v-6l47 -47v-70h-60l-19 18v-18z" />
    <glyph glyph-name="Oslash" unicode="&#xd8;" horiz-adv-x="386" 
d="M193 659q24 0 41 -11l-120 -554q-7 18 -7 44v423q0 43 22 70.5t64 27.5zM275 560v-421q0 -42 -21.5 -70t-60.5 -28q-27 0 -46 12l119 556q9 -23 9 -49zM193 -7q63 0 98 43t35 103v421q0 70 -46 113l16 77h-40l-12 -54q-21 10 -51 10q-66 0 -102.5 -42.5t-36.5 -102.5
v-423q0 -71 46 -112l-15 -70h42l10 47q27 -10 56 -10zM133 -96l-47 47h-7l16 74q-46 50 -46 113v423q0 62 38 106t106 44q31 0 47 -7l11 51h51l-1 -6l47 -47l-16 -79q46 -50 46 -113v-421q0 -61 -35.5 -104.5t-99.5 -43.5q-27 0 -54 9l-10 -46h-46zM209 47q30 6 45.5 31.5
t15.5 60.5v194zM159 511v-187l11 51q25 120 49 229q-60 -14 -60 -93z" />
    <glyph glyph-name="Ugrave" unicode="&#xd9;" horiz-adv-x="399" 
d="M332 139v561h-51v-561q0 -44 -20.5 -72t-64.5 -28q-41 0 -62 29.5t-21 71.5v560h-53v-560q0 -63 37.5 -105.5t98.5 -42.5q65 0 100.5 43.5t35.5 103.5zM337 705v-6l47 -47v-563q0 -61 -36 -105t-102 -44q-57 0 -95 38l-30 29q-66 42 -66 133v565h63v-6l47 -47v-562
q0 -27 5 -43q12 -3 26 -3q80 0 80 95v566h61zM125 837l49 -87h45l-37 87h-57zM267 710h-56l-35 35h-5l-55 97h70l3 -9l45 -44z" />
    <glyph glyph-name="Uacute" unicode="&#xda;" horiz-adv-x="399" 
d="M332 139v561h-51v-561q0 -44 -20.5 -72t-64.5 -28q-41 0 -62 29.5t-21 71.5v560h-53v-560q0 -63 37.5 -105.5t98.5 -42.5q65 0 100.5 43.5t35.5 103.5zM337 705v-6l47 -47v-563q0 -61 -36 -105t-102 -44q-57 0 -95 38l-30 29q-66 42 -66 133v565h63v-6l47 -47v-562
q0 -27 5 -43q12 -3 26 -3q80 0 80 95v566h61zM264 710h-66l-36 36h-8l43 96h70l-4 -6l48 -47zM206 751l51 86h-56l-39 -86h44z" />
    <glyph glyph-name="Ucircumflex" unicode="&#xdb;" horiz-adv-x="399" 
d="M332 139v561h-51v-561q0 -44 -20.5 -72t-64.5 -28q-41 0 -62 29.5t-21 71.5v560h-53v-560q0 -63 37.5 -105.5t98.5 -42.5q65 0 100.5 43.5t35.5 103.5zM337 705v-6l47 -47v-563q0 -61 -36 -105t-102 -44q-57 0 -95 38l-30 29q-66 42 -66 133v565h63v-6l47 -47v-562
q0 -27 5 -43q12 -3 26 -3q80 0 80 95v566h61zM325 719h-58l-27 24l-26 -25h-87l-30 30h-10l83 87h45zM171 830l-73 -77h50l44 41l45 -41h49l-72 77h-43z" />
    <glyph glyph-name="Udieresis" unicode="&#xdc;" horiz-adv-x="399" 
d="M332 139v561h-51v-561q0 -44 -20.5 -72t-64.5 -28q-41 0 -62 29.5t-21 71.5v560h-53v-560q0 -63 37.5 -105.5t98.5 -42.5q65 0 100.5 43.5t35.5 103.5zM337 705v-6l47 -47v-563q0 -61 -36 -105t-102 -44q-57 0 -95 38l-30 29q-66 42 -66 133v565h63v-6l47 -47v-562
q0 -27 5 -43q12 -3 26 -3q80 0 80 95v566h61zM205 752h42v81h-42v-81zM125 752h43v81h-43v-81zM220 715h-62l-32 32h-6v91h53v-6l27 -27v33h52v-6l47 -47v-70h-60l-19 18v-18z" />
    <glyph glyph-name="Yacute" unicode="&#xdd;" horiz-adv-x="373" 
d="M346 701h-55q-8 -33 -65 -256l-41 -191l-40 190l-66 257h-53l133 -526v-175h52v175zM286 706h67l-2 -6l48 -47l-136 -528v-177h-56l-47 47h-6v179q-10 43 -33 132t-34 132q-50 194 -68 268h64l1 -7l47 -46l66 -259l6 -30l18 82zM253 709h-66l-36 36h-8l43 96h70l-4 -6
l48 -47zM195 750l51 86h-56l-39 -86h44z" />
    <glyph glyph-name="Thorn" unicode="&#xde;" horiz-adv-x="388" 
d="M283 464v-224q0 -44 -25.5 -70t-59.5 -26h-83v413h83q40 0 62.5 -24.5t22.5 -68.5zM334 240v224q0 71 -40.5 105.5t-95.5 34.5h-83v97h-53v-701h53v97h83q62 0 99 42.5t37 100.5zM167 653v-44h31q80 0 118 -60l32 -31q38 -38 38 -104v-224q0 -58 -37.5 -101.5
t-100.5 -43.5h-81v-97h-57l-47 47h-6v711h63v-6zM278 240v224q0 16 -6 38q-12 3 -24 3h-81v-356h31q32 0 56 25t24 66z" />
    <glyph glyph-name="agrave" unicode="&#xe0;" horiz-adv-x="293" 
d="M178 190h-70l13 83l23 180l22 -180zM185 147l22 -147h52l-87 559h-57l-86 -559h52l23 146h81v1zM202 -5l-15 99h-31q-4 -24 -11.5 -73t-11.5 -73h-56l-47 47h-6l86 569h67l1 -7l46 -46l87 -563h-56l-47 47h-6zM76 698l49 -87h45l-37 87h-57zM218 571h-56l-35 35h-5
l-55 97h70l3 -9l45 -44z" />
    <glyph glyph-name="aacute" unicode="&#xe1;" horiz-adv-x="293" 
d="M178 190h-70l13 83l23 180l22 -180zM185 147l22 -147h52l-87 559h-57l-86 -559h52l23 146h81v1zM202 -5l-15 99h-31q-4 -24 -11.5 -73t-11.5 -73h-56l-47 47h-6l86 569h67l1 -7l46 -46l87 -563h-56l-47 47h-6zM220 571h-66l-36 36h-8l43 96h70l-4 -6l48 -47zM162 612
l51 86h-56l-39 -86h44z" />
    <glyph glyph-name="acircumflex" unicode="&#xe2;" horiz-adv-x="293" 
d="M178 190h-70l13 83l23 180l22 -180zM185 147l22 -147h52l-87 559h-57l-86 -559h52l23 146h81v1zM202 -5l-15 99h-31q-4 -24 -11.5 -73t-11.5 -73h-56l-47 47h-6l86 569h67l1 -7l46 -46l87 -563h-56l-47 47h-6zM268 585h-55l-25 25l-24 -26h-81l-28 31h-10l78 90h42z
M124 700l-69 -80h47l41 43l42 -43h46l-67 80h-40z" />
    <glyph glyph-name="atilde" unicode="&#xe3;" horiz-adv-x="293" 
d="M178 190h-70l13 83l23 180l22 -180zM185 147l22 -147h52l-87 559h-57l-86 -559h52l23 146h81v1zM202 -5l-15 99h-31q-4 -24 -11.5 -73t-11.5 -73h-56l-47 47h-6l86 569h67l1 -7l46 -46l87 -563h-56l-47 47h-6zM141 649q15 -12 35 -9.5t33 20.5v39q-29 -34 -62 -10
q-15 12 -35 9.5t-33 -20.5v-39q29 34 62 10zM109 598l-30 35l-5 -5v52q20 24 45 24q17 0 31 -11l-1 1q14 -9 24 -9q19 0 41 25v-10l42 -47v-27q-13 -16 -32.5 -21t-37.5 7q-41 28 -77 -14z" />
    <glyph glyph-name="adieresis" unicode="&#xe4;" horiz-adv-x="293" 
d="M178 190h-70l13 83l23 180l22 -180zM185 147l22 -147h52l-87 559h-57l-86 -559h52l23 146h81v1zM202 -5l-15 99h-31q-4 -24 -11.5 -73t-11.5 -73h-56l-47 47h-6l86 569h67l1 -7l46 -46l87 -563h-56l-47 47h-6zM162 617h42v81h-42v-81zM82 617h43v81h-43v-81zM177 580h-62
l-32 32h-6v91h53v-6l27 -27v33h52v-6l47 -47v-70h-60l-19 18v-18z" />
    <glyph glyph-name="aring" unicode="&#xe5;" horiz-adv-x="293" 
d="M178 190h-70l13 83l23 180l22 -180zM185 147l22 -147h52l-87 559h-57l-86 -559h52l23 146h81v1zM202 -5l-15 99h-31q-4 -24 -11.5 -73t-11.5 -73h-56l-47 47h-6l86 569h67l1 -7l46 -46l87 -563h-56l-47 47h-6zM205 653q0 27 -18.5 40.5t-43.5 13.5t-44 -14t-19 -39
t18.5 -39t43.5 -14t44 13t19 39zM170 653q0 -22 -27 -22t-27 22q0 25 27 25t27 -25zM128 583l-22 21q-30 17 -30 50q0 27 20 42.5t47 15.5q46 0 62 -34l19 -18q15 -14 15 -38q0 -27 -19.5 -40.5t-46.5 -13.5q-30 0 -45 15z" />
    <glyph glyph-name="ae" unicode="&#xe6;" horiz-adv-x="353" 
d="M175 474h2l-8 -204v-77h-48zM216 514h99v45h-167l-120 -559h55l29 146h57v-146h146v47h-99v101h86v45h-86v321zM76 -52l-47 47h-7l121 569h177v-6l47 -47v-49h-99v-264h39v-6l47 -47v-49h-86v-44h52v-6l47 -47v-51h-150l-47 47h-6v99q-4 -24 -14 -73t-15 -73h-59z" />
    <glyph glyph-name="ccedilla" unicode="&#xe7;" horiz-adv-x="325" 
d="M134 -100h-39q3 -56 59 -56h21q39 0 56 29t2 57.5t-54 28.5l10 38q41 8 62.5 40.5t21.5 77.5v51h-52v-51q0 -72 -59 -72q-30 0 -46 20t-16 53v327q0 35 17.5 54.5t44.5 19.5q29 0 44.5 -20t15.5 -54v-55h50v55q0 57 -30 89t-81 32q-52 0 -83 -33.5t-31 -87.5v-327
q0 -52 27.5 -84.5t75.5 -36.5l-19 -70h43q21 0 20.5 -22t-20.5 -22h-20q-19 0 -20 19zM90 -95h49q0 -5 1 -8l12 -11h2h11l-34 34h-7l12 46l-7 7l-31 31q-56 30 -56 112v327q0 56 32.5 91t86.5 35q66 0 97 -50l33 -33q33 -33 33 -93v-57h-54l-47 47h-6v60q0 8 -2 22h-3
q-27 0 -43.5 -18.5t-16.5 -53.5v-327v-18h10q54 0 54 67v56h62v-6l47 -47v-53q0 -45 -21.5 -78t-62.5 -42q0 -1 -1 -3.5t-1.5 -4.5t-1.5 -4l2 -3l36 -36q16 -18 16 -40q0 -24 -18 -43t-48 -19h-21q-28 0 -44 16l-38 38q-31 14 -32 59z" />
    <glyph glyph-name="egrave" unicode="&#xe8;" horiz-adv-x="288" 
d="M103 513h149v46h-202v-559h202v48h-149v98h119v47h-119v320zM98 -52l-47 47h-6v569h212v-6l47 -47v-50h-149v-263h72v-6l47 -47v-51h-119v-41h102v-6l47 -47v-52h-206zM92 700l49 -87h45l-37 87h-57zM234 573h-56l-35 35h-5l-55 97h70l3 -9l45 -44z" />
    <glyph glyph-name="eacute" unicode="&#xe9;" horiz-adv-x="288" 
d="M103 513h149v46h-202v-559h202v48h-149v98h119v47h-119v320zM98 -52l-47 47h-6v569h212v-6l47 -47v-50h-149v-263h72v-6l47 -47v-51h-119v-41h102v-6l47 -47v-52h-206zM224 575h-66l-36 36h-8l43 96h70l-4 -6l48 -47zM166 616l51 86h-56l-39 -86h44z" />
    <glyph glyph-name="ecircumflex" unicode="&#xea;" horiz-adv-x="288" 
d="M103 513h149v46h-202v-559h202v48h-149v98h119v47h-119v320zM98 -52l-47 47h-6v569h212v-6l47 -47v-50h-149v-263h72v-6l47 -47v-51h-119v-41h102v-6l47 -47v-52h-206zM273 580h-53l-25 25l-24 -26h-79l-28 32h-9l76 92h41zM132 697l-67 -81h46l40 43l41 -43h45l-66 81
h-39z" />
    <glyph glyph-name="edieresis" unicode="&#xeb;" horiz-adv-x="288" 
d="M103 513h149v46h-202v-559h202v48h-149v98h119v47h-119v320zM98 -52l-47 47h-6v569h212v-6l47 -47v-50h-149v-263h72v-6l47 -47v-51h-119v-41h102v-6l47 -47v-52h-206zM172 615h42v81h-42v-81zM92 615h43v81h-43v-81zM187 578h-62l-32 32h-6v91h53v-6l27 -27v33h52v-6
l47 -47v-70h-60l-19 18v-18z" />
    <glyph glyph-name="igrave" unicode="&#xec;" horiz-adv-x="152" 
d="M50 0h52v559h-52v-559zM98 -52l-47 47h-6v569h62v-6l47 -47v-563h-56zM15 700l46 -87h43l-35 87h-54zM149 573h-53l-33 35h-4l-53 97h67l3 -9l42 -44z" />
    <glyph glyph-name="iacute" unicode="&#xed;" horiz-adv-x="152" 
d="M50 0h52v559h-52v-559zM98 -52l-47 47h-6v569h62v-6l47 -47v-563h-56zM135 573h-59l-32 36h-7l38 96h63l-4 -6l43 -47zM83 614l46 86h-50l-35 -86h39z" />
    <glyph glyph-name="icircumflex" unicode="&#xee;" horiz-adv-x="152" 
d="M50 0h52v559h-52v-559zM98 -52l-47 47h-6v569h62v-6l47 -47v-563h-56zM187 574h-48l-23 27l-22 -28h-73l-25 33h-9l70 95h38zM58 696l-61 -84h42l37 45l38 -45h41l-61 84h-36z" />
    <glyph glyph-name="idieresis" unicode="&#xef;" horiz-adv-x="152" 
d="M50 0h52v559h-52v-559zM98 -52l-47 47h-6v569h62v-6l47 -47v-563h-56zM94 618h42v81h-42v-81zM14 618h43v81h-43v-81zM109 581h-62l-32 32h-6v91h53v-6l27 -27v33h52v-6l47 -47v-70h-60l-19 18v-18z" />
    <glyph glyph-name="eth" unicode="&#xf0;" horiz-adv-x="325" 
d="M159 501q29 0 43.5 -21t14.5 -51v-314q0 -32 -14.5 -52t-43.5 -20q-30 0 -46 20.5t-16 50.5v315q0 72 62 72zM98 605l14 -24l32 19l29 -56q-14 2 -28 2q-42 0 -71.5 -33t-29.5 -84v-315q0 -51 31.5 -85.5t83.5 -34.5t81 35.5t29 85.5v314q0 32 -21 76l-62 120l41 24
l-15 23l-39 -24l-25 53h-57l41 -76zM110 573l-19 34l33 20l-19 35q-19 35 -23 44h69l5 -10l31 -33q3 2 13 8t14 9l8 -15l41 -40l17 -27l-41 -24q11 -23 33 -64t28 -54q21 -44 21 -77v-314q0 -51 -29.5 -87t-82.5 -36q-50 0 -82 32l-32 31q-56 34 -56 109v315q0 51 28.5 85
t70.5 36l-25 25zM149 64v-16h10q26 0 39.5 18.5t13.5 48.5v314q0 6 -2 20h-1q-60 0 -60 -70v-315z" />
    <glyph glyph-name="ntilde" unicode="&#xf1;" horiz-adv-x="343" 
d="M100 559h-49v-559h53v293l-9 145l40 -142l102 -296h49v559h-53v-294l11 -152l-43 146zM46 564h58l2 -8l46 -45l76 -226v279h63v-6l47 -47v-563h-53l-47 47h-5l-77 223v-270h-57l-47 47h-6v569zM168 641q16 -12 38 -9.5t37 20.5v39q-32 -34 -69 -10q-16 12 -38 9.5
t-37 -20.5v-39q32 34 69 10zM132 590l-33 35l-5 -5v52q21 24 49 24q18 0 34 -11l-1 1q16 -9 27 -9q22 0 45 25v-10l47 -47v-27q-14 -16 -36 -21t-42 7q-45 28 -85 -14z" />
    <glyph glyph-name="ograve" unicode="&#xf2;" horiz-adv-x="319" 
d="M157 517q29 0 44 -21t15 -51v-330q0 -32 -15 -52t-44 -20t-45 20.5t-16 50.5v331q0 32 15.5 52t45.5 20zM157 -6q53 0 82 35.5t29 85.5v330q0 50 -30.5 84.5t-80.5 34.5q-54 0 -84 -34.5t-30 -84.5v-331q0 -51 31 -85.5t83 -34.5zM126 -26l-31 31q-57 32 -57 109v331
q0 52 31.5 88t87.5 36q63 0 97 -53l31 -31q35 -35 35 -90v-330q0 -51 -30 -87t-83 -36q-49 0 -81 32zM148 64v-16h9q27 0 40.5 18.5t13.5 48.5v330q0 6 -2 20h-2q-29 0 -44 -19.5t-15 -50.5v-331zM93 699l49 -83h45l-37 83h-57zM235 577h-56l-35 34h-5l-55 93h70l3 -8
l45 -43z" />
    <glyph glyph-name="oacute" unicode="&#xf3;" horiz-adv-x="319" 
d="M157 517q29 0 44 -21t15 -51v-330q0 -32 -15 -52t-44 -20t-45 20.5t-16 50.5v331q0 32 15.5 52t45.5 20zM157 -6q53 0 82 35.5t29 85.5v330q0 50 -30.5 84.5t-80.5 34.5q-54 0 -84 -34.5t-30 -84.5v-331q0 -51 31 -85.5t83 -34.5zM126 -26l-31 31q-57 32 -57 109v331
q0 52 31.5 88t87.5 36q63 0 97 -53l31 -31q35 -35 35 -90v-330q0 -51 -30 -87t-83 -36q-49 0 -81 32zM148 64v-16h9q27 0 40.5 18.5t13.5 48.5v330q0 6 -2 20h-2q-29 0 -44 -19.5t-15 -50.5v-331zM225 578h-65l-35 36h-8l42 94h69l-4 -6l48 -46zM168 619l50 84h-55l-38 -84
h43z" />
    <glyph glyph-name="ocircumflex" unicode="&#xf4;" horiz-adv-x="319" 
d="M157 517q29 0 44 -21t15 -51v-330q0 -32 -15 -52t-44 -20t-45 20.5t-16 50.5v331q0 32 15.5 52t45.5 20zM157 -6q53 0 82 35.5t29 85.5v330q0 50 -30.5 84.5t-80.5 34.5q-54 0 -84 -34.5t-30 -84.5v-331q0 -51 31 -85.5t83 -34.5zM126 -26l-31 31q-57 32 -57 109v331
q0 52 31.5 88t87.5 36q63 0 97 -53l31 -31q35 -35 35 -90v-330q0 -51 -30 -87t-83 -36q-49 0 -81 32zM148 64v-16h9q27 0 40.5 18.5t13.5 48.5v330q0 6 -2 20h-2q-29 0 -44 -19.5t-15 -50.5v-331zM290 586h-58l-27 24l-26 -25h-87l-30 30h-10l83 87h45zM136 697l-73 -77h50
l44 41l45 -41h49l-72 77h-43z" />
    <glyph glyph-name="otilde" unicode="&#xf5;" horiz-adv-x="319" 
d="M157 517q29 0 44 -21t15 -51v-330q0 -32 -15 -52t-44 -20t-45 20.5t-16 50.5v331q0 32 15.5 52t45.5 20zM157 -6q53 0 82 35.5t29 85.5v330q0 50 -30.5 84.5t-80.5 34.5q-54 0 -84 -34.5t-30 -84.5v-331q0 -51 31 -85.5t83 -34.5zM126 -26l-31 31q-57 32 -57 109v331
q0 52 31.5 88t87.5 36q63 0 97 -53l31 -31q35 -35 35 -90v-330q0 -51 -30 -87t-83 -36q-49 0 -81 32zM148 64v-16h9q27 0 40.5 18.5t13.5 48.5v330q0 6 -2 20h-2q-29 0 -44 -19.5t-15 -50.5v-331zM154 642q16 -12 38 -9.5t37 20.5v39q-32 -34 -69 -10q-16 12 -38 9.5
t-37 -20.5v-39q32 34 69 10zM118 591l-33 35l-5 -5v52q21 24 49 24q18 0 34 -11l-1 1q16 -9 27 -9q22 0 45 25v-10l47 -47v-27q-14 -16 -36 -21t-42 7q-45 28 -85 -14z" />
    <glyph glyph-name="odieresis" unicode="&#xf6;" horiz-adv-x="319" 
d="M157 517q29 0 44 -21t15 -51v-330q0 -32 -15 -52t-44 -20t-45 20.5t-16 50.5v331q0 32 15.5 52t45.5 20zM157 -6q53 0 82 35.5t29 85.5v330q0 50 -30.5 84.5t-80.5 34.5q-54 0 -84 -34.5t-30 -84.5v-331q0 -51 31 -85.5t83 -34.5zM126 -26l-31 31q-57 32 -57 109v331
q0 52 31.5 88t87.5 36q63 0 97 -53l31 -31q35 -35 35 -90v-330q0 -51 -30 -87t-83 -36q-49 0 -81 32zM148 64v-16h9q27 0 40.5 18.5t13.5 48.5v330q0 6 -2 20h-2q-29 0 -44 -19.5t-15 -50.5v-331zM176 621h42v81h-42v-81zM96 621h43v81h-43v-81zM191 584h-62l-32 32h-6v91
h53v-6l27 -27v33h52v-6l47 -47v-70h-60l-19 18v-18z" />
    <glyph glyph-name="oslash" unicode="&#xf8;" horiz-adv-x="327" 
d="M161 517q10 0 19 -3l-74 -433q-6 15 -6 33v331q0 32 15.5 52t45.5 20zM220 445v-330q0 -32 -15 -52t-44 -20q-16 0 -25 4l75 440q9 -18 9 -42zM84 -49h36l8 47q13 -4 33 -4q53 0 82 35.5t29 85.5v330q0 69 -51 102l11 66h-35l-9 -52q-14 3 -27 3q-54 0 -84 -34.5
t-30 -84.5v-331q0 -67 47 -101zM132 -101l-47 47h-6l10 65q-47 34 -47 103v331q0 52 31.5 88t87.5 36q15 0 23 -2l4 22q1 11 4 29h45l-1 -5l48 -48l-11 -65l15 -14q36 -36 36 -91v-330q0 -51 -30 -87t-83 -36q-17 0 -31 3l-8 -46h-40z" />
    <glyph glyph-name="ugrave" unicode="&#xf9;" horiz-adv-x="329" 
d="M273 115v444h-52v-444q0 -74 -61 -74q-29 0 -44 21.5t-15 52.5v444h-53v-444q0 -52 30.5 -86.5t81.5 -34.5q54 0 83.5 35.5t29.5 85.5zM278 564v-6l47 -47v-446q0 -51 -30 -87t-85 -36q-50 0 -79 31l-34 33q-54 35 -54 109v449h63v-6l47 -47v-446q0 -13 1 -19h6
q56 0 56 69v449h62zM94 702l49 -87h45l-37 87h-57zM236 575h-56l-35 35h-5l-55 97h70l3 -9l45 -44z" />
    <glyph glyph-name="uacute" unicode="&#xfa;" horiz-adv-x="329" 
d="M273 115v444h-52v-444q0 -74 -61 -74q-29 0 -44 21.5t-15 52.5v444h-53v-444q0 -52 30.5 -86.5t81.5 -34.5q54 0 83.5 35.5t29.5 85.5zM278 564v-6l47 -47v-446q0 -51 -30 -87t-85 -36q-50 0 -79 31l-34 33q-54 35 -54 109v449h63v-6l47 -47v-446q0 -13 1 -19h6
q56 0 56 69v449h62zM227 574h-66l-36 36h-8l43 96h70l-4 -6l48 -47zM169 615l51 86h-56l-39 -86h44z" />
    <glyph glyph-name="ucircumflex" unicode="&#xfb;" horiz-adv-x="329" 
d="M273 115v444h-52v-444q0 -74 -61 -74q-29 0 -44 21.5t-15 52.5v444h-53v-444q0 -52 30.5 -86.5t81.5 -34.5q54 0 83.5 35.5t29.5 85.5zM278 564v-6l47 -47v-446q0 -51 -30 -87t-85 -36q-50 0 -79 31l-34 33q-54 35 -54 109v449h63v-6l47 -47v-446q0 -13 1 -19h6
q56 0 56 69v449h62zM295 585h-58l-27 24l-26 -25h-87l-30 30h-10l83 87h45zM141 696l-73 -77h50l44 41l45 -41h49l-72 77h-43z" />
    <glyph glyph-name="udieresis" unicode="&#xfc;" horiz-adv-x="329" 
d="M273 115v444h-52v-444q0 -74 -61 -74q-29 0 -44 21.5t-15 52.5v444h-53v-444q0 -52 30.5 -86.5t81.5 -34.5q54 0 83.5 35.5t29.5 85.5zM278 564v-6l47 -47v-446q0 -51 -30 -87t-85 -36q-50 0 -79 31l-34 33q-54 35 -54 109v449h63v-6l47 -47v-446q0 -13 1 -19h6
q56 0 56 69v449h62zM176 618h42v81h-42v-81zM96 618h43v81h-43v-81zM191 581h-62l-32 32h-6v91h53v-6l27 -27v33h52v-6l47 -47v-70h-60l-19 18v-18z" />
    <glyph glyph-name="yacute" unicode="&#xfd;" 
d="M285 560h-55l-52 -203l-26 -135l-27 136l-53 202h-51l104 -419v-141h52v141zM226 565h66l-2 -6l48 -47l-109 -422v-142h-56l-47 47h-6v145l-52 210q-12 48 -53 215h60l2 -7l46 -46l46 -175q2 14 4 21zM221 572h-66l-36 36h-8l43 96h70l-4 -6l48 -47zM163 613l51 86h-56
l-39 -86h44z" />
    <glyph glyph-name="thorn" unicode="&#xfe;" horiz-adv-x="320" 
d="M223 369v-179q0 -32 -18 -51t-43 -19h-59v316h59q29 0 45 -17.5t16 -49.5zM274 190v179q0 58 -33 86t-79 28h-59v76h-54v-559h54v72h59q51 0 81.5 35t30.5 83zM155 511v-23h7q69 0 100 -53l33 -32q-1 0 -1 0.5t-1 0.5l2 -1q31 -29 31 -84v-179q0 -49 -31 -84.5t-83 -35.5
h-57v-72h-58l-47 47h-6v569h64v-6zM218 190v179q0 2 -0.5 7t-0.5 8h-62v-259h7q23 0 39.5 17.5t16.5 47.5z" />
    <glyph glyph-name="ydieresis" unicode="&#xff;" 
d="M285 560h-55l-52 -203l-26 -135l-27 136l-53 202h-51l104 -419v-141h52v141zM226 565h66l-2 -6l48 -47l-109 -422v-142h-56l-47 47h-6v145l-52 210q-12 48 -53 215h60l2 -7l46 -46l46 -175q2 14 4 21zM165 619h42v81h-42v-81zM85 619h43v81h-43v-81zM180 582h-62l-32 32
h-6v91h53v-6l27 -27v33h52v-6l47 -47v-70h-60l-19 18v-18z" />
    <glyph glyph-name="Amacron" unicode="&#x100;" horiz-adv-x="354" 
d="M227 235h-103l26 170l25 207l25 -207zM233 188l29 -188h52l-109 700h-61l-108 -700h53l29 188v-1h115v1zM257 -5l-22 140q-22 1 -65 1q-5 -31 -14.5 -94t-14.5 -94h-57l-47 47h-6l108 710h71l1 -7l46 -46l109 -704h-56l-47 47h-6zM202 355l-19 -115h38l-19 117v-2z
M106 793v-40h136v40h-136zM294 713h-152l-35 35h-6v50h146v-6l47 -47v-32z" />
    <glyph glyph-name="amacron" unicode="&#x101;" horiz-adv-x="293" 
d="M178 190h-70l13 83l23 180l22 -180zM185 147l22 -147h52l-87 559h-57l-86 -559h52l23 146h81v1zM202 -5l-15 99h-31q-4 -24 -11.5 -73t-11.5 -73h-56l-47 47h-6l86 569h67l1 -7l46 -46l87 -563h-56l-47 47h-6zM75 696v-40h136v40h-136zM263 616h-152l-35 35h-6v50h146v-6
l47 -47v-32z" />
    <glyph glyph-name="Abreve" unicode="&#x102;" horiz-adv-x="354" 
d="M227 235h-103l26 170l25 207l25 -207zM233 188l29 -188h52l-109 700h-61l-108 -700h53l29 188v-1h115v1zM257 -5l-22 140q-22 1 -65 1q-5 -31 -14.5 -94t-14.5 -94h-57l-47 47h-6l108 710h71l1 -7l46 -46l109 -704h-56l-47 47h-6zM202 355l-19 -115h38l-19 117v-2z
M183 785h-15q-17 0 -25.5 10t-8.5 24h-42q0 -35 20.5 -54.5t54.5 -19.5h17q34 0 54 19.5t20 54.5h-42q0 -34 -33 -34zM183 790q28 0 28 34h52v-6l35 -37q0 -37 -20.5 -57.5t-55.5 -20.5h-17q-33 0 -56 21l-24 26q-38 21 -38 74h52v-6l28 -28h1h15z" />
    <glyph glyph-name="abreve" unicode="&#x103;" horiz-adv-x="293" 
d="M178 190h-70l13 83l23 180l22 -180zM185 147l22 -147h52l-87 559h-57l-86 -559h52l23 146h81v1zM202 -5l-15 99h-31q-4 -24 -11.5 -73t-11.5 -73h-56l-47 47h-6l86 569h67l1 -7l46 -46l87 -563h-56l-47 47h-6zM153 663h-15q-17 0 -25.5 10t-8.5 24h-42q0 -35 20.5 -54.5
t54.5 -19.5h17q34 0 54 19.5t20 54.5h-42q0 -34 -33 -34zM153 668q28 0 28 34h52v-6l35 -37q0 -37 -20.5 -57.5t-55.5 -20.5h-17q-33 0 -56 21l-24 26q-38 21 -38 74h52v-6l28 -28h1h15z" />
    <glyph glyph-name="Aogonek" unicode="&#x104;" horiz-adv-x="354" 
d="M227 235h-103l26 170l25 207l25 -207zM233 188l29 -188h8l-21 -37q-14 -30 0 -53.5t47 -23.5q32 0 49 26l-20 24q-7 -14 -25 -14q-12 0 -16 10t1 20l25 48h4l-109 700h-61l-108 -700h53l29 187h115v1zM257 -5l-22 140h-65q-5 -31 -14.5 -93.5t-14.5 -93.5h-57l-47 47h-6
l108 710h71l1 -7l46 -46l108 -703l-3 -1l-16 -29l29 -29l23 -28q-19 -28 -52 -28q-25 0 -41 16l-37 37q-30 13 -30 48q0 18 6 30l17 30h-4zM202 355l-19 -115h38l-19 117v-2z" />
    <glyph glyph-name="aogonek" unicode="&#x105;" horiz-adv-x="301" 
d="M182 190h-70l13 83l23 180l22 -180zM189 147l22 -147h12l-20 -44q-12 -27 0.5 -49t42.5 -22q29 0 45 25l-18 22q-8 -14 -24 -14q-10 0 -14 9.5t1 18.5l22 54h5l-87 559h-57l-86 -559h52l23 146h81v1zM206 -5l-15 99h-31q-3 -24 -11.5 -73t-11.5 -73h-56l-47 47h-6l86 569
h67l1 -7l46 -46l87 -563h-5l-15 -34l28 -28l21 -26q-18 -27 -48 -27q-24 0 -38 14l-39 39q-20 9 -25.5 29t4.5 43l16 35l-2 2h-6z" />
    <glyph glyph-name="Cacute" unicode="&#x106;" horiz-adv-x="384" 
d="M193 -7q65 0 99.5 43.5t34.5 103.5v60h-51v-60q0 -42 -21.5 -70.5t-61.5 -28.5t-63 29.5t-23 70.5v417q0 46 24 73.5t62 27.5q84 0 84 -101v-63h50v64q0 69 -36.5 108.5t-98.5 39.5q-63 0 -100.5 -40.5t-37.5 -108.5v-416q0 -64 38 -106.5t101 -42.5zM159 91q0 -26 6 -40
q13 -5 28 -5q38 0 58 27t20 67v65h61v-6l47 -47v-62q0 -60 -35.5 -104.5t-100.5 -44.5q-59 0 -98 39l-29 28q-67 42 -67 134v416q0 70 39 112t104 42q78 0 115 -59l31 -30q41 -41 41 -114v-66h-54l-47 47h-6v68q0 28 -6 47q-14 2 -23 2q-37 0 -60.5 -26.5t-23.5 -72.5v-417z
M267 709h-66l-36 36h-8l43 96h70l-4 -6l48 -47zM209 750l51 86h-56l-39 -86h44z" />
    <glyph glyph-name="cacute" unicode="&#x107;" horiz-adv-x="317" 
d="M158 -6q54 0 82.5 34.5t28.5 86.5v51h-52v-51q0 -72 -59 -72q-30 0 -46 20t-16 53v327q0 35 17.5 54.5t44.5 19.5q29 0 44.5 -20t15.5 -54v-55h50v55q0 57 -30 89t-81 32q-52 0 -83 -33.5t-31 -87.5v-327q0 -55 31 -88.5t84 -33.5zM148 66v-18h10q54 0 54 67v56h62v-6
l47 -47v-53q0 -53 -29 -88t-84 -35q-52 0 -83 31l-33 33q-54 32 -54 110v327q0 56 32.5 91t86.5 35q66 0 97 -50l33 -33q33 -33 33 -93v-57h-54l-47 47h-6v60q0 8 -2 22h-3q-27 0 -43.5 -18.5t-16.5 -53.5v-327zM231 565h-66l-36 36h-8l43 96h70l-4 -6l48 -47zM173 606
l51 86h-56l-39 -86h44z" />
    <glyph glyph-name="Ccircumflex" unicode="&#x108;" horiz-adv-x="384" 
d="M193 -7q65 0 99.5 43.5t34.5 103.5v60h-51v-60q0 -42 -21.5 -70.5t-61.5 -28.5t-63 29.5t-23 70.5v417q0 46 24 73.5t62 27.5q84 0 84 -101v-63h50v64q0 69 -36.5 108.5t-98.5 39.5q-63 0 -100.5 -40.5t-37.5 -108.5v-416q0 -64 38 -106.5t101 -42.5zM159 91q0 -26 6 -40
q13 -5 28 -5q38 0 58 27t20 67v65h61v-6l47 -47v-62q0 -60 -35.5 -104.5t-100.5 -44.5q-59 0 -98 39l-29 28q-67 42 -67 134v416q0 70 39 112t104 42q78 0 115 -59l31 -30q41 -41 41 -114v-66h-54l-47 47h-6v68q0 28 -6 47q-14 2 -23 2q-37 0 -60.5 -26.5t-23.5 -72.5v-417z
M328 714h-58l-27 24l-26 -25h-87l-30 30h-10l83 87h45zM174 825l-73 -77h50l44 41l45 -41h49l-72 77h-43z" />
    <glyph glyph-name="ccircumflex" unicode="&#x109;" horiz-adv-x="317" 
d="M158 -6q54 0 82.5 34.5t28.5 86.5v51h-52v-51q0 -72 -59 -72q-30 0 -46 20t-16 53v327q0 35 17.5 54.5t44.5 19.5q29 0 44.5 -20t15.5 -54v-55h50v55q0 57 -30 89t-81 32q-52 0 -83 -33.5t-31 -87.5v-327q0 -55 31 -88.5t84 -33.5zM148 66v-18h10q54 0 54 67v56h62v-6
l47 -47v-53q0 -53 -29 -88t-84 -35q-52 0 -83 31l-33 33q-54 32 -54 110v327q0 56 32.5 91t86.5 35q66 0 97 -50l33 -33q33 -33 33 -93v-57h-54l-47 47h-6v60q0 8 -2 22h-3q-27 0 -43.5 -18.5t-16.5 -53.5v-327zM283 582h-54l-26 25l-24 -26h-82l-28 32h-10l78 92h43z
M138 699l-68 -81h47l41 43l42 -43h47l-68 81h-41z" />
    <glyph glyph-name="Cdotaccent" unicode="&#x10a;" horiz-adv-x="384" 
d="M193 -7q65 0 99.5 43.5t34.5 103.5v60h-51v-60q0 -42 -21.5 -70.5t-61.5 -28.5t-63 29.5t-23 70.5v417q0 46 24 73.5t62 27.5q84 0 84 -101v-63h50v64q0 69 -36.5 108.5t-98.5 39.5q-63 0 -100.5 -40.5t-37.5 -108.5v-416q0 -64 38 -106.5t101 -42.5zM159 91q0 -26 6 -40
q13 -5 28 -5q38 0 58 27t20 67v65h61v-6l47 -47v-62q0 -60 -35.5 -104.5t-100.5 -44.5q-59 0 -98 39l-29 28q-67 42 -67 134v416q0 70 39 112t104 42q78 0 115 -59l31 -30q41 -41 41 -114v-66h-54l-47 47h-6v68q0 28 -6 47q-14 2 -23 2q-37 0 -60.5 -26.5t-23.5 -72.5v-417z
M173 746h48v75h-48v-75zM267 709h-61l-32 32h-6v85h58v-6l41 -41v-70z" />
    <glyph glyph-name="cdotaccent" unicode="&#x10b;" horiz-adv-x="317" 
d="M158 -6q54 0 82.5 34.5t28.5 86.5v51h-52v-51q0 -72 -59 -72q-30 0 -46 20t-16 53v327q0 35 17.5 54.5t44.5 19.5q29 0 44.5 -20t15.5 -54v-55h50v55q0 57 -30 89t-81 32q-52 0 -83 -33.5t-31 -87.5v-327q0 -55 31 -88.5t84 -33.5zM148 66v-18h10q54 0 54 67v56h62v-6
l47 -47v-53q0 -53 -29 -88t-84 -35q-52 0 -83 31l-33 33q-54 32 -54 110v327q0 56 32.5 91t86.5 35q66 0 97 -50l33 -33q33 -33 33 -93v-57h-54l-47 47h-6v60q0 8 -2 22h-3q-27 0 -43.5 -18.5t-16.5 -53.5v-327zM135 619h48v75h-48v-75zM229 582h-61l-32 32h-6v85h58v-6
l41 -41v-70z" />
    <glyph glyph-name="Ccaron" unicode="&#x10c;" horiz-adv-x="384" 
d="M193 -7q65 0 99.5 43.5t34.5 103.5v60h-51v-60q0 -42 -21.5 -70.5t-61.5 -28.5t-63 29.5t-23 70.5v417q0 46 24 73.5t62 27.5q84 0 84 -101v-63h50v64q0 69 -36.5 108.5t-98.5 39.5q-63 0 -100.5 -40.5t-37.5 -108.5v-416q0 -64 38 -106.5t101 -42.5zM159 91q0 -26 6 -40
q13 -5 28 -5q38 0 58 27t20 67v65h61v-6l47 -47v-62q0 -60 -35.5 -104.5t-100.5 -44.5q-59 0 -98 39l-29 28q-67 42 -67 134v416q0 70 39 112t104 42q78 0 115 -59l31 -30q41 -41 41 -114v-66h-54l-47 47h-6v68q0 28 -6 47q-14 2 -23 2q-37 0 -60.5 -26.5t-23.5 -72.5v-417z
M291 722h-90l-23 23h-4l-82 87h62l44 -40l42 40h62l-5 -5l48 -48zM218 750l73 77h-50l-44 -41l-45 41h-49l72 -77h43z" />
    <glyph glyph-name="ccaron" unicode="&#x10d;" horiz-adv-x="317" 
d="M158 -6q54 0 82.5 34.5t28.5 86.5v51h-52v-51q0 -72 -59 -72q-30 0 -46 20t-16 53v327q0 35 17.5 54.5t44.5 19.5q29 0 44.5 -20t15.5 -54v-55h50v55q0 57 -30 89t-81 32q-52 0 -83 -33.5t-31 -87.5v-327q0 -55 31 -88.5t84 -33.5zM148 66v-18h10q54 0 54 67v56h62v-6
l47 -47v-53q0 -53 -29 -88t-84 -35q-52 0 -83 31l-33 33q-54 32 -54 110v327q0 56 32.5 91t86.5 35q66 0 97 -50l33 -33q33 -33 33 -93v-57h-54l-47 47h-6v60q0 8 -2 22h-3q-27 0 -43.5 -18.5t-16.5 -53.5v-327zM250 586h-87l-22 24h-4l-79 90h59l43 -41l40 41h60l-5 -5
l47 -50zM179 615l71 80h-49l-42 -43l-43 43h-48l70 -80h41z" />
    <glyph glyph-name="Dcaron" unicode="&#x10e;" horiz-adv-x="395" 
d="M284 559v-421q0 -29 -7.5 -48t-22.5 -27.5t-28 -11t-32 -2.5h-77v604h77q22 0 35.5 -2.5t27.5 -11.5t20.5 -28.5t6.5 -51.5zM335 138v421q0 47 -11.5 77t-34 43t-43 17t-52.5 4h-130v-700h130q141 0 141 138zM112 -52l-47 47h-6v710h135q45 0 76 -10t49 -41l34 -33
q34 -34 34 -112v-421q0 -140 -143 -140h-132zM279 138v421q0 19 -4 39q-15 3 -31 3h-75v-547h25q18 0 30.5 2.5t26 10.5t21 26t7.5 45zM287 722h-90l-23 23h-4l-82 87h62l44 -40l42 40h62l-5 -5l48 -48zM214 750l73 77h-50l-44 -41l-45 41h-49l72 -77h43z" />
    <glyph glyph-name="dcaron" unicode="&#x10f;" horiz-adv-x="326" 
d="M224 444v-330q0 -65 -65 -65h-55v463h55q31 0 47.5 -13.5t17.5 -54.5zM275 114v330q0 67 -32 91t-84 24h-108v-559h108q16 0 30.5 3t36.5 12.5t35.5 35t13.5 63.5zM99 -52l-47 47h-6v569h113q79 0 106 -50l33 -32q29 -31 29 -88v-330q0 -32 -10 -55t-23 -34.5t-32 -18
t-30 -7.5t-23 -1h-110zM219 114v330q0 6 -2 16h-61v-406h3q60 0 60 60zM254 589h-90l-23 23h-4l-82 87h62l44 -40l42 40h62l-5 -5l48 -48zM181 617l73 77h-50l-44 -41l-45 41h-49l72 -77h43z" />
    <glyph glyph-name="Dcroat" unicode="&#x110;" horiz-adv-x="395" 
d="M283 559v-421q0 -29 -7.5 -48t-22 -27.5t-28 -11t-32.5 -2.5h-76v133h70v45h-70v426h76q23 0 36 -2.5t26.5 -11.5t20 -28.5t7.5 -51.5zM15 227v-45h49v-182h129q142 0 142 138v421q0 47 -11.5 77t-34 43t-43.5 17t-53 4h-129v-473h-49zM10 177v55h49v473h134
q45 0 76.5 -10t49.5 -41l32 -31l2 -2q34 -34 34 -112v-421q0 -140 -144 -140h-131l-47 47h-6v139l-43 43h-6zM278 138v421q-2 28 -5 40q-9 2 -30 2h-74v-369h23v-6l47 -47v-49h-70v-76h24q18 0 30.5 2.5t26.5 10.5t21 26t7 45z" />
    <glyph glyph-name="dcroat" unicode="&#x111;" horiz-adv-x="326" 
d="M223 444v-330q0 -40 -17.5 -52.5t-47.5 -12.5h-54v129h67v43h-67v291h54q33 0 48.5 -12.5t16.5 -55.5zM12 221v-43h39v-178h107q117 0 117 114v330q0 38 -9.5 62.5t-28 35.5t-36 14t-43.5 3h-107v-338h-39zM7 173v53h39v338h112q39 0 65.5 -9t41.5 -37l34 -33
q28 -28 28 -91v-330q0 -116 -119 -116h-109l-47 47h-6v145l-33 33h-6zM156 460v-234h20v-6l42 -42v266q0 3 -0.5 8.5t-0.5 7.5h-61zM218 114v12h-62v-72h2q18 0 29.5 3.5t21 17.5t9.5 39z" />
    <glyph glyph-name="Emacron" unicode="&#x112;" horiz-adv-x="347" 
d="M116 654h190v46h-243v-700h243v47h-190v140h151v46h-151v421zM111 -52l-47 47h-6v710h253v-6l47 -47v-50h-190v-364h104v-6l47 -47v-50h-151v-83h143v-6l47 -47v-51h-247zM116 794v-40h136v40h-136zM304 714h-152l-35 35h-6v50h146v-6l47 -47v-32z" />
    <glyph glyph-name="emacron" unicode="&#x113;" horiz-adv-x="288" 
d="M103 513h149v46h-202v-559h202v48h-149v98h119v47h-119v320zM98 -52l-47 47h-6v569h212v-6l47 -47v-50h-149v-263h72v-6l47 -47v-51h-119v-41h102v-6l47 -47v-52h-206zM83 687v-40h136v40h-136zM271 607h-152l-35 35h-6v50h146v-6l47 -47v-32z" />
    <glyph glyph-name="Ebreve" unicode="&#x114;" horiz-adv-x="347" 
d="M116 654h190v46h-243v-700h243v47h-190v140h151v46h-151v421zM111 -52l-47 47h-6v710h253v-6l47 -47v-50h-190v-364h104v-6l47 -47v-50h-151v-83h143v-6l47 -47v-51h-247zM194 784h-15q-17 0 -25.5 10t-8.5 24h-42q0 -35 20.5 -54.5t54.5 -19.5h17q34 0 54 19.5t20 54.5
h-42q0 -34 -33 -34zM194 789q28 0 28 34h52v-6l35 -37q0 -37 -20.5 -57.5t-55.5 -20.5h-17q-33 0 -56 21l-24 26q-38 21 -38 74h52v-6l28 -28h1h15z" />
    <glyph glyph-name="ebreve" unicode="&#x115;" horiz-adv-x="288" 
d="M103 513h149v46h-202v-559h202v48h-149v98h119v47h-119v320zM98 -52l-47 47h-6v569h212v-6l47 -47v-50h-149v-263h72v-6l47 -47v-51h-119v-41h102v-6l47 -47v-52h-206zM160 659h-15q-17 0 -25.5 10t-8.5 24h-42q0 -35 20.5 -54.5t54.5 -19.5h17q34 0 54 19.5t20 54.5h-42
q0 -34 -33 -34zM160 664q28 0 28 34h52v-6l35 -37q0 -37 -20.5 -57.5t-55.5 -20.5h-17q-33 0 -56 21l-24 26q-38 21 -38 74h52v-6l28 -28h1h15z" />
    <glyph glyph-name="Edotaccent" unicode="&#x116;" horiz-adv-x="347" 
d="M116 654h190v46h-243v-700h243v47h-190v140h151v46h-151v421zM111 -52l-47 47h-6v710h253v-6l47 -47v-50h-190v-364h104v-6l47 -47v-50h-151v-83h143v-6l47 -47v-51h-247zM165 751h48v75h-48v-75zM259 714h-61l-32 32h-6v85h58v-6l41 -41v-70z" />
    <glyph glyph-name="edotaccent" unicode="&#x117;" horiz-adv-x="288" 
d="M103 513h149v46h-202v-559h202v48h-149v98h119v47h-119v320zM98 -52l-47 47h-6v569h212v-6l47 -47v-50h-149v-263h72v-6l47 -47v-51h-119v-41h102v-6l47 -47v-52h-206zM132 621h48v75h-48v-75zM226 584h-61l-32 32h-6v85h58v-6l41 -41v-70z" />
    <glyph glyph-name="Eogonek" unicode="&#x118;" horiz-adv-x="347" 
d="M116 654h190v46h-243v-700h197l-24 -45q-14 -28 0 -50.5t46 -22.5q35 0 52 26l-20 22q-8 -14 -28 -14q-11 0 -15.5 9.5t1.5 19.5l27 55h7v47h-190v140h151v46h-151v421zM111 -52l-47 47h-6v710h253v-6l47 -47v-50h-190v-364h104v-6l47 -47v-50h-151v-83h143v-6l47 -47
v-51h-8l-16 -33l7 -7h-1l24 -24l23 -26q-19 -28 -55 -28q-26 0 -41 15l-38 38q-19 8 -26 26t0 39h-116z" />
    <glyph glyph-name="eogonek" unicode="&#x119;" horiz-adv-x="296" 
d="M107 513h149v46h-202v-559h154l-19 -44q-14 -28 -0.5 -50t45.5 -22q33 0 51 25l-20 23q-6 -14 -27 -14q-11 0 -15 9t1 19l22 54h10v48h-149v98h119v47h-119v320zM102 -52l-47 47h-6v569h212v-6l47 -47v-50h-149v-263h72v-6l47 -47v-51h-119v-41h102v-6l47 -47v-52h-10
q-1 -3 -6.5 -13.5t-7.5 -16.5l8 -9h-1l23 -23l24 -27q-20 -27 -54 -27q-25 0 -40 15l-38 38q-39 19 -26 63h-78z" />
    <glyph glyph-name="Ecaron" unicode="&#x11a;" horiz-adv-x="347" 
d="M116 654h190v46h-243v-700h243v47h-190v140h151v46h-151v421zM111 -52l-47 47h-6v710h253v-6l47 -47v-50h-190v-364h104v-6l47 -47v-50h-151v-83h143v-6l47 -47v-51h-247zM286 723h-90l-24 21h-4l-82 78h62l45 -36l42 36h62l-5 -5l48 -43zM213 748l73 69h-50l-44 -36
l-46 36h-49l72 -69h44z" />
    <glyph glyph-name="ecaron" unicode="&#x11b;" horiz-adv-x="288" 
d="M103 513h149v46h-202v-559h202v48h-149v98h119v47h-119v320zM98 -52l-47 47h-6v569h212v-6l47 -47v-50h-149v-263h72v-6l47 -47v-51h-119v-41h102v-6l47 -47v-52h-206zM253 588h-90l-23 23h-4l-82 87h62l44 -40l42 40h62l-5 -5l48 -48zM180 616l73 77h-50l-44 -41l-45 41
h-49l72 -77h43z" />
    <glyph glyph-name="Gcircumflex" unicode="&#x11c;" horiz-adv-x="373" 
d="M325 237h-153v-46h102v-52q0 -97 -82 -97q-41 0 -63 26.5t-22 71.5v415q0 45 23 73t61 28q43 0 64 -28t21 -72v-64h50v64q0 66 -36.5 106.5t-99.5 40.5q-62 0 -99 -42.5t-37 -105.5v-415q0 -69 37.5 -107.5t100.5 -38.5q62 0 97.5 40.5t35.5 104.5v98zM167 242h163v-6
l47 -47v-100q0 -65 -36.5 -106t-98.5 -41q-60 0 -100 38l-30 29q-63 39 -63 131v415q0 65 38.5 109t102.5 44q77 0 115 -59l32 -31q41 -41 41 -112v-66h-54l-47 47h-6v69q0 25 -7 45q-10 3 -23 3q-37 0 -59.5 -27.5t-22.5 -71.5v-415q0 -23 4 -39q12 -4 29 -4q77 0 77 92
h-49l-47 47h-6v56zM323 720h-58l-27 21l-26 -22h-86l-30 27h-10l83 78h44zM170 819l-73 -69h50l43 37l45 -37h49l-72 69h-42z" />
    <glyph glyph-name="gcircumflex" unicode="&#x11d;" 
d="M267 196h-122v-45h74v-36q0 -35 -17 -53t-46 -18t-44.5 19.5t-15.5 51.5v329q0 33 16 53.5t47 20.5q29 0 44.5 -21t15.5 -53v-55h49v55q0 53 -30 86.5t-79 33.5q-55 0 -85.5 -34t-30.5 -86v-329q0 -55 31 -87.5t82 -32.5q52 0 81.5 33t29.5 87v81zM267 337l-47 47h-6v60
q0 8 -2 22h-3q-30 0 -45.5 -19.5t-15.5 -52.5v-193h124v-6l47 -47v-83q0 -55 -30.5 -88.5t-82.5 -33.5q-50 0 -81 31l-32 32q-55 32 -55 109v329q0 54 31.5 89.5t89.5 35.5q64 0 94 -51l33 -32q34 -34 34 -92v-57h-53zM148 65v-16h8q50 0 57 50h-20l-45 45v-79zM289 587h-57
l-26 24l-26 -25h-85l-29 31h-10l81 88h44zM138 700l-71 -78h49l43 41l44 -41h48l-71 78h-42z" />
    <glyph glyph-name="Gbreve" unicode="&#x11e;" horiz-adv-x="373" 
d="M325 237h-153v-46h102v-52q0 -97 -82 -97q-41 0 -63 26.5t-22 71.5v415q0 45 23 73t61 28q43 0 64 -28t21 -72v-64h50v64q0 66 -36.5 106.5t-99.5 40.5q-62 0 -99 -42.5t-37 -105.5v-415q0 -69 37.5 -107.5t100.5 -38.5q62 0 97.5 40.5t35.5 104.5v98zM167 242h163v-6
l47 -47v-100q0 -65 -36.5 -106t-98.5 -41q-60 0 -100 38l-30 29q-63 39 -63 131v415q0 65 38.5 109t102.5 44q77 0 115 -59l32 -31q41 -41 41 -112v-66h-54l-47 47h-6v69q0 25 -7 45q-10 3 -23 3q-37 0 -59.5 -27.5t-22.5 -71.5v-415q0 -23 4 -39q12 -4 29 -4q77 0 77 92
h-49l-47 47h-6v56zM201 786h-15q-17 0 -25.5 10t-8.5 24h-42q0 -35 20.5 -54.5t54.5 -19.5h17q34 0 54 19.5t20 54.5h-42q0 -34 -33 -34zM201 791q28 0 28 34h52v-6l35 -37q0 -37 -20.5 -57.5t-55.5 -20.5h-17q-33 0 -56 21l-24 26q-38 21 -38 74h52v-6l28 -28h1h15z" />
    <glyph glyph-name="gbreve" unicode="&#x11f;" 
d="M267 196h-122v-45h74v-36q0 -35 -17 -53t-46 -18t-44.5 19.5t-15.5 51.5v329q0 33 16 53.5t47 20.5q29 0 44.5 -21t15.5 -53v-55h49v55q0 53 -30 86.5t-79 33.5q-55 0 -85.5 -34t-30.5 -86v-329q0 -55 31 -87.5t82 -32.5q52 0 81.5 33t29.5 87v81zM267 337l-47 47h-6v60
q0 8 -2 22h-3q-30 0 -45.5 -19.5t-15.5 -52.5v-193h124v-6l47 -47v-83q0 -55 -30.5 -88.5t-82.5 -33.5q-50 0 -81 31l-32 32q-55 32 -55 109v329q0 54 31.5 89.5t89.5 35.5q64 0 94 -51l33 -32q34 -34 34 -92v-57h-53zM148 65v-16h8q50 0 57 50h-20l-45 45v-79zM166 666h-15
q-17 0 -25.5 10t-8.5 24h-42q0 -35 20.5 -54.5t54.5 -19.5h17q34 0 54 19.5t20 54.5h-42q0 -34 -33 -34zM166 671q28 0 28 34h52v-6l35 -37q0 -37 -20.5 -57.5t-55.5 -20.5h-17q-33 0 -56 21l-24 26q-38 21 -38 74h52v-6l28 -28h1h15z" />
    <glyph glyph-name="Gdotaccent" unicode="&#x120;" horiz-adv-x="373" 
d="M325 237h-153v-46h102v-52q0 -97 -82 -97q-41 0 -63 26.5t-22 71.5v415q0 45 23 73t61 28q43 0 64 -28t21 -72v-64h50v64q0 66 -36.5 106.5t-99.5 40.5q-62 0 -99 -42.5t-37 -105.5v-415q0 -69 37.5 -107.5t100.5 -38.5q62 0 97.5 40.5t35.5 104.5v98zM167 242h163v-6
l47 -47v-100q0 -65 -36.5 -106t-98.5 -41q-60 0 -100 38l-30 29q-63 39 -63 131v415q0 65 38.5 109t102.5 44q77 0 115 -59l32 -31q41 -41 41 -112v-66h-54l-47 47h-6v69q0 25 -7 45q-10 3 -23 3q-37 0 -59.5 -27.5t-22.5 -71.5v-415q0 -23 4 -39q12 -4 29 -4q77 0 77 92
h-49l-47 47h-6v56zM171 742h48v75h-48v-75zM265 705h-61l-32 32h-6v85h58v-6l41 -41v-70z" />
    <glyph glyph-name="gdotaccent" unicode="&#x121;" 
d="M267 196h-122v-45h74v-36q0 -35 -17 -53t-46 -18t-44.5 19.5t-15.5 51.5v329q0 33 16 53.5t47 20.5q29 0 44.5 -21t15.5 -53v-55h49v55q0 53 -30 86.5t-79 33.5q-55 0 -85.5 -34t-30.5 -86v-329q0 -55 31 -87.5t82 -32.5q52 0 81.5 33t29.5 87v81zM267 337l-47 47h-6v60
q0 8 -2 22h-3q-30 0 -45.5 -19.5t-15.5 -52.5v-193h124v-6l47 -47v-83q0 -55 -30.5 -88.5t-82.5 -33.5q-50 0 -81 31l-32 32q-55 32 -55 109v329q0 54 31.5 89.5t89.5 35.5q64 0 94 -51l33 -32q34 -34 34 -92v-57h-53zM148 65v-16h8q50 0 57 50h-20l-45 45v-79zM134 616h48
v75h-48v-75zM228 579h-61l-32 32h-6v85h58v-6l41 -41v-70z" />
    <glyph glyph-name="uni0122" unicode="&#x122;" horiz-adv-x="373" 
d="M325 237h-153v-46h102v-52q0 -97 -82 -97q-41 0 -63 26.5t-22 71.5v415q0 45 23 73t61 28q43 0 64 -28t21 -72v-64h50v64q0 66 -36.5 106.5t-99.5 40.5q-62 0 -99 -42.5t-37 -105.5v-415q0 -69 37.5 -107.5t100.5 -38.5q62 0 97.5 40.5t35.5 104.5v98zM167 242h163v-6
l47 -47v-100q0 -65 -36.5 -106t-98.5 -41q-60 0 -100 38l-30 29q-63 39 -63 131v415q0 65 38.5 109t102.5 44q77 0 115 -59l32 -31q41 -41 41 -112v-66h-54l-47 47h-6v69q0 25 -7 45q-10 3 -23 3q-37 0 -59.5 -27.5t-22.5 -71.5v-415q0 -23 4 -39q12 -4 29 -4q77 0 77 92
h-49l-47 47h-6v56zM173 -189h39l13 62v71h-52v-133zM223 -233l-49 40h-7v141h63v-5l49 -41v-71l-13 -64h-43z" />
    <glyph glyph-name="uni0123" unicode="&#x123;" 
d="M181 743h-34l-10 -64v-60h44v124zM233 575h-56l-39 39h-6v65l10 69h44v-6l47 -47v-120zM270 207h-122v-45h74v-36q0 -35 -17 -53t-46 -18t-44.5 19.5t-15.5 51.5v329q0 33 16 53.5t47 20.5q29 0 44.5 -21t15.5 -53v-55h49v55q0 53 -30 86.5t-79 33.5q-55 0 -85.5 -34
t-30.5 -86v-329q0 -55 31 -87.5t82 -32.5q52 0 81.5 33t29.5 87v81zM270 348l-47 47h-6v60q0 8 -2 22h-3q-30 0 -45.5 -19.5t-15.5 -52.5v-193h124v-6l47 -47v-83q0 -55 -30.5 -88.5t-82.5 -33.5q-50 0 -81 31l-32 32q-55 32 -55 109v329q0 54 31.5 89.5t89.5 35.5
q64 0 94 -51l33 -32q34 -34 34 -92v-57h-53zM151 76v-16h8q50 0 57 50h-20l-45 45v-79z" />
    <glyph glyph-name="Hcircumflex" unicode="&#x124;" horiz-adv-x="404" 
d="M336 700h-51v-474h-168v474h-53v-700h53v179h168v-179h51v700zM280 705h61v-6l47 -47v-704h-55l-47 47h-6v132h-111v-179h-57l-47 47h-6v710h63v-6l47 -47v-421h111v474zM334 717h-58l-27 24l-26 -25h-87l-30 30h-10l83 87h45zM180 828l-73 -77h50l44 41l45 -41h49
l-72 77h-43z" />
    <glyph glyph-name="hcircumflex" unicode="&#x125;" horiz-adv-x="333" 
d="M276 559h-52v-371h-120v371h-53v-559h53v140h120v-140h52v559zM219 564h62v-6l47 -47v-563h-56l-47 47h-6v93h-63v-140h-57l-47 47h-6v569h63v-6l47 -47v-318h63v371zM299 585h-58l-27 24l-26 -25h-87l-30 30h-10l83 87h45zM145 696l-73 -77h50l44 41l45 -41h49l-72 77
h-43z" />
    <glyph glyph-name="Hbar" unicode="&#x126;" horiz-adv-x="404" 
d="M285 226h-168v309h168v-309zM336 700h-51v-132h-168v132h-53v-132h-42v-33h42v-535h53v179h168v-179h51v535h43v33h-43v132zM280 705h61v-6l47 -47v-89l43 -43v-37h-43v-535h-55l-47 47h-6v132h-111v-179h-57l-47 47h-6v499l-36 36h-6v43h42v132h63v-6l47 -47v-79h111
v132zM169 483v-252h111v252h-111z" />
    <glyph glyph-name="hbar" unicode="&#x127;" horiz-adv-x="333" 
d="M224 188h-120v248h120v-248zM276 559h-52v-90h-120v90h-53v-90h-34v-33h34v-436h53v140h120v-140h52v436h34v33h-34v90zM219 564h62v-6l47 -47v-56l34 -34v-37h-34v-436h-56l-47 47h-6v93h-63v-140h-57l-47 47h-6v408l-28 28h-6v43h34v90h63v-6l47 -47v-37h63v90z
M156 384v-191h63v191h-63z" />
    <glyph glyph-name="Itilde" unicode="&#x128;" horiz-adv-x="178" 
d="M63 0h53v700h-53v-700zM111 -52l-47 47h-6v710h63v-6l47 -47v-704h-57zM86 761q16 -12 38 -9.5t37 20.5v39q-32 -34 -69 -10q-16 12 -38 9.5t-37 -20.5v-39q32 34 69 10zM50 710l-33 35l-5 -5v52q21 24 49 24q18 0 34 -11l-1 1q16 -9 27 -9q22 0 45 25v-10l47 -47v-27
q-14 -16 -36 -21t-42 7q-45 28 -85 -14z" />
    <glyph glyph-name="itilde" unicode="&#x129;" horiz-adv-x="152" 
d="M50 0h52v559h-52v-559zM98 -52l-47 47h-6v569h62v-6l47 -47v-563h-56zM71 648q14 -11 32.5 -8t31.5 18v36q-27 -31 -59 -9q-14 12 -32.5 9t-31.5 -19v-36q28 31 59 9zM40 602l-28 32q-3 -3 -4 -5v48q19 22 42 22q14 0 29 -10h-1q16 -8 23 -8q19 0 39 23v-9l40 -43v-25
q-12 -14 -31 -18.5t-36 6.5q-38 25 -73 -13z" />
    <glyph glyph-name="Imacron" unicode="&#x12a;" horiz-adv-x="178" 
d="M63 0h53v700h-53v-700zM111 -52l-47 47h-6v710h63v-6l47 -47v-704h-57zM21 785v-40h136v40h-136zM209 705h-152l-35 35h-6v50h146v-6l47 -47v-32z" />
    <glyph glyph-name="imacron" unicode="&#x12b;" horiz-adv-x="152" 
d="M50 0h52v559h-52v-559zM98 -52l-47 47h-6v569h62v-6l47 -47v-563h-56zM12 684v-37h125v37h-125zM185 610h-140l-33 32h-5v46h135v-5l43 -43v-30z" />
    <glyph glyph-name="Ibreve" unicode="&#x12c;" horiz-adv-x="178" 
d="M63 0h53v700h-53v-700zM111 -52l-47 47h-6v710h63v-6l47 -47v-704h-57zM98 782h-15q-17 0 -25.5 10t-8.5 24h-42q0 -35 20.5 -54.5t54.5 -19.5h17q34 0 54 19.5t20 54.5h-42q0 -34 -33 -34zM98 787q28 0 28 34h52v-6l35 -37q0 -37 -20.5 -57.5t-55.5 -20.5h-17
q-33 0 -56 21l-24 26q-38 21 -38 74h52v-6l28 -28h1h15z" />
    <glyph glyph-name="ibreve" unicode="&#x12d;" horiz-adv-x="152" 
d="M79 666h-1q-33 0 -33 34h-41q0 -35 19.5 -54.5t53.5 -19.5h3q34 0 53 19.5t19 54.5h-40q0 -34 -33 -34zM79 671q28 0 28 34h50v-6l34 -34q0 -37 -20 -57.5t-57 -20.5q-34 0 -54 20l-23 23q-38 19 -38 75h51v-6l28 -28h1zM51 11h52v559h-52v-559zM99 -41l-47 47h-6v569h62
v-6l47 -47v-563h-56z" />
    <glyph glyph-name="Iogonek" unicode="&#x12e;" horiz-adv-x="178" 
d="M149 -97l-20 24q-7 -15 -28 -15q-12 0 -16.5 10t1.5 20l24 58h6v700h-53v-700h7l-20 -47q-14 -30 0 -53.5t47 -23.5q34 0 52 27zM106 -160l-37 37q-30 13 -30 48q0 14 6 30q5 15 9 22q2 6 8 18h-4v710h63v-6l47 -47v-704h-7q-7 -14 -14 -35l9 -10l22 -22l24 -28
q-20 -29 -55 -29q-25 0 -41 16z" />
    <glyph glyph-name="iogonek" unicode="&#x12f;" horiz-adv-x="160" 
d="M137 -97l-20 24q-7 -15 -28 -15q-12 0 -16.5 10t1.5 20l24 58h8v559h-52v-559h4l-20 -47q-14 -30 0 -53.5t47 -23.5q34 0 52 27zM94 -160l-37 37q-30 13 -30 48q0 14 6 30q5 15 9 22q7 16 7 21v566h62v-6l47 -47v-563h-9q-7 -14 -14 -35l9 -10l22 -22l24 -28
q-20 -29 -55 -29q-25 0 -41 16z" />
    <glyph glyph-name="Idotaccent" unicode="&#x130;" horiz-adv-x="178" 
d="M63 0h53v700h-53v-700zM111 -52l-47 47h-6v710h63v-6l47 -47v-704h-57zM66 740h48v75h-48v-75zM160 703h-61l-32 32h-6v85h58v-6l41 -41v-70z" />
    <glyph glyph-name="dotlessi" unicode="&#x131;" horiz-adv-x="152" 
d="M50 0h53v559h-53v-559zM98 -52l-47 47h-6v569h63v-6l47 -47v-563h-57z" />
    <glyph glyph-name="IJ" unicode="&#x132;" horiz-adv-x="528" 
d="M63 0h53v700h-53v-700zM111 -52l-47 47h-6v710h63v-6l47 -47v-704h-57zM332 -7q65 0 99 41t34 106v560h-52l1 -560q0 -46 -21.5 -73t-60.5 -27q-42 0 -64.5 26.5t-22.5 73.5v56h-53v-56q0 -70 37.5 -108.5t102.5 -38.5zM297 90q0 -27 5 -41q12 -4 30 -4q37 0 57 25.5
t20 69.5l-1 565h62v-6l47 -47v-562q0 -66 -34.5 -107.5t-100.5 -41.5q-64 0 -102 38l-30 29q-63 38 -63 132v61h63v-6l47 -47v-58z" />
    <glyph glyph-name="ij" unicode="&#x133;" horiz-adv-x="459" 
d="M50 0h52v559h-52v-559zM98 -52l-47 47h-6v569h62v-6l47 -47v-563h-56zM295 -6q53 0 81.5 35.5t28.5 85.5v444h-51v-444q0 -30 -16 -51.5t-43 -21.5q-29 0 -45.5 21.5t-16.5 51.5v48h-53v-48q0 -51 32 -86t83 -35zM285 65q0 -12 1 -18h9q25 0 39.5 20t14.5 48v449h61v-6
l47 -47v-446q0 -51 -29 -87t-83 -36q-49 0 -82 33l-32 31q-56 35 -56 109v53h63v-6l47 -47v-50z" />
    <glyph glyph-name="Jcircumflex" unicode="&#x134;" horiz-adv-x="369" 
d="M176 -7q65 0 99 41t34 106v560h-52l1 -560q0 -46 -21.5 -73t-60.5 -27q-42 0 -64.5 26.5t-22.5 73.5v56h-53v-56q0 -70 37.5 -108.5t102.5 -38.5zM141 90q0 -27 5 -41q12 -4 30 -4q37 0 57 25.5t20 69.5l-1 565h62v-6l47 -47v-562q0 -66 -34.5 -107.5t-100.5 -41.5
q-64 0 -102 38l-30 29q-63 38 -63 132v61h63v-6l47 -47v-58zM408 717h-58l-27 24l-26 -25h-87l-30 30h-10l83 87h45zM254 828l-73 -77h50l44 41l45 -41h49l-72 77h-43z" />
    <glyph glyph-name="jcircumflex" unicode="&#x135;" horiz-adv-x="305" 
d="M144 -6q53 0 81.5 35.5t28.5 85.5v444h-51v-444q0 -30 -16 -51.5t-43 -21.5q-29 0 -45.5 21.5t-16.5 51.5v48h-53v-48q0 -51 32 -86t83 -35zM134 65q0 -12 1 -18h9q25 0 39.5 20t14.5 48v449h61v-6l47 -47v-446q0 -51 -29 -87t-83 -36q-49 0 -82 33l-32 31
q-56 35 -56 109v53h63v-6l47 -47v-50zM344 585h-54l-26 25l-24 -26h-82l-28 31h-10l78 89h43zM199 699l-68 -79h47l41 42l42 -42h47l-68 79h-41z" />
    <glyph glyph-name="uni0136" unicode="&#x136;" horiz-adv-x="377" 
d="M162 257l194 443h-57l-137 -316l-47 -116v432h-53v-700h53v168l19 36l162 -204h66q-195 250 -200 257zM364 705l-3 -6l48 -47l-195 -445q6 -9 19.5 -26t63 -79.5t119.5 -153.5h-71l-47 47h-4l-116 145l-11 -23v-169h-57l-47 47h-6v710h63v-6l47 -47v-243l128 296h69z
M195 -168h39l13 62v71h-52v-133zM245 -212l-49 40h-7v141h63v-5l49 -41v-71l-13 -64h-43z" />
    <glyph glyph-name="uni0137" unicode="&#x137;" horiz-adv-x="312" 
d="M143 215l151 344h-55q-77 -179 -78 -181l-63 -154l5 155v180h-53v-559h53v143l12 23l43 -63l80 -103h63zM302 564l-3 -6l48 -47l-151 -346l159 -217h-68l-47 47h-4l-79 100l-2 -3v-144h-57l-47 47h-6v569h63v-6l47 -47v-134q0 2 1 3l53 123l26 61h67zM158 -164h34l11 62
v70h-45v-132zM201 -208l-42 40h-6v140h54v-5l43 -40v-71l-11 -64h-38z" />
    <glyph glyph-name="kgreenlandic" unicode="&#x138;" horiz-adv-x="312" 
d="M143 215l151 344h-55q-77 -179 -78 -181l-63 -154l5 155v180h-53v-559h53v143l12 23l43 -63l80 -103h63zM302 564l-3 -6l48 -47l-151 -346l159 -217h-68l-47 47h-4l-79 100l-2 -3v-144h-57l-47 47h-6v569h63v-6l47 -47v-134q0 2 1 3l53 123l26 61h67z" />
    <glyph glyph-name="Lacute" unicode="&#x139;" 
d="M268 47h-153v653h-53v-700h206v47zM110 -52l-47 47h-6v710h63v-6l47 -47v-600h106v-6l47 -47v-51h-210zM166 711h-66l-36 36h-8l43 96h70l-4 -6l48 -47zM108 752l51 86h-56l-39 -86h44z" />
    <glyph glyph-name="lacute" unicode="&#x13a;" horiz-adv-x="256" 
d="M222 47h-120v512h-52v-559h172v47zM98 -52l-47 47h-6v569h62v-6l47 -47v-459h73v-6l47 -47v-51h-176zM153 566h-66l-36 36h-8l43 96h70l-4 -6l48 -47zM95 607l51 86h-56l-39 -86h44z" />
    <glyph glyph-name="uni013B" unicode="&#x13b;" 
d="M268 47h-153v653h-53v-700h206v47zM110 -52l-47 47h-6v710h63v-6l47 -47v-600h106v-6l47 -47v-51h-210zM147 -183h34l11 61v69h-45v-130zM190 -226l-42 39h-6v138h54v-5l43 -39v-71l-11 -62h-38z" />
    <glyph glyph-name="uni013C" unicode="&#x13c;" horiz-adv-x="256" 
d="M222 47h-120v512h-52v-559h172v47zM98 -52l-47 47h-6v569h62v-6l47 -47v-459h73v-6l47 -47v-51h-176zM111 -176h32l11 58v66h-43v-124zM152 -217l-40 37h-5v132h51v-5l40 -38v-67l-10 -59h-36z" />
    <glyph glyph-name="Lcaron" unicode="&#x13d;" 
d="M268 47h-153v653h-53v-700h206v47zM110 -52l-47 47h-6v710h63v-6l47 -47v-600h106v-6l47 -47v-51h-210zM191 721h-90l-23 23h-4l-82 87h62l44 -40l42 40h62l-5 -5l48 -48zM118 749l73 77h-50l-44 -41l-45 41h-49l72 -77h43z" />
    <glyph glyph-name="lcaron" unicode="&#x13e;" horiz-adv-x="256" 
d="M222 47h-120v512h-52v-559h172v47zM98 -52l-47 47h-6v569h62v-6l47 -47v-459h73v-6l47 -47v-51h-176zM158 587h-77l-19 24h-4l-70 90h53l38 -41l36 41h53l-5 -5l41 -50zM96 616l62 80h-43l-37 -43l-39 43h-42l62 -80h37z" />
    <glyph glyph-name="Ldot" unicode="&#x13f;" 
d="M268 47h-153v653h-53v-700h206v47zM110 -52l-47 47h-6v710h63v-6l47 -47v-600h106v-6l47 -47v-51h-210zM195 183h44v77h-44v-77zM281 145h-56l-29 32h-5v88h53v-6l37 -43v-71z" />
    <glyph glyph-name="ldot" unicode="&#x140;" horiz-adv-x="256" 
d="M222 47h-120v512h-52v-559h172v47zM98 -52l-47 47h-6v569h62v-6l47 -47v-459h73v-6l47 -47v-51h-176zM177 172h41v77h-41v-77zM258 134h-52l-28 32h-5v88h50v-6l35 -43v-71z" />
    <glyph glyph-name="Lslash" unicode="&#x141;" 
d="M18 218v-41l43 20v-197h207v47h-154v175l72 34v40l-72 -33v437h-53v-461zM13 170v52l43 20v463h63v-6l47 -47v-360l25 12v-8l47 -47v-45l-72 -34v-118h107v-6l47 -47v-51h-211l-47 47h-6v139l-38 38q-4 -2 -5 -2z" />
    <glyph glyph-name="lslash" unicode="&#x142;" horiz-adv-x="256" 
d="M16 215v-37l34 15v-193h172v47h-120v170l60 29v39l-60 -30v304h-52v-329zM11 170v49l34 14v331h62v-6l47 -47v-225l13 7v-8l47 -47v-44l-60 -29v-113h73v-6l47 -47v-51h-176l-47 47h-6v149l-29 28z" />
    <glyph glyph-name="Nacute" unicode="&#x143;" horiz-adv-x="416" 
d="M348 700h-52v-434l8 -145l-40 139l-150 440h-50v-700h53v421l-8 152l43 -146l147 -427h49v700zM291 705h62v-6l47 -47v-704h-53l-47 47h-5l-126 366v-413h-57l-47 47h-6v710h59l2 -8l46 -45l125 -368v421zM269 708h-66l-36 36h-8l43 96h70l-4 -6l48 -47zM211 749l51 86
h-56l-39 -86h44z" />
    <glyph glyph-name="nacute" unicode="&#x144;" horiz-adv-x="343" 
d="M100 559h-49v-559h53v293l-9 145l40 -142l102 -296h49v559h-53v-294l11 -152l-43 146zM46 564h58l2 -8l46 -45l76 -226v279h63v-6l47 -47v-563h-53l-47 47h-5l-77 223v-270h-57l-47 47h-6v569zM236 570h-66l-36 36h-8l43 96h70l-4 -6l48 -47zM178 611l51 86h-56l-39 -86
h44z" />
    <glyph glyph-name="uni0145" unicode="&#x145;" horiz-adv-x="416" 
d="M348 700h-52v-434l8 -145l-40 139l-150 440h-50v-700h53v421l-8 152l43 -146l147 -427h49v700zM291 705h62v-6l47 -47v-704h-53l-47 47h-5l-126 366v-413h-57l-47 47h-6v710h59l2 -8l46 -45l125 -368v421zM201 -168h39l13 62v71h-52v-133zM251 -212l-49 40h-7v141h63v-5
l49 -41v-71l-13 -64h-43z" />
    <glyph glyph-name="uni0146" unicode="&#x146;" horiz-adv-x="343" 
d="M100 559h-49v-559h53v293l-9 145l40 -142l102 -296h49v559h-53v-294l11 -152l-43 146zM46 564h58l2 -8l46 -45l76 -226v279h63v-6l47 -47v-563h-53l-47 47h-5l-77 223v-270h-57l-47 47h-6v569zM160 -167h39l13 62v71h-52v-133zM210 -211l-49 40h-7v141h63v-5l49 -41v-71
l-13 -64h-43z" />
    <glyph glyph-name="Ncaron" unicode="&#x147;" horiz-adv-x="416" 
d="M348 700h-52v-434l8 -145l-40 139l-150 440h-50v-700h53v421l-8 152l43 -146l147 -427h49v700zM291 705h62v-6l47 -47v-704h-53l-47 47h-5l-126 366v-413h-57l-47 47h-6v710h59l2 -8l46 -45l125 -368v421zM299 717h-90l-23 23h-4l-82 87h62l44 -40l42 40h62l-5 -5l48 -48
zM226 745l73 77h-50l-44 -41l-45 41h-49l72 -77h43z" />
    <glyph glyph-name="ncaron" unicode="&#x148;" horiz-adv-x="343" 
d="M100 559h-49v-559h53v293l-9 145l40 -142l102 -296h49v559h-53v-294l11 -152l-43 146zM46 564h58l2 -8l46 -45l76 -226v279h63v-6l47 -47v-563h-53l-47 47h-5l-77 223v-270h-57l-47 47h-6v569zM267 585h-90l-23 23h-4l-82 87h62l44 -40l42 40h62l-5 -5l48 -48zM194 613
l73 77h-50l-44 -41l-45 41h-49l72 -77h43z" />
    <glyph glyph-name="napostrophe" unicode="&#x149;" horiz-adv-x="343" 
d="M100 559h-49v-559h53v293l-9 145l40 -142l102 -296h49v559h-53v-294l11 -152l-43 146zM46 564h58l2 -8l46 -45l76 -226v279h63v-6l47 -47v-563h-53l-47 47h-5l-77 223v-270h-57l-47 47h-6v569z" />
    <glyph glyph-name="Eng" unicode="&#x14a;" horiz-adv-x="416" 
d="M348 700h-52v-434l8 -145l-40 139l-150 440h-50v-700h53v421l-8 152l43 -146l147 -427v-40q0 -38 -15 -52t-50 -11v-45q114 -16 114 108v740zM291 705h62v-6l47 -47v-742q0 -128 -118 -110l-46 46q-3 1 -7 1v55q35 -3 50 10t15 48v38l-125 363v-413h-57l-47 47h-6v710h59
l2 -8l46 -45l125 -368v421z" />
    <glyph glyph-name="eng" unicode="&#x14b;" horiz-adv-x="343" 
d="M104 559h-49v-559h53v293l-9 145l40 -142l102 -296v-40q0 -37 -15 -52t-49 -12v-42q113 -16 113 106v599h-53v-294l11 -152l-43 146zM50 564h58l2 -8l46 -45l76 -226v279h63v-6l47 -47v-601q0 -61 -27.5 -89t-89.5 -19l-46 46q-3 1 -7 1v52q34 -3 49 10.5t15 48.5v38
l-76 220v-270h-57l-47 47h-6v569z" />
    <glyph glyph-name="Omacron" unicode="&#x14c;" horiz-adv-x="386" 
d="M193 659q40 0 61 -29t21 -70v-421q0 -42 -21.5 -70t-60.5 -28q-42 0 -64 28t-22 69v423q0 43 22 70.5t64 27.5zM193 -7q63 0 98 43t35 103v421q0 61 -36 103.5t-97 42.5q-66 0 -102.5 -42.5t-36.5 -102.5v-423q0 -61 38 -103t101 -42zM144 -20l-29 29q-66 41 -66 129v423
q0 62 38 106t106 44q74 0 112 -60l31 -30q42 -44 42 -111v-421q0 -61 -35.5 -104.5t-99.5 -43.5q-60 0 -99 39zM159 88q0 -22 4 -37q15 -5 30 -5q37 0 57 26.5t20 66.5v421q0 23 -8 45q-12 2 -19 2q-41 0 -62.5 -27t-21.5 -69v-423zM125 793v-40h136v40h-136zM313 713h-152
l-35 35h-6v50h146v-6l47 -47v-32z" />
    <glyph glyph-name="omacron" unicode="&#x14d;" horiz-adv-x="319" 
d="M157 517q29 0 44 -21t15 -51v-330q0 -32 -15 -52t-44 -20t-45 20.5t-16 50.5v331q0 32 15.5 52t45.5 20zM157 -6q53 0 82 35.5t29 85.5v330q0 50 -30.5 84.5t-80.5 34.5q-54 0 -84 -34.5t-30 -84.5v-331q0 -51 31 -85.5t83 -34.5zM126 -26l-31 31q-57 32 -57 109v331
q0 52 31.5 88t87.5 36q63 0 97 -53l31 -31q35 -35 35 -90v-330q0 -51 -30 -87t-83 -36q-49 0 -81 32zM148 64v-16h9q27 0 40.5 18.5t13.5 48.5v330q0 6 -2 20h-2q-29 0 -44 -19.5t-15 -50.5v-331zM91 679v-40h136v40h-136zM279 599h-152l-35 35h-6v50h146v-6l47 -47v-32z
" />
    <glyph glyph-name="Obreve" unicode="&#x14e;" horiz-adv-x="386" 
d="M193 659q40 0 61 -29t21 -70v-421q0 -42 -21.5 -70t-60.5 -28q-42 0 -64 28t-22 69v423q0 43 22 70.5t64 27.5zM193 -7q63 0 98 43t35 103v421q0 61 -36 103.5t-97 42.5q-66 0 -102.5 -42.5t-36.5 -102.5v-423q0 -61 38 -103t101 -42zM144 -20l-29 29q-66 41 -66 129v423
q0 62 38 106t106 44q74 0 112 -60l31 -30q42 -44 42 -111v-421q0 -61 -35.5 -104.5t-99.5 -43.5q-60 0 -99 39zM159 88q0 -22 4 -37q15 -5 30 -5q37 0 57 26.5t20 66.5v421q0 23 -8 45q-12 2 -19 2q-41 0 -62.5 -27t-21.5 -69v-423zM201 788h-15q-17 0 -25.5 10t-8.5 24h-42
q0 -35 20.5 -54.5t54.5 -19.5h17q34 0 54 19.5t20 54.5h-42q0 -34 -33 -34zM201 793q28 0 28 34h52v-6l35 -37q0 -37 -20.5 -57.5t-55.5 -20.5h-17q-33 0 -56 21l-24 26q-38 21 -38 74h52v-6l28 -28h1h15z" />
    <glyph glyph-name="obreve" unicode="&#x14f;" horiz-adv-x="319" 
d="M157 517q29 0 44 -21t15 -51v-330q0 -32 -15 -52t-44 -20t-45 20.5t-16 50.5v331q0 32 15.5 52t45.5 20zM157 -6q53 0 82 35.5t29 85.5v330q0 50 -30.5 84.5t-80.5 34.5q-54 0 -84 -34.5t-30 -84.5v-331q0 -51 31 -85.5t83 -34.5zM126 -26l-31 31q-57 32 -57 109v331
q0 52 31.5 88t87.5 36q63 0 97 -53l31 -31q35 -35 35 -90v-330q0 -51 -30 -87t-83 -36q-49 0 -81 32zM148 64v-16h9q27 0 40.5 18.5t13.5 48.5v330q0 6 -2 20h-2q-29 0 -44 -19.5t-15 -50.5v-331zM166 659h-15q-17 0 -25.5 10t-8.5 24h-42q0 -35 20.5 -54.5t54.5 -19.5h17
q34 0 54 19.5t20 54.5h-42q0 -34 -33 -34zM166 664q28 0 28 34h52v-6l35 -37q0 -37 -20.5 -57.5t-55.5 -20.5h-17q-33 0 -56 21l-24 26q-38 21 -38 74h52v-6l28 -28h1h15z" />
    <glyph glyph-name="Ohungarumlaut" unicode="&#x150;" horiz-adv-x="386" 
d="M193 659q40 0 61 -29t21 -70v-421q0 -42 -21.5 -70t-60.5 -28q-42 0 -64 28t-22 69v423q0 43 22 70.5t64 27.5zM193 -7q63 0 98 43t35 103v421q0 61 -36 103.5t-97 42.5q-66 0 -102.5 -42.5t-36.5 -102.5v-423q0 -61 38 -103t101 -42zM144 -20l-29 29q-66 41 -66 129v423
q0 62 38 106t106 44q74 0 112 -60l31 -30q42 -44 42 -111v-421q0 -61 -35.5 -104.5t-99.5 -43.5q-60 0 -99 39zM159 88q0 -22 4 -37q15 -5 30 -5q37 0 57 26.5t20 66.5v421q0 23 -8 45q-12 2 -19 2q-41 0 -62.5 -27t-21.5 -69v-423zM344 787l-45 -80h-54l-13 13l-8 -13h-66
l-36 36h-8l42 89h66l-4 -6l15 -14l9 20h67l-4 -6zM252 748l47 79h-53l-37 -79h43zM212 827l-45 -79h-45l38 79h52z" />
    <glyph glyph-name="ohungarumlaut" unicode="&#x151;" horiz-adv-x="319" 
d="M157 517q29 0 44 -21t15 -51v-330q0 -32 -15 -52t-44 -20t-45 20.5t-16 50.5v331q0 32 15.5 52t45.5 20zM157 -6q53 0 82 35.5t29 85.5v330q0 50 -30.5 84.5t-80.5 34.5q-54 0 -84 -34.5t-30 -84.5v-331q0 -51 31 -85.5t83 -34.5zM126 -26l-31 31q-57 32 -57 109v331
q0 52 31.5 88t87.5 36q63 0 97 -53l31 -31q35 -35 35 -90v-330q0 -51 -30 -87t-83 -36q-49 0 -81 32zM148 64v-16h9q27 0 40.5 18.5t13.5 48.5v330q0 6 -2 20h-2q-29 0 -44 -19.5t-15 -50.5v-331zM293 656l-41 -81h-50l-12 14l-8 -14h-61l-33 37h-8l39 90h61l-3 -6l14 -14
l8 20h62l-4 -6zM208 617l44 80h-49l-35 -80h40zM129 617l42 80h-48l-35 -80h41z" />
    <glyph glyph-name="OE" unicode="&#x152;" horiz-adv-x="457" 
d="M201 41h-7q-42 0 -64 28t-22 69v423q0 43 22 71t64 28q14 0 25 -3v-614q-6 -2 -18 -2zM271 654h145v46h-180q-18 6 -42 6q-66 0 -102.5 -42.5t-36.5 -102.5v-423q0 -61 37.5 -102.5t101.5 -41.5q24 0 42 6h180v47h-145v140h116v46h-116v421zM144 -19l-30 29
q-64 40 -64 128v423q0 62 38 106t106 44q26 0 44 -6h183v-6l47 -47v-50h-145v-364h69v-6l47 -47v-50h-116v-83h98v-6l47 -47v-51h-181q-18 -6 -43 -6q-61 0 -100 39zM194 46h11q5 0 9 1v556q-54 -19 -54 -92v-423q0 -22 4 -37q15 -5 30 -5z" />
    <glyph glyph-name="oe" unicode="&#x153;" horiz-adv-x="373" 
d="M96 114v331q0 73 63 73q11 0 19 -2v-473q-36 -7 -59 10.5t-23 60.5zM226 513h108v46h-136q-17 5 -39 5q-114 0 -114 -119v-331q0 -73 44.5 -100.5t108.5 -13.5h136v48h-108v99h86v46h-86v320zM125 -27l-33 33q-52 30 -52 108v331q0 124 119 124q24 0 41 -5h139v-6l47 -47
v-50h-108v-263h39v-6l47 -47v-50h-86v-42h61v-6l47 -47v-52h-138q-22 -5 -41 -5q-52 0 -82 30zM148 64v-19q13 -2 25 1v411q-25 -15 -25 -62v-331z" />
    <glyph glyph-name="Racute" unicode="&#x154;" horiz-adv-x="384" 
d="M115 230v423h74q41 0 62.5 -25.5t21.5 -69.5v-233q0 -43 -27 -69t-57 -26h-74zM328 0v123q0 69 -61 92q27 17 42 48t15 62v233q1 72 -36 106.5t-99 35.5h-127v-700h53v183h99q29 0 45.5 -16.5t16.5 -43.5v-123h52zM110 -52l-47 47h-6v710h132q85 -2 119 -58l32 -31
q37 -37 36 -108v-233q0 -64 -49 -105l21 -22l-3 3l6 -5q29 -29 29 -73v-125h-56l-47 47h-6v128q0 5 -1 8h-6h-97v-183h-57zM167 601v-366h22q29 0 54 24.5t25 65.5v233q0 23 -6 41q-14 2 -23 2h-72zM251 710h-66l-36 36h-8l43 96h70l-4 -6l48 -47zM193 751l51 86h-56
l-39 -86h44z" />
    <glyph glyph-name="racute" unicode="&#x155;" horiz-adv-x="317" 
d="M103 190v322h52q27 0 43.5 -18.5t16.5 -50.5v-183q0 -31 -19 -50.5t-41 -19.5h-52zM270 0v102q0 50 -42 72q38 25 38 86v183q0 59 -33 87.5t-78 28.5h-106v-559h54v143h72q20 0 31 -11.5t11 -29.5v-102h53zM97 -52l-47 47h-6v569h111q68 0 99 -52l32 -32q32 -32 32 -87
v-183q0 -58 -33 -84l15 -15q22 -22 22 -59v-104h-57l-47 47h-6v96h-57v-143h-58zM155 460v-265q20 0 37.5 18t17.5 47v183q0 5 -2 17h-53zM220 569h-66l-36 36h-8l43 96h70l-4 -6l48 -47zM162 610l51 86h-56l-39 -86h44z" />
    <glyph glyph-name="uni0156" unicode="&#x156;" horiz-adv-x="384" 
d="M115 230v423h74q41 0 62.5 -25.5t21.5 -69.5v-233q0 -43 -27 -69t-57 -26h-74zM328 0v123q0 69 -61 92q27 17 42 48t15 62v233q1 72 -36 106.5t-99 35.5h-127v-700h53v183h99q29 0 45.5 -16.5t16.5 -43.5v-123h52zM110 -52l-47 47h-6v710h132q85 -2 119 -58l32 -31
q37 -37 36 -108v-233q0 -64 -49 -105l21 -22l-3 3l6 -5q29 -29 29 -73v-125h-56l-47 47h-6v128q0 5 -1 8h-6h-97v-183h-57zM167 601v-366h22q29 0 54 24.5t25 65.5v233q0 23 -6 41q-14 2 -23 2h-72zM190 -168h39l13 62v71h-52v-133zM240 -212l-49 40h-7v141h63v-5l49 -41
v-71l-13 -64h-43z" />
    <glyph glyph-name="uni0157" unicode="&#x157;" horiz-adv-x="317" 
d="M103 190v322h52q27 0 43.5 -18.5t16.5 -50.5v-183q0 -31 -19 -50.5t-41 -19.5h-52zM270 0v102q0 50 -42 72q38 25 38 86v183q0 59 -33 87.5t-78 28.5h-106v-559h54v143h72q20 0 31 -11.5t11 -29.5v-102h53zM97 -52l-47 47h-6v569h111q68 0 99 -52l32 -32q32 -32 32 -87
v-183q0 -58 -33 -84l15 -15q22 -22 22 -59v-104h-57l-47 47h-6v96h-57v-143h-58zM155 460v-265q20 0 37.5 18t17.5 47v183q0 5 -2 17h-53zM160 -163h35l12 62v70h-47v-132zM205 -207l-44 40h-6v140h56v-5l44 -40v-71l-11 -64h-39z" />
    <glyph glyph-name="Rcaron" unicode="&#x158;" horiz-adv-x="384" 
d="M115 230v423h74q41 0 62.5 -25.5t21.5 -69.5v-233q0 -43 -27 -69t-57 -26h-74zM328 0v123q0 69 -61 92q27 17 42 48t15 62v233q1 72 -36 106.5t-99 35.5h-127v-700h53v183h99q29 0 45.5 -16.5t16.5 -43.5v-123h52zM110 -52l-47 47h-6v710h132q85 -2 119 -58l32 -31
q37 -37 36 -108v-233q0 -64 -49 -105l21 -22l-3 3l6 -5q29 -29 29 -73v-125h-56l-47 47h-6v128q0 5 -1 8h-6h-97v-183h-57zM167 601v-366h22q29 0 54 24.5t25 65.5v233q0 23 -6 41q-14 2 -23 2h-72zM280 721h-90l-23 23h-4l-82 87h62l44 -40l42 40h62l-5 -5l48 -48zM207 749
l73 77h-50l-44 -41l-45 41h-49l72 -77h43z" />
    <glyph glyph-name="rcaron" unicode="&#x159;" horiz-adv-x="317" 
d="M103 190v322h52q27 0 43.5 -18.5t16.5 -50.5v-183q0 -31 -19 -50.5t-41 -19.5h-52zM270 0v102q0 50 -42 72q38 25 38 86v183q0 59 -33 87.5t-78 28.5h-106v-559h54v143h72q20 0 31 -11.5t11 -29.5v-102h53zM97 -52l-47 47h-6v569h111q68 0 99 -52l32 -32q32 -32 32 -87
v-183q0 -58 -33 -84l15 -15q22 -22 22 -59v-104h-57l-47 47h-6v96h-57v-143h-58zM155 460v-265q20 0 37.5 18t17.5 47v183q0 5 -2 17h-53zM242 584h-87l-23 24h-4l-79 90h60l43 -41l41 41h60l-5 -5l46 -50zM171 613l71 80h-49l-42 -43l-44 43h-48l70 -80h42z" />
    <glyph glyph-name="Sacute" unicode="&#x15a;" horiz-adv-x="378" 
d="M191 -8q65 0 99.5 41.5t34.5 104.5v51q0 12 -1.5 22t-7.5 20t-9.5 16.5t-14.5 15.5t-15 13.5t-19.5 14t-19.5 12t-23 13t-23 12.5q-25 14 -40.5 25t-29.5 29.5t-15 40.5v138q0 47 20 71.5t55 24.5q38 0 55.5 -26.5t17.5 -68.5v-90h51v91q0 62 -33 102t-91 40
q-63 0 -95.5 -40t-32.5 -104v-140q3 -35 24.5 -64t39 -41t57.5 -34q2 -2 3.5 -2.5t3 -1.5t3.5 -2q4 -2 15.5 -8.5t15.5 -9t13.5 -8t13 -8.5t10 -9t9.5 -10.5t6.5 -10.5t4.5 -12.5t1 -14.5v-47q0 -43 -21.5 -71t-61.5 -28q-43 0 -66 29.5t-21 71.5v68h-52v-68q-1 -66 38 -107
t101 -41zM159 373q0 -14 4 -23q20 -12 31 -17l18 -10h-1q82 -45 105 -83l28 -27q33 -33 33 -74v-51q0 -63 -35 -105.5t-101 -42.5q-61 0 -100 39l-30 30q-66 41 -64 131v73h62v-6l47 -47v-70q-2 -23 4 -41q15 -5 31 -5q37 0 57.5 26.5t20.5 67.5v47q0 12 -4 21l-18 11l-13 7
l-10 6q-63 36 -82 56l-24 24q-64 44 -69 111v140q0 66 34 107.5t99 41.5q70 0 106 -57l30 -30q40 -40 40 -110v-93h-55l-47 47h-6v95q0 23 -6 41q-8 2 -12 2q-34 0 -53.5 -23.5t-19.5 -70.5v-138zM257 708h-66l-36 36h-8l43 96h70l-4 -6l48 -47zM199 749l51 86h-56l-39 -86
h44z" />
    <glyph glyph-name="sacute" unicode="&#x15b;" horiz-adv-x="312" 
d="M155 -6q54 0 83 34t29 86v45q0 19 -7 34.5t-25 30.5t-29 22t-37 22q-38 23 -55.5 39t-18.5 36v102q0 35 15 52.5t39 17.5q53 0 53 -69v-76h50v77q0 52 -27.5 84t-75.5 32q-53 0 -80.5 -32.5t-27.5 -85.5v-104q0 -26 17 -48.5t36 -36t59 -36.5q24 -14 34 -21t19.5 -18.5
t9.5 -24.5v-42q0 -32 -15.5 -52.5t-45.5 -20.5t-46.5 21.5t-14.5 52.5v58h-53v-58q-1 -54 31.5 -87.5t82.5 -33.5zM147 293v-4q11 -8 25 -16q2 -1 12 -7.5t13 -8.5l12 -8t13 -9t11 -8.5t11 -10t9 -10.5t8 -12l30 -29q28 -28 28 -61v-45q0 -53 -29.5 -87.5t-84.5 -34.5
q-50 0 -82 32l-33 32q-55 34 -54 109v63h63v-6l47 -47v-60q-1 -10 0 -19h9q27 0 41.5 19t14.5 49v42q0 1 -2 7l-7 5q-57 33 -81 57l-23 22q-62 46 -62 94v104q0 55 29 89t84 34q62 0 91 -50l31 -31q33 -33 33 -90v-79h-54l-47 47h-6v81q0 11 -1 17q-49 -3 -49 -68v-102z
M223 564h-66l-36 36h-8l43 96h70l-4 -6l48 -47zM165 605l51 86h-56l-39 -86h44z" />
    <glyph glyph-name="Scircumflex" unicode="&#x15c;" horiz-adv-x="378" 
d="M191 -8q65 0 99.5 41.5t34.5 104.5v51q0 12 -1.5 22t-7.5 20t-9.5 16.5t-14.5 15.5t-15 13.5t-19.5 14t-19.5 12t-23 13t-23 12.5q-25 14 -40.5 25t-29.5 29.5t-15 40.5v138q0 47 20 71.5t55 24.5q38 0 55.5 -26.5t17.5 -68.5v-90h51v91q0 62 -33 102t-91 40
q-63 0 -95.5 -40t-32.5 -104v-140q3 -35 24.5 -64t39 -41t57.5 -34q2 -2 3.5 -2.5t3 -1.5t3.5 -2q4 -2 15.5 -8.5t15.5 -9t13.5 -8t13 -8.5t10 -9t9.5 -10.5t6.5 -10.5t4.5 -12.5t1 -14.5v-47q0 -43 -21.5 -71t-61.5 -28q-43 0 -66 29.5t-21 71.5v68h-52v-68q-1 -66 38 -107
t101 -41zM159 373q0 -14 4 -23q20 -12 31 -17l18 -10h-1q82 -45 105 -83l28 -27q33 -33 33 -74v-51q0 -63 -35 -105.5t-101 -42.5q-61 0 -100 39l-30 30q-66 41 -64 131v73h62v-6l47 -47v-70q-2 -23 4 -41q15 -5 31 -5q37 0 57.5 26.5t20.5 67.5v47q0 12 -4 21l-18 11l-13 7
l-10 6q-63 36 -82 56l-24 24q-64 44 -69 111v140q0 66 34 107.5t99 41.5q70 0 106 -57l30 -30q40 -40 40 -110v-93h-55l-47 47h-6v95q0 23 -6 41q-8 2 -12 2q-34 0 -53.5 -23.5t-19.5 -70.5v-138zM318 711h-58l-27 24l-26 -25h-87l-30 30h-10l83 87h45zM164 822l-73 -77h50
l44 41l45 -41h49l-72 77h-43z" />
    <glyph glyph-name="scircumflex" unicode="&#x15d;" horiz-adv-x="312" 
d="M155 -6q54 0 83 34t29 86v45q0 19 -7 34.5t-25 30.5t-29 22t-37 22q-38 23 -55.5 39t-18.5 36v102q0 35 15 52.5t39 17.5q53 0 53 -69v-76h50v77q0 52 -27.5 84t-75.5 32q-53 0 -80.5 -32.5t-27.5 -85.5v-104q0 -26 17 -48.5t36 -36t59 -36.5q24 -14 34 -21t19.5 -18.5
t9.5 -24.5v-42q0 -32 -15.5 -52.5t-45.5 -20.5t-46.5 21.5t-14.5 52.5v58h-53v-58q-1 -54 31.5 -87.5t82.5 -33.5zM147 293v-4q11 -8 25 -16q2 -1 12 -7.5t13 -8.5l12 -8t13 -9t11 -8.5t11 -10t9 -10.5t8 -12l30 -29q28 -28 28 -61v-45q0 -53 -29.5 -87.5t-84.5 -34.5
q-50 0 -82 32l-33 32q-55 34 -54 109v63h63v-6l47 -47v-60q-1 -10 0 -19h9q27 0 41.5 19t14.5 49v42q0 1 -2 7l-7 5q-57 33 -81 57l-23 22q-62 46 -62 94v104q0 55 29 89t84 34q62 0 91 -50l31 -31q33 -33 33 -90v-79h-54l-47 47h-6v81q0 11 -1 17q-49 -3 -49 -68v-102z
M275 581h-53l-25 24l-24 -25h-81l-28 30h-9l77 88h42zM133 693l-68 -78h47l40 42l42 -42h45l-66 78h-40z" />
    <glyph glyph-name="Scedilla" unicode="&#x15e;" horiz-adv-x="378" 
d="M159 -99h-38q3 -53 57 -53h20q37 0 53 27t1.5 54t-51.5 27l10 37q55 6 84.5 47t29.5 98v51q0 12 -1.5 22t-7.5 20t-9.5 16.5t-14.5 15.5t-15 13.5t-19.5 14t-19.5 12t-23 13t-23 12.5q-25 14 -40.5 25t-29.5 29.5t-15 40.5v138q0 47 20 71.5t55 24.5q38 0 55.5 -26.5
t17.5 -68.5v-90h51v91q0 62 -33 102t-91 40q-63 0 -95.5 -40t-32.5 -104v-140q3 -35 24.5 -64t39 -41t57.5 -34q2 -2 3.5 -2.5t3 -1.5t3.5 -2q4 -2 15.5 -8.5t15.5 -9t13.5 -8t13 -8.5t10 -9t9.5 -10.5t6.5 -10.5t4.5 -12.5t1 -14.5v-47q0 -43 -21.5 -71t-61.5 -28
q-43 0 -66 29.5t-21 71.5v68h-52v-68q-1 -62 33 -102t90 -45l-19 -69h41q19 0 19 -20.5t-19 -20.5h-19q-18 0 -19 18zM116 -94h48q0 -5 1 -7l11 -11h2h9l-31 31h-7l11 43q-7 4 -19 16l-34 34q-62 42 -60 128v73h62v-6l47 -47v-70q-2 -23 4 -41q15 -5 31 -5q37 0 57.5 26.5
t20.5 67.5v47q0 12 -4 21l-18 11l-13 7l-10 6q-63 36 -82 56l-24 24q-64 44 -69 111v140q0 66 34 107.5t99 41.5q70 0 106 -57l30 -30q40 -40 40 -110v-93h-55l-47 47h-6v95q0 23 -6 41q-8 2 -12 2q-34 0 -53.5 -23.5t-19.5 -70.5v-138q0 -14 4 -23q20 -12 31 -17l18 -10h-1
q82 -45 105 -83l23 -22l5 -5q33 -33 33 -74v-51q0 -58 -29.5 -99t-84.5 -48l-4 -13l36 -36q15 -15 15 -38t-16.5 -40.5t-45.5 -17.5h-20q-28 0 -43 15l-39 39q-29 13 -30 56z" />
    <glyph glyph-name="scedilla" unicode="&#x15f;" horiz-adv-x="320" 
d="M132 -91h-37q3 -51 56 -51h19q37 0 53 26t1.5 52t-50.5 26l9 34q43 7 65.5 39.5t22.5 78.5v45q0 19 -7 34.5t-25 30.5t-29 22t-37 22q-38 23 -55.5 39t-18.5 36v102q0 35 15 52.5t39 17.5q53 0 53 -69v-76h50v77q0 52 -27.5 84t-75.5 32q-53 0 -80.5 -32.5t-27.5 -85.5
v-104q0 -26 17 -48.5t36 -36t59 -36.5q24 -14 34 -21t19.5 -18.5t9.5 -24.5v-42q0 -32 -15.5 -52.5t-45.5 -20.5t-46.5 21.5t-14.5 52.5v58h-53v-58q-1 -51 27.5 -83.5t74.5 -36.5l-18 -64h40q13 0 18 -10t-0.5 -20t-17.5 -10h-18q-17 0 -19 18zM90 -86h47q0 -5 1 -7l10 -11
h3h8l-30 30h-7l12 42l-7 6l-31 30q-58 34 -56 111v63h63v-6l47 -47v-60q-1 -10 0 -19h9q27 0 41.5 19t14.5 49v42q0 1 -2 7l-7 5q-57 33 -81 57l-23 22q-62 46 -62 94v104q0 55 29 89t84 34q62 0 91 -50l31 -31q33 -33 33 -90v-79h-54l-47 47h-6v81q0 11 -1 17
q-49 -3 -49 -68v-106q11 -8 25 -16q2 -1 12 -7.5t13 -8.5l12 -8t13 -9t11 -8.5t11 -10t9 -10.5t8 -12l30 -29q28 -28 28 -61v-45q0 -46 -22.5 -79.5t-65.5 -40.5l-3 -9l36 -36q14 -14 14 -37t-16.5 -39.5t-45.5 -16.5h-19q-28 0 -43 14l-40 40q-27 13 -28 54z" />
    <glyph glyph-name="Scaron" unicode="&#x160;" horiz-adv-x="378" 
d="M191 -8q65 0 99.5 41.5t34.5 104.5v51q0 12 -1.5 22t-7.5 20t-9.5 16.5t-14.5 15.5t-15 13.5t-19.5 14t-19.5 12t-23 13t-23 12.5q-25 14 -40.5 25t-29.5 29.5t-15 40.5v138q0 47 20 71.5t55 24.5q38 0 55.5 -26.5t17.5 -68.5v-90h51v91q0 62 -33 102t-91 40
q-63 0 -95.5 -40t-32.5 -104v-140q3 -35 24.5 -64t39 -41t57.5 -34q2 -2 3.5 -2.5t3 -1.5t3.5 -2q4 -2 15.5 -8.5t15.5 -9t13.5 -8t13 -8.5t10 -9t9.5 -10.5t6.5 -10.5t4.5 -12.5t1 -14.5v-47q0 -43 -21.5 -71t-61.5 -28q-43 0 -66 29.5t-21 71.5v68h-52v-68q-1 -66 38 -107
t101 -41zM159 373q0 -14 4 -23q20 -12 31 -17l18 -10h-1q82 -45 105 -83l28 -27q33 -33 33 -74v-51q0 -63 -35 -105.5t-101 -42.5q-61 0 -100 39l-30 30q-66 41 -64 131v73h62v-6l47 -47v-70q-2 -23 4 -41q15 -5 31 -5q37 0 57.5 26.5t20.5 67.5v47q0 12 -4 21l-18 11l-13 7
l-10 6q-63 36 -82 56l-24 24q-64 44 -69 111v140q0 66 34 107.5t99 41.5q70 0 106 -57l30 -30q40 -40 40 -110v-93h-55l-47 47h-6v95q0 23 -6 41q-8 2 -12 2q-34 0 -53.5 -23.5t-19.5 -70.5v-138zM281 723h-90l-23 23h-4l-82 87h62l44 -40l42 40h62l-5 -5l48 -48zM208 751
l73 77h-50l-44 -41l-45 41h-49l72 -77h43z" />
    <glyph glyph-name="scaron" unicode="&#x161;" horiz-adv-x="312" 
d="M155 -6q54 0 83 34t29 86v45q0 19 -7 34.5t-25 30.5t-29 22t-37 22q-38 23 -55.5 39t-18.5 36v102q0 35 15 52.5t39 17.5q53 0 53 -69v-76h50v77q0 52 -27.5 84t-75.5 32q-53 0 -80.5 -32.5t-27.5 -85.5v-104q0 -26 17 -48.5t36 -36t59 -36.5q24 -14 34 -21t19.5 -18.5
t9.5 -24.5v-42q0 -32 -15.5 -52.5t-45.5 -20.5t-46.5 21.5t-14.5 52.5v58h-53v-58q-1 -54 31.5 -87.5t82.5 -33.5zM147 293v-4q11 -8 25 -16q2 -1 12 -7.5t13 -8.5l12 -8t13 -9t11 -8.5t11 -10t9 -10.5t8 -12l30 -29q28 -28 28 -61v-45q0 -53 -29.5 -87.5t-84.5 -34.5
q-50 0 -82 32l-33 32q-55 34 -54 109v63h63v-6l47 -47v-60q-1 -10 0 -19h9q27 0 41.5 19t14.5 49v42q0 1 -2 7l-7 5q-57 33 -81 57l-23 22q-62 46 -62 94v104q0 55 29 89t84 34q62 0 91 -50l31 -31q33 -33 33 -90v-79h-54l-47 47h-6v81q0 11 -1 17q-49 -3 -49 -68v-102z
M246 589h-90l-23 23h-4l-82 87h62l44 -40l42 40h62l-5 -5l48 -48zM173 617l73 77h-50l-44 -41l-45 41h-49l72 -77h43z" />
    <glyph glyph-name="uni0162" unicode="&#x162;" horiz-adv-x="304" 
d="M271 654v46h-246v-46h98v-654h4l-17 -60h42q13 0 18 -11t-0.5 -21.5t-17.5 -10.5h-19q-19 0 -20 19h-38q3 -55 58 -55h20q38 0 54.5 28t2 56t-52.5 28l7 27h10v654h97zM276 705v-6l47 -47v-50h-97v-654h-10q-1 -1 -1 -4l36 -36q16 -18 16 -39q0 -24 -17 -42t-47 -18h-20
q-29 0 -44 15l-40 40q-28 15 -29 57h48q0 -5 1 -7l12 -12h2h10l-33 33h-7l15 64v603h-45l-47 47h-6v56h256z" />
    <glyph glyph-name="uni0163" unicode="&#x163;" horiz-adv-x="261" 
d="M94 -78h-34q1 -53 52 -53h19q35 0 50 27t1.5 54t-48.5 27l6 23h12v513h76v46h-203v-46h77v-513h4l-14 -55h38q19 0 18.5 -20.5t-18.5 -20.5h-18q-17 0 -18 18zM55 -73h44q0 -5 1 -7l11 -11h1h12l-31 31h-7l14 55h-3v466h-24l-47 47h-6v56h213v-6l47 -47v-50h-76v-513h-13
l34 -34q15 -15 15 -39q0 -23 -15.5 -40.5t-43.5 -17.5h-19q-25 0 -39 14l-38 38q-30 13 -30 58zM225 -86l-4 4z" />
    <glyph glyph-name="Tcaron" unicode="&#x164;" horiz-adv-x="304" 
d="M271 654v46h-246v-46h98v-654h51v654h97zM276 705v-6l47 -47v-50h-97v-654h-55l-47 47h-6v607h-45l-47 47h-6v56h256zM242 719h-90l-23 23h-4l-82 87h62l44 -40l42 40h62l-5 -5l48 -48zM169 747l73 77h-50l-44 -41l-45 41h-49l72 -77h43z" />
    <glyph glyph-name="tcaron" unicode="&#x165;" horiz-adv-x="253" 
d="M224 513v46h-203v-46h77v-513h50v513h76zM229 564v-6l47 -47v-50h-76v-513h-54l-47 47h-6v466h-24l-47 47h-6v56h213zM225 591h-90l-23 23h-4l-82 87h62l44 -40l42 40h62l-5 -5l48 -48zM152 619l73 77h-50l-44 -41l-45 41h-49l72 -77h43z" />
    <glyph glyph-name="Tbar" unicode="&#x166;" horiz-adv-x="304" 
d="M271 654v46h-246v-46h98v-426h-57v-33h57v-195h51v195h60v33h-60v426h97zM276 705v-6l47 -47v-50h-97v-369h13v-6l47 -47v-37h-60v-195h-55l-47 47h-6v148h-4l-47 47h-6v43h57v369h-45l-47 47h-6v56h256z" />
    <glyph glyph-name="tbar" unicode="&#x167;" horiz-adv-x="253" 
d="M224 513v46h-203v-46h77v-287h-52v-32h52v-194h50v194h55v32h-55v287h76zM229 564v-6l47 -47v-50h-76v-230h8v-6l47 -47v-36h-55v-194h-54l-47 47h-6v148l-46 46h-6v42h52v230h-24l-47 47h-6v56h213z" />
    <glyph glyph-name="Utilde" unicode="&#x168;" horiz-adv-x="399" 
d="M332 139v561h-51v-561q0 -44 -20.5 -72t-64.5 -28q-41 0 -62 29.5t-21 71.5v560h-53v-560q0 -63 37.5 -105.5t98.5 -42.5q65 0 100.5 43.5t35.5 103.5zM337 705v-6l47 -47v-563q0 -61 -36 -105t-102 -44q-57 0 -95 38l-30 29q-66 42 -66 133v565h63v-6l47 -47v-562
q0 -27 5 -43q12 -3 26 -3q80 0 80 95v566h61zM196 756q16 -12 38 -9.5t37 20.5v39q-32 -34 -69 -10q-16 12 -38 9.5t-37 -20.5v-39q32 34 69 10zM160 705l-33 35l-5 -5v52q21 24 49 24q18 0 34 -11l-1 1q16 -9 27 -9q22 0 45 25v-10l47 -47v-27q-14 -16 -36 -21t-42 7
q-45 28 -85 -14z" />
    <glyph glyph-name="utilde" unicode="&#x169;" horiz-adv-x="329" 
d="M273 115v444h-52v-444q0 -74 -61 -74q-29 0 -44 21.5t-15 52.5v444h-53v-444q0 -52 30.5 -86.5t81.5 -34.5q54 0 83.5 35.5t29.5 85.5zM278 564v-6l47 -47v-446q0 -51 -30 -87t-85 -36q-50 0 -79 31l-34 33q-54 35 -54 109v449h63v-6l47 -47v-446q0 -13 1 -19h6
q56 0 56 69v449h62zM158 637q16 -12 38 -9.5t37 20.5v39q-32 -34 -69 -10q-16 12 -38 9.5t-37 -20.5v-39q32 34 69 10zM122 586l-33 35l-5 -5v52q21 24 49 24q18 0 34 -11l-1 1q16 -9 27 -9q22 0 45 25v-10l47 -47v-27q-14 -16 -36 -21t-42 7q-45 28 -85 -14z" />
    <glyph glyph-name="Umacron" unicode="&#x16a;" horiz-adv-x="399" 
d="M332 139v561h-51v-561q0 -44 -20.5 -72t-64.5 -28q-41 0 -62 29.5t-21 71.5v560h-53v-560q0 -63 37.5 -105.5t98.5 -42.5q65 0 100.5 43.5t35.5 103.5zM337 705v-6l47 -47v-563q0 -61 -36 -105t-102 -44q-57 0 -95 38l-30 29q-66 42 -66 133v565h63v-6l47 -47v-562
q0 -27 5 -43q12 -3 26 -3q80 0 80 95v566h61zM122 795v-40h136v40h-136zM310 715h-152l-35 35h-6v50h146v-6l47 -47v-32z" />
    <glyph glyph-name="umacron" unicode="&#x16b;" horiz-adv-x="329" 
d="M273 115v444h-52v-444q0 -74 -61 -74q-29 0 -44 21.5t-15 52.5v444h-53v-444q0 -52 30.5 -86.5t81.5 -34.5q54 0 83.5 35.5t29.5 85.5zM278 564v-6l47 -47v-446q0 -51 -30 -87t-85 -36q-50 0 -79 31l-34 33q-54 35 -54 109v449h63v-6l47 -47v-446q0 -13 1 -19h6
q56 0 56 69v449h62zM94 679v-40h136v40h-136zM282 599h-152l-35 35h-6v50h146v-6l47 -47v-32z" />
    <glyph glyph-name="Ubreve" unicode="&#x16c;" horiz-adv-x="399" 
d="M332 139v561h-51v-561q0 -44 -20.5 -72t-64.5 -28q-41 0 -62 29.5t-21 71.5v560h-53v-560q0 -63 37.5 -105.5t98.5 -42.5q65 0 100.5 43.5t35.5 103.5zM337 705v-6l47 -47v-563q0 -61 -36 -105t-102 -44q-57 0 -95 38l-30 29q-66 42 -66 133v565h63v-6l47 -47v-562
q0 -27 5 -43q12 -3 26 -3q80 0 80 95v566h61zM196 786h-15q-17 0 -25.5 10t-8.5 24h-42q0 -35 20.5 -54.5t54.5 -19.5h17q34 0 54 19.5t20 54.5h-42q0 -34 -33 -34zM196 791q28 0 28 34h52v-6l35 -37q0 -37 -20.5 -57.5t-55.5 -20.5h-17q-33 0 -56 21l-24 26q-38 21 -38 74
h52v-6l28 -28h1h15z" />
    <glyph glyph-name="ubreve" unicode="&#x16d;" horiz-adv-x="329" 
d="M273 115v444h-52v-444q0 -74 -61 -74q-29 0 -44 21.5t-15 52.5v444h-53v-444q0 -52 30.5 -86.5t81.5 -34.5q54 0 83.5 35.5t29.5 85.5zM278 564v-6l47 -47v-446q0 -51 -30 -87t-85 -36q-50 0 -79 31l-34 33q-54 35 -54 109v449h63v-6l47 -47v-446q0 -13 1 -19h6
q56 0 56 69v449h62zM165 663h-15q-17 0 -25.5 10t-8.5 24h-42q0 -35 20.5 -54.5t54.5 -19.5h17q34 0 54 19.5t20 54.5h-42q0 -34 -33 -34zM165 668q28 0 28 34h52v-6l35 -37q0 -37 -20.5 -57.5t-55.5 -20.5h-17q-33 0 -56 21l-24 26q-38 21 -38 74h52v-6l28 -28h1h15z" />
    <glyph glyph-name="Uring" unicode="&#x16e;" horiz-adv-x="399" 
d="M332 139v561h-51v-561q0 -44 -20.5 -72t-64.5 -28q-41 0 -62 29.5t-21 71.5v560h-53v-560q0 -63 37.5 -105.5t98.5 -42.5q65 0 100.5 43.5t35.5 103.5zM337 705v-6l47 -47v-563q0 -61 -36 -105t-102 -44q-57 0 -95 38l-30 29q-66 42 -66 133v565h63v-6l47 -47v-562
q0 -27 5 -43q12 -3 26 -3q80 0 80 95v566h61zM258 788q0 28 -19 42.5t-45 14.5t-45 -15t-19 -41t18.5 -41t44.5 -15t45.5 14t19.5 41zM222 788q0 -11 -8.5 -17.5t-19.5 -6.5t-19.5 6.5t-8.5 17.5q0 26 28 26t28 -26zM179 714l-23 22q-31 17 -31 53q0 28 20.5 44.5t48.5 16.5
q47 0 63 -36l20 -19q15 -15 15 -40q0 -28 -20 -42.5t-47 -14.5q-31 0 -46 16z" />
    <glyph glyph-name="uring" unicode="&#x16f;" horiz-adv-x="329" 
d="M273 115v444h-52v-444q0 -74 -61 -74q-29 0 -44 21.5t-15 52.5v444h-53v-444q0 -52 30.5 -86.5t81.5 -34.5q54 0 83.5 35.5t29.5 85.5zM278 564v-6l47 -47v-446q0 -51 -30 -87t-85 -36q-50 0 -79 31l-34 33q-54 35 -54 109v449h63v-6l47 -47v-446q0 -13 1 -19h6
q56 0 56 69v449h62zM226 648q0 28 -19 42.5t-45 14.5t-45 -15t-19 -41t18.5 -41t44.5 -15t45.5 14t19.5 41zM190 648q0 -11 -8.5 -17.5t-19.5 -6.5t-19.5 6.5t-8.5 17.5q0 26 28 26t28 -26zM147 574l-23 22q-31 17 -31 53q0 28 20.5 44.5t48.5 16.5q47 0 63 -36l20 -19
q15 -15 15 -40q0 -28 -20 -42.5t-47 -14.5q-31 0 -46 16z" />
    <glyph glyph-name="Uhungarumlaut" unicode="&#x170;" horiz-adv-x="399" 
d="M332 139v561h-51v-561q0 -44 -20.5 -72t-64.5 -28q-41 0 -62 29.5t-21 71.5v560h-53v-560q0 -63 37.5 -105.5t98.5 -42.5q65 0 100.5 43.5t35.5 103.5zM337 705v-6l47 -47v-563q0 -61 -36 -105t-102 -44q-57 0 -95 38l-30 29q-66 42 -66 133v565h63v-6l47 -47v-562
q0 -27 5 -43q12 -3 26 -3q80 0 80 95v566h61zM342 788l-45 -80h-54l-13 13l-8 -13h-66l-36 36h-8l42 89h66l-4 -6l15 -14l9 20h67l-4 -6zM250 749l47 79h-53l-37 -79h43zM165 749l45 79h-52l-38 -79h45z" />
    <glyph glyph-name="uhungarumlaut" unicode="&#x171;" horiz-adv-x="329" 
d="M273 115v444h-52v-444q0 -74 -61 -74q-29 0 -44 21.5t-15 52.5v444h-53v-444q0 -52 30.5 -86.5t81.5 -34.5q54 0 83.5 35.5t29.5 85.5zM278 564v-6l47 -47v-446q0 -51 -30 -87t-85 -36q-50 0 -79 31l-34 33q-54 35 -54 109v449h63v-6l47 -47v-446q0 -13 1 -19h6
q56 0 56 69v449h62zM301 656l-45 -80h-54l-13 13l-8 -13h-66l-36 36h-8l42 89h66l-4 -6l15 -14l9 20h67l-4 -6zM209 617l47 79h-53l-37 -79h43zM124 617l45 79h-52l-38 -79h45z" />
    <glyph glyph-name="Uogonek" unicode="&#x172;" horiz-adv-x="399" 
d="M302 -90l-20 24q-8 -15 -28 -15q-12 0 -16.5 10t1.5 20l24 59q33 19 51 54.5t18 76.5v561h-51v-561q0 -44 -20.5 -72t-64.5 -28q-41 0 -62 29.5t-21 71.5v560h-53v-560q0 -63 37.5 -105.5t98.5 -42.5q7 0 21 2l-14 -34q-14 -30 0 -53.5t47 -23.5q34 0 52 27zM165 90
q0 -27 5 -43q12 -3 26 -3q80 0 80 95v566h61v-6l47 -47v-563q0 -41 -18 -76.5t-51 -56.5q-5 -10 -15 -36l9 -10l46 -50q-20 -29 -55 -29q-25 0 -41 16l-37 37q-30 13 -30 48q0 12 2 17q-24 10 -43 29l-30 29q-66 42 -66 133v565h63v-6l47 -47v-562z" />
    <glyph glyph-name="uogonek" unicode="&#x173;" horiz-adv-x="337" 
d="M260 -90l-20 24q-8 -15 -28 -15q-12 0 -16.5 10t1.5 20l24 59q56 32 56 107v444h-52v-444q0 -74 -61 -74q-29 0 -44 21.5t-15 52.5v444h-53v-444q0 -52 30.5 -86.5t81.5 -34.5q8 0 12 1l-15 -35q-14 -30 0 -53.5t47 -23.5q34 0 52 27zM157 65q0 -13 1 -19h6q56 0 56 69
v449h62v-6l47 -47v-446q0 -34 -15 -63.5t-41 -45.5q-5 -10 -15 -36l9 -10l46 -50q-20 -29 -55 -29q-25 0 -41 16l-37 37q-30 13 -30 48q0 16 4 25q-10 8 -19 16l-34 33q-54 35 -54 109v449h63v-6l47 -47v-446z" />
    <glyph glyph-name="Wcircumflex" unicode="&#x174;" horiz-adv-x="566" 
d="M403 79h-2l-30 225l-61 397h-52l-60 -398l-26 -223h-3l-25 223l-56 398h-53l100 -701h68l68 462l14 133l16 -133l70 -462h66l98 701h-51l-56 -397zM315 706l1 -7l46 -46l57 -380l4 31l56 402h61l-1 -6l48 -47l-98 -705h-70l-47 47h-6l-53 350l-58 -397h-72l-47 47h-6
l-100 711h63l1 -7l46 -46l51 -367q0 5 2 17l60 403h62zM417 719h-58l-27 24l-26 -25h-87l-30 30h-10l83 87h45zM263 830l-73 -77h50l44 41l45 -41h49l-72 77h-43z" />
    <glyph glyph-name="wcircumflex" unicode="&#x175;" horiz-adv-x="463" 
d="M141 91h-1l-24 205l-35 264h-51l80 -560h59l51 330q6 41 12 129q10 -100 14 -127l50 -332h63l75 560h-53q-6 -44 -14 -102t-13 -96.5t-9 -65.5l-17 -208h-1l-30 205l-38 262h-53l-41 -258zM86 565l1 -7l46 -46l27 -211l41 259h63l1 -7l46 -46l29 -208l19 138q2 20 8 62
l9 66h63l-1 -6l48 -47l-75 -564h-67l-47 47h-6l-31 210l-39 -257h-63l-47 47h-6l-80 570h61zM366 582h-58l-27 24l-26 -25h-87l-30 30h-10l83 87h45zM212 693l-73 -77h50l44 41l45 -41h49l-72 77h-43z" />
    <glyph glyph-name="Ycircumflex" unicode="&#x176;" horiz-adv-x="373" 
d="M346 701h-55q-8 -33 -65 -256l-41 -191l-40 190l-66 257h-53l133 -526v-175h52v175zM286 706h67l-2 -6l48 -47l-136 -528v-177h-56l-47 47h-6v179q-10 43 -33 132t-34 132q-50 194 -68 268h64l1 -7l47 -46l66 -259l6 -30l18 82zM319 715h-58l-27 24l-26 -25h-87l-30 30
h-10l83 87h45zM165 826l-73 -77h50l44 41l45 -41h49l-72 77h-43z" />
    <glyph glyph-name="ycircumflex" unicode="&#x177;" 
d="M285 560h-55l-52 -203l-26 -135l-27 136l-53 202h-51l104 -419v-141h52v141zM226 565h66l-2 -6l48 -47l-109 -422v-142h-56l-47 47h-6v145l-52 210q-12 48 -53 215h60l2 -7l46 -46l46 -175q2 14 4 21zM286 585h-58l-27 24l-26 -25h-87l-30 30h-10l83 87h45zM132 696
l-73 -77h50l44 41l45 -41h49l-72 77h-43z" />
    <glyph glyph-name="Ydieresis" unicode="&#x178;" horiz-adv-x="373" 
d="M346 701h-55q-8 -33 -65 -256l-41 -191l-40 190l-66 257h-53l133 -526v-175h52v175zM286 706h67l-2 -6l48 -47l-136 -528v-177h-56l-47 47h-6v179q-10 43 -33 132t-34 132q-50 194 -68 268h64l1 -7l47 -46l66 -259l6 -30l18 82zM197 757h42v81h-42v-81zM117 757h43v81
h-43v-81zM212 720h-62l-32 32h-6v91h53v-6l27 -27v33h52v-6l47 -47v-70h-60l-19 18v-18z" />
    <glyph glyph-name="Zacute" unicode="&#x179;" horiz-adv-x="323" 
d="M288 662v38h-241v-47h188l-211 -613v-40h262v49h-206zM293 705v-6l47 -47v-41l-189 -557h140v-6l47 -47v-53h-266l-47 47h-6v47l193 559h-117l-47 47h-6v57h251zM243 713h-66l-36 36h-8l43 96h70l-4 -6l48 -47zM185 754l51 86h-56l-39 -86h44z" />
    <glyph glyph-name="zacute" unicode="&#x17a;" horiz-adv-x="268" 
d="M238 523v36h-201v-47h148l-165 -474v-38h215v49h-160zM243 564v-6l47 -47v-39l-144 -418h94v-6l47 -47v-53h-219l-47 47h-6v45l146 420h-76l-47 47h-6v57h211zM211 572h-65l-36 35h-8l43 92h69l-4 -5l48 -46zM154 612l50 82h-55l-39 -82h44z" />
    <glyph glyph-name="Zdotaccent" unicode="&#x17b;" horiz-adv-x="323" 
d="M288 662v38h-241v-47h188l-211 -613v-40h262v49h-206zM293 705v-6l47 -47v-41l-189 -557h140v-6l47 -47v-53h-266l-47 47h-6v47l193 559h-117l-47 47h-6v57h251zM147 751h48v75h-48v-75zM241 714h-61l-32 32h-6v85h58v-6l41 -41v-70z" />
    <glyph glyph-name="zdotaccent" unicode="&#x17c;" horiz-adv-x="268" 
d="M238 523v36h-201v-47h148l-165 -474v-38h215v49h-160zM243 564v-6l47 -47v-39l-144 -418h94v-6l47 -47v-53h-219l-47 47h-6v45l146 420h-76l-47 47h-6v57h211zM120 616h48v75h-48v-75zM214 579h-61l-32 32h-6v85h58v-6l41 -41v-70z" />
    <glyph glyph-name="Zcaron" unicode="&#x17d;" horiz-adv-x="323" 
d="M288 662v38h-241v-47h188l-211 -613v-40h262v49h-206zM293 705v-6l47 -47v-41l-189 -557h140v-6l47 -47v-53h-266l-47 47h-6v47l193 559h-117l-47 47h-6v57h251zM275 719h-90l-23 23h-4l-82 87h62l44 -40l42 40h62l-5 -5l48 -48zM202 747l73 77h-50l-44 -41l-45 41h-49
l72 -77h43z" />
    <glyph glyph-name="zcaron" unicode="&#x17e;" horiz-adv-x="268" 
d="M238 523v36h-201v-47h148l-165 -474v-38h215v49h-160zM243 564v-6l47 -47v-39l-144 -418h94v-6l47 -47v-53h-219l-47 47h-6v45l146 420h-76l-47 47h-6v57h211zM233 588h-86l-22 22h-4l-78 84h59l42 -39l40 39h60l-5 -5l46 -46zM163 615l70 74h-48l-42 -40l-43 40h-47
l69 -74h41z" />
    <glyph glyph-name="longs" unicode="&#x17f;" horiz-adv-x="272" 
d="M103 513h140v46h-194v-559h54v513zM97 -52l-47 47h-6v569h204v-6l47 -47v-50h-140v-513h-58z" />
    <glyph glyph-name="circumflex" unicode="&#x2c6;" horiz-adv-x="205" 
d="M235 590h-58l-27 24l-26 -25h-87l-30 30h-10l83 87h45zM81 701l-73 -77h50l44 41l45 -41h49l-72 77h-43z" />
    <glyph glyph-name="caron" unicode="&#x2c7;" horiz-adv-x="221" 
d="M206 595h-90l-23 23h-4l-82 87h62l44 -40l42 40h62l-5 -5l48 -48zM133 623l73 77h-50l-44 -41l-45 41h-49l72 -77h43z" />
    <glyph glyph-name="breve" unicode="&#x2d8;" horiz-adv-x="197" 
d="M104 666h-15q-17 0 -25.5 10t-8.5 24h-42q0 -35 20.5 -54.5t54.5 -19.5h17q34 0 54 19.5t20 54.5h-42q0 -34 -33 -34zM104 671q28 0 28 34h52v-6l35 -37q0 -37 -20.5 -57.5t-55.5 -20.5h-17q-33 0 -56 21l-24 26q-38 21 -38 74h52v-6l28 -28h1h15z" />
    <glyph glyph-name="dotaccent" unicode="&#x2d9;" horiz-adv-x="139" 
d="M45 622h48v75h-48v-75zM139 585h-61l-32 32h-6v85h58v-6l41 -41v-70z" />
    <glyph glyph-name="ring" unicode="&#x2da;" horiz-adv-x="173" 
d="M150 646q0 28 -19 42.5t-45 14.5t-45 -15t-19 -41t18.5 -41t44.5 -15t45.5 14t19.5 41zM114 646q0 -11 -8.5 -17.5t-19.5 -6.5t-19.5 6.5t-8.5 17.5q0 26 28 26t28 -26zM71 572l-23 22q-31 17 -31 53q0 28 20.5 44.5t48.5 16.5q47 0 63 -36l20 -19q15 -15 15 -40
q0 -28 -20 -42.5t-47 -14.5q-31 0 -46 16z" />
    <glyph glyph-name="ogonek" unicode="&#x2db;" horiz-adv-x="158" 
d="M133 -97l-20 24q-7 -15 -28 -15q-12 0 -16.5 10t1.5 20l25 61h-39l-22 -50q-14 -30 0 -53.5t47 -23.5q34 0 52 27zM90 -160l-37 37q-30 13 -30 48q0 14 6 30q22 50 23 53h51l-3 -6l48 -47l-17 -42l9 -10l22 -22l24 -28q-20 -29 -55 -29q-25 0 -41 16z" />
    <glyph glyph-name="tilde" unicode="&#x2dc;" horiz-adv-x="219" 
d="M111 651q16 -12 38 -9.5t37 20.5v39q-32 -34 -69 -10q-16 12 -38 9.5t-37 -20.5v-39q32 34 69 10zM75 600l-33 35l-5 -5v52q21 24 49 24q18 0 34 -11l-1 1q16 -9 27 -9q22 0 45 25v-10l47 -47v-27q-14 -16 -36 -21t-42 7q-45 28 -85 -14z" />
    <glyph glyph-name="hungarumlaut" unicode="&#x2dd;" horiz-adv-x="213" 
d="M239 660l-45 -80h-54l-13 13l-8 -13h-66l-36 36h-8l42 89h66l-4 -6l15 -14l9 20h67l-4 -6zM147 621l47 79h-53l-37 -79h43zM62 621l45 79h-52l-38 -79h45z" />
    <glyph glyph-name="Euro" unicode="&#x20ac;" horiz-adv-x="317" 
d="M12 287v-33h31v-34h-31v-32h31v-72q0 -52 31.5 -87t83.5 -35q111 0 111 132h-50q0 -83 -61 -83q-29 0 -45.5 21.5t-16.5 51.5v72h90v32h-90v34h90v33h-90v154q0 35 17.5 54.5t44.5 19.5q60 0 60 -81h50q0 61 -30 94.5t-82 33.5q-50 0 -81.5 -35t-31.5 -86v-154h-31z
M7 249v43h31v149q0 53 33 89.5t85 36.5q65 0 95 -50l34 -33q35 -33 35 -102h-54l-47 47h-6q0 19 -3 34h-2q-27 0 -43.5 -18.5t-16.5 -53.5v-99h43v-6l47 -47v-37h-30l30 -30v-36h-90v-70q0 -12 1 -18h9q56 0 56 83h60v-6l47 -47q0 -136 -113 -136q-50 0 -82 32l-33 32
q-55 35 -55 110v42l-25 25h-6v42h30l-24 24h-6z" />
    <glyph glyph-name="CR" horiz-adv-x="500" 
 />
  </font>
</defs>
</svg>
